<?xml version="1.0" encoding="utf-8"?>
<!-- Generator: Adobe Illustrator 19.1.0, SVG Export Plug-In . SVG Version: 6.00 Build 0)  -->
<svg version="1.1" id="Layer_1" xmlns="http://www.w3.org/2000/svg" xmlns:xlink="http://www.w3.org/1999/xlink" x="0px" y="0px"
	 viewBox="0 0 150 180" enable-background="new 0 0 150 180" xml:space="preserve">
<g>
	<g>
		<path fill="#0081C6" d="M120.9,130.8c-0.7-0.3-1.5-0.4-2.3-0.3c-0.1-0.1-0.1-0.2-0.2-0.4c-0.6-0.6-1.8-0.5-2.7,0.3l-0.1,0.1
			c-1.6-1.6-1.8-4.2-0.4-6c0.9-1.2,2.6-1.4,3.8-0.5l0,0c0.1-0.1,0.2-0.2,0.3-0.2c0,0,0,0-0.1-0.1c-1.3-1-3.2-0.8-4.2,0.5
			c-1.6,2-1.3,4.8,0.4,6.5c0,0.1-0.1,0.1-0.1,0.2c-0.3,0.7-0.3,1.9-0.3,1.9s-1.1-0.1-1.8,0.3c-0.1,0-0.2,0.1-0.2,0.1
			c-1.8-1.7-4.6-1.9-6.5-0.3c-1.3,1.1-1.5,3-0.4,4.3c0,0,0,0,0.1,0.1c0.1-0.1,0.2-0.2,0.3-0.3l0,0c-0.9-1.1-0.8-2.8,0.4-3.8
			c1.8-1.5,4.4-1.3,6.1,0.2l-0.1,0.1c-0.8,0.9-0.9,2.1-0.2,2.7c0.2,0.2,0.5,0.3,0.7,0.3c0,0.9,0.2,1.7,0.6,2.4L120.9,130.8z"/>
		<path fill="#0081C6" d="M99.2,150.1c4.2-2.7,13.9-7.8,20.2-10.7c5.6-2.6,5.2,1.9,1.2,6.5c-4.5,5.3-12.2,17.5-21.6,13.1
			C94.1,156.7,95.3,152.7,99.2,150.1"/>
		<path fill="#0081C6" d="M110.7,159.2c2.1-4.5,7.6-14,11.4-19.8c3.4-5.2,5.4-1.1,4.5,4.9c-1,6.9-1,21.3-11.3,22.6
			C109.8,167.6,108.7,163.5,110.7,159.2"/>
		<path fill="#0081C6" d="M132.4,116.4c-2.6,4.3-7.3,14.2-10,20.5c-2.4,5.7,2.1,5.1,6.6,1c5.1-4.7,17.1-12.8,12.3-22
			C138.8,111,134.8,112.4,132.4,116.4"/>
		<path fill="#0081C6" d="M142.1,127.5c-4.5,2.3-13.7,8.1-19.4,12c-5.1,3.5-0.9,5.4,5,4.4c6.8-1.2,21.2-1.7,22.2-12.1
			C150.5,126.4,146.3,125.4,142.1,127.5"/>
		<path fill="#0081C6" d="M123.3,132c2.3,2.2,2.2,5.9-0.2,8.4c-2.4,2.5-6.1,2.7-8.4,0.5s-2.2-5.9,0.2-8.4
			C117.3,130,121.1,129.8,123.3,132"/>
		<path fill="#0081C6" d="M120.9,130.8c-0.7-0.3-1.5-0.4-2.3-0.3c-0.1-0.1-0.1-0.2-0.2-0.4c-0.6-0.6-1.8-0.5-2.7,0.3l-0.1,0.1
			c-1.6-1.6-1.8-4.2-0.4-6c0.9-1.2,2.6-1.4,3.8-0.5l0,0c0.1-0.1,0.2-0.2,0.3-0.2c0,0,0,0-0.1-0.1c-1.3-1-3.2-0.8-4.3,0.5
			c-1.6,2-1.3,4.8,0.4,6.5c0,0.1-0.1,0.1-0.1,0.2c-0.3,0.7-0.3,1.9-0.3,1.9s-1.1-0.1-1.8,0.3c-0.1,0-0.2,0.1-0.2,0.1
			c-1.8-1.7-4.6-1.9-6.6-0.3c-1.3,1.1-1.5,3-0.4,4.3c0,0,0,0,0.1,0.1c0.1-0.1,0.2-0.2,0.3-0.3l0,0c-0.9-1.1-0.8-2.8,0.4-3.8
			c1.8-1.5,4.4-1.3,6.1,0.2l-0.1,0.1c-0.8,0.9-0.9,2.1-0.3,2.7c0.2,0.2,0.5,0.3,0.7,0.3c0,0.9,0.2,1.7,0.6,2.5L120.9,130.8z"/>
		<path fill="#0081C6" d="M145.2,152.6c-0.3-0.9-0.7-1.9-1.2-2.9c-2.9,0.5-5.5,1.8-7.4,3.7c-1.9,2-3.1,4.6-3.6,7.6
			c1,0.5,2,0.8,3,1.1c0.7-2.3,1.8-4.4,3.4-6C140.9,154.6,142.9,153.4,145.2,152.6"/>
		<path fill="#0081C6" d="M127.6,157.9c0.8,0.6,1.6,1.2,2.4,1.7c0.7-3.2,2.1-6.1,4.2-8.3c2.1-2.2,4.9-3.6,8-4.4
			c-0.5-0.8-1.2-1.6-1.8-2.4c-3.3,0.6-6.3,2-8.5,4.3C129.7,151.2,128.2,154.4,127.6,157.9"/>
		<path fill="#0081C6" d="M124.8,155.4c0.8-3.4,2.5-6.5,4.9-8.9c2.3-2.4,5.1-4,8.3-4.9c-0.1,0-0.1-0.1-0.1-0.2
			c-7.2-7-16.1-9.6-19.7-5.8c-3.7,3.8-0.8,12.5,6.5,19.5C124.7,155.3,124.7,155.4,124.8,155.4"/>
		<path fill="#0081C6" d="M141.8,158.6c-1.1,1.1-1.9,2.6-2.4,4.2c2.1,0.1,4.3,0.1,6.1-0.5c0.3-2,0.5-4.1,0.3-6.2
			C144.3,156.6,142.9,157.5,141.8,158.6"/>
	</g>
</g>
</svg>
