<?xml version="1.0" encoding="utf-8"?>
<!-- Generator: Adobe Illustrator 19.1.0, SVG Export Plug-In . SVG Version: 6.00 Build 0)  -->
<svg version="1.1" id="Layer_1" xmlns="http://www.w3.org/2000/svg" xmlns:xlink="http://www.w3.org/1999/xlink" x="0px" y="0px"
	 viewBox="0 0 150 180" enable-background="new 0 0 150 180" xml:space="preserve">
<g>
</g>
<g>
	<g>
		<path fill="#0081C6" d="M111,101.1c0,0,4.2-10.4,16.3-8.7c4.5,0.6,11.6,6.6,14,13.7c2,6,3.3,9.9-3.8,14.6c0,0-3.6,4.8-8.5,7.2
			c0,0-3.8,1.3-7.6,1.3c-2.4,0-4.2-0.4-10.9-3.8c-6.7-3.4-8.2-7.2-9.1-9.6c-0.8-2.4-1.5-8.7,3.5-16.5c5-7.8,8.9-14.5,7.8-17.8
			c-1.1-3.3-3.2-4.7-4.6-4.6c-1.3,0.1-1.5-0.1-3.6,2.2c-2.1,2.3-3.3,1.2-4.7,3c-1.3,1.7-0.2,7.3-0.2,7.3s-2.8-0.8-3-5.6
			c-0.1-1.6,0.1-3,0.1-3s-1.2-4.6,2-7.6c3.2-3,6.9-1.9,6.9-1.9s6.4,1.2,9.3,4.6c2.9,3.3,3.2,7.2,3,9.1c-0.3,2.6-3.3,6.7-7.9,12.6
			c-5.6,7.1-5.6,12.6-2.9,16c2.7,3.5,3.9,2.3,3.9,2.3s1.1-1,0.4-2.8C110.9,111,107.4,106.1,111,101.1"/>
		<path fill="#0081C6" d="M120.1,124.8l-0.4,1.5l2,19.7c0,0,0.8,0.6,0.9,1.9c0.1,1.3-0.8,2.1-0.8,2.1l-1.1,28l0.9,0.9l4.3,2.3
			l-3,0.6c0,0-0.1,0.6-0.6,1.2l-0.5,0.7c0,0-1.5-0.6-1.6-1.5l-2.8,0.4c0,0-0.4,0.5-0.7,0.6c-0.3,0.1-0.9-0.5-0.9-0.5L115,182
			l4.2-3.8l1.3-28.1l-2.2-23.5c0,0-0.2-1.2-1.9-2.3C114.9,123.2,120.1,124.8,120.1,124.8"/>
		<path fill="#0081C6" d="M124.5,124.6l-0.3,1.6l3.7,19.4c0,0,0.8,0.5,1.1,1.8c0.2,1.3-0.6,2.1-0.6,2.1l1.4,28l0.9,0.8l4.5,1.9
			l-3,0.9c0,0-0.1,0.6-0.5,1.3l-0.4,0.7c0,0-1.5-0.5-1.8-1.3l-2.7,0.7c0,0-0.3,0.5-0.6,0.7c-0.3,0.1-1-0.5-1-0.5l-0.9-0.6l3.9-4.1
			l-1.1-28.1l-4.3-23.3c0,0-0.3-1.2-2.1-2.2C119.1,123.4,124.5,124.6,124.5,124.6"/>
		<path fill="#0081C6" d="M130.2,93.1c0,0,9.7,0.2,12.6,12.1c0.6,2.4,0.1,5.2,0.1,5.2s2.4,2.5,3.2,3.6c3.6,4.9,3.6,8.9,3.6,8.9
			l0.3,6.2c0,0-1.3-3.2-3.2-4c-1.9-0.8-7.2-3.1-7.2-3.1L130.2,93.1z"/>
		<path fill="#0081C6" d="M135.9,117.4l0.3,2.8c0,0,1.5,4.2,2.8,5.3c2,1.8,1.9,1.6,4.7,3.7c0,0-1.2-5.7-2.1-8.1
			C140.8,118.7,135.9,117.4,135.9,117.4"/>
		<path fill="#0081C6" d="M111.1,100.5c0,0,4.2-10.4,16.3-8.7c4.5,0.6,11.6,6.6,14,13.7c2,6,3.3,9.9-3.9,14.6c0,0-3.6,4.8-8.5,7.2
			c0,0-3.8,1.3-7.6,1.3c-2.4,0-4.2-0.4-10.9-3.8c-6.7-3.4-8.2-7.2-9.1-9.6c-0.8-2.4-1.5-8.7,3.5-16.5c5-7.8,8.9-14.5,7.8-17.8
			c-1.1-3.3-3.2-4.7-4.6-4.6c-1.3,0.1-1.5-0.1-3.6,2.2c-2.1,2.3-3.3,1.2-4.7,3c-1.3,1.7-0.2,7.3-0.2,7.3s-2.8-0.8-3-5.6
			c-0.1-1.6,0.1-3,0.1-3s-1.2-4.6,2-7.6c3.2-3,6.9-1.9,6.9-1.9s6.4,1.2,9.3,4.6c2.9,3.3,3.2,7.2,3,9.1c-0.3,2.6-3.3,6.7-7.9,12.6
			c-5.6,7.1-5.6,12.6-2.9,16c2.7,3.5,3.9,2.3,3.9,2.3s1.1-1,0.4-2.8C111,110.5,107.5,105.6,111.1,100.5"/>
		<path fill="#0081C6" d="M122.6,92.1c0,0,10.9-2.3,16.2,8.8c1.1,2.2,2.7,5,2.7,5s1.4,1.9,2.4,2.8c4.5,4,4.1,8.3,4.1,8.3l1.6,6
			c0,0-2-2.9-4-3.2c-2.1-0.3-7.7-1.4-7.7-1.4L122.6,92.1z"/>
		<path fill="#0081C6" d="M136,116.8l0.3,2.8c0,0,1.5,4.2,2.8,5.3c2,1.8,1.9,1.6,4.7,3.8c0,0-1.2-5.7-2.1-8.1
			C140.9,118.1,136,116.8,136,116.8"/>
	</g>
</g>
</svg>
