<?xml version="1.0" encoding="utf-8"?>
<!-- Generator: Adobe Illustrator 19.1.0, SVG Export Plug-In . SVG Version: 6.00 Build 0)  -->
<svg version="1.1" id="Layer_1" xmlns="http://www.w3.org/2000/svg" xmlns:xlink="http://www.w3.org/1999/xlink" x="0px" y="0px"
	 viewBox="0 0 48 48" enable-background="new 0 0 48 48" xml:space="preserve">
<g>
	<path fill="#FFFFFF" d="M29,38H17.3v-1.4c1-0.1,1.9-0.2,2.6-0.4c0.7-0.2,1-0.4,1-0.7c0-0.1,0-0.3,0-0.4c0-0.2-0.1-0.3-0.1-0.5
		l-2.3-6.3H8.5c-0.4,0.9-0.7,1.7-0.9,2.4C7.4,31.4,7.2,32,7,32.6c-0.2,0.6-0.3,1-0.4,1.4c-0.1,0.4-0.1,0.6-0.1,0.9
		c0,0.5,0.4,0.9,1.2,1.2c0.8,0.3,1.8,0.5,2.8,0.5V38H0v-1.4c0.3,0,0.8-0.1,1.3-0.2c0.5-0.1,0.9-0.3,1.3-0.5c0.5-0.4,0.9-0.7,1.2-1.1
		c0.3-0.4,0.6-0.9,0.9-1.6c1.4-3.5,3-7.5,4.7-11.9c1.7-4.4,3.2-8.3,4.6-11.8h1.6l9.4,24.3c0.2,0.5,0.4,0.9,0.7,1.2
		c0.3,0.3,0.6,0.6,1.1,0.9c0.3,0.2,0.7,0.3,1.2,0.5c0.5,0.1,0.9,0.2,1.2,0.2V38z M17.7,26.5l-4.3-10.9L9.2,26.5H17.7z"/>
	<path fill="#FFFFFF" d="M48,37.7c-0.6,0.2-1.2,0.4-1.6,0.5c-0.5,0.1-1,0.2-1.6,0.2c-1,0-1.9-0.2-2.5-0.7c-0.6-0.5-1-1.2-1.2-2.1H41
		c-0.9,1-1.8,1.7-2.8,2.2c-1,0.5-2.2,0.8-3.6,0.8c-1.5,0-2.7-0.4-3.6-1.3c-0.9-0.9-1.4-2.1-1.4-3.5c0-0.8,0.1-1.4,0.3-2
		c0.2-0.6,0.5-1.1,1-1.6c0.3-0.4,0.8-0.7,1.3-1.1c0.5-0.3,1.1-0.6,1.5-0.7c0.6-0.2,1.8-0.6,3.6-1.2c1.8-0.6,3-1.1,3.7-1.4v-2
		c0-0.2,0-0.5-0.1-1c-0.1-0.5-0.2-1-0.5-1.4c-0.3-0.5-0.6-0.9-1.1-1.3c-0.5-0.4-1.2-0.5-2.1-0.5c-0.6,0-1.2,0.1-1.7,0.3
		c-0.5,0.2-0.9,0.4-1.1,0.6c0,0.3,0.1,0.7,0.2,1.2c0.1,0.5,0.2,1,0.2,1.4c0,0.5-0.2,0.9-0.6,1.3s-1,0.6-1.7,0.6
		c-0.7,0-1.1-0.2-1.5-0.7c-0.3-0.5-0.5-1-0.5-1.6c0-0.6,0.2-1.2,0.6-1.7c0.4-0.6,1-1.1,1.7-1.5c0.6-0.4,1.3-0.7,2.2-0.9
		c0.8-0.3,1.7-0.4,2.5-0.4c1.1,0,2.1,0.1,2.9,0.2c0.8,0.2,1.6,0.5,2.3,1c0.7,0.5,1.2,1.2,1.5,2c0.4,0.8,0.5,1.9,0.5,3.2
		c0,1.9,0,3.6-0.1,5c0,1.5-0.1,3.1-0.1,4.8c0,0.5,0.1,0.9,0.3,1.2c0.2,0.3,0.5,0.6,0.8,0.8c0.2,0.1,0.5,0.2,0.9,0.2
		c0.4,0,0.9,0,1.3,0V37.7z M41.1,27.2c-1.1,0.3-2.1,0.7-3,1c-0.8,0.3-1.6,0.7-2.4,1.2c-0.7,0.5-1.2,1-1.6,1.6
		c-0.4,0.6-0.6,1.3-0.6,2.2c0,1.1,0.3,1.9,0.9,2.4c0.6,0.5,1.3,0.8,2.2,0.8c0.9,0,1.8-0.2,2.5-0.7c0.7-0.5,1.3-1,1.8-1.6L41.1,27.2z
		"/>
</g>
</svg>
