<?xml version="1.0" encoding="utf-8"?>
<!-- Generator: Adobe Illustrator 19.1.0, SVG Export Plug-In . SVG Version: 6.00 Build 0)  -->
<svg version="1.1" id="Layer_1" xmlns="http://www.w3.org/2000/svg" xmlns:xlink="http://www.w3.org/1999/xlink" x="0px" y="0px"
	 viewBox="0 0 48 48" enable-background="new 0 0 48 48" xml:space="preserve">
<path fill="#BDBDBD" d="M46.4,39.7L46.4,39.7L36.1,29.4c4.4-7.5,3.4-17.3-3-23.7C25.5-2,13.2-1.9,5.6,5.9C-1.2,13-1.6,24.7,4.8,32.2
	c6.3,7.4,16.7,8.7,24.5,4l10.2,10.3l0,0l0,0c1.9,1.9,4.9,1.9,6.8,0C48.2,44.7,48.2,41.6,46.4,39.7z M29.4,26.7
	c-4.9,6.8-14.8,6.8-19.8,0c-3.1-4.2-3.1-10.2,0-14.4c4.9-6.8,14.8-6.8,19.8,0C32.4,16.5,32.4,22.5,29.4,26.7z"/>
</svg>
