<?xml version="1.0" encoding="utf-8"?>
<!-- Generator: Adobe Illustrator 19.1.0, SVG Export Plug-In . SVG Version: 6.00 Build 0)  -->
<svg version="1.1" id="Layer_1" xmlns="http://www.w3.org/2000/svg" xmlns:xlink="http://www.w3.org/1999/xlink" x="0px" y="0px"
	 viewBox="51 -66 150 180" enable-background="new 51 -66 150 180" xml:space="preserve">
<g>
	<path fill="#00934B" d="M186.3,101.1c-4.5-5.4-7.9-12.9-10.3-19.5c-5.4-15-2.9-29.3,5.8-41.9c1.5,1.3,3.6,3,4,3.2
		c0.8,0.4,1.5,0.5,2.3,0.5c2.4,0,9.4-0.9,9.3-2.5c0-0.8-1.4-2-3-3.2c2.3-0.9,4.5-2.1,4.4-3c-0.1-1-2.7-2.5-4.7-3.4
		c1.1-2.6,1.9-5.3,1-5.8c-1-0.5-4.2,1-6,1.9c0.3-2.7,0.3-5.6-0.8-5.3c-0.1,0-6.8,4-7.3,4.4c-2.8,2.6-1.3,7,0.1,10.1
		c-6,8.4-9.6,19.5-10.5,30.5c-1.1-2.8-3-5.2-5.3-6c-0.6,1.3-0.7,3.9-0.5,6.7c-3.5-4.6-8.6-9.4-10.6-9.9c-1,0.8-0.8,2.4,0.1,4.3
		c-3.4-2-7.1-3.1-8.2-1.6c-1,1.5,2.7,4.5,6.5,6.3c-1.1,0.5-2.1,1.3-2.7,2.5c0,0.8,3,2.2,6.3,2.9c-1.3,0.5-2.5,1.3-3.4,2.2
		c1.1,1.2,4.1,2.5,7.1,3.2c-0.8,0.5-1.5,1.1-1.9,1.8c2.1,1.4,11.2,1.7,13.7-0.4c2.2,13.3,8.8,23.5,14.1,30.5
		c4.1,5.4,11,10.6,17.3,13.5c0.4,0.2,0.6-8.5,0-8.8C197.3,111.5,190.4,105.9,186.3,101.1"/>
</g>
</svg>
