<?xml version="1.0" encoding="utf-8"?>
<!-- Generator: Adobe Illustrator 19.1.0, SVG Export Plug-In . SVG Version: 6.00 Build 0)  -->
<svg version="1.1" id="Layer_1" xmlns="http://www.w3.org/2000/svg" xmlns:xlink="http://www.w3.org/1999/xlink" x="0px" y="0px"
	 viewBox="0 0 150 180" enable-background="new 0 0 150 180" xml:space="preserve">
<g>
	<path fill="#4DA7D7" d="M149.4,140.3c0,0-5.6-4.9-4.9-5.5c0,0,0.9-0.7-0.5-1.7c0,0-1.6-2.1-4.7-3.2c0,0,0-3.1-2.6-1
		c0,0-3.2-0.7-4.9-0.3c0,0-5.2-1.3-9.5-1.4c0,0-5.7-0.7-7.5-1.4c0,0-8-3.6-13.9,0c0,0-3.1,0.6-7,0.2c0,0-22.5-2.4-28.5-1.3
		c0,0-13.2,3.2-19,10.4c0,0-5.3,5.5-3.8,15.7c0,0,1.1,6,2.3,9.4c0,0,1.1,1.8,0,3.6c0,0-9.2,10-7.1,11.7c0,0,8.6,11.9,13.1,10.2
		c0,0,2-0.7,1.7-2c0,0,2.3-2.5-0.5-4.3c0,0-1.7-1.5-0.5-2.8c0,0,2.3-1.7,3.2-2.8c0,0-1.3,6.4,3.2,6.7c0,0,15.5,1.7,14.6-1.3
		c0,0,1.2,0.8-0.1-1.8c0,0-0.9-1.6-3.2-1.7c0,0-2-1.2-1.7-3.6c0,0,1.1-9.2,1.8-9.7c0,0,6.1-2.6,9.9-1.8c0,0,6.2,0.3,9-0.9
		c0,0,5-2.1,4.6-0.5c0,0-3.3,8.4,0.9,12.6c0,0,2.4,4.4,2.4,6.4c0,0,1.1,4.4,6.1,3.9c0,0,9.1,0.7,8.2-2.2l-0.6-1.2
		c0,0,0.3-2.2-2.5-2.5c0,0-3.5,0.2-3.6-1.2c0,0,0.7-7.9,4.5-12.3c0,0,2-2.8,2.8-6.2c0,0,5.7,11,10.2,15.8c0.6,0.6,1.2,1.4,1.9,1.9
		l0,0c0,0.2,5.1,3.5,6,4.9c0.6,0.9,1.2,1.5,1.2,1.5s0.7,0.2,1.8,0.2c2.3,0,5.9,0,6.4-0.2c1.2-0.4,3.1-2,3.1-2.8c0-0.3,0.1-2.4-0.3-3
		c-1-1.3-5.8-2-8.1-3.9l0,0c-0.3-0.5-0.6-1-0.9-1.3c-5.5-6-3.5-17.2-5.7-21.3c0,0,4.9-2.8,7.4-2.7c0,0,7.9-1.2,9.2-0.5
		c0,0,3.8,0.2,5.7-2.4C148.6,143,151.1,141.1,149.4,140.3"/>
</g>
</svg>
