<?xml version="1.0" encoding="utf-8"?>
<!-- Generator: Adobe Illustrator 19.1.0, SVG Export Plug-In . SVG Version: 6.00 Build 0)  -->
<svg version="1.1" id="Layer_1" xmlns="http://www.w3.org/2000/svg" xmlns:xlink="http://www.w3.org/1999/xlink" x="0px" y="0px"
	 viewBox="0 0 150 180" enable-background="new 0 0 150 180" xml:space="preserve">
<g>
</g>
<g>
	<path fill="#0081C6" d="M57.2,152.9c0,0-10.7-6.3-16.2,7.1c0,0-2.4-2.2-5.1-1.5c0,0,1.1,3.8,3.7,4.1l0,0c-0.7,1.8,1.4,5,1.4,5
		c2.1-1.8,1.5-5,1.5-5C56.7,165.3,57.2,152.9,57.2,152.9"/>
	<path fill="#0081C6" d="M54,137c0,0-9.1-3.5-11.6,7.5c0,0-2.1-1.4-4.1-0.5c0,0,1.4,2.8,3.4,2.7l0,0c-0.3,1.5,1.7,3.7,1.7,3.7
		c1.4-1.7,0.5-4.1,0.5-4.1C55.2,146.6,54,137,54,137"/>
	<path fill="#0081C6" d="M82.2,131.4c0,0-9.1-3.5-11.6,7.5c0,0-2.1-1.4-4.1-0.5c0,0,1.4,2.8,3.4,2.7l0,0c-0.3,1.5,1.7,3.7,1.7,3.7
		c1.4-1.7,0.5-4.1,0.5-4.1C83.5,141,82.2,131.4,82.2,131.4"/>
	<path fill="#0081C6" d="M143.2,177.2c9.5,2.9,14.2,5.1,14.2,5.1l-45.3-0.1H73.7c0,0-20.1-19.3-3.1-27.1c0,0,3.1-1.4,6.2-0.7
		c2.3,0.5,4.8,2.6,4.9,4.6c0.1,1.7-0.6,4.9-2.8,5.1c-1.3,0.2-2.4-0.3-2.8-0.6c-0.8-0.6-1.2-1.8-0.5-2.9c0.3-0.5,1.8-1.1,2.6-0.1
		c0,0,0.1-1.8-1.6-2.4c-2.7-0.9-6.9,2.3-5.7,7.1c0.6,2.5,2.7,4.5,5.9,4.4c4.5-0.1,7-5.4,8.4-6.5c1-0.8,2.4-1.6,4.3-1.8
		c0,0,4.2-0.5,6,3.8c0,0,1.9,5.4-3,5.6c0,0-3.9,0.1-2.8-3.2c0,0,0.8-1.8,3.3-0.7c0,0-2.5-4.4-5.5-0.3c0,0-1.3,2.3-0.8,4.8
		c0.5,2.3,3.7,6.3,8.7,5.6c1.9-0.3,8.1-0.9,7.6-6.5c-0.3-3-7.2-16.3-1-25.4c3.1-4.6,6.7-5.6,7.3-5.8c1.6-0.6,6.1-2.7,11.1,0.7
		c4.3,2.9,4,8.1,3.6,9.1c-0.5,1.3-1.4,2.4-4.1,3.1c-2.4,0.6-4.9-0.2-5.4-2.3c-0.4-1.4,0.1-3.1,1.6-3.7c1.3-0.5,3.7,0.1,4.3,1.7
		c0,0,1.4-0.5,0.4-3.1c-1-2.6-3.1-3.3-6-2.9c-2.3,0.3-4.5,3.7-4.6,6.2c-0.3,5.6,3.8,9.2,8.5,14.1
		C124.2,168.1,134.5,174.6,143.2,177.2"/>
</g>
</svg>
