<?xml version="1.0" encoding="utf-8"?>
<!-- Generator: Adobe Illustrator 19.1.0, SVG Export Plug-In . SVG Version: 6.00 Build 0)  -->
<svg version="1.1" id="Layer_1" xmlns="http://www.w3.org/2000/svg" xmlns:xlink="http://www.w3.org/1999/xlink" x="0px" y="0px"
	 viewBox="0 0 48 48" enable-background="new 0 0 48 48" xml:space="preserve">
<path fill-rule="evenodd" clip-rule="evenodd" fill="#808080" d="M22.8,39c-1.9,2.4-3.9,4.6-6,7c-0.6,0.7-1.2,1.7-2.2,2.1
	c0,0-0.1,0-0.1,0c-0.6-0.1-1-0.5-1-1c0-0.5,0.4-0.8,0.6-1.2c0.1-0.1,0.3-0.2,0.4-0.4c6.1-7,12.1-14,18.1-21c-2-2.4-4.2-4.8-6.2-7.3
	c-0.1-0.1-0.2-0.3-0.4-0.4c-0.1,0-0.2-0.2-0.3-0.2C22,12,18.2,7.6,14.5,3.2c-0.5-0.6-1.1-1.2-1.5-2c0-0.1,0-0.2,0-0.4
	c0.1,0,0-0.3,0.1-0.3c0.1-0.2,0.3-0.3,0.4-0.5c0-0.2,0.3-0.1,0.4-0.2c0.1,0,0.2,0,0.3,0c0.6,0.1,0.9,0.6,1.2,1
	c5.2,6.1,10.5,12.2,15.7,18.3c0.1,0.1,0.2,0.3,0.4,0.4c0.1,0,0.2,0.2,0.3,0.2c1,1.4,2.4,2.6,3.3,4.1c0,0.2,0,0.3,0,0.5
	c-1.2,1.9-2.9,3.3-4.2,5.1c-0.1,0-0.2,0.2-0.3,0.2c-0.1,0.1-0.2,0.3-0.4,0.4c-0.7,0.9-1.5,1.7-2.1,2.6c-0.1,0-0.2,0.2-0.3,0.2
	c-0.1,0.1-0.2,0.3-0.4,0.4c-1.3,1.7-2.8,3.2-4,4.8c-0.1,0-0.2,0.2-0.3,0.2C23,38.7,22.9,38.8,22.8,39z"/>
</svg>
