<?xml version="1.0" encoding="utf-8"?>
<!-- Generator: Adobe Illustrator 19.1.0, SVG Export Plug-In . SVG Version: 6.00 Build 0)  -->
<svg version="1.1" id="Layer_1" xmlns="http://www.w3.org/2000/svg" xmlns:xlink="http://www.w3.org/1999/xlink" x="0px" y="0px"
	 viewBox="0 0 150 180" enable-background="new 0 0 150 180" xml:space="preserve">
<g>
</g>
<path fill="#4DA7D7" d="M93,81.8c0,0,17.9,29.8,18.9,31.5c1,1.6,0.9,1.7,1.6,2.7c0.7,0.9-0.2,54.2-0.7,57.3
	c-0.6,3.2-0.6,4.1-1.3,5.1c-0.7,1-1.8,2.6-1.8,2.6l8.3,0c0,0-2.1-2.3-2.4-6c-0.3-3.7,1.1-58.6,1.1-58.6s-0.4-9.8,1.1-11.2
	c1.5-1.4,17.7-22.8,17.7-22.8h-1.8l-15,19.6c0,0-2.2,2.4-2.3,1.9c-0.1-0.5-0.5-21.5-0.5-21.5l-2.6,0.1l-0.2,27.8
	c0,0-0.1,0.7-0.8,0.3c-0.7-0.4-18.4-30.1-18.4-30.1L93,81.8z"/>
<path fill="#4DA7D7" d="M119.1,39.2c0,0-2-1.2-5,1.8c-2.5,2.6-1.5,5-1.5,5s-1.5-1.8-3.8-0.2c-1.4,1-1.5,4-1.5,4s-2.8-0.8-5.8,1
	C94.8,55,97,62.8,97,62.8s-0.6-1-2.1-1c-1.5,0-2.9,1.7-2.9,1.7l-1.5,2c0,0-1.3,1.4-1.4,3.3c-0.1,1.8,0.6,2.3,0.9,3.1
	c0.2,0.9,0.2,2.1,0.2,2.1s-0.3,2.9,5.2,4.1c1.2,0.3,1,2.4,1,2.4S94.5,78,92.9,78c-1.6,0-2.4,2-2.4,2s-2.4-0.4-3.4,0.7
	c-1,1.1-0.8,3.1-0.8,3.1s-1.6-0.3-2.5,2c-0.9,2.3,0.1,4.4,0.1,4.4s1,1,1,1.8c0,0.8,0,3.5,1.8,4c1.8,0.4,3.4-1.6,3.4-1.6s0.9-1.1,1,0
	c0.1,1.1,0.9,4.1,3.6,4.7c2.8,0.6,4.7-3.1,4.7-3.1s0.4-1.6,1.5-1.1c1.1,0.4,4,2.1,7,0.7c3-1.4,4.7-4.8,4.7-4.8s1.6,0.9,2.5,0.9
	c0.9,0-1.1,2.4,0.5,4.1c1.6,1.7,3.4,0.7,3.4,0.7s3,3.8,7.9,2.4c4.9-1.4,4.7-4.7,4.7-4.7s2.1,3.1,6.3,2.8c4.1-0.3,7-2,9.6-4.9
	c1.3-1.5,4.6-5.8,0.6-12.3c-2.4-3.8-8-4.2-8-4.2l-0.5-1.6c0,0,2.5,0.6,3.1,0.1c0.7-0.6,1-3,1-2.8c0,0.2,2.5-4.2,0.7-7.7
	c-1.8-3.5-6-4-6-4l-1.6-0.2c0,0,1.2-2-0.4-4.7c-1.6-2.7-5.3-2.4-5.3-2.4s-0.9,0.2-1.1-0.1c-0.3-0.4,0.4-2.8-0.8-4.8
	c-1.2-2-3.9-2.9-3.9-2.9S122.9,38.9,119.1,39.2"/>
</svg>
