<?xml version="1.0" encoding="utf-8"?>
<!-- Generator: Adobe Illustrator 19.1.0, SVG Export Plug-In . SVG Version: 6.00 Build 0)  -->
<svg version="1.1" id="Layer_1" xmlns="http://www.w3.org/2000/svg" xmlns:xlink="http://www.w3.org/1999/xlink" x="0px" y="0px"
	 viewBox="-595 456.5 88.5 88.5" style="enable-background:new -595 456.5 88.5 88.5;" xml:space="preserve">
<style type="text/css">
	.st0{fill:none;stroke:#00934B;stroke-width:4.5482;}
</style>
<g>
	<path class="st0" d="M-512.2,517.5c-9.2,21.3-33.9,31-55.2,21.8c-21.3-9.2-31.1-34-21.9-55.2c9.3-21.3,34-31.1,55.3-21.9
		C-512.8,471.5-503,496.2-512.2,517.5z"/>
	<line class="st0" x1="-589.4" y1="484" x2="-512.4" y2="517.4"/>
	<line class="st0" x1="-567.7" y1="539.9" x2="-534.3" y2="462.8"/>
	<line class="st0" x1="-576.5" y1="467.3" x2="-508.7" y2="496.7"/>
	<line class="st0" x1="-592.3" y1="504.2" x2="-524.5" y2="533.6"/>
	<path class="st0" d="M-529.2,510.1c-9.2,21.3-26.3,34.4-38.2,29.2c-11.9-5.2-14.1-26.6-4.9-47.9c9.2-21.3,26.3-34.3,38.3-29.2
		C-522.1,467.4-520,488.8-529.2,510.1z"/>
</g>
</svg>
