<?xml version="1.0" encoding="utf-8"?>
<!-- Generator: Adobe Illustrator 19.1.0, SVG Export Plug-In . SVG Version: 6.00 Build 0)  -->
<svg version="1.1" id="Layer_1" xmlns="http://www.w3.org/2000/svg" xmlns:xlink="http://www.w3.org/1999/xlink" x="0px" y="0px"
	 viewBox="0 0 51.4 33.1" enable-background="new 0 0 51.4 33.1" xml:space="preserve">
<g>
	<path fill="#FFFFFF" d="M-14.1,83h79.5c3.1,0,5.7-2.6,5.7-5.7V-58.9c0-3.1-2.6-5.7-5.7-5.7h-79.5c-3.1,0-5.7,2.6-5.7,5.7V77.3
		C-19.8,80.4-17.2,83-14.1,83z"/>
	<path fill="none" stroke="#EDEDED" stroke-width="0.5" stroke-miterlimit="10" d="M-14.1,83h79.5c3.1,0,5.7-2.6,5.7-5.7V-58.9
		c0-3.1-2.6-5.7-5.7-5.7h-79.5c-3.1,0-5.7,2.6-5.7,5.7V77.3C-19.8,80.4-17.2,83-14.1,83z"/>
	<polygon fill="#55ABE0" points="51.3,33 51.3,33 0.1,33 0.1,0.1 51.3,0.1 51.3,33 	"/>
	<path d="M51.3,0.1V33H0.1V0.1H51.3 M51.4,0h-0.1H0.1H0v0.1V33v0.1h0.1h51.2h0.1V33V0.1V0z"/>
	<rect x="0.2" y="11.1" fill="#FFFFFF" width="51" height="11"/>
	<polygon fill="#FBBE3D" points="25.5,16.5 25.6,21 25.7,21.1 25.7,21 25.9,16.5 	"/>
	<polygon fill="none" stroke="#983315" stroke-width="0.1" points="25.5,16.5 25.6,21 25.7,21.1 25.7,21 25.9,16.5 	"/>
	<polygon fill="#983315" points="25.6,16.5 25.7,19.6 25.8,16.5 	"/>
	<path fill="#FBBE3D" d="M25.3,18c-0.3,0.6,0,1-0.3,1.5c-0.3,0.5-0.1,0.9-0.1,1.1c0,0.2-0.2,0.3-0.2,0.3c0,0.1,0.2-0.1,0.3-0.4
		c0.1-0.3-0.1-0.5,0.2-1.1c0.3-0.6,0.1-0.9,0.4-1.4L25.3,18z"/>
	<path fill="none" stroke="#983315" stroke-width="0.1" d="M25.3,18c-0.3,0.6,0,1-0.3,1.5c-0.3,0.5-0.1,0.9-0.1,1.1
		c0,0.2-0.2,0.3-0.2,0.3c0,0.1,0.2-0.1,0.3-0.4c0.1-0.3-0.1-0.5,0.2-1.1c0.3-0.6,0.1-0.9,0.4-1.4L25.3,18z"/>
	<path fill="#983315" d="M25.3,18.1c-0.2,0.6,0,0.9-0.3,1.4c0.3-0.3,0.1-0.8,0.4-1.4L25.3,18.1z"/>
	<polygon fill="#FBBE3D" points="25.9,16.5 25.7,12.1 25.7,12 25.6,12.1 25.5,16.5 	"/>
	<polygon fill="none" stroke="#983315" stroke-width="0.1" points="25.9,16.5 25.7,12.1 25.7,12 25.6,12.1 25.5,16.5 	"/>
	<polygon fill="#983315" points="25.8,16.5 25.7,13.5 25.6,16.5 	"/>
	<path fill="#FBBE3D" d="M26.1,15.1c0.3-0.6,0-1,0.3-1.5c0.3-0.5,0.1-0.9,0.1-1.1c0-0.2,0.2-0.3,0.2-0.3c0-0.1-0.2,0.1-0.3,0.4
		c-0.1,0.3,0.1,0.5-0.2,1.1c-0.3,0.6-0.1,0.9-0.4,1.4L26.1,15.1z"/>
	<path fill="none" stroke="#983315" stroke-width="0.1" d="M26.1,15.1c0.3-0.6,0-1,0.3-1.5c0.3-0.5,0.1-0.9,0.1-1.1
		c0-0.2,0.2-0.3,0.2-0.3c0-0.1-0.2,0.1-0.3,0.4c-0.1,0.3,0.1,0.5-0.2,1.1c-0.3,0.6-0.1,0.9-0.4,1.4L26.1,15.1z"/>
	<path fill="#983315" d="M26,15c0.2-0.6,0-0.9,0.3-1.4c-0.3,0.3-0.1,0.8-0.4,1.4L26,15z"/>
	<polygon fill="#FBBE3D" points="25.7,16.3 21.2,16.5 21.1,16.5 21.2,16.6 25.7,16.8 	"/>
	<polygon fill="none" stroke="#983315" stroke-width="0.1" points="25.7,16.3 21.2,16.5 21.1,16.5 21.2,16.6 25.7,16.8 	"/>
	<polygon fill="#983315" points="25.7,16.4 22.6,16.5 25.7,16.7 	"/>
	<path fill="#FBBE3D" d="M24.2,16.1c-0.6-0.3-1,0-1.5-0.3c-0.5-0.3-0.9-0.1-1.1-0.1c-0.2,0-0.3-0.2-0.3-0.2c-0.1,0,0.1,0.2,0.4,0.3
		c0.3,0.1,0.5-0.1,1.1,0.2c0.6,0.3,0.9,0.1,1.4,0.4L24.2,16.1z"/>
	<path fill="none" stroke="#983315" stroke-width="0.1" d="M24.2,16.1c-0.6-0.3-1,0-1.5-0.3c-0.5-0.3-0.9-0.1-1.1-0.1
		c-0.2,0-0.3-0.2-0.3-0.2c-0.1,0,0.1,0.2,0.4,0.3c0.3,0.1,0.5-0.1,1.1,0.2c0.6,0.3,0.9,0.1,1.4,0.4L24.2,16.1z"/>
	<path fill="#983315" d="M24.1,16.2c-0.6-0.2-0.9,0-1.4-0.3c0.3,0.3,0.8,0.1,1.4,0.4L24.1,16.2z"/>
	<polygon fill="#FBBE3D" points="25.7,16.8 30.2,16.6 30.2,16.5 30.2,16.5 25.7,16.3 	"/>
	<polygon fill="none" stroke="#983315" stroke-width="0.1" points="25.7,16.8 30.2,16.6 30.2,16.5 30.2,16.5 25.7,16.3 	"/>
	<polygon fill="#983315" points="25.7,16.7 28.8,16.5 25.7,16.4 	"/>
	<path fill="#FBBE3D" d="M27.1,17c0.6,0.3,1,0,1.5,0.3c0.5,0.3,0.9,0.1,1.1,0.1c0.2,0,0.3,0.2,0.3,0.2c0.1,0-0.1-0.2-0.4-0.3
		c-0.3-0.1-0.5,0.1-1.1-0.2s-0.9-0.1-1.4-0.4L27.1,17z"/>
	<path fill="none" stroke="#983315" stroke-width="0.1" d="M27.1,17c0.6,0.3,1,0,1.5,0.3c0.5,0.3,0.9,0.1,1.1,0.1
		c0.2,0,0.3,0.2,0.3,0.2c0.1,0-0.1-0.2-0.4-0.3c-0.3-0.1-0.5,0.1-1.1-0.2s-0.9-0.1-1.4-0.4L27.1,17z"/>
	<path fill="#983315" d="M27.3,16.9c0.6,0.2,0.9,0,1.4,0.3c-0.3-0.3-0.8-0.1-1.4-0.4L27.3,16.9z"/>
	<polygon fill="#FBBE3D" points="25.5,16.4 22.5,19.7 22.4,19.8 22.5,19.8 25.8,16.7 	"/>
	<polygon fill="none" stroke="#983315" stroke-width="0.1" points="25.5,16.4 22.5,19.7 22.4,19.8 22.5,19.8 25.8,16.7 	"/>
	<polygon fill="#983315" points="25.6,16.5 23.5,18.7 25.8,16.6 	"/>
	<path fill="#FBBE3D" d="M24.4,17.3c-0.6,0.2-0.8,0.7-1.3,0.9c-0.5,0.2-0.7,0.6-0.9,0.7C22,19,21.9,18.9,21.8,19
		c0,0.1,0.2,0.1,0.5,0c0.3-0.2,0.3-0.4,0.9-0.6c0.6-0.2,0.7-0.6,1.3-0.7L24.4,17.3z"/>
	<path fill="none" stroke="#983315" stroke-width="0.1" d="M24.4,17.3c-0.6,0.2-0.8,0.7-1.3,0.9c-0.5,0.2-0.7,0.6-0.9,0.7
		C22,19,21.9,18.9,21.8,19c0,0.1,0.2,0.1,0.5,0c0.3-0.2,0.3-0.4,0.9-0.6c0.6-0.2,0.7-0.6,1.3-0.7L24.4,17.3z"/>
	<path fill="#983315" d="M24.3,17.4c-0.5,0.3-0.7,0.7-1.2,0.8c0.5,0,0.6-0.5,1.2-0.7L24.3,17.4z"/>
	<polygon fill="#FBBE3D" points="25.8,16.7 28.9,13.4 28.9,13.3 28.8,13.3 25.5,16.4 	"/>
	<polygon fill="none" stroke="#983315" stroke-width="0.1" points="25.8,16.7 28.9,13.4 28.9,13.3 28.8,13.3 25.5,16.4 	"/>
	<polygon fill="#983315" points="25.8,16.6 27.9,14.4 25.6,16.5 	"/>
	<path fill="#FBBE3D" d="M27,15.8c0.6-0.2,0.8-0.7,1.3-0.9c0.5-0.2,0.7-0.6,0.9-0.7c0.2-0.1,0.3-0.1,0.4-0.1c0-0.1-0.2-0.1-0.5,0
		c-0.3,0.2-0.3,0.4-0.9,0.6c-0.6,0.2-0.7,0.6-1.3,0.7L27,15.8z"/>
	<path fill="none" stroke="#983315" stroke-width="0.1" d="M27,15.8c0.6-0.2,0.8-0.7,1.3-0.9c0.5-0.2,0.7-0.6,0.9-0.7
		c0.2-0.1,0.3-0.1,0.4-0.1c0-0.1-0.2-0.1-0.5,0c-0.3,0.2-0.3,0.4-0.9,0.6c-0.6,0.2-0.7,0.6-1.3,0.7L27,15.8z"/>
	<path fill="#983315" d="M27.1,15.7c0.5-0.3,0.7-0.7,1.2-0.8c-0.5,0-0.6,0.5-1.2,0.7L27.1,15.7z"/>
	<polygon fill="#FBBE3D" points="25.8,16.4 22.5,13.3 22.4,13.3 22.5,13.4 25.5,16.7 	"/>
	<polygon fill="none" stroke="#983315" stroke-width="0.1" points="25.8,16.4 22.5,13.3 22.4,13.3 22.5,13.4 25.5,16.7 	"/>
	<polygon fill="#983315" points="25.8,16.5 23.5,14.4 25.6,16.6 	"/>
	<path fill="#FBBE3D" d="M25,15.2c-0.2-0.6-0.7-0.8-0.9-1.3c-0.2-0.5-0.6-0.7-0.7-0.9c-0.1-0.2-0.1-0.3-0.1-0.4
		c-0.1,0-0.1,0.2,0,0.5c0.2,0.3,0.4,0.3,0.6,0.9c0.2,0.6,0.6,0.7,0.7,1.3L25,15.2z"/>
	<path fill="none" stroke="#983315" stroke-width="0.1" d="M25,15.2c-0.2-0.6-0.7-0.8-0.9-1.3c-0.2-0.5-0.6-0.7-0.7-0.9
		c-0.1-0.2-0.1-0.3-0.1-0.4c-0.1,0-0.1,0.2,0,0.5c0.2,0.3,0.4,0.3,0.6,0.9c0.2,0.6,0.6,0.7,0.7,1.3L25,15.2z"/>
	<path fill="#983315" d="M24.8,15.2c-0.3-0.5-0.7-0.7-0.8-1.2c0,0.5,0.5,0.6,0.7,1.2L24.8,15.2z"/>
	<polygon fill="#FBBE3D" points="25.5,16.7 28.8,19.8 28.9,19.8 28.9,19.7 25.8,16.4 	"/>
	<polygon fill="none" stroke="#983315" stroke-width="0.1" points="25.5,16.7 28.8,19.8 28.9,19.8 28.9,19.7 25.8,16.4 	"/>
	<polygon fill="#983315" points="25.6,16.6 27.9,18.7 25.8,16.5 	"/>
	<path fill="#FBBE3D" d="M26.4,17.9c0.2,0.6,0.7,0.8,0.9,1.3c0.2,0.5,0.6,0.7,0.7,0.9c0.1,0.2,0.1,0.3,0.1,0.4c0.1,0,0.1-0.2,0-0.5
		c-0.2-0.3-0.4-0.3-0.6-0.9c-0.2-0.6-0.6-0.7-0.7-1.3L26.4,17.9z"/>
	<path fill="none" stroke="#983315" stroke-width="0.1" d="M26.4,17.9c0.2,0.6,0.7,0.8,0.9,1.3c0.2,0.5,0.6,0.7,0.7,0.9
		c0.1,0.2,0.1,0.3,0.1,0.4c0.1,0,0.1-0.2,0-0.5c-0.2-0.3-0.4-0.3-0.6-0.9c-0.2-0.6-0.6-0.7-0.7-1.3L26.4,17.9z"/>
	<path fill="#983315" d="M26.6,17.9c0.3,0.5,0.7,0.7,0.8,1.2c0-0.5-0.5-0.6-0.7-1.2L26.6,17.9z"/>
	<polygon fill="#FBBE3D" points="25.5,16.5 23.9,20.7 23.9,20.8 24,20.7 25.9,16.6 	"/>
	<polygon fill="none" stroke="#983315" stroke-width="0.1" points="25.5,16.5 23.9,20.7 23.9,20.8 24,20.7 25.9,16.6 	"/>
	<polygon fill="#983315" points="25.6,16.5 24.5,19.4 25.8,16.6 	"/>
	<path fill="#FBBE3D" d="M24.7,17.7c-0.5,0.4-0.4,0.9-0.9,1.3c-0.4,0.4-0.4,0.8-0.5,1c-0.1,0.2-0.3,0.2-0.3,0.3c0,0.1,0.2,0,0.4-0.2
		c0.2-0.3,0.1-0.5,0.6-0.9c0.5-0.4,0.4-0.8,0.9-1.2L24.7,17.7z"/>
	<path fill="none" stroke="#983315" stroke-width="0.1" d="M24.7,17.7c-0.5,0.4-0.4,0.9-0.9,1.3c-0.4,0.4-0.4,0.8-0.5,1
		c-0.1,0.2-0.3,0.2-0.3,0.3c0,0.1,0.2,0,0.4-0.2c0.2-0.3,0.1-0.5,0.6-0.9c0.5-0.4,0.4-0.8,0.9-1.2L24.7,17.7z"/>
	<path fill="#983315" d="M24.7,17.9c-0.4,0.4-0.3,0.9-0.8,1.2C24.4,18.9,24.4,18.4,24.7,17.9L24.7,17.9z"/>
	<polygon fill="#FBBE3D" points="25.9,16.6 27.4,12.4 27.4,12.3 27.3,12.4 25.5,16.5 	"/>
	<polygon fill="none" stroke="#983315" stroke-width="0.1" points="25.9,16.6 27.4,12.4 27.4,12.3 27.3,12.4 25.5,16.5 	"/>
	<polygon fill="#983315" points="25.8,16.6 26.9,13.7 25.6,16.5 	"/>
	<path fill="#FBBE3D" d="M26.6,15.4c0.5-0.4,0.4-0.9,0.9-1.3c0.4-0.4,0.4-0.8,0.5-1c0.1-0.2,0.3-0.2,0.3-0.3c0-0.1-0.2,0-0.4,0.2
		s-0.1,0.5-0.6,0.9c-0.5,0.4-0.4,0.8-0.9,1.2L26.6,15.4z"/>
	<path fill="none" stroke="#983315" stroke-width="0.1" d="M26.6,15.4c0.5-0.4,0.4-0.9,0.9-1.3c0.4-0.4,0.4-0.8,0.5-1
		c0.1-0.2,0.3-0.2,0.3-0.3c0-0.1-0.2,0-0.4,0.2s-0.1,0.5-0.6,0.9c-0.5,0.4-0.4,0.8-0.9,1.2L26.6,15.4z"/>
	<path fill="#983315" d="M26.6,15.2c0.4-0.4,0.3-0.9,0.8-1.2C27,14.2,27,14.7,26.6,15.2L26.6,15.2z"/>
	<polygon fill="#FBBE3D" points="25.8,16.3 21.6,14.8 21.5,14.8 21.5,14.9 25.6,16.8 	"/>
	<polygon fill="none" stroke="#983315" stroke-width="0.1" points="25.8,16.3 21.6,14.8 21.5,14.8 21.5,14.9 25.6,16.8 	"/>
	<polygon fill="#983315" points="25.7,16.4 22.8,15.4 25.6,16.6 	"/>
	<path fill="#FBBE3D" d="M24.5,15.6c-0.4-0.5-0.9-0.4-1.3-0.9c-0.4-0.4-0.8-0.4-1-0.5C22,14.1,22,13.9,22,13.9c-0.1,0,0,0.2,0.2,0.4
		c0.2,0.2,0.5,0.1,0.9,0.6c0.4,0.5,0.8,0.4,1.2,0.9L24.5,15.6z"/>
	<path fill="none" stroke="#983315" stroke-width="0.1" d="M24.5,15.6c-0.4-0.5-0.9-0.4-1.3-0.9c-0.4-0.4-0.8-0.4-1-0.5
		C22,14.1,22,13.9,22,13.9c-0.1,0,0,0.2,0.2,0.4c0.2,0.2,0.5,0.1,0.9,0.6c0.4,0.5,0.8,0.4,1.2,0.9L24.5,15.6z"/>
	<path fill="#983315" d="M24.3,15.6c-0.4-0.4-0.9-0.3-1.2-0.8C23.3,15.2,23.8,15.2,24.3,15.6L24.3,15.6z"/>
	<polygon fill="#FBBE3D" points="25.6,16.8 29.8,18.3 29.9,18.3 29.8,18.2 25.8,16.3 	"/>
	<polygon fill="none" stroke="#983315" stroke-width="0.1" points="25.6,16.8 29.8,18.3 29.9,18.3 29.8,18.2 25.8,16.3 	"/>
	<polygon fill="#983315" points="25.6,16.6 28.5,17.7 25.7,16.4 	"/>
	<path fill="#FBBE3D" d="M26.9,17.5c0.4,0.5,0.9,0.4,1.3,0.9c0.4,0.4,0.8,0.4,1,0.5c0.2,0.1,0.2,0.3,0.3,0.3c0.1,0,0-0.2-0.2-0.4
		c-0.2-0.2-0.5-0.1-0.9-0.6c-0.4-0.5-0.8-0.4-1.2-0.9L26.9,17.5z"/>
	<path fill="none" stroke="#983315" stroke-width="0.1" d="M26.9,17.5c0.4,0.5,0.9,0.4,1.3,0.9c0.4,0.4,0.8,0.4,1,0.5
		c0.2,0.1,0.2,0.3,0.3,0.3c0.1,0,0-0.2-0.2-0.4c-0.2-0.2-0.5-0.1-0.9-0.6c-0.4-0.5-0.8-0.4-1.2-0.9L26.9,17.5z"/>
	<path fill="#983315" d="M27,17.5c0.4,0.4,0.9,0.3,1.2,0.8C28,17.8,27.5,17.9,27,17.5L27,17.5z"/>
	<polygon fill="#FBBE3D" points="25.6,16.3 21.5,18.2 21.5,18.3 21.6,18.3 25.8,16.8 	"/>
	<polygon fill="none" stroke="#983315" stroke-width="0.1" points="25.6,16.3 21.5,18.2 21.5,18.3 21.6,18.3 25.8,16.8 	"/>
	<polygon fill="#983315" points="25.6,16.4 22.8,17.7 25.7,16.6 	"/>
	<path fill="#FBBE3D" d="M24.2,16.7c-0.6,0-1,0.4-1.5,0.3c-0.6,0-0.9,0.3-1.1,0.3c-0.2,0.1-0.3-0.1-0.4,0c0,0.1,0.1,0.2,0.4,0.2
		c0.3,0,0.4-0.3,1.1-0.2c0.7,0.1,0.8-0.3,1.5-0.2L24.2,16.7z"/>
	<path fill="none" stroke="#983315" stroke-width="0.1" d="M24.2,16.7c-0.6,0-1,0.4-1.5,0.3c-0.6,0-0.9,0.3-1.1,0.3
		c-0.2,0.1-0.3-0.1-0.4,0c0,0.1,0.1,0.2,0.4,0.2c0.3,0,0.4-0.3,1.1-0.2c0.7,0.1,0.8-0.3,1.5-0.2L24.2,16.7z"/>
	<path fill="#983315" d="M24.1,16.8c-0.6,0-0.9,0.4-1.4,0.3c0.4,0.1,0.8-0.2,1.4-0.2L24.1,16.8z"/>
	<polygon fill="#FBBE3D" points="25.8,16.8 29.8,14.9 29.9,14.8 29.8,14.8 25.6,16.3 	"/>
	<polygon fill="none" stroke="#983315" stroke-width="0.1" points="25.8,16.8 29.8,14.9 29.9,14.8 29.8,14.8 25.6,16.3 	"/>
	<polygon fill="#983315" points="25.7,16.6 28.5,15.4 25.6,16.4 	"/>
	<path fill="#FBBE3D" d="M27.2,16.4c0.6,0,1-0.4,1.5-0.3c0.6,0,0.9-0.3,1.1-0.3c0.2-0.1,0.3,0.1,0.4,0c0-0.1-0.1-0.2-0.4-0.2
		c-0.3,0-0.4,0.3-1.1,0.2c-0.7-0.1-0.8,0.3-1.5,0.2L27.2,16.4z"/>
	<path fill="none" stroke="#983315" stroke-width="0.1" d="M27.2,16.4c0.6,0,1-0.4,1.5-0.3c0.6,0,0.9-0.3,1.1-0.3
		c0.2-0.1,0.3,0.1,0.4,0c0-0.1-0.1-0.2-0.4-0.2c-0.3,0-0.4,0.3-1.1,0.2c-0.7-0.1-0.8,0.3-1.5,0.2L27.2,16.4z"/>
	<path fill="#983315" d="M27.3,16.3c0.6,0,0.9-0.4,1.4-0.3c-0.4-0.1-0.8,0.2-1.4,0.2L27.3,16.3z"/>
	<polygon fill="#FBBE3D" points="25.9,16.5 24,12.4 23.9,12.3 23.9,12.4 25.5,16.6 	"/>
	<polygon fill="none" stroke="#983315" stroke-width="0.1" points="25.9,16.5 24,12.4 23.9,12.3 23.9,12.4 25.5,16.6 	"/>
	<polygon fill="#983315" points="25.8,16.5 24.5,13.7 25.6,16.6 	"/>
	<path fill="#FBBE3D" d="M25.5,15c0-0.6-0.4-1-0.3-1.5c0-0.6-0.3-0.9-0.3-1.1c-0.1-0.2,0.1-0.3,0-0.4c-0.1,0-0.2,0.1-0.2,0.4
		c0,0.3,0.3,0.4,0.2,1.1c-0.1,0.7,0.3,0.8,0.2,1.5L25.5,15z"/>
	<path fill="none" stroke="#983315" stroke-width="0.1" d="M25.5,15c0-0.6-0.4-1-0.3-1.5c0-0.6-0.3-0.9-0.3-1.1
		c-0.1-0.2,0.1-0.3,0-0.4c-0.1,0-0.2,0.1-0.2,0.4c0,0.3,0.3,0.4,0.2,1.1c-0.1,0.7,0.3,0.8,0.2,1.5L25.5,15z"/>
	<path fill="#983315" d="M25.4,14.9c0-0.6-0.4-0.9-0.3-1.4c-0.1,0.4,0.2,0.8,0.2,1.4L25.4,14.9z"/>
	<polygon fill="#FBBE3D" points="25.5,16.6 27.3,20.7 27.4,20.8 27.4,20.7 25.9,16.5 	"/>
	<polygon fill="none" stroke="#983315" stroke-width="0.1" points="25.5,16.6 27.3,20.7 27.4,20.8 27.4,20.7 25.9,16.5 	"/>
	<polygon fill="#983315" points="25.6,16.6 26.9,19.4 25.8,16.5 	"/>
	<path fill="#FBBE3D" d="M25.8,18c0,0.6,0.4,1,0.3,1.5c-0.1,0.6,0.3,0.9,0.3,1.1c0.1,0.2-0.1,0.3,0,0.4c0.1,0,0.2-0.1,0.2-0.4
		c0-0.3-0.3-0.4-0.2-1.1c0.1-0.7-0.3-0.8-0.2-1.5L25.8,18z"/>
	<path fill="none" stroke="#983315" stroke-width="0.1" d="M25.8,18c0,0.6,0.4,1,0.3,1.5c-0.1,0.6,0.3,0.9,0.3,1.1
		c0.1,0.2-0.1,0.3,0,0.4c0.1,0,0.2-0.1,0.2-0.4c0-0.3-0.3-0.4-0.2-1.1c0.1-0.7-0.3-0.8-0.2-1.5L25.8,18z"/>
	<path fill="#983315" d="M26,18.1c0,0.6,0.4,0.9,0.3,1.4c0.1-0.4-0.2-0.8-0.2-1.4L26,18.1z"/>
	<circle fill="#FBBE3D" cx="25.7" cy="16.5" r="1.8"/>
	<circle fill="none" stroke="#983315" stroke-width="0.1" cx="25.7" cy="16.5" r="1.8"/>
	<path fill="#983315" d="M26.8,16.1c-0.3-0.3-0.7-0.3-1-0.1c-0.2,0.2-0.1,0.5,0,0.7l-0.1,0c-0.1-0.3-0.2-0.5-0.1-0.8
		C26.1,15.8,26.5,15.7,26.8,16.1z"/>
	<path fill="#983315" d="M26.3,16.1c-0.2,0-0.2,0-0.3,0.1l-0.1,0.1l0,0l0.2-0.1L26.3,16.1c0.3,0,0.4,0.3,0.4,0.2
		C26.8,16.3,26.6,16.1,26.3,16.1z"/>
	<path fill="#983315" d="M26.6,16.3c-0.2-0.2-0.5-0.2-0.7,0H26C26.2,16.1,26.5,16.2,26.6,16.3L26.6,16.3L26.6,16.3z"/>
	
		<rect x="26.2" y="16.2" transform="matrix(-0.7071 -0.7071 0.7071 -0.7071 33.3754 46.4044)" fill="#983315" width="0.2" height="0.2"/>
	<path fill="#983315" d="M26,16.3c0.1,0.1,0.5,0.1,0.7,0l-0.1,0C26.4,16.4,26.2,16.4,26,16.3L26,16.3L26,16.3z"/>
	<path fill="#983315" d="M26.7,16.4c-0.2,0.2-0.5,0.2-0.6,0.1c-0.1-0.1-0.1-0.1-0.1-0.1s0.1,0,0.2,0.1
		C26.2,16.5,26.4,16.5,26.7,16.4z"/>
	<path fill="#983315" d="M26,16.8l0.1,0.1L25.9,17l-0.1-0.1c0,0-0.1,0.1-0.2,0.1h0l0,0l0.2,0l0.2,0L26,16.8L26,16.8z"/>
	<path fill="#983315" d="M26.1,17.4c-0.1-0.1-0.2-0.2-0.3-0.2l-0.1,0h0l0,0c0.1,0,0.1-0.1,0.2,0C26,17.3,26.1,17.4,26.1,17.4z"/>
	<path fill="#983315" d="M26.1,17.4c-0.3-0.1-0.3,0-0.4,0h0l0,0.1C25.8,17.4,25.8,17.3,26.1,17.4z"/>
	<path fill="#983315" d="M26.1,17.4c-0.3,0-0.2,0.2-0.5,0.2h0l0,0C26,17.6,25.8,17.4,26.1,17.4z"/>
	<path fill="#983315" d="M25.9,17.8c0-0.1-0.1-0.3-0.3-0.3c-0.1,0-0.3,0.1-0.3,0.3c0-0.1,0.2-0.2,0.3-0.2
		C25.8,17.7,25.9,17.7,25.9,17.8z"/>
	<path fill="#983315" d="M24.5,16.1c0.3-0.3,0.7-0.3,1-0.1c0.2,0.2,0.1,0.5,0,0.7l0.1,0c0.1-0.3,0.2-0.5,0.1-0.8
		C25.3,15.8,24.8,15.7,24.5,16.1z"/>
	<path fill="#983315" d="M25,16.1c0.2,0,0.2,0,0.3,0.1l0.1,0.1l0,0l-0.2-0.1L25,16.1c-0.3,0-0.4,0.3-0.4,0.2
		C24.6,16.3,24.8,16.1,25,16.1z"/>
	<path fill="#983315" d="M24.7,16.3c0.2-0.2,0.5-0.2,0.7,0h-0.1C25.2,16.1,24.8,16.2,24.7,16.3L24.7,16.3L24.7,16.3z"/>
	
		<rect x="25" y="16.2" transform="matrix(0.7098 -0.7044 0.7044 0.7098 -4.2019 22.3798)" fill="#983315" width="0.2" height="0.2"/>
	<path fill="#983315" d="M25.4,16.3c-0.1,0.1-0.4,0.1-0.7,0l0.1,0C24.9,16.4,25.2,16.4,25.4,16.3L25.4,16.3L25.4,16.3z"/>
	<path fill="#983315" d="M24.7,16.4c0.2,0.2,0.5,0.2,0.6,0.1c0.1-0.1,0.1-0.1,0.1-0.1c0,0-0.1,0-0.2,0.1
		C25.1,16.5,25,16.5,24.7,16.4z"/>
	<path fill="#983315" d="M25.4,16.8l-0.1,0.1l0.1,0.1l0.1-0.1c0,0,0.1,0.1,0.2,0.1h0l0,0l-0.2,0l-0.2,0L25.4,16.8L25.4,16.8z"/>
	<path fill="#983315" d="M25.2,17.4c0.1-0.1,0.2-0.2,0.3-0.2l0.1,0h0l0,0c-0.1,0-0.1-0.1-0.2,0C25.3,17.3,25.3,17.4,25.2,17.4z"/>
	<path fill="#983315" d="M25.3,17.4c0.3-0.1,0.3,0,0.4,0h0l0,0.1C25.6,17.4,25.5,17.3,25.3,17.4z"/>
	<path fill="#983315" d="M25.2,17.4c0.3,0,0.2,0.2,0.5,0.2h0l0,0C25.4,17.6,25.5,17.4,25.2,17.4z"/>
	<path fill="#983315" d="M25.4,17.8c0-0.1,0.1-0.3,0.3-0.3c0.1,0,0.3,0.1,0.3,0.3c0-0.1-0.2-0.2-0.3-0.2
		C25.5,17.7,25.4,17.7,25.4,17.8z"/>
</g>
</svg>
