<?xml version="1.0" encoding="utf-8"?>
<!-- Generator: Adobe Illustrator 19.1.0, SVG Export Plug-In . SVG Version: 6.00 Build 0)  -->
<svg version="1.1" id="Layer_1" xmlns="http://www.w3.org/2000/svg" xmlns:xlink="http://www.w3.org/1999/xlink" x="0px" y="0px"
	 viewBox="0 0 49.5 33.1" enable-background="new 0 0 49.5 33.1" xml:space="preserve">
<g>
	<path fill="#FFFFFF" d="M-14.9,83.8h79.5c3.1,0,5.7-2.6,5.7-5.7V-58.1c0-3.1-2.6-5.7-5.7-5.7h-79.5c-3.1,0-5.7,2.6-5.7,5.7V78.1
		C-20.6,81.2-18,83.8-14.9,83.8z"/>
	<path fill="none" stroke="#EDEDED" stroke-width="0.5" stroke-miterlimit="10" d="M-14.9,83.8h79.5c3.1,0,5.7-2.6,5.7-5.7V-58.1
		c0-3.1-2.6-5.7-5.7-5.7h-79.5c-3.1,0-5.7,2.6-5.7,5.7V78.1C-20.6,81.2-18,83.8-14.9,83.8z"/>
	<polygon fill="#E52A1A" points="49.5,33 49.4,33 0.1,33 0,0.1 49.4,0 49.5,33 	"/>
	<path d="M49.4,0.1V33H0.1V0.1H49.4 M49.5,0L49.5,0H0.1H0v0.1V33v0.1h0.1h49.3h0.1V33V0L49.5,0z"/>
	<rect x="0.1" y="11.1" fill="#FFFFFF" width="49.3" height="11"/>
</g>
</svg>
