<?xml version="1.0" encoding="utf-8"?>
<!-- Generator: Adobe Illustrator 19.1.0, SVG Export Plug-In . SVG Version: 6.00 Build 0)  -->
<svg version="1.1" id="Layer_1" xmlns="http://www.w3.org/2000/svg" xmlns:xlink="http://www.w3.org/1999/xlink" x="0px" y="0px"
	 viewBox="0 0 53 26.6" enable-background="new 0 0 53 26.6" xml:space="preserve">
<g>
	<path fill="#FFFFFF" d="M-13.7,80h79.5c3.1,0,5.7-2.6,5.7-5.7V-61.9c0-3.1-2.6-5.7-5.7-5.7h-79.5c-3.1,0-5.7,2.6-5.7,5.7V74.3
		C-19.3,77.5-16.8,80-13.7,80z"/>
	<path fill="none" stroke="#EDEDED" stroke-width="0.5" stroke-miterlimit="10" d="M-13.7,80h79.5c3.1,0,5.7-2.6,5.7-5.7V-61.9
		c0-3.1-2.6-5.7-5.7-5.7h-79.5c-3.1,0-5.7,2.6-5.7,5.7V74.3C-19.3,77.5-16.8,80-13.7,80z"/>
	<polygon fill="#46C1F1" points="52.9,26.6 52.9,26.6 0.1,26.6 0,0.1 52.9,0 52.9,26.5 	"/>
	<path d="M52.9,0.1v26.4H0.1V0.1H52.9 M53,0h-0.1H0.1H0v0.1v26.4v0.1h0.1h52.8H53v-0.1V0L53,0z"/>
	<polygon fill="#FFFFFF" points="17.7,24.2 35.3,24.2 26.5,2.4 	"/>
	<polygon points="18.9,24.2 34.1,24.2 26.5,5.4 	"/>
	<polygon fill="#FFD110" points="17.7,24.2 35.3,24.2 26.5,13.3 	"/>
</g>
</svg>
