<?xml version="1.0" encoding="utf-8"?>
<!-- Generator: Adobe Illustrator 19.1.0, SVG Export Plug-In . SVG Version: 6.00 Build 0)  -->
<svg version="1.1" id="Layer_1" xmlns="http://www.w3.org/2000/svg" xmlns:xlink="http://www.w3.org/1999/xlink" x="0px" y="0px"
	 viewBox="0 0 49.7 33.2" enable-background="new 0 0 49.7 33.2" xml:space="preserve">
<g>
	<path fill="#FFFFFF" d="M-15,83.1h79.5c3.1,0,5.7-2.6,5.7-5.7V-58.8c0-3.1-2.6-5.7-5.7-5.7H-15c-3.1,0-5.7,2.6-5.7,5.7V77.5
		C-20.7,80.6-18.2,83.1-15,83.1z"/>
	<path fill="none" stroke="#EDEDED" stroke-width="0.5" stroke-miterlimit="10" d="M-15,83.1h79.5c3.1,0,5.7-2.6,5.7-5.7V-58.8
		c0-3.1-2.6-5.7-5.7-5.7H-15c-3.1,0-5.7,2.6-5.7,5.7V77.5C-20.7,80.6-18.2,83.1-15,83.1z"/>
	<polygon fill="#FFFFFF" points="49.6,33.1 49.6,33.1 33.1,33.1 16.6,33.1 0.1,33.1 0,0.1 16.6,0.1 33.1,0.1 49.6,0.1 49.6,33.1 	
		"/>
	<path d="M49.6,0.1v33H33.1H16.6H0.1v-33h16.5h16.5H49.6 M49.7,0L49.7,0H33.1H16.6H0.1H0v0.1v33v0.1h0.1h16.5h16.5h16.5h0.1v-0.1
		v-33V0z"/>
	<rect x="33.1" y="0.1" fill="#FFD20B" width="16.5" height="33"/>
	<rect x="0.1" y="0.1" fill="#137D61" width="16.5" height="33"/>
	<rect x="16.6" y="0.1" fill="#E52023" width="16.5" height="33"/>
	<polygon fill="#FFD20B" points="26.4,17.1 29,15.2 25.8,15.2 24.8,12.2 23.9,15.2 20.7,15.2 23.3,17.1 22.3,20.2 24.8,18.3 
		27.4,20.2 	"/>
</g>
</svg>
