<?xml version="1.0" encoding="utf-8"?>
<!-- Generator: Adobe Illustrator 19.1.0, SVG Export Plug-In . SVG Version: 6.00 Build 0)  -->
<svg version="1.1" id="Layer_1" xmlns="http://www.w3.org/2000/svg" xmlns:xlink="http://www.w3.org/1999/xlink" x="0px" y="0px"
	 viewBox="0 0 49.7 33.2" enable-background="new 0 0 49.7 33.2" xml:space="preserve">
<g>
	<path fill="#FFFFFF" d="M-14.9,83.2h79.5c3.1,0,5.7-2.6,5.7-5.7V-58.7c0-3.1-2.6-5.7-5.7-5.7h-79.5c-3.1,0-5.7,2.6-5.7,5.7V77.5
		C-20.6,80.6-18.1,83.2-14.9,83.2z"/>
	<path fill="none" stroke="#EDEDED" stroke-width="0.5" stroke-miterlimit="10" d="M-14.9,83.2h79.5c3.1,0,5.7-2.6,5.7-5.7V-58.7
		c0-3.1-2.6-5.7-5.7-5.7h-79.5c-3.1,0-5.7,2.6-5.7,5.7V77.5C-20.6,80.6-18.1,83.2-14.9,83.2z"/>
	<polygon fill="#FFFFFF" points="49.6,33.1 49.6,33.1 0.1,33.1 0.1,0.1 49.6,0 49.6,33.1 	"/>
	<path d="M49.6,0.1v33H0.1v-33H49.6 M49.7,0L49.7,0H0.1H0v0.1v33v0.1h0.1h49.5h0.1v-0.1V0L49.7,0z"/>
	<rect x="16.6" y="0.1" fill="#E83F38" width="33" height="33"/>
	<rect x="16.6" y="16.6" fill="#0E8139" width="33" height="16.5"/>
</g>
</svg>
