<?xml version="1.0" encoding="utf-8"?>
<!-- Generator: Adobe Illustrator 19.1.0, SVG Export Plug-In . SVG Version: 6.00 Build 0)  -->
<svg version="1.1" id="Layer_1" xmlns="http://www.w3.org/2000/svg" xmlns:xlink="http://www.w3.org/1999/xlink" x="0px" y="0px"
	 viewBox="0 0 52.9 26.6" enable-background="new 0 0 52.9 26.6" xml:space="preserve">
<g>
	<path fill="#FFFFFF" d="M-13.1,80h79.5c3.1,0,5.7-2.6,5.7-5.7V-61.9c0-3.1-2.6-5.7-5.7-5.7h-79.5c-3.1,0-5.7,2.6-5.7,5.7V74.3
		C-18.8,77.4-16.2,80-13.1,80z"/>
	<path fill="none" stroke="#EDEDED" stroke-width="0.5" stroke-miterlimit="10" d="M-13.1,80h79.5c3.1,0,5.7-2.6,5.7-5.7V-61.9
		c0-3.1-2.6-5.7-5.7-5.7h-79.5c-3.1,0-5.7,2.6-5.7,5.7V74.3C-18.8,77.4-16.2,80-13.1,80z"/>
	<polygon fill="#9D1919" points="52.9,26.5 52.8,26.5 0.1,26.5 0.1,0.1 52.8,0.1 52.9,26.5 	"/>
	<path d="M52.8,0.1v26.4H0.1V0.1H52.8 M52.9,0L52.9,0H0.1H0v0.1v26.4v0.1h0.1h52.7h0.1v-0.1V0L52.9,0z"/>
	<rect x="0.1" y="10.6" fill="#FFFFFF" width="52.7" height="5.3"/>
</g>
</svg>
