<?xml version="1.0" encoding="utf-8"?>
<!-- Generator: Adobe Illustrator 19.1.0, SVG Export Plug-In . SVG Version: 6.00 Build 0)  -->
<svg version="1.1" id="Layer_1" xmlns="http://www.w3.org/2000/svg" xmlns:xlink="http://www.w3.org/1999/xlink" x="0px" y="0px"
	 viewBox="0 0 28.2 33.3" enable-background="new 0 0 28.2 33.3" xml:space="preserve">
<g>
	<path fill="#FFFFFF" d="M-24.8,84.2h79.5c3.1,0,5.7-2.6,5.7-5.7V-57.7c0-3.1-2.6-5.7-5.7-5.7h-79.5c-3.1,0-5.7,2.6-5.7,5.7V78.5
		C-30.5,81.6-27.9,84.2-24.8,84.2z"/>
	<path fill="none" stroke="#EDEDED" stroke-width="0.5" stroke-miterlimit="10" d="M-24.8,84.2h79.5c3.1,0,5.7-2.6,5.7-5.7V-57.7
		c0-3.1-2.6-5.7-5.7-5.7h-79.5c-3.1,0-5.7,2.6-5.7,5.7V78.5C-30.5,81.6-27.9,84.2-24.8,84.2z"/>
	<polygon points="1.4,2.5 1.4,31.9 23.5,31.9 7.8,16.3 23.5,16.3 	"/>
	<polygon fill="none" stroke="#33368C" stroke-width="0.1" points="1.4,2.5 1.4,31.9 23.5,31.9 7.8,16.3 23.5,16.3 	"/>
	<polygon fill="#284290" points="26.6,33.2 26.5,33.2 23.5,33.2 1.4,33.2 0.1,33.2 0,31.9 0,2.5 0,0.2 2.1,1.4 24.2,15.2 27.9,17.5 
		23.5,17.6 10.9,17.6 24.4,31 26.6,33.2 	"/>
	<path d="M0.1,0.2L2,1.4l22.1,13.8l3.7,2.3h-4.4H10.9L24.4,31l2.2,2.2h-3.1H1.4H0.1v-1.3V2.5V0.2 M0,0v0.2v2.3v29.5v1.3v0.1h0.1h1.3
		h22.1h3.1h0.2l-0.2-0.2L24.4,31L11.1,17.7h12.3h4.4h0.3l-0.3-0.2l-3.7-2.3L2.1,1.3L0.2,0.1L0,0z"/>
	<polygon fill="#E51F22" points="1.4,2.5 1.4,31.9 23.5,31.9 7.8,16.3 23.5,16.3 	"/>
	<circle fill="#FFFFFF" cx="6.9" cy="11.1" r="4.4"/>
	<path fill="#E51F22" d="M6.8,5.9l2.5,1.4l2.7,1.8c0,2.6-2.4,4.9-5,4.9c-2.6,0-4.7-2.1-4.7-4.7C2.2,6.8,4.2,5.9,6.8,5.9z"/>
	<circle fill="#FFFFFF" cx="6.9" cy="13.2" r="2"/>
	<polygon fill="#FFFFFF" points="7.7,11.3 7.4,10.4 6.9,11.1 	"/>
	<polygon fill="#FFFFFF" points="8.3,11.7 8.5,10.8 7.7,11.3 	"/>
	<polygon fill="#FFFFFF" points="8.8,12.4 9.3,11.6 8.3,11.7 	"/>
	<polygon fill="#FFFFFF" points="8.9,13.2 9.7,12.6 8.8,12.4 	"/>
	<polygon fill="#FFFFFF" points="8.8,13.9 9.7,13.7 8.9,13.2 	"/>
	<polygon fill="#FFFFFF" points="8.3,14.6 9.3,14.7 8.8,13.9 	"/>
	<polygon fill="#FFFFFF" points="6.1,11.3 6.3,10.4 6.9,11.1 	"/>
	<polygon fill="#FFFFFF" points="5.4,11.7 5.3,10.8 6.1,11.3 	"/>
	<polygon fill="#FFFFFF" points="5,12.4 4.5,11.6 5.4,11.7 	"/>
	<polygon fill="#FFFFFF" points="4.8,13.2 4.1,12.6 5,12.4 	"/>
	<polygon fill="#FFFFFF" points="5,13.9 4.1,13.7 4.8,13.2 	"/>
	<polygon fill="#FFFFFF" points="5.4,14.6 4.5,14.7 5,13.9 	"/>
	<circle fill="#FFFFFF" cx="6.9" cy="24.1" r="3"/>
	<polygon fill="#FFFFFF" points="7.7,27 6.9,28.8 6.1,27 	"/>
	<polygon fill="#FFFFFF" points="6.1,21.2 6.9,19.4 7.7,21.2 	"/>
	<polygon fill="#FFFFFF" points="4,24.9 2.2,24.1 4,23.3 	"/>
	<polygon fill="#FFFFFF" points="9.8,23.3 11.6,24.1 9.8,24.9 	"/>
	<polygon fill="#FFFFFF" points="6.1,27 4.5,28.2 4.8,26.2 	"/>
	<polygon fill="#FFFFFF" points="7.7,21.2 9.3,20 9,22 	"/>
	<polygon fill="#FFFFFF" points="4,23.3 2.8,21.7 4.8,22 	"/>
	<polygon fill="#FFFFFF" points="9.8,24.9 11,26.5 9,26.2 	"/>
	<polygon fill="#FFFFFF" points="4.8,26.2 2.8,26.5 4,24.9 	"/>
	<polygon fill="#FFFFFF" points="9,22 11,21.7 9.8,23.3 	"/>
	<polygon fill="#FFFFFF" points="4.8,22 4.5,20 6.1,21.2 	"/>
	<polygon fill="#FFFFFF" points="9,26.2 9.3,28.2 7.7,27 	"/>
</g>
</svg>
