<?xml version="1.0" encoding="utf-8"?>
<!-- Generator: Adobe Illustrator 19.1.0, SVG Export Plug-In . SVG Version: 6.00 Build 0)  -->
<svg version="1.1" id="Layer_1" xmlns="http://www.w3.org/2000/svg" xmlns:xlink="http://www.w3.org/1999/xlink" x="0px" y="0px"
	 viewBox="0 0 49.5 33.1" enable-background="new 0 0 49.5 33.1" xml:space="preserve">
<g>
	<path fill="#FFFFFF" d="M-15,83h79.5c3.1,0,5.7-2.6,5.7-5.7V-58.9c0-3.1-2.6-5.7-5.7-5.7H-15c-3.1,0-5.7,2.6-5.7,5.7V77.3
		C-20.7,80.4-18.1,83-15,83z"/>
	<path fill="none" stroke="#EDEDED" stroke-width="0.5" stroke-miterlimit="10" d="M-15,83h79.5c3.1,0,5.7-2.6,5.7-5.7V-58.9
		c0-3.1-2.6-5.7-5.7-5.7H-15c-3.1,0-5.7,2.6-5.7,5.7V77.3C-20.7,80.4-18.1,83-15,83z"/>
	<polygon fill="#E52023" points="49.5,33 49.4,33 0.1,33 0.1,0.1 49.4,0 49.5,33 	"/>
	<path d="M49.4,0.1V33H0.1V0.1H49.4 M49.5,0h-0.1H0.1H0v0.1V33v0.1h0.1h49.3h0.1V33V0.1V0z"/>
	<rect x="0.1" y="16.5" width="49.3" height="16.4"/>
	<polygon fill="#FFD808" points="21.9,12.7 24.1,12.7 24.8,10.6 25.4,12.7 27.6,12.7 25.8,13.9 26.5,16 24.8,14.7 23,16 23.7,13.9 	
		"/>
	<path fill="#FFD808" d="M30.9,24.7l0.8-0.9c0.4,0.4,1,0.8,1.4,1.2c0.4,0.4,0.7,0.7,1,1.1c0.4,0.6,0,1.3-0.6,0.9
		c-0.3-0.2-0.5-0.8-1-1.3c-0.4-0.3-0.6-0.6-1.5-0.8L30.9,24.7z"/>
	<rect x="31.9" y="24.4" transform="matrix(0.7129 -0.7012 0.7012 0.7129 -7.9903 29.4154)" width="0.2" height="0.2"/>
	<rect x="32.7" y="25.1" transform="matrix(0.7098 -0.7044 0.7044 0.7098 -8.2311 30.3728)" width="0.2" height="0.2"/>
	<rect x="33.4" y="25.8" transform="matrix(0.7012 -0.7129 0.7129 0.7012 -8.4692 31.5944)" width="0.2" height="0.2"/>
	<path fill="#FFD808" d="M33.3,17.4c0.1-0.6,0.1-1.1,0-1.7l-0.7,0.1c-0.1-0.5-0.2-1-0.3-1.5l0.6-0.2c-0.2-0.5-0.4-1.1-0.6-1.5
		l-0.6,0.3c-0.2-0.5-0.5-0.9-0.9-1.3l0.5-0.4c-0.4-0.4-0.8-0.8-1.2-1.2l-0.4,0.5c-0.4-0.3-0.8-0.6-1.3-0.9L28.8,9
		c-0.5-0.3-1-0.5-1.5-0.6L27,9c-0.5-0.1-1-0.2-1.5-0.3l-0.2,1.5c3.2,0.3,5.7,3,5.7,6.3c0,3.5-2.9,6.4-6.4,6.4c-1.5,0-2.9-0.6-4-1.5
		l-0.9,1.1c0.4,0.3,0.8,0.6,1.3,0.9l-0.3,0.6c0.5,0.3,1,0.5,1.5,0.6l0.2-0.6c0.5,0.2,1,0.3,1.5,0.3l-0.1,0.7c0.6,0.1,1.1,0.1,1.7,0
		l-0.1-0.7c0.5-0.1,1-0.2,1.5-0.3l0.2,0.6c0.5-0.2,1.1-0.4,1.5-0.6l-0.3-0.6c0.5-0.2,0.9-0.5,1.3-0.9l0.4,0.5
		c0.4-0.4,0.8-0.8,1.2-1.2l-0.5-0.4c0.3-0.4,0.6-0.8,0.9-1.3l0.6,0.3c0.3-0.5,0.5-1,0.6-1.5l-0.6-0.2c0.1-0.5,0.3-1,0.3-1.5
		L33.3,17.4z"/>
	<polygon points="25.5,21.8 27.7,23.1 28.2,25 30.7,24.8 31.8,23.5 27.7,20.6 	"/>
	<path fill="#FFD808" d="M30.8,24.6c-2.9-1.9-4.7-2.9-7.4-4.5c-1.1-0.6-2.7-2.1-1.4-4.7c0.1,1.7,6.7,6.3,9.6,8.3L30.8,24.6z"/>
</g>
</svg>
