<?xml version="1.0" encoding="utf-8"?>
<!-- Generator: Adobe Illustrator 19.1.0, SVG Export Plug-In . SVG Version: 6.00 Build 0)  -->
<svg version="1.1" id="Layer_1" xmlns="http://www.w3.org/2000/svg" xmlns:xlink="http://www.w3.org/1999/xlink" x="0px" y="0px"
	 viewBox="0 0 49.6 33.2" enable-background="new 0 0 49.6 33.2" xml:space="preserve">
<g>
	<path fill="#FFFFFF" d="M-14.8,82.8h79.5c3.1,0,5.7-2.6,5.7-5.7V-59.1c0-3.1-2.6-5.7-5.7-5.7h-79.5c-3.1,0-5.7,2.6-5.7,5.7V77.1
		C-20.5,80.2-17.9,82.8-14.8,82.8z"/>
	<path fill="none" stroke="#EDEDED" stroke-width="0.5" stroke-miterlimit="10" d="M-14.8,82.8h79.5c3.1,0,5.7-2.6,5.7-5.7V-59.1
		c0-3.1-2.6-5.7-5.7-5.7h-79.5c-3.1,0-5.7,2.6-5.7,5.7V77.1C-20.5,80.2-17.9,82.8-14.8,82.8z"/>
	<polygon fill="#FFFFFF" points="49.6,33.2 49.5,33.2 37.3,33.2 12.6,33.2 0.1,33.2 0,0.1 12.6,0 37.3,0 49.5,0.1 49.6,33.1 	"/>
	<path d="M37.3,0.1L37.3,0.1l12.2,0.1v32.9H37.3H12.6H0.1v-33h12.5H37.3 M37.4,0h-0.1H12.6H0.1H0v0.1v33v0.1h0.1h12.5h24.7h12.2h0.1
		v-0.1V0.2V0.1h-0.1L37.4,0L37.4,0z"/>
	<rect x="12.6" y="0.1" fill="#FFD110" width="24.7" height="33"/>
	<rect x="0.1" y="0.1" fill="#306FB6" width="12.5" height="33"/>
	<rect x="37.3" y="0.2" fill="#00A162" width="12.2" height="32.9"/>
	<polygon fill="#00A162" points="18.7,16.6 21.4,11.1 24.2,16.6 21.4,22.1 	"/>
	<polygon fill="#00A162" points="28.3,11.2 25.6,16.5 28.4,22.1 31,16.6 	"/>
	<polygon fill="#00A162" points="24.9,18.1 22.1,23.5 24.9,28.9 27.6,23.5 	"/>
</g>
</svg>
