<?xml version="1.0" encoding="utf-8"?>
<!-- Generator: Adobe Illustrator 19.1.0, SVG Export Plug-In . SVG Version: 6.00 Build 0)  -->
<svg version="1.1" id="Layer_1" xmlns="http://www.w3.org/2000/svg" xmlns:xlink="http://www.w3.org/1999/xlink" x="0px" y="0px"
	 viewBox="0 0 49.7 33.2" enable-background="new 0 0 49.7 33.2" xml:space="preserve">
<g>
	<path fill="#FFFFFF" d="M-14.8,83.3h79.5c3.1,0,5.7-2.6,5.7-5.7V-58.6c0-3.1-2.6-5.7-5.7-5.7h-79.5c-3.1,0-5.7,2.6-5.7,5.7V77.7
		C-20.5,80.8-18,83.3-14.8,83.3z"/>
	<path fill="none" stroke="#EDEDED" stroke-width="0.5" stroke-miterlimit="10" d="M-14.8,83.3h79.5c3.1,0,5.7-2.6,5.7-5.7V-58.6
		c0-3.1-2.6-5.7-5.7-5.7h-79.5c-3.1,0-5.7,2.6-5.7,5.7V77.7C-20.5,80.8-18,83.3-14.8,83.3z"/>
	<polygon fill="#E52023" points="49.6,33.1 49.6,33.1 0.1,33.1 0,0.1 49.6,0 49.6,33.1 	"/>
	<path d="M49.6,0.1v33H0.1v-33H49.6 M49.7,0h-0.1H0.1H0v0.1v33v0.1h0.1h49.5h0.1v-0.1V0L49.7,0z"/>
	<rect x="0.1" y="8.4" fill="#2C2766" width="49.5" height="16.5"/>
	<circle fill="#FFFFFF" cx="24.8" cy="16.6" r="6.6"/>
</g>
</svg>
