<?xml version="1.0" encoding="utf-8"?>
<!-- Generator: Adobe Illustrator 19.1.0, SVG Export Plug-In . SVG Version: 6.00 Build 0)  -->
<svg version="1.1" id="Layer_1" xmlns="http://www.w3.org/2000/svg" xmlns:xlink="http://www.w3.org/1999/xlink" x="0px" y="0px"
	 viewBox="0 0 53 26.6" enable-background="new 0 0 53 26.6" xml:space="preserve">
<g>
	<path fill="#FFFFFF" d="M-13.2,79.3h79.5c3.1,0,5.7-2.6,5.7-5.7V-62.6c0-3.1-2.6-5.7-5.7-5.7h-79.5c-3.1,0-5.7,2.6-5.7,5.7V73.7
		C-18.8,76.8-16.3,79.3-13.2,79.3z"/>
	<path fill="none" stroke="#EDEDED" stroke-width="0.5" stroke-miterlimit="10" d="M-13.2,79.3h79.5c3.1,0,5.7-2.6,5.7-5.7V-62.6
		c0-3.1-2.6-5.7-5.7-5.7h-79.5c-3.1,0-5.7,2.6-5.7,5.7V73.7C-18.8,76.8-16.3,79.3-13.2,79.3z"/>
	<polygon fill="#FFFFFF" points="52.9,26.5 52.9,26.5 0.1,26.5 0,19 0,7.6 0,0.1 52.9,0 52.9,7.6 52.9,19 52.9,26.5 	"/>
	<path d="M52.9,0.1v7.5V19v7.5H0.1V19V7.6V0.1H52.9 M53,0L53,0H0.1H0v0.1v7.5V19v7.5v0.1h0.1h52.8H53v-0.1V19V7.6V0L53,0z"/>
	<rect x="0.1" y="19" fill="#3AAA35" width="52.8" height="7.5"/>
	<rect x="0.1" y="0.1" fill="#E62641" width="52.8" height="7.5"/>
	<path fill="#E3B511" d="M26.5,16c0.2,0.3,1,0.5,1.7,0.2c0.1,0.3,1,0.8,1.7,0.3c-0.8-0.1-1.3-0.4-1.7-1c-0.5,0.4-1.2,0-1.4-0.1
		l0-2.1l1.1-1.1c0-0.2-0.7-0.9-1.4-0.9c-0.7,0-1.4,0.7-1.4,0.9l1.1,1.1l0,2.1c-0.2,0.2-0.9,0.5-1.4,0.1c-0.5,0.6-0.9,0.9-1.7,1
		c0.8,0.6,1.6,0,1.7-0.3C25.4,16.5,26.2,16.2,26.5,16L26.5,16z M26.5,12.8c-0.3-0.5-0.8-0.6-0.8-0.6s0.3-0.5,0.8-0.5
		c0.5,0,0.8,0.5,0.8,0.5S26.7,12.3,26.5,12.8z"/>
	<path fill="#E3B511" d="M26.5,17.1c-1,0-1.6,0.4-2,0.7l-0.3-0.3c0.3-0.3,0.6-0.4,0.7-0.8c0.1-0.3-0.1-0.5-0.1-0.5s0.3,0.4,1,0.4
		c0.4,0,0.7-0.5,0.7-0.5V17.1z M26.5,16.1c0,0,0.3,0.5,0.7,0.5c0.7,0,1-0.4,1-0.4S28,16.4,28,16.7c0.1,0.4,0.4,0.5,0.7,0.8l-0.3,0.3
		c-0.3-0.4-1-0.7-2-0.7V16.1z"/>
	<polygon fill="#E3B511" points="31.3,13.6 31.5,14.2 32.1,14.2 31.6,14.5 31.8,15.1 31.3,14.8 30.8,15.1 31,14.5 30.5,14.2 
		31.1,14.2 	"/>
	<polygon fill="#E3B511" points="30.7,11.2 30.9,11.8 31.5,11.8 31,12.1 31.2,12.7 30.7,12.4 30.2,12.7 30.4,12.1 29.9,11.8 
		30.5,11.8 	"/>
	<polygon fill="#E3B511" points="28.9,9.4 29.1,10 29.7,10 29.2,10.4 29.4,11 28.9,10.6 28.4,11 28.6,10.4 28.1,10 28.7,10 	"/>
	<polygon fill="#E3B511" points="26.5,8.8 26.7,9.4 27.3,9.4 26.8,9.7 27,10.3 26.5,10 26,10.3 26.2,9.7 25.7,9.4 26.3,9.4 	"/>
	<polygon fill="#E3B511" points="24.1,9.4 24.3,10 24.9,10 24.4,10.4 24.6,11 24.1,10.6 23.6,11 23.8,10.4 23.3,10 23.9,10 	"/>
	<polygon fill="#E3B511" points="22.3,11.2 22.5,11.8 23.1,11.8 22.6,12.1 22.8,12.7 22.3,12.4 21.8,12.7 22,12.1 21.5,11.8 
		22.1,11.8 	"/>
	<polygon fill="#E3B511" points="21.7,13.6 21.9,14.2 22.5,14.2 22,14.5 22.2,15.1 21.7,14.8 21.2,15.1 21.4,14.5 20.9,14.2 
		21.5,14.2 	"/>
</g>
</svg>
