<?xml version="1.0" encoding="utf-8"?>
<!-- Generator: Adobe Illustrator 19.1.0, SVG Export Plug-In . SVG Version: 6.00 Build 0)  -->
<svg version="1.1" id="Layer_1" xmlns="http://www.w3.org/2000/svg" xmlns:xlink="http://www.w3.org/1999/xlink" x="0px" y="0px"
	 viewBox="0 0 49.7 33.2" enable-background="new 0 0 49.7 33.2" xml:space="preserve">
<g>
	<path fill="#FFFFFF" d="M-15,83h79.5c3.1,0,5.7-2.6,5.7-5.7V-58.9c0-3.1-2.6-5.7-5.7-5.7H-15c-3.1,0-5.7,2.6-5.7,5.7V77.4
		C-20.7,80.5-18.1,83-15,83z"/>
	<path fill="none" stroke="#EDEDED" stroke-width="0.5" stroke-miterlimit="10" d="M-15,83h79.5c3.1,0,5.7-2.6,5.7-5.7V-58.9
		c0-3.1-2.6-5.7-5.7-5.7H-15c-3.1,0-5.7,2.6-5.7,5.7V77.4C-20.7,80.5-18.1,83-15,83z"/>
	<polygon fill="#372781" points="49.6,33.1 49.6,33.1 0.1,33.1 0,0.1 49.6,0.1 49.6,33.1 	"/>
	<path d="M49.6,0.1v33H0.1v-33H49.6 M49.7,0L49.7,0H0.1H0v0.1v33v0.1h0.1h49.5h0.1v-0.1v-33V0z"/>
	<rect x="0.1" y="8.3" fill="#E41B13" width="49.5" height="16.5"/>
	<rect x="14.4" y="16.6" fill="#FFFFFF" width="21" height="3.4"/>
	<rect x="14.4" y="16.6" fill="none" stroke="#E41B13" stroke-width="0.1" width="21" height="3.4"/>
	<polygon fill="#FFFFFF" points="14.3,20 14,20.8 35.7,20.8 35.4,20 	"/>
	<polygon fill="none" stroke="#E41B13" stroke-width="0.1" points="14.3,20 14,20.8 35.7,20.8 35.4,20 	"/>
	<polygon fill="#FFFFFF" points="30.9,20 30.5,20.8 35.4,20.8 35,20 	"/>
	<polygon fill="none" stroke="#E41B13" stroke-width="0.1" points="30.9,20 30.5,20.8 35.4,20.8 35,20 	"/>
	<polygon fill="#FFFFFF" points="32.1,20 31.9,20.8 34.4,20.8 34.2,20 	"/>
	<polygon fill="none" stroke="#E41B13" stroke-width="0.1" points="32.1,20 31.9,20.8 34.4,20.8 34.2,20 	"/>
	<polygon fill="#FFFFFF" points="32.5,20 32.3,20.8 33.9,20.8 33.8,20 	"/>
	<polygon fill="none" stroke="#E41B13" stroke-width="0.1" points="32.5,20 32.3,20.8 33.9,20.8 33.8,20 	"/>
	<polygon fill="#FFFFFF" points="22.7,20 22.3,20.8 27.4,20.8 27,20 	"/>
	<polygon fill="none" stroke="#E41B13" stroke-width="0.1" points="22.7,20 22.3,20.8 27.4,20.8 27,20 	"/>
	<rect x="14.2" y="16.5" fill="#FFFFFF" width="21.2" height="0.8"/>
	<rect x="14.2" y="16.5" fill="none" stroke="#E41B13" stroke-width="0.1" width="21.2" height="0.8"/>
	<rect x="30.9" y="16.6" fill="#FFFFFF" width="4.2" height="3.4"/>
	<rect x="30.9" y="16.6" fill="none" stroke="#E41B13" stroke-width="0.1" width="4.2" height="3.4"/>
	<rect x="33.9" y="18.2" fill="#FFFFFF" width="0.4" height="1.8"/>
	<rect x="33.9" y="18.2" fill="none" stroke="#E41B13" stroke-width="0.1" width="0.4" height="1.8"/>
	<rect x="32" y="18.2" fill="#FFFFFF" width="0.4" height="1.8"/>
	<rect x="32" y="18.2" fill="none" stroke="#E41B13" stroke-width="0.1" width="0.4" height="1.8"/>
	<polygon fill="#FFFFFF" points="23.7,20 23.5,20.8 26.1,20.8 25.9,20 	"/>
	<polygon fill="none" stroke="#E41B13" stroke-width="0.1" points="23.7,20 23.5,20.8 26.1,20.8 25.9,20 	"/>
	<polygon fill="#FFFFFF" points="24.2,20 24,20.8 25.7,20.8 25.5,20 	"/>
	<polygon fill="none" stroke="#E41B13" stroke-width="0.1" points="24.2,20 24,20.8 25.7,20.8 25.5,20 	"/>
	<rect x="22.6" y="16.6" fill="#FFFFFF" width="4.4" height="3.4"/>
	<rect x="22.6" y="16.6" fill="none" stroke="#E41B13" stroke-width="0.1" width="4.4" height="3.4"/>
	<rect x="26.1" y="18.2" fill="#FFFFFF" width="0.4" height="1.8"/>
	<rect x="26.1" y="18.2" fill="none" stroke="#E41B13" stroke-width="0.1" width="0.4" height="1.8"/>
	<rect x="23.2" y="18.2" fill="#FFFFFF" width="0.4" height="1.8"/>
	<rect x="23.2" y="18.2" fill="none" stroke="#E41B13" stroke-width="0.1" width="0.4" height="1.8"/>
	<rect x="23.8" y="15.7" fill="#FFFFFF" width="2.1" height="4.2"/>
	<rect x="23.8" y="15.7" fill="none" stroke="#E41B13" stroke-width="0.1" width="2.1" height="4.2"/>
	<rect x="25.4" y="18.2" fill="#FFFFFF" width="0.4" height="1.8"/>
	<rect x="25.4" y="18.2" fill="none" stroke="#E41B13" stroke-width="0.1" width="0.4" height="1.8"/>
	<rect x="24" y="18.2" fill="#FFFFFF" width="0.4" height="1.8"/>
	<rect x="24" y="18.2" fill="none" stroke="#E41B13" stroke-width="0.1" width="0.4" height="1.8"/>
	<polygon fill="#FFFFFF" points="23.9,16.4 24.8,17.7 25.8,16.4 	"/>
	<polygon fill="none" stroke="#E41B13" stroke-width="0.1" points="23.9,16.4 24.8,17.7 25.8,16.4 	"/>
	<rect x="32.5" y="16.6" fill="#FFFFFF" width="1.2" height="4.2"/>
	<rect x="32.5" y="16.6" fill="none" stroke="#E41B13" stroke-width="0.1" width="1.2" height="4.2"/>
	<rect x="32.7" y="16.6" fill="#FFFFFF" width="0.8" height="4.2"/>
	<rect x="32.7" y="16.6" fill="none" stroke="#E41B13" stroke-width="0.1" width="0.8" height="4.2"/>
	<polygon fill="#FFFFFF" points="14.6,20 14.2,20.8 19.1,20.8 18.7,20 	"/>
	<polygon fill="none" stroke="#E41B13" stroke-width="0.1" points="14.6,20 14.2,20.8 19.1,20.8 18.7,20 	"/>
	<polygon fill="#FFFFFF" points="15.6,20 15.4,20.8 17.7,20.8 17.5,20 	"/>
	<polygon fill="none" stroke="#E41B13" stroke-width="0.1" points="15.6,20 15.4,20.8 17.7,20.8 17.5,20 	"/>
	<polygon fill="#FFFFFF" points="16,20 15.8,20.8 17.3,20.8 17.2,20 	"/>
	<polygon fill="none" stroke="#E41B13" stroke-width="0.1" points="16,20 15.8,20.8 17.3,20.8 17.2,20 	"/>
	<rect x="14.6" y="16.6" fill="#FFFFFF" width="4.1" height="3.4"/>
	<rect x="14.6" y="16.6" fill="none" stroke="#E41B13" stroke-width="0.1" width="4.1" height="3.4"/>
	<rect x="15.4" y="18.2" fill="#FFFFFF" width="0.4" height="1.8"/>
	<rect x="15.4" y="18.2" fill="none" stroke="#E41B13" stroke-width="0.1" width="0.4" height="1.8"/>
	<rect x="17.3" y="18.2" fill="#FFFFFF" width="0.4" height="1.8"/>
	<rect x="17.3" y="18.2" fill="none" stroke="#E41B13" stroke-width="0.1" width="0.4" height="1.8"/>
	<rect x="16" y="16.6" fill="#FFFFFF" width="1.2" height="4.2"/>
	<rect x="16" y="16.6" fill="none" stroke="#E41B13" stroke-width="0.1" width="1.2" height="4.2"/>
	<rect x="16.2" y="16.6" fill="#FFFFFF" width="0.8" height="4.2"/>
	<rect x="16.2" y="16.6" fill="none" stroke="#E41B13" stroke-width="0.1" width="0.8" height="4.2"/>
	<rect x="14" y="15.8" fill="#FFFFFF" width="21.7" height="0.8"/>
	<rect x="14" y="15.8" fill="none" stroke="#E41B13" stroke-width="0.1" width="21.7" height="0.8"/>
	<rect x="13.4" y="20.6" fill="#FFFFFF" width="22.8" height="1"/>
	<rect x="13.4" y="20.6" fill="none" stroke="#E41B13" stroke-width="0.1" width="22.8" height="1"/>
	<rect x="13.1" y="20.8" fill="#FFFFFF" width="23.5" height="1"/>
	<rect x="13.1" y="20.8" fill="none" stroke="#E41B13" stroke-width="0.1" width="23.5" height="1"/>
	<rect x="12.4" y="21.4" fill="#FFFFFF" width="24.8" height="1"/>
	<rect x="12.4" y="21.4" fill="none" stroke="#E41B13" stroke-width="0.1" width="24.8" height="1"/>
	<rect x="11.6" y="22.1" fill="#FFFFFF" width="26.5" height="1"/>
	<rect x="11.6" y="22.1" fill="none" stroke="#E41B13" stroke-width="0.1" width="26.5" height="1"/>
	<rect x="10.7" y="23.1" fill="#FFFFFF" width="28.3" height="1"/>
	<rect x="10.7" y="23.1" fill="none" stroke="#E41B13" stroke-width="0.1" width="28.3" height="1"/>
	<rect x="16" y="20.6" fill="#FFFFFF" width="1.2" height="3.6"/>
	<rect x="16" y="20.6" fill="none" stroke="#E41B13" stroke-width="0.1" width="1.2" height="3.6"/>
	<rect x="16.2" y="20.6" fill="#FFFFFF" width="0.8" height="3.6"/>
	<rect x="16.2" y="20.6" fill="none" stroke="#E41B13" stroke-width="0.1" width="0.8" height="3.6"/>
	<rect x="32.5" y="20.6" fill="#FFFFFF" width="1.2" height="3.6"/>
	<rect x="32.5" y="20.6" fill="none" stroke="#E41B13" stroke-width="0.1" width="1.2" height="3.6"/>
	<rect x="32.7" y="20.6" fill="#FFFFFF" width="0.8" height="3.6"/>
	<rect x="32.7" y="20.6" fill="none" stroke="#E41B13" stroke-width="0.1" width="0.8" height="3.6"/>
	<rect x="24.4" y="16.6" fill="#FFFFFF" width="0.9" height="7.6"/>
	<rect x="24.4" y="16.6" fill="none" stroke="#E41B13" stroke-width="0.1" width="0.9" height="7.6"/>
	<path fill="#FFFFFF" d="M31.2,16.6l0-2.1c0,0,0.2,0.4,1.9,0.5c1.6-0.1,1.8-0.3,1.9-0.5l-0.1,2.1L31.2,16.6z"/>
	<path fill="none" stroke="#E41B13" stroke-width="0.1" d="M31.2,16.6l0-2.1c0,0,0.2,0.4,1.9,0.5c1.6-0.1,1.8-0.3,1.9-0.5l-0.1,2.1
		L31.2,16.6z"/>
	<path fill="#FFFFFF" d="M32.2,14.2l-0.5-0.4c0.2-0.1,0.5,0.1,0.5,0.1s0.2-0.5,0.9-0.7c0.7,0.2,0.9,0.7,0.9,0.7s0.3-0.2,0.5-0.1
		L34,14.2H32.2z"/>
	<path fill="none" stroke="#E41B13" stroke-width="0.1" d="M32.2,14.2l-0.5-0.4c0.2-0.1,0.5,0.1,0.5,0.1s0.2-0.5,0.9-0.7
		c0.7,0.2,0.9,0.7,0.9,0.7s0.3-0.2,0.5-0.1L34,14.2H32.2z"/>
	<path fill="#FFFFFF" d="M32,15.2l-0.7-0.6c0.2-0.1,0.6,0.1,0.6,0.1s0.2-0.7,1.2-0.9c0.9,0.3,1.2,0.9,1.2,0.9s0.4-0.3,0.6-0.1
		l-0.7,0.6H32z"/>
	<path fill="none" stroke="#E41B13" stroke-width="0.1" d="M32,15.2l-0.7-0.6c0.2-0.1,0.6,0.1,0.6,0.1s0.2-0.7,1.2-0.9
		c0.9,0.3,1.2,0.9,1.2,0.9s0.4-0.3,0.6-0.1l-0.7,0.6H32z"/>
	<path fill="#FFFFFF" d="M33.1,11c0,0,0.8,1.4,0,1.4C32.3,12.4,33.1,11,33.1,11z"/>
	<path fill="none" stroke="#E41B13" stroke-width="0.1" d="M33.1,11c0,0,0.8,1.4,0,1.4C32.3,12.4,33.1,11,33.1,11z"/>
	<path fill="#FFFFFF" d="M32.4,12.7L32,12.5c0.1-0.1,0.4,0,0.4,0s0.1-0.2,0.7-0.4c0.6,0.1,0.7,0.4,0.7,0.4s0.2-0.1,0.4,0l-0.4,0.2
		H32.4z"/>
	<path fill="none" stroke="#E41B13" stroke-width="0.1" d="M32.4,12.7L32,12.5c0.1-0.1,0.4,0,0.4,0s0.1-0.2,0.7-0.4
		c0.6,0.1,0.7,0.4,0.7,0.4s0.2-0.1,0.4,0l-0.4,0.2H32.4z"/>
	<path fill="#FFFFFF" d="M32.8,12.9l0-0.2c0,0,0.1-0.2,0.4-0.3c0.3,0.1,0.4,0.3,0.4,0.3l0,0.2H32.8z"/>
	<path fill="none" stroke="#E41B13" stroke-width="0.1" d="M32.8,12.9l0-0.2c0,0,0.1-0.2,0.4-0.3c0.3,0.1,0.4,0.3,0.4,0.3l0,0.2
		H32.8z"/>
	<path fill="#FFFFFF" d="M32.4,13.4l0-0.2c0,0,0.1-0.3,0.7-0.5c0.6,0.1,0.7,0.5,0.7,0.5l0,0.2H32.4z"/>
	<path fill="none" stroke="#E41B13" stroke-width="0.1" d="M32.4,13.4l0-0.2c0,0,0.1-0.3,0.7-0.5c0.6,0.1,0.7,0.5,0.7,0.5l0,0.2
		H32.4z"/>
	<path fill="#FFFFFF" d="M32.4,13.8l0-0.2c0,0,0.1-0.3,0.7-0.5c0.6,0.1,0.7,0.5,0.7,0.5l0,0.2H32.4z"/>
	<path fill="none" stroke="#E41B13" stroke-width="0.1" d="M32.4,13.8l0-0.2c0,0,0.1-0.3,0.7-0.5c0.6,0.1,0.7,0.5,0.7,0.5l0,0.2
		H32.4z"/>
	<path fill="#FFFFFF" d="M32.4,14.8L32,14.2c0.1-0.1,0.4,0.1,0.4,0.1s0.1-0.7,0.7-0.9c0.6,0.3,0.7,0.9,0.7,0.9s0.2-0.3,0.4-0.1
		l-0.4,0.6H32.4z"/>
	<path fill="none" stroke="#E41B13" stroke-width="0.1" d="M32.4,14.8L32,14.2c0.1-0.1,0.4,0.1,0.4,0.1s0.1-0.7,0.7-0.9
		c0.6,0.3,0.7,0.9,0.7,0.9s0.2-0.3,0.4-0.1l-0.4,0.6H32.4z"/>
	<path fill="#FFFFFF" d="M32.4,15.5L32,14.9c0.1-0.1,0.4,0.1,0.4,0.1s0.1-0.7,0.7-0.9c0.6,0.3,0.7,0.9,0.7,0.9s0.2-0.3,0.4-0.1
		l-0.4,0.6H32.4z"/>
	<path fill="none" stroke="#E41B13" stroke-width="0.1" d="M32.4,15.5L32,14.9c0.1-0.1,0.4,0.1,0.4,0.1s0.1-0.7,0.7-0.9
		c0.6,0.3,0.7,0.9,0.7,0.9s0.2-0.3,0.4-0.1l-0.4,0.6H32.4z"/>
	<path fill="#FFFFFF" d="M32.4,16.6l0-0.6c0,0,0.1-0.8,0.7-1.2c0.6,0.3,0.7,1.2,0.7,1.2l0,0.6H32.4z"/>
	<path fill="none" stroke="#E41B13" stroke-width="0.1" d="M32.4,16.6l0-0.6c0,0,0.1-0.8,0.7-1.2c0.6,0.3,0.7,1.2,0.7,1.2l0,0.6
		H32.4z"/>
	<path fill="#FFFFFF" d="M32.4,16.6L32,16.1c0.1-0.1,0.4,0.1,0.4,0.1s0.1-0.5,0.7-0.7c0.6,0.2,0.7,0.7,0.7,0.7s0.2-0.2,0.4-0.1
		l-0.4,0.4H32.4z"/>
	<path fill="none" stroke="#E41B13" stroke-width="0.1" d="M32.4,16.6L32,16.1c0.1-0.1,0.4,0.1,0.4,0.1s0.1-0.5,0.7-0.7
		c0.6,0.2,0.7,0.7,0.7,0.7s0.2-0.2,0.4-0.1l-0.4,0.4H32.4z"/>
	<path fill="#FFFFFF" d="M15.7,14l-0.5-0.4c0.2-0.1,0.5,0.1,0.5,0.1s0.2-0.5,0.9-0.7c0.7,0.2,0.9,0.7,0.9,0.7s0.3-0.2,0.5-0.1
		L17.5,14H15.7z"/>
	<path fill="none" stroke="#E41B13" stroke-width="0.1" d="M15.7,14l-0.5-0.4c0.2-0.1,0.5,0.1,0.5,0.1s0.2-0.5,0.9-0.7
		c0.7,0.2,0.9,0.7,0.9,0.7s0.3-0.2,0.5-0.1L17.5,14H15.7z"/>
	<path fill="#FFFFFF" d="M15.5,15.1l-0.7-0.6c0.2-0.1,0.6,0.1,0.6,0.1s0.2-0.7,1.2-0.9c0.9,0.3,1.2,0.9,1.2,0.9s0.4-0.3,0.6-0.1
		l-0.7,0.6H15.5z"/>
	<path fill="none" stroke="#E41B13" stroke-width="0.1" d="M15.5,15.1l-0.7-0.6c0.2-0.1,0.6,0.1,0.6,0.1s0.2-0.7,1.2-0.9
		c0.9,0.3,1.2,0.9,1.2,0.9s0.4-0.3,0.6-0.1l-0.7,0.6H15.5z"/>
	<path fill="#FFFFFF" d="M14.8,16.6l0-2.1c0,0,0.2,0.4,1.9,0.5c1.6-0.1,1.8-0.3,1.9-0.5l-0.1,2.1L14.8,16.6z"/>
	<path fill="none" stroke="#E41B13" stroke-width="0.1" d="M14.8,16.6l0-2.1c0,0,0.2,0.4,1.9,0.5c1.6-0.1,1.8-0.3,1.9-0.5l-0.1,2.1
		L14.8,16.6z"/>
	<path fill="#FFFFFF" d="M16.6,11c0,0,0.8,1.4,0,1.4C15.8,12.4,16.6,11,16.6,11z"/>
	<path fill="none" stroke="#E41B13" stroke-width="0.1" d="M16.6,11c0,0,0.8,1.4,0,1.4C15.8,12.4,16.6,11,16.6,11z"/>
	<path fill="#FFFFFF" d="M15.9,12.7l-0.4-0.2c0.1-0.1,0.4,0,0.4,0s0.1-0.2,0.7-0.4c0.6,0.1,0.7,0.4,0.7,0.4s0.2-0.1,0.4,0l-0.4,0.2
		H15.9z"/>
	<path fill="none" stroke="#E41B13" stroke-width="0.1" d="M15.9,12.7l-0.4-0.2c0.1-0.1,0.4,0,0.4,0s0.1-0.2,0.7-0.4
		c0.6,0.1,0.7,0.4,0.7,0.4s0.2-0.1,0.4,0l-0.4,0.2H15.9z"/>
	<path fill="#FFFFFF" d="M16.3,12.9l0-0.2c0,0,0.1-0.2,0.4-0.3c0.3,0.1,0.4,0.3,0.4,0.3l0,0.2H16.3z"/>
	<path fill="none" stroke="#E41B13" stroke-width="0.1" d="M16.3,12.9l0-0.2c0,0,0.1-0.2,0.4-0.3c0.3,0.1,0.4,0.3,0.4,0.3l0,0.2
		H16.3z"/>
	<path fill="#FFFFFF" d="M15.9,13.4l0-0.2c0,0,0.1-0.3,0.7-0.5c0.6,0.1,0.7,0.5,0.7,0.5l0,0.2H15.9z"/>
	<path fill="none" stroke="#E41B13" stroke-width="0.1" d="M15.9,13.4l0-0.2c0,0,0.1-0.3,0.7-0.5c0.6,0.1,0.7,0.5,0.7,0.5l0,0.2
		H15.9z"/>
	<path fill="#FFFFFF" d="M15.9,13.8l0-0.2c0,0,0.1-0.3,0.7-0.5c0.6,0.1,0.7,0.5,0.7,0.5l0,0.2H15.9z"/>
	<path fill="none" stroke="#E41B13" stroke-width="0.1" d="M15.9,13.8l0-0.2c0,0,0.1-0.3,0.7-0.5c0.6,0.1,0.7,0.5,0.7,0.5l0,0.2
		H15.9z"/>
	<path fill="#FFFFFF" d="M15.9,14.8l-0.4-0.6c0.1-0.1,0.4,0.1,0.4,0.1s0.1-0.7,0.7-0.9c0.6,0.3,0.7,0.9,0.7,0.9s0.2-0.3,0.4-0.1
		l-0.4,0.6H15.9z"/>
	<path fill="none" stroke="#E41B13" stroke-width="0.1" d="M15.9,14.8l-0.4-0.6c0.1-0.1,0.4,0.1,0.4,0.1s0.1-0.7,0.7-0.9
		c0.6,0.3,0.7,0.9,0.7,0.9s0.2-0.3,0.4-0.1l-0.4,0.6H15.9z"/>
	<path fill="#FFFFFF" d="M15.9,15.5l-0.4-0.6c0.1-0.1,0.4,0.1,0.4,0.1s0.1-0.7,0.7-0.9c0.6,0.3,0.7,0.9,0.7,0.9s0.2-0.3,0.4-0.1
		l-0.4,0.6H15.9z"/>
	<path fill="none" stroke="#E41B13" stroke-width="0.1" d="M15.9,15.5l-0.4-0.6c0.1-0.1,0.4,0.1,0.4,0.1s0.1-0.7,0.7-0.9
		c0.6,0.3,0.7,0.9,0.7,0.9s0.2-0.3,0.4-0.1l-0.4,0.6H15.9z"/>
	<path fill="#FFFFFF" d="M15.9,16.6l0-0.6c0,0,0.1-0.8,0.7-1.2c0.6,0.3,0.7,1.2,0.7,1.2l0,0.6H15.9z"/>
	<path fill="none" stroke="#E41B13" stroke-width="0.1" d="M15.9,16.6l0-0.6c0,0,0.1-0.8,0.7-1.2c0.6,0.3,0.7,1.2,0.7,1.2l0,0.6
		H15.9z"/>
	<path fill="#FFFFFF" d="M15.9,16.6l-0.4-0.4c0.1-0.1,0.4,0.1,0.4,0.1s0.1-0.5,0.7-0.7c0.6,0.2,0.7,0.7,0.7,0.7s0.2-0.2,0.4-0.1
		l-0.4,0.4H15.9z"/>
	<path fill="none" stroke="#E41B13" stroke-width="0.1" d="M15.9,16.6l-0.4-0.4c0.1-0.1,0.4,0.1,0.4,0.1s0.1-0.5,0.7-0.7
		c0.6,0.2,0.7,0.7,0.7,0.7s0.2-0.2,0.4-0.1l-0.4,0.4H15.9z"/>
	<path fill="#FFFFFF" d="M22.4,15.6h4.8c0.2,0,0.4,0.2,0.4,0.4c0,0.2-0.2,0.4-0.4,0.4h-4.8c-0.2,0-0.4-0.2-0.4-0.4
		C22,15.8,22.2,15.6,22.4,15.6z"/>
	<path fill="none" stroke="#E41B13" stroke-width="0.1" d="M22.4,15.6h4.8c0.2,0,0.4,0.2,0.4,0.4c0,0.2-0.2,0.4-0.4,0.4h-4.8
		c-0.2,0-0.4-0.2-0.4-0.4C22,15.8,22.2,15.6,22.4,15.6z"/>
	<path fill="#FFFFFF" d="M27.8,16.1l0-2.8c0,0-0.1,0.7-0.4,0.7c-0.3,0-4.7,0-5,0c-0.3,0-0.4-0.7-0.4-0.7l0,2.8H27.8z"/>
	<path fill="none" stroke="#E41B13" stroke-width="0.1" d="M27.8,16.1l0-2.8c0,0-0.1,0.7-0.4,0.7c-0.3,0-4.7,0-5,0
		c-0.3,0-0.4-0.7-0.4-0.7l0,2.8H27.8z"/>
	<path fill="#FFFFFF" d="M26.6,14.9l0-0.9c0,0,0.6-0.2,0.5-0.4c-0.1-0.2-0.8,0.3-0.8,0.3h-3c0,0-0.8-0.5-0.8-0.3
		c-0.1,0.2,0.5,0.4,0.5,0.4l0,0.9H26.6z"/>
	<path fill="none" stroke="#E41B13" stroke-width="0.1" d="M26.6,14.9l0-0.9c0,0,0.6-0.2,0.5-0.4c-0.1-0.2-0.8,0.3-0.8,0.3h-3
		c0,0-0.8-0.5-0.8-0.3c-0.1,0.2,0.5,0.4,0.5,0.4l0,0.9H26.6z"/>
	<path fill="#FFFFFF" d="M27,15.7l0-1c0,0,0.8-0.1,0.6-0.4c-0.1-0.2-1,0.3-1,0.3H23c0,0-0.9-0.5-1-0.3c-0.1,0.2,0.6,0.4,0.6,0.4l0,1
		H27z"/>
	<path fill="none" stroke="#E41B13" stroke-width="0.1" d="M27,15.7l0-1c0,0,0.8-0.1,0.6-0.4c-0.1-0.2-1,0.3-1,0.3H23
		c0,0-0.9-0.5-1-0.3c-0.1,0.2,0.6,0.4,0.6,0.4l0,1H27z"/>
	<path fill="#FFFFFF" d="M25.4,10.7l0-0.4c-0.4,0-0.3-0.4-0.3-0.6c0.1-0.2,0.2-0.5-0.2-0.6c-0.4,0.2-0.3,0.5-0.2,0.6
		c0,0.2,0.1,0.6-0.3,0.6l0,0.4H25.4z"/>
	<path fill="none" stroke="#E41B13" stroke-width="0.1" d="M25.4,10.7l0-0.4c-0.4,0-0.3-0.4-0.3-0.6c0.1-0.2,0.2-0.5-0.2-0.6
		c-0.4,0.2-0.3,0.5-0.2,0.6c0,0.2,0.1,0.6-0.3,0.6l0,0.4H25.4z"/>
	<path fill="#FFFFFF" d="M26.1,13.2l0-0.7c0,0,0.4-0.1,0.4-0.3c-0.1-0.2-0.6,0.2-0.6,0.2h-2.1c0,0-0.5-0.4-0.6-0.2
		c-0.1,0.2,0.4,0.3,0.4,0.3l0,0.7H26.1z"/>
	<path fill="none" stroke="#E41B13" stroke-width="0.1" d="M26.1,13.2l0-0.7c0,0,0.4-0.1,0.4-0.3c-0.1-0.2-0.6,0.2-0.6,0.2h-2.1
		c0,0-0.5-0.4-0.6-0.2c-0.1,0.2,0.4,0.3,0.4,0.3l0,0.7H26.1z"/>
	<path fill="#FFFFFF" d="M26.4,13.9l0-0.8c0,0,0.5-0.1,0.5-0.3c-0.1-0.2-0.7,0.2-0.7,0.2h-2.6c0,0-0.6-0.4-0.7-0.2
		c-0.1,0.2,0.5,0.3,0.5,0.3l0,0.8H26.4z"/>
	<path fill="none" stroke="#E41B13" stroke-width="0.1" d="M26.4,13.9l0-0.8c0,0,0.5-0.1,0.5-0.3c-0.1-0.2-0.7,0.2-0.7,0.2h-2.6
		c0,0-0.6-0.4-0.7-0.2c-0.1,0.2,0.5,0.3,0.5,0.3l0,0.8H26.4z"/>
	<path fill="#FFFFFF" d="M25.7,12l0-0.5c0,0,0.3-0.1,0.2-0.3c0-0.1-0.4,0.2-0.4,0.2h-1.4c0,0-0.3-0.3-0.4-0.2c0,0.1,0.2,0.3,0.2,0.3
		l0,0.5H25.7z"/>
	<path fill="none" stroke="#E41B13" stroke-width="0.1" d="M25.7,12l0-0.5c0,0,0.3-0.1,0.2-0.3c0-0.1-0.4,0.2-0.4,0.2h-1.4
		c0,0-0.3-0.3-0.4-0.2c0,0.1,0.2,0.3,0.2,0.3l0,0.5H25.7z"/>
	<path fill="#FFFFFF" d="M25.8,12.5l0-0.5c0,0,0.3-0.1,0.3-0.3c0-0.1-0.5,0.2-0.5,0.2H24c0,0-0.4-0.3-0.5-0.2c0,0.1,0.3,0.3,0.3,0.3
		l0,0.5H25.8z"/>
	<path fill="none" stroke="#E41B13" stroke-width="0.1" d="M25.8,12.5l0-0.5c0,0,0.3-0.1,0.3-0.3c0-0.1-0.5,0.2-0.5,0.2H24
		c0,0-0.4-0.3-0.5-0.2c0,0.1,0.3,0.3,0.3,0.3l0,0.5H25.8z"/>
	<path fill="#FFFFFF" d="M25.4,11.2l0-0.4c0,0,0.2-0.1,0.2-0.2c0-0.1-0.3,0.1-0.3,0.1h-1c0,0-0.2-0.3-0.3-0.1c0,0.1,0.2,0.2,0.2,0.2
		l0,0.4L25.4,11.2z"/>
	<path fill="none" stroke="#E41B13" stroke-width="0.1" d="M25.4,11.2l0-0.4c0,0,0.2-0.1,0.2-0.2c0-0.1-0.3,0.1-0.3,0.1h-1
		c0,0-0.2-0.3-0.3-0.1c0,0.1,0.2,0.2,0.2,0.2l0,0.4L25.4,11.2z"/>
	<path fill="#FFFFFF" d="M25.5,11.5l0-0.4c0,0,0.2-0.1,0.2-0.2c0-0.1-0.3,0.1-0.3,0.1h-1.2c0,0-0.3-0.2-0.3-0.1
		c0,0.1,0.2,0.2,0.2,0.2l0,0.4H25.5z"/>
	<path fill="none" stroke="#E41B13" stroke-width="0.1" d="M25.5,11.5l0-0.4c0,0,0.2-0.1,0.2-0.2c0-0.1-0.3,0.1-0.3,0.1h-1.2
		c0,0-0.3-0.2-0.3-0.1c0,0.1,0.2,0.2,0.2,0.2l0,0.4H25.5z"/>
	<path fill="#FFFFFF" d="M24.5,11.5l-0.2-0.2l0.2,0c0,0,0.1-0.3,0.4-0.4c0.3,0.1,0.4,0.4,0.4,0.4l0.2,0l-0.2,0.2H24.5z"/>
	<path fill="none" stroke="#E41B13" stroke-width="0.1" d="M24.5,11.5l-0.2-0.2l0.2,0c0,0,0.1-0.3,0.4-0.4c0.3,0.1,0.4,0.4,0.4,0.4
		l0.2,0l-0.2,0.2H24.5z"/>
	<path fill="#FFFFFF" d="M24.3,11.9L24,11.6c0.1-0.1,0.3,0,0.3,0s0.1-0.3,0.5-0.4c0.4,0.1,0.5,0.4,0.5,0.4s0.2-0.1,0.3,0l-0.3,0.2
		H24.3z"/>
	<path fill="none" stroke="#E41B13" stroke-width="0.1" d="M24.3,11.9L24,11.6c0.1-0.1,0.3,0,0.3,0s0.1-0.3,0.5-0.4
		c0.4,0.1,0.5,0.4,0.5,0.4s0.2-0.1,0.3,0l-0.3,0.2H24.3z"/>
	<path fill="#FFFFFF" d="M24.3,12.6l-0.3-0.3c0.1-0.1,0.3,0.1,0.3,0.1s0.1-0.4,0.6-0.5c0.5,0.2,0.6,0.5,0.6,0.5s0.2-0.1,0.3-0.1
		l-0.3,0.3H24.3z"/>
	<path fill="none" stroke="#E41B13" stroke-width="0.1" d="M24.3,12.6l-0.3-0.3c0.1-0.1,0.3,0.1,0.3,0.1s0.1-0.4,0.6-0.5
		c0.5,0.2,0.6,0.5,0.6,0.5s0.2-0.1,0.3-0.1l-0.3,0.3H24.3z"/>
	<path fill="#FFFFFF" d="M24.1,13.4L23.7,13c0.1-0.1,0.4,0.1,0.4,0.1s0.1-0.5,0.8-0.7c0.6,0.2,0.8,0.7,0.8,0.7s0.3-0.2,0.4-0.1
		l-0.4,0.4H24.1z"/>
	<path fill="none" stroke="#E41B13" stroke-width="0.1" d="M24.1,13.4L23.7,13c0.1-0.1,0.4,0.1,0.4,0.1s0.1-0.5,0.8-0.7
		c0.6,0.2,0.8,0.7,0.8,0.7s0.3-0.2,0.4-0.1l-0.4,0.4H24.1z"/>
	<polygon fill="#FFFFFF" points="24,14.1 24.8,15.2 25.7,14.1 	"/>
	<polygon fill="none" stroke="#E41B13" stroke-width="0.1" points="24,14.1 24.8,15.2 25.7,14.1 	"/>
	<path fill="#FFFFFF" d="M24,14.3l-0.5-0.5c0.2-0.1,0.5,0.1,0.5,0.1s0.2-0.5,0.9-0.7c0.7,0.2,0.9,0.7,0.9,0.7s0.3-0.2,0.5-0.1
		l-0.5,0.5H24z"/>
	<path fill="none" stroke="#E41B13" stroke-width="0.1" d="M24,14.3l-0.5-0.5c0.2-0.1,0.5,0.1,0.5,0.1s0.2-0.5,0.9-0.7
		c0.7,0.2,0.9,0.7,0.9,0.7s0.3-0.2,0.5-0.1l-0.5,0.5H24z"/>
	<polygon fill="#FFFFFF" points="23.9,15.3 24.8,16.6 25.8,15.3 	"/>
	<polygon fill="none" stroke="#E41B13" stroke-width="0.1" points="23.9,15.3 24.8,16.6 25.8,15.3 	"/>
	<path fill="#FFFFFF" d="M23.9,15.4l-0.6-0.6c0.2-0.1,0.5,0.1,0.5,0.1s0.2-0.7,1-0.9c0.8,0.3,1,0.9,1,0.9s0.3-0.3,0.5-0.1l-0.6,0.6
		H23.9z"/>
	<path fill="none" stroke="#E41B13" stroke-width="0.1" d="M23.9,15.4l-0.6-0.6c0.2-0.1,0.5,0.1,0.5,0.1s0.2-0.7,1-0.9
		c0.8,0.3,1,0.9,1,0.9s0.3-0.3,0.5-0.1l-0.6,0.6H23.9z"/>
	<path fill="#FFFFFF" d="M23.9,16.6L23.3,16c0.2-0.1,0.5,0.1,0.5,0.1s0.2-0.7,1-0.9c0.8,0.3,1,0.9,1,0.9s0.3-0.3,0.5-0.1l-0.6,0.6
		H23.9z"/>
	<path fill="none" stroke="#E41B13" stroke-width="0.1" d="M23.9,16.6L23.3,16c0.2-0.1,0.5,0.1,0.5,0.1s0.2-0.7,1-0.9
		c0.8,0.3,1,0.9,1,0.9s0.3-0.3,0.5-0.1l-0.6,0.6H23.9z"/>
	<rect x="19.1" y="18.2" fill="#FFFFFF" width="0.4" height="1.8"/>
	<rect x="19.1" y="18.2" fill="none" stroke="#E41B13" stroke-width="0.1" width="0.4" height="1.8"/>
	<rect x="20.5" y="18.2" fill="#FFFFFF" width="0.4" height="1.8"/>
	<rect x="20.5" y="18.2" fill="none" stroke="#E41B13" stroke-width="0.1" width="0.4" height="1.8"/>
	<rect x="19.8" y="18.2" fill="#FFFFFF" width="0.4" height="1.8"/>
	<rect x="19.8" y="18.2" fill="none" stroke="#E41B13" stroke-width="0.1" width="0.4" height="1.8"/>
	<rect x="27.4" y="18.2" fill="#FFFFFF" width="0.4" height="1.8"/>
	<rect x="27.4" y="18.2" fill="none" stroke="#E41B13" stroke-width="0.1" width="0.4" height="1.8"/>
	<rect x="30.2" y="18.2" fill="#FFFFFF" width="0.4" height="1.8"/>
	<rect x="30.2" y="18.2" fill="none" stroke="#E41B13" stroke-width="0.1" width="0.4" height="1.8"/>
	<rect x="28.8" y="18.2" fill="#FFFFFF" width="0.4" height="1.8"/>
	<rect x="28.8" y="18.2" fill="none" stroke="#E41B13" stroke-width="0.1" width="0.4" height="1.8"/>
	<rect x="28.1" y="18.2" fill="#FFFFFF" width="0.4" height="1.8"/>
	<rect x="28.1" y="18.2" fill="none" stroke="#E41B13" stroke-width="0.1" width="0.4" height="1.8"/>
	<rect x="29.5" y="18.2" fill="#FFFFFF" width="0.4" height="1.8"/>
	<rect x="29.5" y="18.2" fill="none" stroke="#E41B13" stroke-width="0.1" width="0.4" height="1.8"/>
	<rect x="21.9" y="18.2" fill="#FFFFFF" width="0.4" height="1.8"/>
	<rect x="21.9" y="18.2" fill="none" stroke="#E41B13" stroke-width="0.1" width="0.4" height="1.8"/>
	<rect x="21.2" y="18.2" fill="#FFFFFF" width="0.4" height="1.8"/>
	<rect x="21.2" y="18.2" fill="none" stroke="#E41B13" stroke-width="0.1" width="0.4" height="1.8"/>
	<rect x="24.4" y="10" fill="#FFFFFF" width="0.9" height="0.3"/>
	<rect x="24.4" y="10" fill="none" stroke="#E41B13" stroke-width="0.1" width="0.9" height="0.3"/>
	<rect x="24.5" y="9.6" fill="#FFFFFF" width="0.6" height="0.3"/>
	<rect x="24.5" y="9.6" fill="none" stroke="#E41B13" stroke-width="0.1" width="0.6" height="0.3"/>
</g>
</svg>
