<?xml version="1.0" encoding="utf-8"?>
<!-- Generator: Adobe Illustrator 19.1.0, SVG Export Plug-In . SVG Version: 6.00 Build 0)  -->
<svg version="1.1" id="Layer_1" xmlns="http://www.w3.org/2000/svg" xmlns:xlink="http://www.w3.org/1999/xlink" x="0px" y="0px"
	 viewBox="0 0 49.7 33.2" enable-background="new 0 0 49.7 33.2" xml:space="preserve">
<g>
	<path fill="#FFFFFF" d="M-14.7,83.3h79.5c3.1,0,5.7-2.6,5.7-5.7V-58.6c0-3.1-2.6-5.7-5.7-5.7h-79.5c-3.1,0-5.7,2.6-5.7,5.7V77.6
		C-20.4,80.7-17.8,83.3-14.7,83.3z"/>
	<path fill="none" stroke="#EDEDED" stroke-width="0.5" stroke-miterlimit="10" d="M-14.7,83.3h79.5c3.1,0,5.7-2.6,5.7-5.7V-58.6
		c0-3.1-2.6-5.7-5.7-5.7h-79.5c-3.1,0-5.7,2.6-5.7,5.7V77.6C-20.4,80.7-17.8,83.3-14.7,83.3z"/>
	<polygon fill="#FFFFFF" points="49.6,33.1 49.6,33.1 0.1,33.1 0.1,0.1 49.6,0.1 49.6,33.1 	"/>
	<path d="M49.6,0.1v33H0.1v-33H49.6 M49.7,0h-0.1H0.1H0v0.1v33v0.1h0.1h49.5h0.1v-0.1v-33V0z"/>
	<path fill="#2E2457" d="M29.8,16.6c0,2.7-2.2,4.9-5,4.9c-2.7,0-4.9-2.2-4.9-4.9c0-2.7,2.2-5,4.9-5C27.6,11.6,29.8,13.9,29.8,16.6z"
		/>
	<path fill="#FFFFFF" d="M24.8,16.6l-0.1,1.7l0.1,2.6c-0.1,0-0.2,0-0.3,0c0-0.2-0.1-0.3-0.2-0.3c-0.2,0-0.3,0.1-0.3,0.2
		c-0.1,0-0.2,0-0.3-0.1l0.8-2.5L24.8,16.6z M24.8,16.6l-0.6,1.6l-0.5,2.6l-0.3-0.1c0.1-0.1,0-0.3-0.2-0.4c-0.1-0.1-0.3,0-0.4,0.2
		l-0.2-0.1l1.4-2.2L24.8,16.6z M24.8,16.6l-1,1.4l-1.2,2.3l-0.2-0.1c0.1-0.1,0.1-0.3-0.1-0.4c-0.1-0.1-0.3-0.1-0.4,0.1l-0.2-0.2
		l1.9-1.8L24.8,16.6z M24.8,16.6l-1.3,1.1l-1.8,1.9l-0.2-0.2c0.1-0.1,0.1-0.3,0.1-0.4c-0.1-0.1-0.3-0.1-0.4-0.1l-0.1-0.2l2.3-1.2
		L24.8,16.6z M24.8,16.6l-1.6,0.7l-2.2,1.4l-0.1-0.2c0.1-0.1,0.2-0.2,0.1-0.4C21,18,20.9,18,20.7,18l-0.1-0.3l2.6-0.6L24.8,16.6z
		 M24.8,16.6l-1.7,0.3l-2.5,0.8c0-0.1,0-0.2-0.1-0.3c0.2,0,0.3-0.2,0.2-0.3c0-0.2-0.2-0.3-0.3-0.2c0-0.1,0-0.2,0-0.3l2.6,0.1
		L24.8,16.6z M24.8,16.6l-1.7-0.2l-2.6,0.1c0-0.1,0-0.2,0-0.3c0.2,0,0.3-0.1,0.3-0.2c0-0.2-0.1-0.3-0.2-0.3l0.1-0.3l2.5,0.8
		L24.8,16.6z M24.8,16.6L23.2,16l-2.6-0.6l0.1-0.3c0.1,0.1,0.3,0,0.4-0.1c0.1-0.1,0-0.3-0.1-0.4l0.1-0.2l2.2,1.4L24.8,16.6z
		 M24.8,16.6l-1.4-1l-2.3-1.2l0.1-0.2c0.1,0.1,0.3,0.1,0.4-0.1c0.1-0.1,0.1-0.3-0.1-0.4l0.2-0.2l1.8,1.9L24.8,16.6z M24.8,16.6
		l-1.1-1.3l-1.9-1.8l0.2-0.2c0.1,0.1,0.3,0.1,0.4,0.1s0.1-0.3,0.1-0.4l0.2-0.1l1.2,2.3L24.8,16.6z M24.8,16.6L24.1,15l-1.4-2.2
		l0.2-0.1c0.1,0.1,0.2,0.2,0.4,0.2c0.1-0.1,0.2-0.2,0.2-0.4l0.3-0.1l0.5,2.6L24.8,16.6z M24.8,16.6l-0.3-1.7l-0.8-2.5
		c0.1,0,0.2,0,0.3-0.1c0,0.2,0.2,0.3,0.3,0.2c0.2,0,0.3-0.2,0.2-0.3c0.1,0,0.2,0,0.3,0l-0.1,2.6L24.8,16.6z M24.8,16.6l0.2-1.7
		l-0.1-2.6c0.1,0,0.2,0,0.3,0c0,0.2,0.1,0.3,0.2,0.3c0.2,0,0.3-0.1,0.3-0.2l0.3,0.1l-0.8,2.5L24.8,16.6z M24.8,16.6l0.6-1.6l0.6-2.6
		l0.3,0.1c-0.1,0.1,0,0.3,0.1,0.4c0.1,0.1,0.3,0,0.4-0.2l0.2,0.1L25.6,15L24.8,16.6z M24.8,16.6l1-1.4l1.2-2.3l0.2,0.1
		c-0.1,0.1-0.1,0.3,0,0.4c0.1,0.1,0.3,0.1,0.4-0.1l0.2,0.2L26,15.3L24.8,16.6z M24.8,16.6l1.3-1.1l1.8-1.9l0.2,0.2
		C28,13.8,28,14,28.1,14.1c0.1,0.1,0.3,0.1,0.4,0.1l0.1,0.2l-2.3,1.2L24.8,16.6z M24.8,16.6l1.6-0.7l2.2-1.4l0.1,0.2
		c-0.1,0.1-0.2,0.2-0.1,0.4c0.1,0.1,0.2,0.2,0.4,0.1l0.1,0.3L26.5,16L24.8,16.6z M24.8,16.6l1.7-0.3l2.5-0.8l0.1,0.3
		c-0.2,0-0.3,0.2-0.2,0.3c0,0.2,0.2,0.3,0.3,0.2c0,0.1,0,0.2,0,0.3l-2.6-0.1L24.8,16.6z M24.8,16.6l1.7,0.2l2.6-0.1
		c0,0.1,0,0.2,0,0.3c-0.2,0-0.3,0.1-0.3,0.2c0,0.2,0.1,0.3,0.2,0.3c0,0.1,0,0.2-0.1,0.3l-2.5-0.8L24.8,16.6z M24.8,16.6l1.6,0.6
		l2.6,0.6L29,18c-0.1-0.1-0.3,0-0.4,0.2c-0.1,0.1,0,0.3,0.1,0.4l-0.1,0.2l-2.2-1.4L24.8,16.6z M24.8,16.6l1.4,1l2.3,1.2L28.5,19
		c-0.1-0.1-0.3-0.1-0.4,0.1c-0.1,0.1-0.1,0.3,0.1,0.4l-0.2,0.2l-1.8-1.9L24.8,16.6z M24.8,16.6l1.1,1.3l1.9,1.8l-0.2,0.2
		c-0.1-0.1-0.3-0.1-0.4-0.1c-0.1,0.1-0.1,0.3,0,0.4L27,20.4L25.8,18L24.8,16.6z M24.8,16.6l0.7,1.6l1.4,2.2l-0.2,0.1
		c-0.1-0.1-0.2-0.2-0.4-0.2c-0.1,0.1-0.2,0.2-0.1,0.4L26,20.8l-0.6-2.6L24.8,16.6z M24.8,16.6l0.3,1.7l0.8,2.5l-0.3,0.1
		c0-0.2-0.2-0.3-0.3-0.2c-0.2,0-0.3,0.2-0.2,0.3c-0.1,0-0.2,0-0.3,0l0.1-2.6L24.8,16.6z"/>
	<circle fill="#2E2457" cx="24.9" cy="16.6" r="0.9"/>
	<rect x="0.1" y="0.1" fill="#F4962B" width="49.5" height="11"/>
	<rect x="0.1" y="22.1" fill="#118D38" width="49.5" height="11"/>
</g>
</svg>
