<?xml version="1.0" encoding="utf-8"?>
<!-- Generator: Adobe Illustrator 19.1.0, SVG Export Plug-In . SVG Version: 6.00 Build 0)  -->
<svg version="1.1" id="Layer_1" xmlns="http://www.w3.org/2000/svg" xmlns:xlink="http://www.w3.org/1999/xlink" x="0px" y="0px"
	 viewBox="0 0 49.7 33.2" enable-background="new 0 0 49.7 33.2" xml:space="preserve">
<g>
	<path fill="#FFFFFF" d="M-14.5,82.5H65c3.1,0,5.7-2.6,5.7-5.7V-59.4c0-3.1-2.6-5.7-5.7-5.7h-79.5c-3.1,0-5.7,2.6-5.7,5.7V76.9
		C-20.2,80-17.6,82.5-14.5,82.5z"/>
	<path fill="none" stroke="#EDEDED" stroke-width="0.5" stroke-miterlimit="10" d="M-14.5,82.5H65c3.1,0,5.7-2.6,5.7-5.7V-59.4
		c0-3.1-2.6-5.7-5.7-5.7h-79.5c-3.1,0-5.7,2.6-5.7,5.7V76.9C-20.2,80-17.6,82.5-14.5,82.5z"/>
	<polygon fill="#E5251D" points="49.6,33.2 49.6,33.2 0.1,33.2 0,0.1 49.6,0 49.6,33.1 	"/>
	<path d="M49.6,0.1v33H0.1v-33H49.6 M49.7,0h-0.1H0.1H0v0.1v33v0.1h0.1h49.5h0.1v-0.1V0L49.7,0z"/>
	<rect x="0.1" y="0.1" fill="#382780" width="24.8" height="16.5"/>
	<path fill="#FFFFFF" d="M14.1,8.3l-1.7,6.2l-1.7-6.2l1.7-6.2L14.1,8.3z M12.5,10l6.2-1.6l-6.2-1.6L6.3,8.3L12.5,10z"/>
	<path fill="#FFFFFF" d="M13.9,9.2l-4.5,4.5L11,7.5L15.6,3L13.9,9.2z M11.7,9.8l6.2,1.7l-4.5-4.5L7.1,5.3L11.7,9.8z"/>
	<path fill="#FFFFFF" d="M13.3,9.8l-6.2,1.7l4.5-4.5l6.2-1.7L13.3,9.8z M11,9.2l4.5,4.5l-1.7-6.2L9.4,3L11,9.2z"/>
	<circle fill="#382780" cx="12.5" cy="8.4" r="3.5"/>
	<circle fill="#FFFFFF" cx="12.5" cy="8.4" r="3.1"/>
</g>
</svg>
