<?xml version="1.0" encoding="utf-8"?>
<!-- Generator: Adobe Illustrator 19.1.0, SVG Export Plug-In . SVG Version: 6.00 Build 0)  -->
<svg version="1.1" id="Layer_1" xmlns="http://www.w3.org/2000/svg" xmlns:xlink="http://www.w3.org/1999/xlink" x="0px" y="0px"
	 viewBox="0 0 49.8 33.2" enable-background="new 0 0 49.8 33.2" xml:space="preserve">
<g>
	<path fill="#FFFFFF" d="M-15.3,82.7h79.5c3.1,0,5.7-2.6,5.7-5.7V-59.2c0-3.1-2.6-5.7-5.7-5.7h-79.5c-3.1,0-5.7,2.6-5.7,5.7V77
		C-20.9,80.1-18.4,82.7-15.3,82.7z"/>
	<path fill="none" stroke="#EDEDED" stroke-width="0.5" stroke-miterlimit="10" d="M-15.3,82.7h79.5c3.1,0,5.7-2.6,5.7-5.7V-59.2
		c0-3.1-2.6-5.7-5.7-5.7h-79.5c-3.1,0-5.7,2.6-5.7,5.7V77C-20.9,80.1-18.4,82.7-15.3,82.7z"/>
	<polygon fill="#FFFFFF" points="49.7,33.1 49.6,33.1 0.2,33.1 0.1,0.1 49.6,0 49.7,33.1 	"/>
	<path d="M49.6,0.1v33H0.2v-33H49.6 M49.7,0L49.7,0H0.2H0.1v0.1v33v0.1h0.1h49.5h0.1v-0.1V0L49.7,0z"/>
	<polygon fill="#00A248" points="49.6,0.1 0.2,0.1 0.2,33.1 	"/>
	<polygon fill="none" stroke="#000000" stroke-width="0.1" points="49.6,0.1 0.2,0.1 0.2,33.1 	"/>
	<polygon fill="#E51F22" points="0.2,33.1 49.6,33.1 49.6,0.1 	"/>
	<polygon fill="none" stroke="#000000" stroke-width="0.1" points="0.2,33.1 49.6,33.1 49.6,0.1 	"/>
	<polygon fill="#FFCC10" points="0.2,25.6 38.6,0.1 49.7,0.1 49.7,7.4 11.2,33.1 0.2,33.1 	"/>
	<polygon points="0.2,27.5 41.5,0.1 49.6,0.1 49.7,5.5 8.5,33.1 0.2,33.1 	"/>
	<polygon fill="#FFFFFF" points="35.3,12.2 38.6,12.4 36,10.3 37.2,7.1 34.4,9 31.7,6.9 32.7,10.2 29.9,12 33.2,12.2 34.1,15.4 	"/>
	<polygon fill="#FFFFFF" points="16.5,24.8 19.8,24.9 17.2,22.8 18.4,19.7 15.6,21.5 12.9,19.5 13.8,22.7 11.1,24.6 14.4,24.7 
		15.3,27.9 	"/>
</g>
</svg>
