<?xml version="1.0" encoding="utf-8"?>
<!-- Generator: Adobe Illustrator 19.1.0, SVG Export Plug-In . SVG Version: 6.00 Build 0)  -->
<svg version="1.1" id="Layer_1" xmlns="http://www.w3.org/2000/svg" xmlns:xlink="http://www.w3.org/1999/xlink" x="0px" y="0px"
	 viewBox="0 0 49.7 33.2" enable-background="new 0 0 49.7 33.2" xml:space="preserve">
<g>
	<path fill="#FFFFFF" d="M-14.7,83.3h79.5c3.1,0,5.7-2.6,5.7-5.7V-58.6c0-3.1-2.6-5.7-5.7-5.7h-79.5c-3.1,0-5.7,2.6-5.7,5.7V77.6
		C-20.4,80.7-17.8,83.3-14.7,83.3z"/>
	<path fill="none" stroke="#EDEDED" stroke-width="0.5" stroke-miterlimit="10" d="M-14.7,83.3h79.5c3.1,0,5.7-2.6,5.7-5.7V-58.6
		c0-3.1-2.6-5.7-5.7-5.7h-79.5c-3.1,0-5.7,2.6-5.7,5.7V77.6C-20.4,80.7-17.8,83.3-14.7,83.3z"/>
	<polygon fill="#E52023" points="49.6,33.1 49.6,33.1 0.1,33.1 0.1,0.1 49.6,0.1 49.6,33.1 	"/>
	<path d="M49.6,0.1v33H0.1v-33H49.6 M49.7,0h-0.1H0.1H0v0.1v33v0.1h0.1h49.5h0.1v-0.1v-33V0z"/>
	<rect x="0.1" y="2.5" fill="#293B8B" width="49.5" height="28.3"/>
	<circle fill="#FFFFFF" cx="24.8" cy="16.6" r="13"/>
	<ellipse fill="none" stroke="#60230A" stroke-width="0.1" cx="24.8" cy="16.5" rx="10.7" ry="10.8"/>
	<path fill="#178336" d="M23.7,5.2c1-1,1.9,0.2,1.8,0.7c0,0.6-1,1.8-1.9,0.8C24.5,7,24.8,6,25.2,6C24.8,6,24.6,4.9,23.7,5.2z"/>
	<path fill="#195A29" d="M23.6,6.8C24.5,7,24.7,6,25.2,6C24.9,6.3,24.2,7.1,23.6,6.8z"/>
	<path fill="#195A29" d="M23.7,5.2c1-1,1.9,0.2,1.8,0.7C24.7,4.6,24.4,4.8,23.7,5.2z"/>
	<path fill="#178336" d="M13.5,13.4c-0.5-1.3,1-1.6,1.5-1.3c0.5,0.3,1.2,1.7-0.1,2c0.6-0.7-0.2-1.4,0-1.8
		C14.7,12.7,13.7,12.4,13.5,13.4z"/>
	<path fill="#195A29" d="M14.9,14.1c0.6-0.7-0.2-1.4,0-1.8C15.1,12.7,15.5,13.7,14.9,14.1z"/>
	<path fill="#195A29" d="M13.5,13.4c-0.5-1.3,1-1.6,1.5-1.3C13.4,12.2,13.5,12.5,13.5,13.4z"/>
	<path fill="#178336" d="M35.3,12.1c1.3,0.5,0.5,1.8,0,2c-0.5,0.2-2.1-0.3-1.4-1.5c0.1,0.9,1.2,0.8,1.4,1.2
		C35.1,13.4,35.9,12.9,35.3,12.1z"/>
	<path fill="#195A29" d="M33.9,12.6c0.1,0.9,1.1,0.8,1.3,1.2C34.8,13.7,33.8,13.3,33.9,12.6z"/>
	<path fill="#195A29" d="M35.3,12.1c1.3,0.5,0.5,1.8,0,2C36.3,12.8,36,12.7,35.3,12.1z"/>
	<path fill="#178336" d="M18.1,26c-1.4-0.1-1-1.6-0.5-1.9c0.5-0.3,2.1-0.3,1.8,1c-0.4-0.9-1.4-0.5-1.6-0.8
		C18,24.7,17.3,25.4,18.1,26z"/>
	<path fill="#195A29" d="M19.3,25.1c-0.4-0.9-1.3-0.4-1.6-0.8C18.2,24.4,19.2,24.4,19.3,25.1z"/>
	<path fill="#195A29" d="M18.1,26c-1.4-0.1-1-1.6-0.5-1.9C16.9,25.6,17.2,25.6,18.1,26z"/>
	<path fill="#178336" d="M32.3,25.1c0,1.4-1.5,1.1-1.8,0.7c-0.4-0.4-0.5-2,0.8-1.9c-0.8,0.5-0.3,1.4-0.6,1.7
		C31,25.3,31.8,26,32.3,25.1z"/>
	<path fill="#195A29" d="M31.3,24c-0.8,0.5-0.3,1.3-0.6,1.7C30.7,25.2,30.6,24.1,31.3,24z"/>
	<path fill="#195A29" d="M32.3,25.1c0,1.4-1.5,1.1-1.8,0.7C32,26.3,32.1,26,32.3,25.1z"/>
	<path fill="#178336" d="M14.6,10.7c-0.1-1.4,1.4-1.3,1.8-0.9c0.4,0.4,0.7,2-0.7,1.9c0.8-0.5,0.2-1.4,0.5-1.8
		C15.9,10.4,15,9.8,14.6,10.7z"/>
	<path fill="#195A29" d="M15.7,11.8c0.8-0.5,0.2-1.4,0.5-1.7C16.2,10.5,16.4,11.5,15.7,11.8z"/>
	<path fill="#195A29" d="M14.6,10.7c-0.1-1.4,1.4-1.3,1.8-0.9C14.8,9.5,14.8,9.8,14.6,10.7z"/>
	<path fill="#178336" d="M16.1,24c-1.4-0.2-0.9-1.6-0.4-1.9c0.5-0.3,2.1-0.2,1.7,1.1c-0.3-0.9-1.3-0.6-1.6-0.9
		C16.1,22.6,15.4,23.3,16.1,24z"/>
	<path fill="#195A29" d="M17.4,23.2c-0.3-0.9-1.3-0.5-1.5-0.9C16.3,22.3,17.4,22.5,17.4,23.2z"/>
	<path fill="#195A29" d="M16.1,24c-1.4-0.2-0.9-1.6-0.4-1.9C15,23.5,15.3,23.6,16.1,24z"/>
	<path fill="#178336" d="M27.2,5.4c1.3-0.6,1.7,0.8,1.4,1.3c-0.2,0.5-1.6,1.3-2.1,0.1c0.8,0.5,1.4-0.3,1.8-0.2
		C28,6.5,28.2,5.5,27.2,5.4z"/>
	<path fill="#195A29" d="M26.6,6.8c0.8,0.5,1.4-0.3,1.8-0.2C28,6.9,27,7.4,26.6,6.8z"/>
	<path fill="#195A29" d="M27.2,5.4c1.3-0.6,1.7,0.8,1.4,1.3C28.4,5.2,28.1,5.3,27.2,5.4z"/>
	<path fill="#178336" d="M30,26.9c-0.6,1.3-1.8,0.4-2-0.2c-0.1-0.5,0.4-2,1.6-1.3c-0.9,0-0.9,1.1-1.4,1.2
		C28.7,26.5,29.2,27.4,30,26.9z"/>
	<path fill="#195A29" d="M29.6,25.4c-0.9,0-0.9,1.1-1.3,1.2C28.4,26.2,28.9,25.2,29.6,25.4z"/>
	<path fill="#195A29" d="M30,26.9c-0.6,1.3-1.8,0.4-2-0.2C29.2,27.8,29.3,27.5,30,26.9z"/>
	<path fill="#178336" d="M36.2,14.6c1.1,0.9-0.1,1.8-0.7,1.8c-0.6,0-1.9-0.9-0.9-1.9c-0.2,0.9,0.8,1.2,0.9,1.6
		C35.5,15.7,36.5,15.5,36.2,14.6z"/>
	<path fill="#195A29" d="M34.7,14.6c-0.2,0.9,0.8,1.1,0.8,1.6C35.2,15.9,34.3,15.2,34.7,14.6z"/>
	<path fill="#195A29" d="M36.2,14.6c1.1,0.9-0.1,1.8-0.7,1.8C36.9,15.6,36.7,15.4,36.2,14.6z"/>
	<path fill="#178336" d="M18.1,7.1c0.3-1.4,1.7-0.8,1.9-0.3c0.3,0.5,0,2.1-1.2,1.6c0.9-0.2,0.6-1.3,1-1.5
		C19.5,7.2,18.8,6.4,18.1,7.1z"/>
	<path fill="#195A29" d="M18.8,8.5c0.9-0.2,0.6-1.2,1-1.5C19.8,7.4,19.6,8.5,18.8,8.5z"/>
	<path fill="#195A29" d="M18.1,7.1c0.3-1.4,1.7-0.8,1.9-0.3C18.7,6.1,18.6,6.4,18.1,7.1z"/>
	<path fill="#178336" d="M13.9,19c-1.3-0.7-0.3-1.8,0.3-1.9c0.6-0.1,2,0.5,1.2,1.6c0-0.9-1.1-1-1.2-1.4C14.3,17.7,13.4,18.1,13.9,19
		z"/>
	<path fill="#195A29" d="M15.4,18.7c0-0.9-1-0.9-1.2-1.4C14.6,17.5,15.6,18,15.4,18.7z"/>
	<path fill="#195A29" d="M13.9,19c-1.3-0.7-0.3-1.8,0.3-1.9C13,18.1,13.3,18.3,13.9,19z"/>
	<path fill="#178336" d="M32,8c1.4-0.2,1.3,1.3,1,1.7c-0.4,0.4-1.9,0.8-2-0.6c0.6,0.8,1.4,0.1,1.8,0.4C32.4,9.3,32.9,8.4,32,8z"/>
	<path fill="#195A29" d="M31,9.2c0.6,0.8,1.4,0.1,1.8,0.4C32.3,9.6,31.3,9.8,31,9.2z"/>
	<path fill="#195A29" d="M32,8c1.4-0.2,1.3,1.3,1,1.7C33.2,8.2,32.9,8.2,32,8z"/>
	<path fill="#178336" d="M23.9,28.2c-1.3,0.6-1.6-0.9-1.4-1.4c0.2-0.5,1.6-1.3,2.1,0c-0.8-0.6-1.4,0.3-1.8,0.1
		C23.2,27.1,23,28.1,23.9,28.2z"/>
	<path fill="#195A29" d="M24.6,26.9c-0.8-0.6-1.4,0.3-1.8,0.1C23.2,26.8,24.2,26.3,24.6,26.9z"/>
	<path fill="#195A29" d="M23.9,28.2c-1.3,0.6-1.6-0.9-1.4-1.4C22.7,28.4,23,28.3,23.9,28.2z"/>
	<path fill="#178336" d="M35.7,20.3c0.6,1.3-0.9,1.6-1.4,1.4c-0.5-0.2-1.3-1.6,0-2c-0.6,0.7,0.3,1.4,0.1,1.8
		C34.5,21.1,35.6,21.3,35.7,20.3z"/>
	<path fill="#195A29" d="M34.3,19.7c-0.6,0.7,0.3,1.4,0.1,1.8C34.2,21.1,33.7,20.1,34.3,19.7z"/>
	<path fill="#195A29" d="M35.7,20.3c0.6,1.3-0.9,1.6-1.4,1.4C35.9,21.5,35.8,21.2,35.7,20.3z"/>
	<path fill="#178336" d="M13.3,16.2c-0.8-1.2,0.6-1.8,1.1-1.6c0.6,0.1,1.6,1.4,0.4,2c0.4-0.8-0.5-1.3-0.4-1.8
		C14.3,15.2,13.2,15.2,13.3,16.2z"/>
	<path fill="#195A29" d="M14.8,16.5c0.4-0.8-0.5-1.3-0.4-1.7C14.6,15.1,15.3,16,14.8,16.5z"/>
	<path fill="#195A29" d="M13.3,16.2c-0.8-1.2,0.6-1.8,1.1-1.6C12.9,15,13.1,15.3,13.3,16.2z"/>
	<path fill="#178336" d="M21.1,27.3c-1.3,0.5-1.6-1-1.3-1.5c0.3-0.5,1.7-1.2,2.1,0.1c-0.7-0.6-1.4,0.2-1.8,0
		C20.4,26.1,20.1,27.1,21.1,27.3z"/>
	<path fill="#195A29" d="M21.8,25.9c-0.7-0.6-1.4,0.2-1.8,0C20.4,25.8,21.4,25.3,21.8,25.9z"/>
	<path fill="#195A29" d="M21.1,27.3c-1.3,0.5-1.6-1-1.3-1.5C19.9,27.4,20.2,27.3,21.1,27.3z"/>
	<path fill="#178336" d="M20.7,5.8c0.8-1.2,1.9-0.1,1.9,0.4c0.1,0.6-0.7,1.9-1.7,1.1c0.9,0.1,1.1-1,1.5-1
		C21.9,6.4,21.5,5.4,20.7,5.8z"/>
	<path fill="#195A29" d="M20.8,7.3c0.9,0.1,1-0.9,1.5-1C22.1,6.7,21.5,7.6,20.8,7.3z"/>
	<path fill="#195A29" d="M20.7,5.8c0.8-1.2,1.9-0.1,1.9,0.4C21.6,5,21.4,5.2,20.7,5.8z"/>
	<path fill="#178336" d="M34.4,23.1c0.1,1.4-1.4,1.2-1.8,0.8c-0.4-0.4-0.6-2,0.7-1.9c-0.8,0.5-0.3,1.4-0.6,1.7
		C33.1,23.4,34,24,34.4,23.1z"/>
	<path fill="#195A29" d="M33.3,22c-0.8,0.5-0.2,1.4-0.5,1.7C32.8,23.3,32.6,22.2,33.3,22z"/>
	<path fill="#195A29" d="M34.4,23.1c0.1,1.4-1.4,1.2-1.8,0.8C34.2,24.3,34.2,24,34.4,23.1z"/>
	<path fill="#178336" d="M33.9,9.8c1.4,0.3,0.8,1.7,0.3,1.9c-0.5,0.3-2.1,0.1-1.7-1.2c0.3,0.9,1.3,0.6,1.6,1
		C33.9,11.2,34.7,10.5,33.9,9.8z"/>
	<path fill="#195A29" d="M32.6,10.6c0.3,0.9,1.3,0.6,1.5,1C33.7,11.5,32.6,11.3,32.6,10.6z"/>
	<path fill="#195A29" d="M33.9,9.8c1.4,0.3,0.8,1.7,0.3,1.9C35,10.4,34.7,10.3,33.9,9.8z"/>
	<path fill="#178336" d="M16.3,8.8c0-1.4,1.5-1.1,1.8-0.7c0.4,0.4,0.5,2-0.9,1.9c0.8-0.4,0.3-1.4,0.7-1.7
		C17.6,8.6,16.8,7.9,16.3,8.8z"/>
	<path fill="#195A29" d="M17.3,9.9c0.8-0.4,0.3-1.3,0.7-1.7C18,8.7,18,9.8,17.3,9.9z"/>
	<path fill="#195A29" d="M16.3,8.8c0-1.4,1.5-1.1,1.8-0.7C16.6,7.6,16.6,7.9,16.3,8.8z"/>
	<path fill="#178336" d="M14.6,21.5c-1.3-0.6-0.4-1.8,0.2-1.9c0.6-0.1,2,0.5,1.3,1.6c0-0.9-1.1-0.9-1.2-1.4
		C15,20.3,14.1,20.7,14.6,21.5z"/>
	<path fill="#195A29" d="M16.1,21.2c0-0.9-1.1-0.9-1.2-1.3C15.3,20,16.3,20.5,16.1,21.2z"/>
	<path fill="#195A29" d="M14.6,21.5c-1.3-0.6-0.4-1.8,0.2-1.9C13.7,20.7,14,20.9,14.6,21.5z"/>
	<path fill="#178336" d="M29.8,6.4c1.3-0.5,1.6,1,1.3,1.5c-0.3,0.5-1.7,1.2-2.1-0.1c0.7,0.6,1.4-0.2,1.8,0
		C30.5,7.6,30.8,6.6,29.8,6.4z"/>
	<path fill="#195A29" d="M29.1,7.8c0.7,0.6,1.4-0.2,1.8,0C30.5,8,29.5,8.4,29.1,7.8z"/>
	<path fill="#195A29" d="M29.8,6.4c1.3-0.5,1.6,1,1.3,1.5C31.1,6.3,30.7,6.4,29.8,6.4z"/>
	<path fill="#178336" d="M26.7,27.9c-1.1,0.8-1.8-0.5-1.7-1c0.1-0.6,1.3-1.6,2-0.4c-0.9-0.4-1.3,0.6-1.8,0.5
		C25.7,27,25.7,28,26.7,27.9z"/>
	<path fill="#195A29" d="M27.1,26.4c-0.9-0.4-1.3,0.6-1.7,0.5C25.7,26.7,26.5,26,27.1,26.4z"/>
	<path fill="#195A29" d="M26.7,27.9c-1.1,0.8-1.8-0.5-1.7-1C25.6,28.4,25.9,28.2,26.7,27.9z"/>
	<path fill="#178336" d="M36.1,17.2c1,1-0.3,1.8-0.9,1.8c-0.6-0.1-1.7-1.1-0.7-1.9c-0.3,0.9,0.7,1.2,0.7,1.7
		C35.3,18.3,36.3,18.2,36.1,17.2z"/>
	<path fill="#195A29" d="M34.6,17.1c-0.3,0.9,0.7,1.2,0.7,1.7C35,18.4,34.2,17.7,34.6,17.1z"/>
	<path fill="#195A29" d="M36.1,17.2c1,1-0.3,1.8-0.9,1.8C36.7,18.3,36.5,18,36.1,17.2z"/>
	<path fill="#009A39" d="M17.8,21.1c0.1,0,0-0.3,0-0.5c0-0.1,0.3,0.4,0.5,0.4c0.1,0.1,1-0.4,1-0.4l0.2-0.4l0.1,0.3
		c0,0,0.2-0.3,0.3-0.4c0.1-0.1,0,0.2-0.1,0.3c-0.1,0.1,0.2,0.1,0.2,0.4c0,0.2,0.3-0.1,0.3-0.1l0.8,0.1c0,0,0.1-0.5,0.4-0.8l0.1,0.3
		L22,20c0.4,1,1.2,2.1,2.8,2.7c1.6-0.6,2.4-1.6,2.8-2.5l0.5,0.5l0.4-0.1l0.9,0.3l0.2,0.1l0-0.2c0,0,0.4,0.1,0.4,0.3l0.2-0.2l0.3,0.3
		c0,0.1,0.9,0.2,1,0.2l0.1,0.2c0,0,0.2,0,0.3,0c0,0-0.1,0.1-0.1,0.2c0,0.1-0.1,0.2-0.2,0.2s0,0.1,0.1,0.1c0.1,0,0,0.2-0.3,0.3
		c0,0-0.1,0.2,0.1,0.2l-0.3-0.1l-0.1,0.3l-0.3-0.1l0,0.2c0,0-0.5-0.1-0.6-0.2L30,22.5c0,0-0.3-0.2-0.4-0.2l-0.1,0.1l-0.3-0.1l0,0.1
		l-0.3-0.2l-0.1,0.2l-0.3-0.2l-0.1,0.1c0,0-0.1-0.1-0.3-0.1l0,0.2l-0.5-0.1v0.2l-0.4-0.1l0,0.1l-0.3-0.1l-0.2,0.2h-0.2l-0.1,0.2
		l-0.5-0.1l0,0.2l-0.4-0.1l0,0.2c0,0-0.5-0.1-0.6-0.1c0,0-0.1,0.1-0.2,0.2v-0.1l-0.1-0.2c0,0-0.2,0.1-0.3,0.1
		c-0.1,0-0.4,0.1-0.5,0.1l-0.1-0.2l-0.2,0.1c0,0-0.1-0.1-0.1-0.2c-0.1-0.1-0.2,0-0.2,0l0-0.2c0,0-0.1,0-0.2,0
		c-0.1,0-0.2-0.1-0.2-0.1l-0.4,0l0.1-0.1c0,0-0.5,0.1-0.6,0.1c-0.1,0,0.1-0.2,0.1-0.2s-0.5-0.1-0.6-0.1l-0.7,0.1L20.4,22
		c0,0-0.1,0.1-0.2,0.1l0-0.2l-0.4,0.2l-0.1-0.2l-0.2,0.3l0-0.1l-0.3,0.3v-0.2c0,0-0.6,0.3-0.7,0.3l0.1-0.2c0,0-0.3,0-0.4,0
		c-0.1,0-0.2-0.1-0.3-0.1c-0.1,0,0.1-0.1,0.3-0.1c0,0-0.4-0.1-0.5-0.1c0,0-0.1-0.1,0.2-0.2c0,0-0.3-0.3-0.4-0.2c0,0,0.2-0.1,0.3-0.1
		c0,0-0.2-0.5-0.3-0.5C17.3,21.1,17.7,21,17.8,21.1L17.8,21.1z"/>
	<path fill="none" stroke="#1C692F" stroke-width="0.1" d="M17.8,21.1c0.1,0,0-0.3,0-0.5c0-0.1,0.3,0.4,0.5,0.4c0.1,0.1,1-0.4,1-0.4
		l0.2-0.4l0.1,0.3c0,0,0.2-0.3,0.3-0.4c0.1-0.1,0,0.2-0.1,0.3c-0.1,0.1,0.2,0.1,0.2,0.4c0,0.2,0.3-0.1,0.3-0.1l0.8,0.1
		c0,0,0.1-0.5,0.4-0.8l0.1,0.3L22,20c0.4,1,1.2,2.1,2.8,2.7c1.6-0.6,2.3-1.6,2.8-2.5l0.5,0.5l0.4-0.1l0.9,0.3l0.2,0.1l0-0.2
		c0,0,0.4,0.1,0.4,0.3l0.2-0.2l0.3,0.3c0,0.1,0.9,0.2,1,0.2l0.1,0.2c0,0,0.2,0,0.3,0c0,0-0.1,0.1-0.1,0.2c0,0.1-0.1,0.2-0.2,0.3
		c-0.1,0.1,0,0.1,0.1,0.1c0.1,0,0,0.2-0.3,0.3c0,0-0.1,0.2,0.1,0.2l-0.3-0.1l-0.1,0.3l-0.3-0.1l0,0.2c0,0-0.5-0.1-0.6-0.2L30,22.5
		c0,0-0.3-0.2-0.5-0.2l-0.1,0.1l-0.3-0.1l0,0.1l-0.3-0.2l-0.1,0.2l-0.3-0.2l-0.1,0.1c0,0-0.1-0.1-0.3-0.1l0,0.2l-0.5-0.1v0.2
		l-0.4-0.1l0,0.1l-0.3-0.1l-0.2,0.2h-0.2l-0.1,0.2l-0.5-0.1l0,0.2l-0.4-0.1l0,0.2c0,0-0.5-0.1-0.6-0.1c0,0-0.1,0.1-0.2,0.2v-0.1
		l-0.1-0.2c0,0-0.2,0.1-0.3,0.1c-0.1,0-0.4,0.1-0.5,0.1l-0.1-0.2l-0.2,0.1c0,0-0.1-0.1-0.1-0.2c-0.1-0.1-0.2,0-0.2,0l0-0.2
		c0,0-0.1,0-0.2,0c-0.1,0-0.2-0.1-0.2-0.1l-0.4,0l0.1-0.1c0,0-0.5,0.1-0.6,0.1c-0.1,0,0.1-0.2,0.1-0.2s-0.5-0.1-0.6-0.1l-0.7,0.1
		L20.4,22c0,0-0.1,0.1-0.2,0.1l0-0.2l-0.4,0.2l-0.1-0.2l-0.2,0.3l0-0.1l-0.3,0.3v-0.2c0,0-0.6,0.3-0.7,0.3l0.1-0.2c0,0-0.3,0-0.4,0
		c-0.1,0-0.2-0.1-0.3-0.1c-0.1,0,0.1-0.1,0.3-0.1c0,0-0.4-0.1-0.5-0.1c0,0-0.1-0.1,0.2-0.2c0,0-0.3-0.3-0.4-0.2c0,0,0.2-0.1,0.3-0.1
		c0,0-0.2-0.5-0.3-0.5C17.3,21.1,17.7,21,17.8,21.1L17.8,21.1z"/>
	<path fill="#86D1F5" d="M22.4,20.7c-0.2-0.3-0.3-0.6-0.4-0.9l2.9-2.6l2.9,2.6c-0.1,0.3-0.2,0.6-0.4,0.9l0,0l-0.2-0.1l-0.2,0.1
		c-0.1,0-0.2-0.1-0.2-0.1s-0.1,0.1-0.3,0.1c-0.1,0-0.2-0.1-0.2-0.1s-0.1,0.1-0.2,0.1l-0.1-0.1c0,0-0.1,0.1-0.2,0.1
		c-0.1,0-0.2-0.1-0.2-0.1s-0.2,0.1-0.3,0.1c-0.1,0-0.2-0.1-0.2-0.1l-0.2,0.1l-0.3-0.1l-0.3,0.1L24,20.6l-0.3,0.1
		c-0.1,0-0.2-0.1-0.2-0.1l-0.2,0.1c-0.1,0-0.2-0.1-0.2-0.1s-0.2,0.1-0.3,0.1c-0.1,0-0.2-0.1-0.2-0.1S22.6,20.6,22.4,20.7L22.4,20.7
		L22.4,20.7z"/>
	<path fill="none" stroke="#000000" stroke-width="0.1" d="M25.5,19.2c0,0,0.6,0.3,0,1V19.2z"/>
	<path fill="#871811" d="M22.8,20.1c0,0,0.2,0.1,0.6,0.2c0.4,0.1,0.8,0.2,1.4,0.2c1.3,0,1.2-0.2,1.2-0.2l-0.4,0.5c0,0-1.9,0-2.1-0.1
		C23.4,20.6,23.1,20.3,22.8,20.1z"/>
	<path fill="none" stroke="#000000" stroke-width="0.1" d="M22.8,20.1c0,0,0.2,0.1,0.6,0.2c0.4,0.1,0.8,0.2,1.4,0.2
		c1.3,0,1.2-0.2,1.2-0.2l-0.4,0.5c0,0-1.9,0-2.1-0.1C23.4,20.6,23.1,20.3,22.8,20.1z"/>
	<polygon fill="none" stroke="#000000" stroke-width="0.1" points="22.9,20.1 23.7,19.3 23.6,20.4 	"/>
	<path fill="none" stroke="#000000" stroke-width="0.1" d="M24.1,20.5v-1.8V20.5z"/>
	<path fill="none" stroke="#000000" stroke-width="0.1" d="M25.5,20.5v-1.9V20.5z"/>
	<path fill="none" stroke="#000000" stroke-width="0.1" d="M24.8,20.5v-2V20.5z"/>
	<polygon fill="#E52524" points="24.1,18.8 23.7,18.9 24.1,19 	"/>
	<polygon fill="none" stroke="#000000" stroke-width="0.1" points="24.1,18.8 23.7,18.9 24.1,19 	"/>
	<polygon fill="#E52524" points="24.8,18.5 24.4,18.7 24.8,18.7 	"/>
	<polygon fill="none" stroke="#000000" stroke-width="0.1" points="24.8,18.5 24.4,18.7 24.8,18.7 	"/>
	<polygon fill="#E52524" points="25.5,18.6 25.1,18.8 25.5,18.8 	"/>
	<polygon fill="none" stroke="#000000" stroke-width="0.1" points="25.5,18.6 25.1,18.8 25.5,18.8 	"/>
	<path fill="#FFFFFF" d="M23,20l0.7-0.7l0,0.4c0,0-0.4,0.2-0.4,0.4L23,20L23,20z"/>
	<path fill="none" stroke="#000000" stroke-width="0.1" d="M23,20L23,20l0.7-0.7l0,0.4c0,0-0.4,0.2-0.4,0.4L23,20z"/>
	<path fill="#FFFFFF" d="M23.4,20.1c0,0,0.1-0.2,0.3-0.3l0,0.4L23.4,20.1L23.4,20.1z"/>
	<path fill="none" stroke="#000000" stroke-width="0.1" d="M23.4,20.1c0,0,0.1-0.2,0.3-0.3l0,0.4L23.4,20.1z"/>
	<path fill="#FFFFFF" d="M24.4,19c0,0,0.3,0,0.5,0v0.3c0,0-0.4-0.1-0.6,0.1C24.4,19.4,24.3,19.1,24.4,19z"/>
	<path fill="none" stroke="#000000" stroke-width="0.1" d="M24.4,19c0,0,0.3,0,0.5,0v0.3c0,0-0.4-0.1-0.6,0.1
		C24.4,19.4,24.3,19.1,24.4,19L24.4,19z"/>
	<path fill="#FFFFFF" d="M23.8,19c0,0,0.3,0,0.5,0l0,0.4c0,0-0.3-0.2-0.5,0C23.8,19.4,23.7,19.2,23.8,19z"/>
	<path fill="none" stroke="#000000" stroke-width="0.1" d="M23.8,19c0,0,0.3,0,0.5,0l0,0.4c0,0-0.3-0.2-0.5,0
		C23.8,19.4,23.7,19.2,23.8,19z"/>
	<path fill="#FFFFFF" d="M23.8,19.4c0,0,0.3,0,0.5,0v0.3c0,0-0.4-0.1-0.5,0.1C23.8,19.8,23.7,19.5,23.8,19.4z"/>
	<path fill="none" stroke="#000000" stroke-width="0.1" d="M23.8,19.4c0,0,0.3,0,0.5,0v0.3c0,0-0.4-0.1-0.5,0.1
		C23.8,19.8,23.7,19.5,23.8,19.4z"/>
	<path fill="#FFFFFF" d="M24.4,19.4c0,0,0.4-0.1,0.6,0c0,0-0.1,0.2,0,0.4c0,0-0.5-0.1-0.6,0C24.4,19.7,24.3,19.5,24.4,19.4z"/>
	<path fill="none" stroke="#000000" stroke-width="0.1" d="M24.4,19.4c0,0,0.4-0.1,0.6,0c0,0-0.1,0.2,0,0.4c0,0-0.5-0.1-0.6,0
		C24.4,19.7,24.3,19.5,24.4,19.4z"/>
	<path fill="#FFFFFF" d="M23.8,19.8c0,0,0.3,0,0.6,0l0,0.5c0,0-0.5-0.1-0.5,0C23.8,20.3,23.6,20,23.8,19.8z"/>
	<path fill="none" stroke="#000000" stroke-width="0.1" d="M23.8,19.8c0,0,0.3,0,0.6,0l0,0.5c0,0-0.5-0.1-0.5,0
		C23.8,20.3,23.6,20,23.8,19.8z"/>
	<path fill="#FFFFFF" d="M24.4,19.8c0,0,0.5,0,0.7,0c0,0-0.1,0.3,0,0.6c0,0-0.6-0.2-0.7,0C24.4,20.3,24.2,20,24.4,19.8z"/>
	<path fill="none" stroke="#000000" stroke-width="0.1" d="M24.4,19.8c0,0,0.5,0,0.7,0c0,0-0.1,0.3,0,0.6c0,0-0.6-0.2-0.7,0
		C24.4,20.3,24.2,20,24.4,19.8z"/>
	<path fill="#FFFFFF" d="M25.1,19c0,0,0.3,0,0.5,0v0.3c0,0-0.4-0.1-0.6,0.1C25.1,19.4,25,19.1,25.1,19z"/>
	<path fill="none" stroke="#000000" stroke-width="0.1" d="M25.1,19c0,0,0.3,0,0.5,0v0.3c0,0-0.4-0.1-0.6,0.1
		C25.1,19.4,25,19.1,25.1,19z"/>
	<path fill="#FFFFFF" d="M25.1,19.4c0,0,0.3,0,0.5,0v0.3c0,0-0.4-0.1-0.6,0.1C25.1,19.7,25,19.5,25.1,19.4z"/>
	<path fill="none" stroke="#000000" stroke-width="0.1" d="M25.1,19.4c0,0,0.3,0,0.5,0v0.3c0,0-0.4-0.1-0.6,0.1
		C25.1,19.7,25,19.5,25.1,19.4z"/>
	<path fill="#FFFFFF" d="M25.2,19.8c0,0,0.3,0,0.5,0l0,0.5c0,0-0.3-0.2-0.5,0C25.1,20.3,25,19.9,25.2,19.8z"/>
	<path fill="none" stroke="#000000" stroke-width="0.1" d="M25.2,19.8c0,0,0.3,0,0.5,0l0,0.5c0,0-0.3-0.2-0.5,0
		C25.1,20.3,25,19.9,25.2,19.8z"/>
	<path fill="#E52524" d="M25.7,19.5l0.2-0.1c0,0,0.1,0.3,0,0.4l-0.2,0C25.8,19.8,25.8,19.6,25.7,19.5z"/>
	<path fill="none" stroke="#000000" stroke-width="0.1" d="M25.7,19.5l0.2-0.1c0,0,0.1,0.3,0,0.4l-0.2,0
		C25.8,19.8,25.8,19.6,25.7,19.5z"/>
	<path fill="#FFFFFF" d="M25.8,19.8c0,0,0.1,0.3,0.2,0.4l-0.2,0.2c0,0-0.2-0.1-0.2-0.3C25.6,20.1,25.7,19.9,25.8,19.8z"/>
	<path fill="none" stroke="#000000" stroke-width="0.1" d="M25.8,19.8c0,0,0.1,0.3,0.2,0.4l-0.2,0.2c0,0-0.2-0.1-0.2-0.3
		C25.6,20.1,25.7,19.9,25.8,19.8z"/>
	<path fill="#3666AF" d="M27.3,20.7c-0.5,0.8-1.2,1.5-2.5,1.9c-1.3-0.5-2-1.2-2.5-2l0,0c0.2,0,0.2-0.1,0.2-0.1s0.1,0.1,0.2,0.1
		c0.1,0,0.3-0.1,0.3-0.1s0.1,0,0.2,0.1l0.2-0.1c0,0,0.1,0.1,0.2,0.1l0.3-0.1l0.3,0.1l0.3-0.1l0.3,0.1l0.2-0.1c0,0,0.1,0.1,0.2,0.1
		c0.1,0,0.3-0.1,0.3-0.1s0.1,0.1,0.2,0.1c0.1,0,0.2-0.1,0.2-0.1l0.1,0.1c0.1,0,0.2-0.1,0.2-0.1s0.1,0.1,0.2,0.1
		c0.1,0,0.3-0.1,0.3-0.1s0.1,0.1,0.2,0.1l0.2-0.1L27.3,20.7L27.3,20.7z"/>
	<path fill="none" stroke="#000000" stroke-width="0.1" d="M27.2,20.9c-0.1,0-0.1-0.1-0.1-0.1S27,21,26.8,20.9
		c-0.1,0-0.2-0.1-0.2-0.1s-0.1,0.1-0.2,0.1c-0.1,0-0.2-0.1-0.2-0.1s-0.1,0.1-0.2,0.1c-0.1,0-0.2-0.1-0.2-0.1s-0.2,0.1-0.3,0.1
		c-0.1,0-0.2-0.1-0.2-0.1L25,20.9l-0.2-0.1l-0.2,0.1l-0.3-0.1c0,0-0.2,0.1-0.3,0.1c-0.1,0-0.2-0.1-0.2-0.1s-0.2,0.1-0.3,0.1
		c-0.1,0-0.2-0.1-0.2-0.1s-0.2,0.1-0.3,0.1c-0.1,0-0.2-0.1-0.2-0.1s0,0-0.2,0.1h0L27.2,20.9z"/>
	<path fill="#FFFFFF" d="M24.9,14.3v2.9l-2.9,2.6c-0.3-0.8-0.3-1.6-0.3-1.9c0-0.7,0-3.6,0-3.6H24.9z"/>
	<path fill="none" stroke="#000000" stroke-width="0.1" d="M24.9,14.3v2.9l-2.9,2.6c-0.3-0.8-0.3-1.6-0.3-1.9c0-0.7,0-3.6,0-3.6
		H24.9z"/>
	<path fill="#FFD920" d="M24.9,14.3v2.9l2.9,2.6c0.3-0.8,0.3-1.6,0.3-1.9c0-0.7,0-3.6,0-3.6H24.9z"/>
	<path fill="none" stroke="#000000" stroke-width="0.1" d="M24.9,14.3v2.9l2.9,2.6c0.3-0.8,0.3-1.6,0.3-1.9c0-0.7,0-3.6,0-3.6H24.9z
		"/>
	<path fill="#CD4917" d="M21.9,15.1l1.8,2c0.1,0.1,0.2,0.3,0.2,0.4l0.2,0.2l0.1-0.1l-0.1-0.1l0.2,0.1c0.1,0,0.1-0.1,0.1-0.2
		c0-0.1-0.1-0.1-0.1-0.2L24,17.1c-0.1-0.1-0.2-0.3-0.3-0.4l-1.4-2.1c-0.1-0.1-0.3-0.2-0.4-0.1C21.8,14.7,21.8,15,21.9,15.1z"/>
	<path fill="none" stroke="#000000" stroke-width="0.1" d="M21.9,15.1l1.8,2c0.1,0.1,0.2,0.3,0.2,0.4l0.2,0.2l0.1-0.1l-0.1-0.1
		l0.2,0.1c0.1,0,0.1-0.1,0.1-0.2c0-0.1-0.1-0.1-0.1-0.2L24,17.1c-0.1-0.1-0.2-0.3-0.3-0.4l-1.4-2.1c-0.1-0.1-0.3-0.2-0.4-0.1
		C21.8,14.7,21.8,15,21.9,15.1z"/>
	<path fill="none" stroke="#000000" stroke-width="0.1" d="M22,14.8l1.8,2.3L22,14.8z"/>
	<path fill="#871811" d="M22,17.6l1.8-2.1c0,0,0.1,0.1,0.2,0.2l-1.8,2.1C22.2,17.8,22.1,17.8,22,17.6z"/>
	<path fill="none" stroke="#000000" stroke-width="0.1" d="M22,17.6l1.8-2.1c0,0,0.1,0.1,0.2,0.2l-1.8,2.1
		C22.2,17.8,22.1,17.8,22,17.6z"/>
	<path fill="#FFFFFF" d="M23.6,15.2c0,0,0-0.3,0.3-0.4c0,0,0.5,0.2,0.7,0.6c0,0-0.1,0.4-0.4,0.4C24.2,15.8,23.8,15.7,23.6,15.2z"/>
	<path fill="none" stroke="#000000" stroke-width="0.1" d="M23.6,15.2c0,0,0-0.3,0.3-0.4c0,0,0.5,0.2,0.7,0.6c0,0-0.1,0.4-0.4,0.4
		C24.2,15.8,23.8,15.7,23.6,15.2z"/>
	<path fill="#871811" d="M27.9,17.7l-0.2,0.1c-0.1-0.1-0.3-0.3-0.4-0.5l-1.8-2.2l0.2-0.2l1.6,1.8c0,0,0.4,0.4,0.6,0.7L27.9,17.7z"/>
	<path fill="none" stroke="#000000" stroke-width="0.1" d="M27.9,17.7l-0.2,0.1c-0.1-0.1-0.3-0.3-0.4-0.5l-1.8-2.2l0.2-0.2l1.6,1.8
		c0,0,0.4,0.4,0.6,0.7L27.9,17.7z"/>
	<path fill="#FFFFFF" d="M26.1,15.3L25.9,15c0,0-0.2,0-0.3,0.1c0,0-0.2,0.3-0.6,0.3c0,0,0.1,0.5,0.6,0.7c0,0,0.2-0.5,0.3-0.6
		C26,15.6,26.1,15.4,26.1,15.3z"/>
	<path fill="none" stroke="#000000" stroke-width="0.1" d="M26.1,15.3L25.9,15c0,0-0.2,0-0.3,0.1c0,0-0.2,0.3-0.6,0.3
		c0,0,0.1,0.5,0.6,0.7c0,0,0.2-0.5,0.3-0.6C26,15.6,26.1,15.4,26.1,15.3z"/>
	<path fill="none" stroke="#904984" stroke-width="0.1" d="M25.6,15.2l0.3,0.3L25.6,15.2z"/>
	<path fill="none" stroke="#904984" stroke-width="0.1" d="M25.7,15.3l-0.1,0.2L25.7,15.3z"/>
	<path fill="none" stroke="#904984" stroke-width="0.1" d="M25.8,15.4c0,0,0,0.1-0.1,0.2L25.8,15.4z"/>
	<path fill="none" stroke="#904984" stroke-width="0.1" d="M25.8,15.4l-0.1,0.1L25.8,15.4z"/>
	<path fill="none" stroke="#904984" stroke-width="0.1" d="M25.8,15.5L25.8,15.5L25.8,15.5z"/>
	<path fill="none" stroke="#904984" stroke-width="0.1" d="M25.6,15.3c0,0-0.2,0.2-0.3,0.2L25.6,15.3z"/>
	<path fill="none" stroke="#904984" stroke-width="0.1" d="M25.5,15.4l-0.2,0.1L25.5,15.4z"/>
	<path fill="none" stroke="#904984" stroke-width="0.1" d="M25.5,15.5l-0.2,0.1L25.5,15.5z"/>
	<path fill="none" stroke="#904984" stroke-width="0.1" d="M25.5,15.6l-0.1,0.1L25.5,15.6z"/>
	<polygon fill="#FFFFFF" points="25.4,16.9 27.4,14.9 27.9,15.4 27.7,15.4 27.8,15.5 27.6,15.5 27.6,15.7 27.5,15.6 27.5,15.8 
		27.4,15.8 27.4,15.9 27.2,15.9 27.2,16 27.1,16.1 27.1,16.2 26.9,16.2 26.9,16.4 26.8,16.4 26.8,16.5 26.6,16.5 26.7,16.6 
		26.5,16.6 26.5,16.8 26.4,16.8 26.4,16.9 26.2,16.9 26.2,17 26.1,17 26.1,17.2 26,17.1 26,17.3 25.9,17.2 25.9,17.4 25.8,17.3 	"/>
	<polygon fill="none" stroke="#000000" stroke-width="0.1" points="25.4,16.9 27.4,14.9 27.9,15.4 27.7,15.4 27.8,15.5 27.6,15.5 
		27.6,15.7 27.5,15.6 27.5,15.8 27.4,15.8 27.4,15.9 27.2,15.9 27.2,16 27.1,16.1 27.1,16.2 26.9,16.2 26.9,16.4 26.8,16.4 
		26.8,16.5 26.6,16.5 26.7,16.6 26.5,16.6 26.5,16.8 26.4,16.8 26.4,16.9 26.2,16.9 26.2,17 26.1,17 26.1,17.2 26,17.1 26,17.3 
		25.9,17.2 25.9,17.4 25.8,17.3 	"/>
	<path fill="#904984" d="M27.3,15.1l-0.2,0.2l0,0.5c0,0,0-0.2,0.1,0l0-0.1L27.3,15.1z"/>
	<path fill="#904984" d="M27,15.3l-0.1,0.1l0,0.5c0,0,0-0.2,0.1,0l0-0.2V15.3z"/>
	<path fill="#904984" d="M25.8,16.5l-0.1,0.1l0,0.3c0,0,0-0.2,0.1,0l0-0.2L25.8,16.5L25.8,16.5z"/>
	<path fill="#871811" d="M25.4,16.8l-0.1,0l-0.1,0l0.1-0.1c0.1-0.1,0.2-0.1,0.3,0L25.4,16.8z"/>
	<path fill="none" stroke="#000000" stroke-width="0.1" d="M25.4,16.8l-0.1,0l-0.1,0l0.1-0.1c0.1-0.1,0.2-0.1,0.3,0L25.4,16.8z"/>
	<path fill="#871811" d="M27.3,14.9l0-0.2c0-0.1,0-0.1-0.1-0.1c-0.1,0-0.2,0.2-0.1,0.4L27.3,14.9z"/>
	<path fill="none" stroke="#000000" stroke-width="0.1" d="M27.3,14.9l0-0.2c0-0.1,0-0.1-0.1-0.1c-0.1,0-0.2,0.2-0.1,0.4L27.3,14.9z
		"/>
	<path fill="#871811" d="M32.6,13c0,0,0.1-0.1,0-0.2c0,0,0-0.1-0.1-0.1c0,0-0.1-0.1-0.2-0.1l-0.2-0.1l-0.2,0.2l0,0.2l0.1-0.1
		l0.1,0.1l0.1,0l0.1,0.1l0.1,0l0,0.1l0.1,0C32.5,13,32.4,12.9,32.6,13z"/>
	<path fill="none" stroke="#000000" stroke-width="0.1" d="M32.6,13c0,0,0.1-0.1,0-0.2c0,0,0-0.1-0.1-0.1c0,0-0.1-0.1-0.2-0.1
		l-0.2-0.1l-0.2,0.2l0,0.2l0.1-0.1l0.1,0.1l0.1,0l0.1,0.1l0.1,0l0,0.1l0.1,0C32.5,13,32.4,12.9,32.6,13z"/>
	<path fill="none" stroke="#000000" stroke-width="0.1" d="M32,12.7c0-0.1,0.1-0.2,0.3-0.2L32,12.7z"/>
	<path fill="none" stroke="#000000" stroke-width="0.1" d="M32.1,12.8L32.1,12.8c0.1-0.2,0.2-0.2,0.3-0.2L32.1,12.8z"/>
	<polygon fill="none" stroke="#000000" stroke-width="0.1" points="32.3,12.9 32.4,12.8 32.6,12.8 	"/>
	<path fill="#871811" d="M26.9,8.5l0.1,0l0.1,0.3L27,8.8C27,8.8,27,8.7,26.9,8.5z"/>
	<path fill="none" stroke="#000000" stroke-width="0.1" d="M26.9,8.5l0.1,0l0.1,0.3L27,8.8C27,8.8,27,8.7,26.9,8.5z"/>
	<path fill="#871811" d="M26.3,10.6c0,0,0.1-0.1,0-0.2l0.1,0C26.4,10.3,26.4,10.4,26.3,10.6L26.3,10.6z"/>
	<path fill="none" stroke="#000000" stroke-width="0.1" d="M26.3,10.6c0,0,0.1-0.1,0-0.2l0.1,0C26.4,10.3,26.4,10.4,26.3,10.6
		L26.3,10.6z"/>
	<path fill="#68B43B" d="M27.1,8.4l-0.2-0.1L27.1,8.4z"/>
	<path fill="none" stroke="#1C692F" stroke-width="0.1" d="M27.1,8.4l-0.2-0.1L27.1,8.4z"/>
	<polygon fill="#871811" points="28.1,10.2 27.9,10.4 28,10.4 28.3,10.2 	"/>
	<polygon fill="none" stroke="#000000" stroke-width="0.1" points="28.1,10.2 27.9,10.4 28,10.4 28.3,10.2 	"/>
	<path fill="#871811" d="M24.7,11.2l-0.1,0.2l-0.1,0.2c0,0.1,0,0.1,0,0.2c0,0.1,0.2,0.6,0.1,0.9c-0.1,0.4,0,0.5,0,0.6l0.2,0.2
		c0.1,0,0.1,0,0.1-0.1c0.1-0.2,0-1.5,0-1.9c0-0.3-0.2-0.5-0.2-0.6l-0.1-0.2c-0.1-0.2-0.2-0.5-0.2-1c0,0-0.3,0.1-0.6-0.6
		C23.6,9,23.4,9,23.1,8.9l0.1-0.1c0,0,0.2,0.1,0.3,0.1c0.1,0,0.1-0.2,0.1-0.2l0.1-0.1c0,0,0,0.3,0,0.5c0,0.2,0.3,0.5,0.5,0.6
		c0.1,0.1,0.2-0.2,0.2-0.4c0-0.2,0-0.5,0-0.5l0.1,0.1l0,0.1l0.1-0.1l0.1,0c0,0-0.1,0.2-0.2,0.3c-0.1,0.1-0.1,0.4-0.1,0.6
		c0,0.1,0,0.4,0,0.5c0,0.1,0.1,0.3,0.2,0.5l0.1,0.2c0.1,0.1,0.1,0.2,0.1,0.3c0,0.1,0.1,0.2,0.1,0.5c0,0.1,0,0.3,0,0.5
		c0,0.2,0.2,0,0.3-0.1c0.2-0.1,0.2-0.4,0.2-0.4l0.1,0l0.1,0.1c-0.1,0.2,0,0.2,0.1,0.2c0.1,0,0.5-0.3,0.5-0.3h0.2L26.5,12l0.2,0
		l-0.5,0.3c-0.1,0-0.4,0.2-0.6,0.3c-0.2,0.1-0.5,0.2-0.5,0.4c0,0.2,0,0.6,0,0.7c0,0.1-0.1,0.7-0.1,0.7h-0.7c0,0,0.1-0.5,0-0.7
		c-0.1-0.1-0.5-0.6-0.7-0.7c-0.2-0.1,0.1,0,0.1,0v-0.1l0.3,0.4c0,0,0.6-0.5,0-1.2c-0.2-0.2-0.4-0.5-0.5-0.6c-0.1,0-0.2-0.1-0.5,0
		c-0.3,0.1-0.9,0.1-1.1-0.3l0.2,0l0.2-0.1c0,0-0.1,0.3,0.4,0.3c0.5,0,0.6,0,0.5-0.5l0.1-0.1l0.1,0.1c0,0-0.1,0.3,0,0.4
		c0,0.1,0.2,0.2,0.4,0.3l0.1,0.1l0.2-0.1c0.1-0.1,0.1-0.1,0.2-0.2l0.1-0.1L24.7,11.2L24.7,11.2z"/>
	<path fill="none" stroke="#000000" stroke-width="0.1" d="M24.7,11.2l-0.1,0.2l-0.1,0.2c0,0.1,0,0.1,0,0.2c0,0.1,0.2,0.6,0.1,0.9
		c-0.1,0.4,0,0.5,0,0.6l0.2,0.2c0.1,0,0.1,0,0.1-0.1c0.1-0.2,0-1.5,0-1.9c0-0.3-0.2-0.5-0.2-0.6l-0.1-0.2c-0.1-0.2-0.2-0.5-0.2-1
		c0,0-0.3,0.1-0.6-0.6C23.6,9,23.4,9,23.1,8.9l0.1-0.1c0,0,0.2,0.1,0.3,0.1c0.1,0,0.1-0.2,0.1-0.2l0.1-0.1c0,0,0,0.3,0,0.5
		c0,0.2,0.3,0.5,0.5,0.6c0.1,0.1,0.2-0.2,0.2-0.4c0-0.2,0-0.5,0-0.5l0.1,0.1l0,0.1l0.1-0.1l0.1,0c0,0-0.1,0.2-0.2,0.3
		c-0.1,0.1-0.1,0.4-0.1,0.6c0,0.1,0,0.4,0,0.5c0,0.1,0.1,0.3,0.2,0.5l0.1,0.2c0.1,0.1,0.1,0.2,0.1,0.3c0,0.1,0.1,0.2,0.1,0.5
		c0,0.1,0,0.3,0,0.5c0,0.2,0.2,0,0.3-0.1c0.2-0.1,0.2-0.4,0.2-0.4l0.1,0l0.1,0.1c-0.1,0.2,0,0.2,0.1,0.2c0.1,0,0.5-0.3,0.5-0.3h0.2
		L26.5,12l0.2,0l-0.5,0.3c-0.1,0-0.4,0.2-0.6,0.3c-0.2,0.1-0.5,0.2-0.5,0.4c0,0.2,0,0.6,0,0.7c0,0.1-0.1,0.7-0.1,0.7h-0.7
		c0,0,0.1-0.5,0-0.7c-0.1-0.1-0.5-0.6-0.7-0.7c-0.2-0.1,0.1,0,0.1,0v-0.1l0.3,0.4c0,0,0.6-0.5,0-1.2c-0.2-0.2-0.4-0.5-0.5-0.6
		c-0.1,0-0.2-0.1-0.5,0c-0.3,0.1-0.9,0.1-1.1-0.3l0.2,0l0.2-0.1c0,0-0.1,0.3,0.4,0.3c0.5,0,0.6,0,0.5-0.5l0.1-0.1l0.1,0.1
		c0,0-0.1,0.3,0,0.4c0,0.1,0.2,0.2,0.4,0.3l0.1,0.1l0.2-0.1c0.1-0.1,0.1-0.1,0.2-0.2l0.1-0.1L24.7,11.2L24.7,11.2z"/>
	<path fill="#871811" d="M24.8,10.8l0.1-0.2c0.1-0.1,0.2-0.2,0.3-0.4c0.1-0.2,0.1-0.4,0.1-0.5l0.1,0.1l0,0.3l0.2-0.1l0.1,0
		c0,0-0.4,0.4-0.8,1.1L24.8,10.8z"/>
	<path fill="none" stroke="#000000" stroke-width="0.1" d="M24.8,10.8l0.1-0.2c0.1-0.1,0.2-0.2,0.3-0.4c0.1-0.2,0.1-0.4,0.1-0.5
		l0.1,0.1l0,0.3l0.2-0.1l0.1,0c0,0-0.4,0.4-0.8,1.1L24.8,10.8z"/>
	<path fill="#871811" d="M21.3,9.5c0.1,0.1,0.1,0.3,0.3,0.4l0.1,0c0,0-0.2-0.3-0.2-0.4L21.3,9.5z"/>
	<path fill="none" stroke="#000000" stroke-width="0.1" d="M21.3,9.5c0.1,0.1,0.1,0.3,0.3,0.4l0.1,0c0,0-0.2-0.3-0.2-0.4L21.3,9.5z"
		/>
	<path fill="#871811" d="M21.9,9.3c0,0,0,0.3-0.1,0.5L22,9.7c0,0,0.1-0.2,0.1-0.4L21.9,9.3z"/>
	<path fill="none" stroke="#000000" stroke-width="0.1" d="M21.9,9.3c0,0,0,0.3-0.1,0.5L22,9.7c0,0,0.1-0.2,0.1-0.4L21.9,9.3z"/>
	<path fill="#871811" d="M25.5,8.2c0,0,0,0.5,0.1,0.8l0.1,0c0,0,0-0.1,0.1-0.1c0.1,0,0.4-0.1,0.5-0.2l0-0.1c0,0-0.2,0.2-0.3,0.2
		l-0.2,0.1c-0.1,0-0.2-0.1-0.1-0.4L25.5,8.2z"/>
	<path fill="none" stroke="#000000" stroke-width="0.1" d="M25.5,8.2c0,0,0,0.5,0.1,0.8l0.1,0c0,0,0-0.1,0.1-0.1
		c0.1,0,0.4-0.1,0.5-0.2l0-0.1c0,0-0.2,0.2-0.3,0.2l-0.2,0.1c-0.1,0-0.2-0.1-0.1-0.4L25.5,8.2z"/>
	<path fill="#871811" d="M26.9,10.5c0,0,0,0.3,0,0.5l0.1,0l0-0.4L26.9,10.5z"/>
	<path fill="none" stroke="#000000" stroke-width="0.1" d="M26.9,10.5c0,0,0,0.3,0,0.5l0.1,0l0-0.4L26.9,10.5z"/>
	<path fill="#871811" d="M27.4,10.7c0,0-0.1,0.2-0.3,0.2l0.2,0c0,0,0.1,0,0.2-0.1L27.4,10.7z"/>
	<path fill="none" stroke="#000000" stroke-width="0.1" d="M27.4,10.7c0,0-0.1,0.2-0.3,0.2l0.2,0c0,0,0.1,0,0.2-0.1L27.4,10.7z"/>
	<path fill="#009A39" d="M25.3,9.7L25.3,9.7l0.2,0.1c0,0,0.1,0.1,0.2,0.2l0.1,0l0.1,0.2H26l0,0.2l0.1-0.1l0.1,0.1l0.2-0.1l0.1-0.1h0
		c-0.4-0.2-0.5-0.3-0.4-0.5c0.2-0.3,0.5-0.1,0.6-0.1l1.3,0.7l0-0.1L27.9,10l0.2,0.2l0.2,0l0-0.1l0.2,0.2l0.1-0.1l0.3,0.2l0.1-0.1
		c0,0,0-0.2,0.1-0.3c0.1-0.1,0.1-0.1,0.1-0.1l0.1-0.1l-0.1-0.1l-0.1-0.1l0.1-0.1l0.1,0c0,0-0.2-0.1-0.3-0.1c0,0,0-0.2-0.1-0.2H29
		c0,0-0.1-0.2-0.2-0.2l0.1-0.1c0,0-0.1-0.1-0.3-0.1l0.1,0c0,0-0.1-0.1-0.3,0c0,0,0-0.1-0.1-0.2l-0.1,0.1c0,0-0.1-0.1-0.2-0.1
		c-0.1,0,0,0.1,0,0.1l-0.2-0.1l-0.1-0.2l-0.1,0.1l0-0.1l-0.2,0.1l0-0.1l-0.1,0.1l0-0.2c0,0-0.1,0.1-0.2,0.2l-0.1,0.2H27
		c-0.1,0.1,0,0.1,0,0.1l-0.1,0l0,0.1l-0.2,0l0,0.1c0,0-0.2,0-0.2-0.1l-0.2,0l-0.1,0.1l-0.1-0.1l0,0.1l-0.1-0.1l0,0.1l-0.1-0.2
		L26,8.9L26,9l0-0.1L25.8,9V8.8c0,0-0.1,0-0.1,0.1c0,0.1,0,0,0,0l-0.2,0l0.1,0.1l-0.2,0l0,0.1c0,0,0,0-0.2,0c-0.1,0,0,0.1,0,0.1
		h-0.2l0,0.1l-0.3,0l0.1,0.1c0,0-0.1,0-0.2,0.1l0.1,0l-0.1,0.1l0.1,0l-0.1,0.2l0.2,0l0-0.1l0,0.1l0.2-0.1l0,0.1l0.2-0.1L25.3,9.7z"
		/>
	<path fill="none" stroke="#1B3113" stroke-width="0.1" d="M25.3,9.7L25.3,9.7l0.2,0.1c0,0,0.1,0.1,0.2,0.2l0.1,0l0.1,0.2H26l0,0.2
		l0.1-0.1l0.1,0.1l0.2-0.1l0.1-0.1h0c-0.4-0.2-0.5-0.3-0.4-0.5c0.2-0.3,0.5-0.1,0.6-0.1l1.3,0.7l0-0.1L27.9,10l0.2,0.2l0.2,0l0-0.1
		l0.2,0.2l0.1-0.1l0.3,0.2l0.1-0.1c0,0,0-0.2,0.1-0.3c0.1-0.1,0.1-0.1,0.1-0.1l0.1-0.1l-0.1-0.1l-0.1-0.1l0.1-0.1l0.1,0
		c0,0-0.2-0.1-0.3-0.1c0,0,0-0.2-0.1-0.2H29c0,0-0.1-0.2-0.2-0.2l0.1-0.1c0,0-0.1-0.1-0.3-0.1l0.1,0c0,0-0.1-0.1-0.3,0
		c0,0,0-0.1-0.1-0.2l-0.1,0.1c0,0-0.1-0.1-0.2-0.1c-0.1,0,0,0.1,0,0.1l-0.2-0.1l-0.1-0.2l-0.1,0.1l0-0.1l-0.2,0.1l0-0.1l-0.1,0.1
		l0-0.2c0,0-0.1,0.1-0.2,0.2l-0.1,0.2H27c-0.1,0.1,0,0.1,0,0.1l-0.1,0l0,0.1l-0.2,0l0,0.1c0,0-0.2,0-0.2-0.1l-0.2,0l-0.1,0.1
		l-0.1-0.1l0,0.1l-0.1-0.1l0,0.1l-0.1-0.2L26,8.9L26,9l0-0.1L25.8,9V8.8c0,0-0.1,0-0.1,0.1c0,0.1,0,0,0,0l-0.2,0l0.1,0.1l-0.2,0
		l0,0.1c0,0,0,0-0.2,0c-0.1,0,0,0.1,0,0.1h-0.2l0,0.1l-0.3,0l0.1,0.1c0,0-0.1,0-0.2,0.1l0.1,0l-0.1,0.1l0.1,0l-0.1,0.2l0.2,0l0-0.1
		l0,0.1l0.2-0.1l0,0.1l0.2-0.1L25.3,9.7z"/>
	<path fill="#009A39" d="M25.2,7.6l0-0.1c0,0,0.2,0,0.3,0l0.1-0.1l0.2,0.1c0,0,0.3-0.1,0.4,0l0,0.1c0,0,0.3,0,0.4,0.1l0,0.1
		c0,0,0.3,0,0.5,0.1C27.1,8,27.1,8,27.1,8.1l0.2,0.3l-0.3,0.1l-0.1-0.1l-0.1,0.2l-0.3-0.2l0,0.2c0,0-0.2,0-0.3-0.2
		c0,0-0.1,0-0.1,0.1l-0.2-0.2l-0.2,0.1l-0.1-0.1l0,0.1l-0.1-0.1L25.2,8l-0.2,0.1L25,8h-0.2c0,0-0.1-0.3,0.2-0.3
		C25.2,7.6,25.2,7.6,25.2,7.6z"/>
	<path fill="none" stroke="#1B3113" stroke-width="0.1" d="M25.2,7.6l0-0.1c0,0,0.2,0,0.3,0l0.1-0.1l0.2,0.1c0,0,0.3-0.1,0.4,0
		l0,0.1c0,0,0.3,0,0.4,0.1l0,0.1c0,0,0.3,0,0.5,0.1C27.1,8,27.1,8,27.1,8.1l0.2,0.3l-0.3,0.1l-0.1-0.1l-0.1,0.2l-0.3-0.2l0,0.2
		c0,0-0.2,0-0.3-0.2c0,0-0.1,0-0.1,0.1l-0.2-0.2l-0.2,0.1l-0.1-0.1l0,0.1l-0.1-0.1L25.2,8l-0.2,0.1L25,8h-0.2c0,0-0.1-0.3,0.2-0.3
		C25.2,7.6,25.2,7.6,25.2,7.6z"/>
	<path fill="none" stroke="#1B3113" stroke-width="0.1" d="M23.9,8.5l-0.1,0.1l-0.1,0l-0.1,0.1l0-0.1l-0.1,0.1l-0.1,0l-0.1,0.1
		l-0.1,0l-0.1,0.1V8.8l-0.1,0.1l0-0.1L22.8,9l0-0.1L22.7,9V8.9l0,0l0.1-0.1l0-0.1l0-0.1l-0.1,0c0,0,0.1-0.2,0.2-0.2l0-0.2l0.2-0.1
		c0.1,0,0-0.2,0-0.2l0.2-0.1l0-0.2l0.3,0l0.1-0.1l0.3,0.1L24,7.5l0.2,0.2l0.2,0l0,0.2L24.7,8l-0.1,0.2l0.3,0l0,0.2l0.4,0.2l-0.1,0.1
		l0,0.3l0,0L25,8.9L25,9.1L24.9,9l-0.1,0l-0.1-0.1l0-0.1l-0.1,0.1l-0.1-0.1l0-0.1l-0.2,0.1l0-0.1l-0.1,0.1l-0.1-0.2l0,0.1
		C24.1,8.7,23.9,8.6,23.9,8.5z"/>
	<path fill="none" stroke="#1B3113" stroke-width="0.1" d="M21.8,9.2L22,9.4l0-0.2l0.1,0.1l0-0.2c0,0,0.2-0.1,0.3,0
		c0,0,0.2-0.2-0.2-0.3c0,0,0-0.1,0.2-0.1l-0.1-0.1h0.2c0,0-0.1-0.1-0.3-0.1c-0.2,0-0.1,0-0.1-0.1V8.3l-0.2,0l0,0l-0.2,0
		c0,0-0.1,0-0.1-0.1c0,0-0.1,0-0.1,0.1c0,0-0.1,0.1-0.2,0.1l-0.1-0.1l-0.1,0.2l-0.1,0l0,0.1h-0.3l0.1,0.2l-0.2,0.1l0.1,0l-0.2,0.1
		L20.7,9l-0.1,0.1l0.1,0l-0.2,0.1l0.1,0l-0.1,0.1l0.1,0c0,0-0.1,0.3-0.1,0.4l0.2-0.2l-0.1,0.2l0.2-0.1l0-0.1l0,0.1L21,9.4l0.1,0V9.4
		l0.2,0l0.1,0l0.1,0l0,0.1l0.1-0.1h0.1l0.1-0.2H21.8z"/>
	<path fill="none" stroke="#1B3113" stroke-width="0.1" d="M20.8,10.1l0.1,0.2l-0.2,0.1c0,0.4-0.1,0.4-0.1,0.4l0,0.1l0.6-0.3l0,0
		l0.6-0.3l0,0l0.2-0.1l0.1,0.3L22,10.7c0,0.1,0.1,0.3,0.1,0.3l0.2,0l0.2-0.1l0,0.1l0.2-0.1l0.1,0.1l0.2-0.2l0.1,0.1l0-0.1l0.2-0.1
		l0.1,0.1l0.2-0.1l0.1,0.1l0.2,0.1l0.1-0.2l0.3,0.1c0-0.1-0.1-0.3-0.1-0.3l0.1-0.1h-0.1l0.1-0.2h-0.1l0,0L24,10.1l0.1-0.2l-0.5-0.1
		l0.1-0.1l-0.1-0.1l-0.3,0l-0.1-0.1L23,9.6l-0.1,0l-0.2,0.1l0,0l-0.2-0.2l-0.2,0.3l-0.1,0L22,9.6l-0.2,0.1l-0.2,0l-0.2,0.2
		c-0.1,0-0.3,0-0.3,0l-0.1,0.1L20.8,10.1L20.8,10.1z"/>
	<path fill="none" stroke="#1B3113" stroke-width="0.1" d="M23.9,12.9v-0.1l0.2,0.1l0.1-0.1l0.1,0.1l0.1-0.1v0.2l0.2-0.2l0.1,0v-0.2
		l0.1-0.3l0.1,0l-0.2-0.2l-0.1,0c0,0-0.1-0.1-0.2-0.2l-0.1,0c0,0-0.1-0.1-0.1-0.1l-0.1,0.1l-0.2-0.1l0,0.1l-0.3-0.1l0,0.1l-0.3-0.1
		l0,0.1l-0.2,0l0,0.1L22.6,12l0.1,0.1l-0.2-0.1v0.1l-0.2,0.1l0.1,0.1L22,12.5l0.1,0.1l-0.3,0l0.1,0.1l-0.3,0.2l0.2,0.1l-0.1,0.2
		l0.3,0.1l0.1,0.2l0.2,0v0.2l0.3-0.3l0.3,0.1l0-0.2h0.1V13l0.1,0.1l0.1-0.2l0.2,0.3l0.1-0.3L23.9,12.9L23.9,12.9z"/>
	<path fill="none" stroke="#1B3113" stroke-width="0.1" d="M25.2,12.1l0-0.3l-0.1,0.1l0-0.3l-0.1,0l0.1-0.3l-0.1-0.1l0-0.1L25,11
		l0.2-0.2l0.4,0l0.1-0.1l0.3,0.1l0.2-0.1h0.1l0.1,0.1c0,0,0.2,0,0.3,0l-0.1,0.2l0.2,0l0.2,0l0.2-0.1l0.2,0l0.1,0.1h0.2l-0.1,0.1
		l0.3,0.1l-0.1,0.1c0,0,0.1,0.1,0.3,0.1c0.1,0,0.1,0,0.1,0l0,0.2c0,0,0.1,0.2,0.2,0.2c0.2,0,0.2,0,0.2,0.1c0,0,0,0.2-0.2,0.2v0.2
		l-0.2,0.2l-0.1-0.1L28,12.5l-0.3-0.3c-0.1,0-0.1,0.2-0.1,0.2l-0.3-0.2l0,0.1l-0.2-0.2l-0.1,0.1l-0.2-0.2l-0.2,0l0.1-0.1h-0.3
		l-0.1-0.2l0,0.2l-0.2-0.1l-0.2,0.2c0,0,0,0-0.1-0.1c0-0.1-0.1,0.1-0.1,0.1l-0.1-0.2l-0.1,0.2l-0.1-0.2
		C25.3,11.7,25.2,11.9,25.2,12.1L25.2,12.1z"/>
	<path fill="none" stroke="#1B3113" stroke-width="0.1" d="M25.2,12.8l0-0.1l0.4-0.1l0.3-0.1l0.2-0.1l0.1,0.1l0.1-0.2l0.1,0.2
		l0.1-0.1l0.1,0.1h0.1l0,0.1l0.3,0l0.1,0.2l0.3,0l0.1,0.3c0,0,0.1,0.3,0.1,0.4c0,0.1-0.1-0.1-0.1-0.1l0,0.3L27,13.5l-0.1,0.3
		l-0.2-0.2l-0.1,0.2c0,0-0.2-0.3-0.3-0.4c-0.1-0.1-0.1,0.1-0.1,0.1L26,13.2L25.9,13c0,0-0.2,0.3-0.4,0.3l0-0.2l-0.2,0.1
		C25.2,13.3,25.1,13,25.2,12.8L25.2,12.8z"/>
	<path fill="none" stroke="#204C23" stroke-width="0.1" d="M25.3,8l0-0.2L25.3,8z"/>
	<polygon fill="none" stroke="#204C23" stroke-width="0.1" points="23.6,8.7 23.6,8.5 23.7,8.5 23.7,8.4 23.8,8.4 23.9,8.3 24,8.3 
		24.1,8.2 24.2,8.3 24.3,8.2 24.4,8.3 24.4,8.1 	"/>
	<path fill="none" stroke="#204C23" stroke-width="0.1" d="M23.1,8.8c0,0,0.1-0.1,0-0.2L23.1,8.8z"/>
	<polygon fill="none" stroke="#204C23" stroke-width="0.1" points="21.5,9.2 21.5,9 21.6,9 	"/>
	<path fill="none" stroke="#204C23" stroke-width="0.1" d="M22.2,9c-0.1-0.1-0.1-0.1-0.3-0.1L22.2,9z"/>
	<path fill="none" stroke="#204C23" stroke-width="0.1" d="M20.9,9.4l0-0.2L20.9,9.4z"/>
	<polygon fill="none" stroke="#204C23" stroke-width="0.1" points="22.6,12.8 22.7,12.6 22.8,12.9 22.9,12.7 22.9,12.7 23.1,12.6 
		23.3,12.8 	"/>
	<path fill="none" stroke="#204C23" stroke-width="0.1" d="M26.1,11.7l0.1-0.2l0.2,0.1l0.1-0.2l0.2,0.1l0.1-0.2l0.2,0l0-0.1l0.2,0.1
		v-0.2l0.1,0.1c0,0,0.1-0.1,0-0.2L26.1,11.7z"/>
	<polygon fill="none" stroke="#204C23" stroke-width="0.1" points="26.5,11.4 26.7,11.6 26.8,11.5 26.9,11.7 27.1,11.7 27.3,11.8 
		27.4,11.7 27.6,11.9 27.7,11.7 28,11.7 28.1,11.5 	"/>
	<path fill="#009A39" d="M20.8,10.1l0.1,0.2l-0.2,0.1c0,0.4-0.1,0.4-0.1,0.4l0,0.1l0.6-0.3l0,0l0.6-0.3l0,0l0.2-0.1l0.1,0.3L22,10.7
		c0,0.1,0.1,0.3,0.1,0.3l0.2,0l0.2-0.1l0,0.1l0.2-0.1l0.1,0.1l0.2-0.2l0.1,0.1l0-0.1l0.2-0.1l0.1,0.1l0.2-0.1l0.1,0.1l0.2,0.1
		l0.1-0.2l0.3,0.1c0-0.1-0.1-0.3-0.1-0.3l0.1-0.1h-0.1l0.1-0.2h-0.1l0,0L24,10.1l0.1-0.2l-0.5-0.1l0.1-0.1l-0.1-0.1l-0.3,0l-0.1-0.1
		L23,9.6l-0.1,0l-0.2,0.1l0,0l-0.2-0.2l-0.2,0.3l-0.1,0L22,9.6l-0.2,0.1l-0.2,0l-0.2,0.2c-0.1,0-0.3,0-0.3,0l-0.1,0.1L20.8,10.1
		L20.8,10.1z"/>
	<path fill="#009A39" d="M25.2,12.8l0-0.1l0.4-0.1l0.3-0.1l0.2-0.1l0.1,0.1l0.1-0.2l0.1,0.2l0.1-0.1l0.1,0.1h0.1l0,0.1l0.3,0
		l0.1,0.2l0.3,0l0.1,0.3c0,0,0.1,0.3,0.1,0.4c0,0.1-0.1-0.1-0.1-0.1l0,0.3L27,13.5l-0.1,0.3l-0.2-0.2l-0.1,0.2c0,0-0.2-0.3-0.3-0.4
		c-0.1-0.1-0.1,0.1-0.1,0.1L26,13.2L25.9,13c0,0-0.2,0.3-0.4,0.3l0-0.2l-0.2,0.1C25.2,13.3,25.1,13,25.2,12.8L25.2,12.8z"/>
	<path fill="#009A39" d="M23.9,8.5l-0.1,0.1l-0.1,0l-0.1,0.1l0-0.1l-0.1,0.1l-0.1,0l-0.1,0.1l-0.1,0l-0.1,0.1V8.8l-0.1,0.1l0-0.1
		L22.8,9l0-0.1L22.7,9V8.9l0,0l0.1-0.1l0-0.1l0-0.1l-0.1,0c0,0,0.1-0.2,0.2-0.2l0-0.2l0.2-0.1c0.1,0,0-0.2,0-0.2l0.2-0.1l0-0.2
		l0.3,0l0.1-0.1l0.3,0.1L24,7.5l0.2,0.2l0.2,0l0,0.2L24.7,8l-0.1,0.2l0.3,0l0,0.2l0.4,0.2l-0.1,0.1l0,0.3l0,0L25,8.9L25,9.1L24.9,9
		l-0.1,0l-0.1-0.1l0-0.1l-0.1,0.1l-0.1-0.1l0-0.1l-0.2,0.1l0-0.1l-0.1,0.1l-0.1-0.2l0,0.1C24.1,8.7,23.9,8.6,23.9,8.5L23.9,8.5z"/>
	<path fill="#009A39" d="M21.8,9.2L22,9.4l0-0.2l0.1,0.1l0-0.2c0,0,0.2-0.1,0.3,0c0,0,0.2-0.2-0.2-0.3c0,0,0-0.1,0.2-0.1l-0.1-0.1
		h0.2c0,0-0.1-0.1-0.3-0.1c-0.2,0-0.1,0-0.1-0.1V8.3l-0.2,0l0,0l-0.2,0c0,0-0.1,0-0.1-0.1c0,0-0.1,0-0.1,0.1c0,0-0.1,0.1-0.2,0.1
		l-0.1-0.1l-0.1,0.2l-0.1,0l0,0.1h-0.3l0.1,0.2l-0.2,0.1l0.1,0l-0.2,0.1L20.7,9l-0.1,0.1l0.1,0l-0.2,0.1l0.1,0l-0.1,0.1l0.1,0
		c0,0-0.1,0.3-0.1,0.4l0.2-0.2l-0.1,0.2l0.2-0.1l0-0.1l0,0.1L21,9.4l0.1,0V9.4l0.2,0l0.1,0l0.1,0l0,0.1l0.1-0.1h0.1l0.1-0.2H21.8z"
		/>
	<path fill="#009A39" d="M23.9,12.9v-0.1l0.2,0.1l0.1-0.1l0.1,0.1l0.1-0.1v0.2l0.2-0.2l0.1,0v-0.2l0.1-0.3l0.1,0l-0.2-0.2l-0.1,0
		c0,0-0.1-0.1-0.2-0.2l-0.1,0c0,0-0.1-0.1-0.1-0.1l-0.1,0.1l-0.2-0.1l0,0.1l-0.3-0.1l0,0.1l-0.3-0.1l0,0.1l-0.2,0l0,0.1L22.6,12
		l0.1,0.1l-0.2-0.1v0.1l-0.2,0.1l0.1,0.1L22,12.5l0.1,0.1l-0.3,0l0.1,0.1l-0.3,0.2l0.2,0.1l-0.1,0.2l0.3,0.1l0.1,0.2l0.2,0v0.2
		l0.3-0.3l0.3,0.1l0-0.2h0.1V13l0.1,0.1l0.1-0.2l0.2,0.3l0.1-0.3L23.9,12.9z"/>
	<path fill="#009A39" d="M25.2,12.1l0-0.3l-0.1,0.1l0-0.3l-0.1,0l0.1-0.3l-0.1-0.1l0-0.1L25,11l0.2-0.2l0.4,0l0.1-0.1l0.3,0.1
		l0.2-0.1h0.1l0.1,0.1c0,0,0.2,0,0.3,0l-0.1,0.2l0.2,0l0.2,0l0.2-0.1l0.2,0l0.1,0.1h0.2l-0.1,0.1l0.3,0.1l-0.1,0.1
		c0,0,0.1,0.1,0.3,0.1c0.1,0,0.1,0,0.1,0l0,0.2c0,0,0.1,0.2,0.2,0.2c0.2,0,0.2,0,0.2,0.1c0,0,0,0.2-0.2,0.2v0.2l-0.2,0.2l-0.1-0.1
		L28,12.5l-0.3-0.3c-0.1,0-0.1,0.2-0.1,0.2l-0.3-0.2l0,0.1l-0.2-0.2l-0.1,0.1l-0.2-0.2l-0.2,0l0.1-0.1h-0.3l-0.1-0.2l0,0.2l-0.2-0.1
		l-0.2,0.2c0,0,0,0-0.1-0.1c0-0.1-0.1,0.1-0.1,0.1l-0.1-0.2l-0.1,0.2l-0.1-0.2C25.3,11.7,25.2,11.9,25.2,12.1L25.2,12.1z"/>
	<path fill="#FFFFFF" d="M24.9,25.1c1.5,0,2.4-0.5,2.9-0.9c1.1-0.8,1.4-0.8,1.6-0.8c0.2,0,0.5,0.1,0.5,0.3c0,0.3-0.5,0.4-0.7,0.4
		c-0.3,0-1-0.2-1-0.2L28,24.1c0.1,0.1,1.6,0.6,1.9,0.1c0.3-0.5,0.6-1.2,0.6-1.2s-0.3-0.6-1-0.6c-0.7,0-1.4,0.5-1.9,0.8
		C27,23.5,26.4,24,24.9,24c-1.6,0-2.2-0.5-2.6-0.8c-0.5-0.3-1.2-0.8-1.9-0.8c-0.7,0-1,0.6-1,0.6s0.3,0.8,0.6,1.2
		c0.3,0.5,1.8,0,1.9-0.1l-0.2-0.1c0,0-0.7,0.2-1,0.2c-0.3,0-0.7-0.1-0.7-0.4c0-0.2,0.3-0.3,0.5-0.3c0.2,0,0.4,0,1.6,0.8
		C22.4,24.5,23.3,25.1,24.9,25.1z"/>
	<path fill="none" stroke="#000000" stroke-width="0.1" d="M24.9,25.1c1.5,0,2.4-0.5,2.9-0.9c1.1-0.8,1.4-0.8,1.6-0.8
		c0.2,0,0.5,0.1,0.5,0.3c0,0.3-0.4,0.4-0.7,0.4c-0.3,0-1-0.2-1-0.2L28,24.1c0.1,0.1,1.6,0.5,1.9,0.1c0.3-0.5,0.6-1.2,0.6-1.2
		s-0.3-0.6-1-0.6c-0.7,0-1.4,0.5-1.9,0.8C27,23.5,26.4,24,24.9,24c-1.6,0-2.2-0.5-2.6-0.8c-0.5-0.3-1.2-0.8-1.9-0.8
		c-0.7,0-1,0.6-1,0.6s0.3,0.8,0.6,1.2c0.3,0.5,1.8,0,1.9-0.1l-0.2-0.1c0,0-0.7,0.2-1,0.2c-0.3,0-0.7-0.1-0.7-0.4
		c0-0.2,0.3-0.3,0.5-0.3c0.2,0,0.4,0,1.6,0.8C22.4,24.5,23.3,25.1,24.9,25.1z"/>
	<path fill="#6190CC" d="M21.5,23.9c0,0-0.7,0.2-1,0.2c-0.3,0-0.7-0.1-0.7-0.4c0-0.2,0.3-0.3,0.5-0.3C20.5,23.4,20.7,23.4,21.5,23.9
		z"/>
	<path fill="none" stroke="#000000" stroke-width="0.1" d="M21.5,23.9c0,0-0.7,0.2-1,0.2c-0.3,0-0.7-0.1-0.7-0.4
		c0-0.2,0.3-0.3,0.5-0.3C20.5,23.4,20.7,23.4,21.5,23.9z"/>
	<path fill="#6190CC" d="M28.2,23.9c0,0,0.7,0.2,1,0.2c0.3,0,0.7-0.1,0.7-0.4c0-0.2-0.3-0.3-0.5-0.3C29.2,23.4,29,23.4,28.2,23.9z"
		/>
	<path fill="none" stroke="#000000" stroke-width="0.1" d="M28.2,23.9c0,0,0.7,0.2,1,0.2c0.3,0,0.7-0.1,0.7-0.4
		c0-0.2-0.3-0.3-0.5-0.3C29.2,23.4,29,23.4,28.2,23.9z"/>
	<path fill="#6190CC" d="M22.4,23.3l-0.2-0.2c-0.1-0.1-0.2-0.1-0.3-0.2l0.2-0.2c0.1,0,0.3,0,0.3,0.3C22.4,23.2,22.4,23.3,22.4,23.3z
		"/>
	<path fill="none" stroke="#000000" stroke-width="0.1" d="M22.4,23.3l-0.2-0.2c-0.1-0.1-0.2-0.1-0.3-0.2l0.2-0.2
		c0.1,0,0.3,0,0.3,0.3C22.4,23.2,22.4,23.3,22.4,23.3z"/>
	<path fill="#FFFFFF" d="M22.4,23.3c0,0,0-0.1,0-0.3c0-0.2-0.2-0.3-0.3-0.3l-0.2,0.2v0l-0.2-0.1l0.4-0.2c0.1,0,1,0.4,1.3,0.6
		c0.1,0.1,0.1,0.5,0.1,0.6C23,23.7,22.7,23.5,22.4,23.3L22.4,23.3z"/>
	<path fill="none" stroke="#000000" stroke-width="0.1" d="M22.4,23.3c0,0,0-0.1,0-0.3c0-0.2-0.2-0.3-0.3-0.3l-0.2,0.2v0l-0.2-0.1
		l0.4-0.2c0.1,0,1,0.4,1.3,0.6c0.1,0.1,0.1,0.5,0.1,0.6C23,23.7,22.7,23.5,22.4,23.3L22.4,23.3z"/>
	<path fill="#FFFFFF" d="M22,24.2c0,0-0.2,0.2-0.2,0.6c0,0.4,0.3,0.5,0.5,0.4c0.2,0,0.4-0.1,0.4-0.6C22.7,24.6,22.3,24.5,22,24.2z"
		/>
	<path fill="none" stroke="#000000" stroke-width="0.1" d="M22,24.2c0,0-0.2,0.2-0.2,0.6c0,0.4,0.3,0.5,0.5,0.4
		c0.2,0,0.4-0.1,0.4-0.6C22.7,24.6,22.3,24.5,22,24.2z"/>
	<path fill="#FFFFFF" d="M22.1,24.3c0,0-0.2,0.2-0.2,0.4c0,0.2,0.1,0.3,0.3,0.3c0.3,0,0.4-0.4,0.2-0.6L22.1,24.3z"/>
	<path fill="none" stroke="#000000" stroke-width="0.1" d="M22.1,24.3c0,0-0.2,0.2-0.2,0.4c0,0.2,0.1,0.3,0.3,0.3
		c0.3,0,0.4-0.4,0.2-0.6L22.1,24.3z"/>
	<path fill="#6190CC" d="M21.9,25.2c0.1,0.1,0.3,0.1,0.4,0.1c0.2,0,0.4-0.1,0.4-0.6c0,0,0.3,0.2,0.8,0.3c0,0,0.1,0.1,0.1,0.3
		c0,0.2-0.1,0.3-0.2,0.3c0,0-0.7-0.1-1.1-0.2C22,25.3,21.9,25.2,21.9,25.2z"/>
	<path fill="none" stroke="#000000" stroke-width="0.1" d="M21.9,25.2c0.1,0.1,0.3,0.1,0.4,0.1c0.2,0,0.4-0.1,0.4-0.6
		c0,0,0.3,0.2,0.8,0.3c0,0,0.1,0.1,0.1,0.3c0,0.2-0.1,0.3-0.2,0.3c0,0-0.7-0.1-1.1-0.2C22,25.3,21.9,25.2,21.9,25.2z"/>
	<path fill="none" stroke="#FFFFFF" stroke-width="0.1" d="M23.5,25c0,0,0.2,0.2,0,0.4L23.5,25z"/>
	<path fill="none" stroke="#FFFFFF" stroke-width="0.1" d="M22.8,24.9l0.7,0.3L22.8,24.9z"/>
	<path fill="none" stroke="#FFFFFF" stroke-width="0.1" d="M22.9,25.1l0.5,0.2L22.9,25.1z"/>
	<path fill="none" stroke="#FFFFFF" stroke-width="0.1" d="M23.1,25l0.4,0.2L23.1,25z"/>
	<path fill="#6190CC" d="M27.3,23.3l0.2-0.2c0.1-0.1,0.2-0.1,0.3-0.2l-0.2-0.2c-0.1,0-0.2,0-0.3,0.3C27.3,23.2,27.3,23.3,27.3,23.3z
		"/>
	<path fill="none" stroke="#000000" stroke-width="0.1" d="M27.3,23.3l0.2-0.2c0.1-0.1,0.2-0.1,0.3-0.2l-0.2-0.2
		c-0.1,0-0.2,0-0.3,0.3C27.3,23.2,27.3,23.3,27.3,23.3z"/>
	<path fill="#FFFFFF" d="M27.3,23.3c0,0,0-0.1,0-0.3c0-0.2,0.2-0.3,0.3-0.3l0.2,0.2v0l0.2-0.1l-0.4-0.2c-0.1,0-1,0.4-1.3,0.6
		c-0.1,0.1-0.1,0.5-0.1,0.6C26.7,23.7,27,23.5,27.3,23.3L27.3,23.3z"/>
	<path fill="none" stroke="#000000" stroke-width="0.1" d="M27.3,23.3c0,0,0-0.1,0-0.3c0-0.2,0.2-0.3,0.3-0.3l0.2,0.2v0l0.2-0.1
		l-0.4-0.2c-0.1,0-1,0.4-1.3,0.6c-0.1,0.1-0.1,0.5-0.1,0.6C26.7,23.7,27,23.5,27.3,23.3L27.3,23.3z"/>
	<path fill="#FFFFFF" d="M27.7,24.2c0,0,0.2,0.2,0.2,0.6c0,0.4-0.3,0.5-0.5,0.4c-0.2,0-0.4-0.1-0.4-0.6C27,24.6,27.4,24.5,27.7,24.2
		z"/>
	<path fill="none" stroke="#000000" stroke-width="0.1" d="M27.7,24.2c0,0,0.2,0.2,0.2,0.6c0,0.4-0.3,0.5-0.5,0.4
		c-0.2,0-0.4-0.1-0.4-0.6C27,24.6,27.4,24.5,27.7,24.2z"/>
	<path fill="#FFFFFF" d="M27.6,24.3c0,0,0.2,0.2,0.2,0.4c0,0.2-0.1,0.3-0.3,0.3c-0.3,0-0.3-0.4-0.2-0.6L27.6,24.3z"/>
	<path fill="none" stroke="#000000" stroke-width="0.1" d="M27.6,24.3c0,0,0.2,0.2,0.2,0.4c0,0.2-0.1,0.3-0.3,0.3
		c-0.3,0-0.3-0.4-0.2-0.6L27.6,24.3z"/>
	<path fill="#6190CC" d="M27.8,25.2c-0.1,0.1-0.3,0.1-0.4,0.1c-0.2,0-0.4-0.1-0.4-0.6c0,0-0.3,0.2-0.8,0.3c0,0-0.1,0.1-0.1,0.3
		c0,0.2,0.1,0.3,0.2,0.3c0,0,0.7-0.1,1.1-0.2C27.7,25.3,27.8,25.2,27.8,25.2L27.8,25.2z"/>
	<path fill="none" stroke="#000000" stroke-width="0.1" d="M27.8,25.2c-0.1,0.1-0.3,0.1-0.4,0.1c-0.2,0-0.4-0.1-0.4-0.6
		c0,0-0.3,0.2-0.8,0.3c0,0-0.1,0.1-0.1,0.3c0,0.2,0.1,0.3,0.2,0.3c0,0,0.7-0.1,1.1-0.2C27.7,25.3,27.8,25.2,27.8,25.2z"/>
	<path fill="none" stroke="#FFFFFF" stroke-width="0.1" d="M26.2,25c0,0-0.2,0.2,0,0.4L26.2,25z"/>
	<path fill="none" stroke="#FFFFFF" stroke-width="0.1" d="M26.9,24.9l-0.7,0.3L26.9,24.9z"/>
	<path fill="none" stroke="#FFFFFF" stroke-width="0.1" d="M26.8,25.1l-0.5,0.2L26.8,25.1z"/>
	<path fill="none" stroke="#FFFFFF" stroke-width="0.1" d="M26.6,25l-0.4,0.2L26.6,25z"/>
	<path d="M20.1,23.3l0-0.1l0-0.1l0,0l0,0.1l0.1,0.1l0.1-0.1l-0.1-0.1c-0.1,0-0.2-0.1-0.2-0.2c0-0.1,0-0.2,0.2-0.2l0.1,0l0-0.1l0,0
		v0.2l0,0l0-0.1l-0.1-0.1l-0.1,0.1l0.1,0.1c0.1,0,0.1,0.1,0.2,0.2c0,0.1-0.1,0.2-0.2,0.2L20.1,23.3L20.1,23.3L20.1,23.3z"/>
	<path d="M20.8,22.9l0.1-0.2l-0.1,0l0,0l0.1,0.1l0.1,0.1l0,0l-0.1,0L20.8,22.9l0,0.1c-0.1,0.2,0,0.3,0,0.3l0.1,0
		c0.1,0,0.1-0.1,0.2-0.2l0-0.1l0.1-0.2l-0.1,0v0l0.1,0.1l0.1,0l0,0l-0.1,0L21.3,23l0,0l0,0.1L21,23.4l-0.2,0
		c-0.2-0.1-0.2-0.2-0.1-0.3L20.8,22.9z"/>
	<path d="M22.3,23.7l0.1-0.2l-0.1,0l0,0l0.1,0.1l0.1,0.1l0,0l-0.1,0L22.3,23.7l0,0.1c-0.1,0.2-0.1,0.3,0,0.3l0.1,0
		c0.1,0,0.1-0.1,0.2-0.2l0-0.1l0.1-0.2l-0.1-0.1l0,0l0.1,0.1l0.1,0.1l0,0l-0.1,0L22.7,24l0,0l-0.1,0.1l-0.2,0.2l-0.2,0
		c-0.2-0.1-0.2-0.2-0.1-0.4L22.3,23.7L22.3,23.7z"/>
	<path d="M23.3,24.6L23.3,24.6l0.2-0.5l-0.4,0.4l0-0.6h0c-0.1,0.1-0.2,0.3-0.2,0.4l0.1,0v0l-0.1,0l-0.1,0l0,0l0.1,0l0.3-0.5l-0.1,0
		v0l0.1,0l0.1,0l0,0l-0.1,0l0,0.5l0.3-0.4l0,0v0l0.1,0l0.1,0l0,0l-0.1,0c0,0.1-0.1,0.5-0.1,0.6l0.1,0v0l-0.1,0L23.3,24.6L23.3,24.6z
		"/>
	<path d="M26.1,24.4L26,24.1l-0.1,0l0,0l0.1,0l0.3-0.1l0-0.1l0,0l0,0.2l0,0l0-0.1l-0.2,0L26.1,24.4l0.1,0l0.2-0.1l0-0.1l0,0l0,0.2h0
		l0-0.1l-0.2,0l0,0l0.1,0.2l0.1,0l0,0l-0.2,0l-0.1,0v0l0.1,0C26.2,24.6,26.1,24.5,26.1,24.4L26.1,24.4L26.1,24.4z"/>
	<path d="M26.6,24.2L26.5,24l-0.1,0l0,0l0.1-0.1l0.1-0.1v0l-0.1,0.1L26.6,24.2h0.1c0,0.1,0.1,0.3,0.1,0.3c0.1,0,0.1-0.1,0.2-0.1
		l0-0.1l0,0c0,0.1,0,0.2,0.1,0.3h0l0-0.1l-0.2,0.1l-0.1,0.1l0,0l0.1,0L26.6,24.2L26.6,24.2z"/>
	<polygon points="28.4,23.1 28.3,22.9 28.2,23 28.2,22.9 28.3,22.9 28.6,22.8 28.6,22.7 28.6,22.7 28.6,22.9 28.6,22.9 28.6,22.8 
		28.4,22.9 28.5,23.1 28.5,23.1 28.7,23 28.6,23 28.7,23 28.7,23.1 28.7,23.1 28.7,23.1 28.5,23.1 28.5,23.1 28.7,23.4 28.8,23.3 
		28.8,23.2 28.8,23.2 28.9,23.4 28.9,23.4 28.8,23.3 28.6,23.4 28.5,23.5 28.5,23.5 28.6,23.4 28.4,23.2 28.4,23.1 	"/>
	<path d="M21.5,23.3l0.1-0.2L21.5,23l0,0l0.2,0.1c0.1,0.1,0.1,0.2,0.1,0.2l-0.1,0.1l-0.1,0l0.1,0.2c-0.1,0.1-0.2,0.1-0.3,0l-0.1-0.1
		l-0.1-0.1l0,0l0.1,0L21.5,23.3L21.5,23.3z"/>
	<polygon fill="#FFFFFF" points="21.5,23.4 21.4,23.6 21.5,23.6 21.6,23.6 21.6,23.4 21.5,23.4 	"/>
	<polygon fill="#FFFFFF" points="21.6,23.3 21.6,23.3 21.7,23.3 21.7,23.2 21.7,23.2 21.6,23.3 	"/>
	<path d="M23.9,24.4l0-0.2l-0.1,0v0l0.2,0c0.2,0,0.2,0.1,0.2,0.1l0,0.1l-0.1,0.1v0c0.1,0,0.2,0.1,0.2,0.2c0,0.1-0.1,0.2-0.2,0.1
		l-0.1,0l-0.1,0l0,0h0.1L23.9,24.4L23.9,24.4L23.9,24.4z"/>
	<polygon fill="#FFFFFF" points="23.9,24.5 23.9,24.7 24,24.7 24.1,24.6 24,24.5 23.9,24.5 	"/>
	<polygon fill="#FFFFFF" points="23.9,24.4 24,24.4 24.1,24.3 24,24.2 24,24.2 24,24.4 	"/>
	<path d="M24.5,24.5v-0.2l-0.1,0l0,0l0.2,0l0.2,0l0.1,0.1l-0.1,0.2c0,0,0.1,0.2,0.2,0.3l0,0l-0.3-0.3L24.5,24.5l0.1,0.1l0,0.2l0.1,0
		v0l-0.1,0h-0.1l0,0l0.1,0L24.5,24.5L24.5,24.5L24.5,24.5z"/>
	<path fill="#FFFFFF" d="M24.6,24.5L24.6,24.5l0.2-0.1c0,0,0-0.1-0.1-0.1L24.6,24.5L24.6,24.5L24.6,24.5z"/>
	<path d="M27.8,23.5l-0.1-0.2l-0.1,0l0,0l0.2-0.1l0.2-0.1l0.1,0l0,0.2c0,0,0.3,0.1,0.4,0.2l0,0L28,23.4l-0.1,0l0,0l0.1,0.2l0.1,0
		l0,0l-0.1,0.1l-0.1,0.1v0l0.1-0.1L27.8,23.5L27.8,23.5z"/>
	<path fill="#FFFFFF" d="M27.9,23.4L27.9,23.4l0.1-0.2c0,0-0.1-0.1-0.2,0L27.9,23.4L27.9,23.4z"/>
	<polygon points="25.4,24.8 25.5,24.8 25.4,24.5 25.2,24.6 25.1,24.8 25.2,24.8 25.2,24.8 25.1,24.9 25,24.9 25,24.8 25,24.8 
		25.2,24.3 25.1,24.3 25.1,24.2 25.3,24.2 25.4,24.2 25.4,24.2 25.3,24.2 25.5,24.5 25.6,24.8 25.7,24.8 25.7,24.8 25.5,24.8 
		25.4,24.8 	"/>
	<polygon fill="#FFFFFF" points="25.3,24.3 25.3,24.3 25.2,24.5 25.3,24.5 	"/>
	<path d="M27.3,24.2L27.1,24c-0.1-0.1-0.1-0.3,0.1-0.5c0.1-0.1,0.1-0.1,0.2-0.1l0.2,0.1c0.1,0.2,0,0.4-0.1,0.5
		C27.5,24.2,27.4,24.2,27.3,24.2z"/>
	<path fill="#FFFFFF" d="M27.6,23.8c-0.1-0.1-0.2-0.2-0.3-0.1c-0.1,0.1-0.1,0.2-0.1,0.3c0.1,0.1,0.2,0.1,0.3,0.1
		C27.6,24,27.6,23.9,27.6,23.8z"/>
	<path d="M29,23.1L28.9,23c-0.1-0.2,0-0.4,0.3-0.4c0.1,0,0.2,0,0.3,0l0.2,0.2c0.1,0.2,0,0.4-0.2,0.4C29.2,23.2,29.1,23.2,29,23.1z"
		/>
	<path fill="#FFFFFF" d="M29.4,22.8c0-0.1-0.2-0.2-0.3-0.2c-0.1,0-0.2,0.1-0.1,0.2c0,0.1,0.2,0.2,0.3,0.2
		C29.4,23,29.5,22.9,29.4,22.8z"/>
	<path fill="#871811" d="M17.3,13.2l4.9-2.5L22,10.3l-4.2,2c-0.1,0-0.9,0.4-1.3,0.8c-0.2,0.3-0.1,0.4-0.1,0.4l0.1,0l0,0.2l0.1,0.1
		c0.1,0,0.1,0,0.2-0.2C16.9,13.6,17.1,13.3,17.3,13.2L17.3,13.2z"/>
	<path fill="none" stroke="#000000" stroke-width="0.1" d="M17.3,13.2l4.9-2.5L22,10.3l-4.2,2c-0.1,0-0.9,0.4-1.3,0.8
		c-0.2,0.3-0.1,0.4-0.1,0.4l0.1,0l0,0.2l0.1,0.1c0.1,0,0.1,0,0.2-0.2C16.9,13.6,17.1,13.3,17.3,13.2z"/>
	<path fill="#FFFFFF" d="M21.2,10.7l0.6-0.3c0,0,0.2,0.2,0.2,0.3c0,0,0,0.4,0.6,0.7c0,0-0.4,0.5-1.2,0.6c0,0,0.1-0.7-0.1-1
		C21.3,11.1,21.1,10.8,21.2,10.7z"/>
	<path fill="none" stroke="#000000" stroke-width="0.1" d="M21.2,10.7l0.6-0.3c0,0,0.2,0.2,0.2,0.3c0,0,0,0.4,0.6,0.7
		c0,0-0.4,0.5-1.2,0.6c0,0,0.1-0.7-0.1-1C21.3,11.1,21.1,10.8,21.2,10.7L21.2,10.7z"/>
	<path fill="none" stroke="#904984" stroke-width="0.1" d="M21.9,10.8c-0.1,0.1-0.6,0.3-0.6,0.3L21.9,10.8z"/>
	<path fill="none" stroke="#904984" stroke-width="0.1" d="M21.7,10.9c0,0.1,0,0.2,0,0.3V10.9z"/>
	<path fill="none" stroke="#904984" stroke-width="0.1" d="M21.7,10.9c0,0-0.1,0.2,0,0.3L21.7,10.9z"/>
	<path fill="none" stroke="#904984" stroke-width="0.1" d="M21.6,10.9v0.2V10.9z"/>
	<path fill="none" stroke="#904984" stroke-width="0.1" d="M21.5,11L21.5,11L21.5,11z"/>
	<path fill="none" stroke="#904984" stroke-width="0.1" d="M21.9,11c0,0.1,0.2,0.3,0.3,0.4L21.9,11z"/>
	<path fill="none" stroke="#904984" stroke-width="0.1" d="M22,11.1l0.2,0.3L22,11.1z"/>
	<path fill="none" stroke="#904984" stroke-width="0.1" d="M21.9,11.2l0.1,0.3L21.9,11.2z"/>
	<path fill="none" stroke="#904984" stroke-width="0.1" d="M21.9,11.3l0.1,0.2L21.9,11.3z"/>
	
		<radialGradient id="SVGID_2_" cx="-1375.7107" cy="-1427.979" r="1" gradientTransform="matrix(0.6368 0 0 0.7291 896.1029 1052.0575)" gradientUnits="userSpaceOnUse">
		<stop  offset="0" style="stop-color:#FCED51"/>
		<stop  offset="1" style="stop-color:#EA551C"/>
	</radialGradient>
	<path fill="url(#SVGID_2_)" d="M19.4,10.3c0,0.2,0,0.4,0,0.6c0,0.1,0.1,0.3,0.1,0.4c0,0.1,0.1,0.2,0.2,0.3c0.2,0.2,0.5,0,0.6-0.1
		l0.2-0.2c0-0.1,0-0.1,0.1-0.3l0,0c0.1-0.1,0-0.1,0.1-0.2l-0.1-0.1c0-0.1,0.1-0.3,0-0.4l0-0.1c-0.3,0.1-0.7,0.1-1,0.1L19.4,10.3
		L19.4,10.3z"/>
	<path fill="none" stroke="#000000" stroke-width="0.1" d="M19.4,10.3c0,0.2,0,0.4,0,0.6c0,0.1,0.1,0.3,0.1,0.4
		c0,0.1,0.1,0.2,0.2,0.3c0.2,0.2,0.5,0,0.6-0.1l0.2-0.2c0-0.1,0-0.1,0.1-0.3l0,0c0.1-0.1,0-0.1,0.1-0.2l-0.1-0.1
		c0-0.1,0.1-0.3,0-0.4l0-0.1c-0.3,0.1-0.7,0.1-1,0.1L19.4,10.3L19.4,10.3z"/>
	<path d="M19.4,10.4c0,0,0-0.1,0-0.2c0-0.1,0-0.1,0.1-0.2l0.1-0.1l0.2,0c0,0,0.1,0,0.2-0.1c0.1,0,0.3,0,0.4,0
		c0.1,0.1,0.2,0.2,0.2,0.2c0.1,0,0.1,0.2,0.1,0.5c0,0.3-0.1,0.2-0.1,0.2s-0.1-0.1-0.1,0l0-0.2c0-0.1,0-0.2,0-0.3
		c0,0-0.4,0.1-0.6,0.1c-0.2,0-0.5-0.1-0.5-0.1L19.4,10.4z"/>
	<path fill="none" stroke="#000000" stroke-width="0.1" d="M19.4,10.4c0,0,0-0.1,0-0.2c0-0.1,0-0.1,0.1-0.2l0.1-0.1l0.2,0
		c0,0,0.1,0,0.2-0.1c0.1,0,0.3,0,0.4,0c0.1,0.1,0.2,0.2,0.2,0.2c0.1,0,0.1,0.2,0.1,0.5c0,0.3-0.1,0.2-0.1,0.2s-0.1-0.1-0.1,0l0-0.2
		c0-0.1,0-0.2,0-0.3c0,0-0.4,0.1-0.6,0.1c-0.2,0-0.5-0.1-0.5-0.1L19.4,10.4z"/>
	<path fill="#FFFFFF" d="M19.6,10.2l0-0.2C19.6,9.9,19.6,10.2,19.6,10.2C19.7,10.2,19.7,10.3,19.6,10.2z"/>
	<path fill="none" stroke="#FFFFFF" stroke-width="0.1" d="M19.6,10.2l0-0.2C19.6,9.9,19.6,10.2,19.6,10.2
		C19.7,10.2,19.7,10.3,19.6,10.2z"/>
	
		<radialGradient id="SVGID_4_" cx="-1375.7112" cy="-1427.979" r="0.9998" gradientTransform="matrix(2.888 0 0 1.9238 3993.1604 2760.2227)" gradientUnits="userSpaceOnUse">
		<stop  offset="0" style="stop-color:#FCED51"/>
		<stop  offset="1" style="stop-color:#EA551C"/>
	</radialGradient>
	<path fill="url(#SVGID_4_)" d="M20.6,11.1L20.6,11.1c-0.1,0.2-0.1,0.2-0.1,0.3c0,0.1-0.2,0.2-0.2,0.2c-0.1,0-0.3,0.2-0.6,0.1l0,0
		c0,0,0.1,0.3-0.2,0.4c-0.1,0-1,0.5-1,0.5s-0.1,0.2,0,0.4l0,0.1c-0.1,0-0.2,0.2-0.2,0.4c0,0-0.2-0.1-0.2-0.2c0-0.1,0.1-0.2,0.1-0.3
		l0-0.4l-0.2-0.1l-0.1,0.1l0.1,0.1c0,0-0.1,0.1-0.1,0.2l-0.6,0.3l0.1,0.2c0,0,0.1,0.7,0.3,1c0.2,0.3,0.2,0.2,0.3,0.3l0.1,0.1
		c0,0,0.3,0.1,0.3-0.1c0-0.1,0.1-0.2,0.2-0.3c0.1-0.1,0.4-0.4,0.4-0.5c0,0,0.2,0.4,0.1,0.8c0,0,0.6,0.1,1.1,0.1
		c0.5,0,0.8-0.1,0.8-0.1l0-0.5c0,0,0.1,0.3,0.1,0.4c0.1,0.1,0.1,0.3,0.3,0.4c0.1,0,0.3-0.1,0.3-0.2v-0.4h0.6l0.3,0.1l0.1-0.1l0,0
		l0.2,0c0.2,0,0.3,0,0.3,0l0,0c0-0.1-0.2-0.1-0.3-0.2c-0.1,0-0.2-0.1-0.3-0.1c-0.1,0-0.2,0-0.4,0c-0.1,0-0.3,0-0.4,0.1L21.6,14
		c0-0.1,0-0.5-0.1-0.7c-0.1-0.1-0.1-0.2-0.1-0.3c0-0.1,0-0.5,0-0.6c0-0.1-0.2-0.3-0.4-0.3c-0.3,0-0.5-0.2-0.5-0.4
		C20.5,11.5,20.6,11.2,20.6,11.1z"/>
	<path fill="none" stroke="#000000" stroke-width="0.1" d="M20.6,11.1L20.6,11.1c-0.1,0.2-0.1,0.2-0.1,0.3c0,0.1-0.2,0.2-0.2,0.2
		c-0.1,0-0.3,0.2-0.6,0.1l0,0c0,0,0.1,0.3-0.2,0.4c-0.1,0-1,0.5-1,0.5s-0.1,0.2,0,0.4l0,0.1c-0.1,0-0.2,0.2-0.2,0.4
		c0,0-0.2-0.1-0.2-0.2c0-0.1,0.1-0.2,0.1-0.3l0-0.4l-0.2-0.1l-0.1,0.1l0.1,0.1c0,0-0.1,0.1-0.1,0.2l-0.6,0.3l0.1,0.2
		c0,0,0.1,0.7,0.3,1c0.2,0.3,0.2,0.2,0.3,0.3l0.1,0.1c0,0,0.3,0.1,0.3-0.1c0-0.1,0.1-0.2,0.2-0.3c0.1-0.1,0.4-0.4,0.4-0.5
		c0,0,0.2,0.4,0.1,0.8c0,0,0.6,0.1,1.1,0.1c0.5,0,0.8-0.1,0.8-0.1l0-0.5c0,0,0.1,0.3,0.1,0.4c0.1,0.1,0.1,0.3,0.3,0.4
		c0.1,0,0.3-0.1,0.3-0.2v-0.4h0.6l0.3,0.1l0.1-0.1l0,0l0.2,0c0.2,0,0.3,0,0.3,0l0,0c0-0.1-0.2-0.1-0.3-0.2c-0.1,0-0.2-0.1-0.3-0.1
		c-0.1,0-0.2,0-0.4,0c-0.1,0-0.3,0-0.4,0.1L21.6,14c0-0.1,0-0.5-0.1-0.7c-0.1-0.1-0.1-0.2-0.1-0.3c0-0.1,0-0.5,0-0.6
		c0-0.1-0.2-0.3-0.4-0.3c-0.3,0-0.5-0.2-0.5-0.4C20.5,11.5,20.6,11.2,20.6,11.1L20.6,11.1z"/>
	<polygon fill="none" stroke="#000000" stroke-width="0.1" points="23,14.3 22.8,14.2 22.7,14.1 22.6,14.1 	"/>
	<polygon fill="none" stroke="#000000" stroke-width="0.1" points="22.6,14.3 22.5,14.2 22.5,14.2 22.5,14.2 22.3,14.1 	"/>
	<path fill="none" stroke="#000000" stroke-width="0.1" d="M18.1,13.5c0.1,0,0.2,0.1,0.2,0.3c0,0.1,0.1,0.2,0.1,0.2L18.1,13.5z"/>
	<path fill="none" stroke="#000000" stroke-width="0.1" d="M17.6,13l0,0.2L17.6,13z"/>
	<path fill="none" stroke="#000000" stroke-width="0.1" d="M18.6,13.9c0.1-0.2,0.3-0.2,0.3-0.3L18.6,13.9z"/>
	<path fill="none" stroke="#000000" stroke-width="0.1" d="M18.9,13.9c0-0.2-0.1-0.3,0-0.6c0-0.1,0-0.4,0-0.5c0,0,0.1,0.5-0.2,0.6
		L18.9,13.9z"/>
	<path fill="none" stroke="#000000" stroke-width="0.1" d="M20.1,12.9c0-0.1,0-0.3,0-0.5L20.1,12.9z"/>
	<path fill="none" stroke="#000000" stroke-width="0.1" d="M19.2,12.2c0.2,0,0.3,0,0.6,0L19.2,12.2z"/>
	<path fill="none" stroke="#000000" stroke-width="0.1" d="M19.8,11.8c0,0.1,0,0.4,0.3,0.4L19.8,11.8z"/>
	<path fill="none" stroke="#000000" stroke-width="0.1" d="M20.4,11.7c0,0.1,0,0.2-0.1,0.3L20.4,11.7z"/>
	<path fill="none" stroke="#000000" stroke-width="0.1" d="M20.3,12.2c0.1,0,0.3-0.1,0.6,0L20.3,12.2z"/>
	<path fill="none" stroke="#000000" stroke-width="0.1" d="M21,13.7c0.1,0.1,0.1,0.2,0.2,0.4L21,13.7z"/>
	<path fill="none" stroke="#000000" stroke-width="0.1" d="M19.5,13.4c-0.1,0.1-0.1,0.2-0.2,0.3L19.5,13.4z"/>
	<path fill="none" stroke="#000000" stroke-width="0.1" d="M20.2,13.4l0.1,0.2L20.2,13.4z"/>
	<path fill="none" stroke="#000000" stroke-width="0.1" d="M20.2,13.7c0,0.1,0,0.4,0,0.6L20.2,13.7z"/>
	<path fill="none" stroke="#000000" stroke-width="0.1" d="M20,14.3c-0.1,0-0.2,0.1-0.2,0.2L20,14.3z"/>
	<path fill="none" stroke="#000000" stroke-width="0.1" d="M21.6,14.1c-0.1,0-0.2,0.1-0.2,0.1l-0.1,0.1L21.6,14.1z"/>
	<path fill="none" stroke="#000000" stroke-width="0.1" d="M19.8,10.8c0,0.1,0,0.1-0.1,0.2L19.8,10.8z"/>
	<path fill="none" stroke="#000000" stroke-width="0.1" d="M20.5,11.1L20.5,11.1L20.5,11.1z"/>
	<path fill="none" stroke="#000000" stroke-width="0.1" d="M20.6,10.8C20.6,10.8,20.6,10.8,20.6,10.8L20.6,10.8z"/>
	<polygon points="19.3,13.3 19.3,13.2 19.3,13.1 19.2,13.2 	"/>
	<polygon fill="none" stroke="#000000" stroke-width="0.1" points="19.3,13.3 19.3,13.2 19.3,13.1 19.2,13.2 	"/>
	<polygon points="20.8,13.3 20.9,13.2 20.8,13.2 20.7,13.2 	"/>
	<polygon fill="none" stroke="#000000" stroke-width="0.1" points="20.8,13.3 20.9,13.2 20.8,13.2 20.7,13.2 	"/>
	<path fill="none" stroke="#000000" stroke-width="0.1" d="M19.4,10.6l0.2,0.1c0.1,0,0,0.2,0,0.3l0,0.2l0.1,0l0.1,0l0.1,0l0-0.1
		L19.4,10.6z"/>
	<path fill="none" stroke="#000000" stroke-width="0.1" d="M19.9,10.7l0.1-0.1c0.1,0,0.2,0,0.4,0L19.9,10.7z"/>
	<path fill="#FFFFFF" d="M19.4,10.8c0,0,0.1-0.1,0.2,0l-0.1,0.1L19.4,10.8L19.4,10.8z"/>
	<path fill="none" stroke="#000000" stroke-width="0.1" d="M19.4,10.8c0,0,0.1-0.1,0.2,0l-0.1,0.1L19.4,10.8L19.4,10.8z"/>
	<polygon points="19.5,10.8 19.6,10.8 19.5,10.7 19.5,10.8 	"/>
	<polygon fill="none" stroke="#000000" stroke-width="0.1" points="19.5,10.8 19.6,10.8 19.5,10.7 19.5,10.8 	"/>
	<path fill="none" stroke="#000000" stroke-width="0.1" d="M20,11.4c-0.1,0-0.2,0-0.3,0L20,11.4z"/>
	<polygon fill="none" stroke="#000000" stroke-width="0.1" points="19.6,11.4 19.8,11.3 19.9,11.3 20,11.4 	"/>
	<path fill="none" stroke="#000000" stroke-width="0.1" d="M19.6,11.4c0.1,0,0.2,0,0.4,0L19.6,11.4z"/>
	<path fill="#FFFFFF" d="M20,10.8c0-0.1,0.1-0.1,0.2-0.1l0.1,0l-0.1,0L20,10.8L20,10.8L20,10.8z"/>
	<path fill="none" stroke="#000000" stroke-width="0.1" d="M20,10.8c0-0.1,0.1-0.1,0.2-0.1l0.1,0l-0.1,0L20,10.8L20,10.8L20,10.8z"
		/>
	<polygon points="20.1,10.9 20.1,10.8 20.1,10.7 20,10.8 	"/>
	<polygon fill="none" stroke="#000000" stroke-width="0.1" points="20.1,10.9 20.1,10.8 20.1,10.7 20,10.8 	"/>
	<path fill="#F8B265" d="M17,12.7c0,0-0.1-0.1,0-0.2c0,0,0-0.1,0.1-0.1c0,0,0.1-0.1,0.2-0.1l0.2-0.1l0.2,0.2l0,0.2l-0.1-0.1
		l-0.1,0.1l-0.1,0l-0.1,0.1l-0.1,0l0,0.1l-0.1,0C17.2,12.7,17.2,12.6,17,12.7z"/>
	<path fill="none" stroke="#000000" stroke-width="0.1" d="M17,12.7c0,0-0.1-0.1,0-0.2c0,0,0-0.1,0.1-0.1c0,0,0.1-0.1,0.2-0.1
		l0.2-0.1l0.2,0.2l0,0.2l-0.1-0.1l-0.1,0.1l-0.1,0l-0.1,0.1l-0.1,0l0,0.1l-0.1,0C17.2,12.7,17.2,12.6,17,12.7L17,12.7z"/>
	<path fill="none" stroke="#000000" stroke-width="0.1" d="M17.7,12.5c0-0.1-0.1-0.2-0.3-0.2L17.7,12.5z"/>
	<path fill="none" stroke="#000000" stroke-width="0.1" d="M17.6,12.6L17.6,12.6c-0.1-0.2-0.2-0.2-0.3-0.2L17.6,12.6z"/>
	<polygon fill="none" stroke="#000000" stroke-width="0.1" points="17.4,12.7 17.3,12.6 17.1,12.5 	"/>
	<path fill="#FFFFFF" d="M18.7,16c0.1-0.5,0.3-1,0.3-1c0,0,0.3,0.1,0.7,0.1c0.4,0,0.6,0,0.8,0c0.2,0,0.5-0.1,0.5-0.1
		s0.1,0.2,0.1,0.3c0,0.3,0.1,1.8,0.2,2.2c0,0,0.1,0.2,0.1,0.8c0,0.6,0.2,1.9,0.2,2.6l-0.2,0c0,0-1,0.1-1-0.1c0-0.1-0.1-1.8,0.1-2.8
		c0,0,0-0.2-0.1-0.4c-0.1-0.2-0.3-0.7-0.3-0.8c0,0-0.4,1.1-0.4,1.2c0,0.2-0.1,2.5-0.1,2.7l-0.6,0.5l-0.6-0.3c0-0.1,0.1-0.9,0.3-2.2
		c0.1-0.5,0-0.6,0-0.7S18.6,16.5,18.7,16L18.7,16z"/>
	<path fill="none" stroke="#000000" stroke-width="0.1" d="M18.7,16c0.1-0.5,0.3-1,0.3-1c0,0,0.3,0.1,0.7,0.1c0.4,0,0.6,0,0.8,0
		c0.2,0,0.5-0.1,0.5-0.1s0.1,0.2,0.1,0.3c0,0.3,0.1,1.8,0.2,2.2c0,0,0.1,0.2,0.1,0.8c0,0.6,0.2,1.9,0.2,2.6l-0.2,0c0,0-1,0.1-1-0.1
		c0-0.1-0.1-1.8,0.1-2.8c0,0,0-0.2-0.1-0.4c-0.1-0.2-0.3-0.7-0.3-0.8c0,0-0.4,1.1-0.4,1.2c0,0.2-0.1,2.5-0.1,2.7l-0.6,0.5l-0.6-0.3
		c0-0.1,0.1-0.9,0.3-2.2c0.1-0.5,0-0.6,0-0.7C18.6,18.2,18.6,16.5,18.7,16z"/>
	<path fill="none" stroke="#000000" stroke-width="0.1" d="M19.1,15.2c0,0.1-0.1,0.5-0.5,0.7L19.1,15.2z"/>
	<path fill="none" stroke="#000000" stroke-width="0.1" d="M19.6,18.3c0,0.1-0.1,0.3-0.2,0.4L19.6,18.3z"/>
	<path fill="none" stroke="#000000" stroke-width="0.1" d="M19.2,18.7c0,0.1-0.1,1.2-0.1,1.4L19.2,18.7z"/>
	<path fill="none" stroke="#000000" stroke-width="0.1" d="M19,20.3c0,0.1-0.2,0.7-0.2,1.2L19,20.3z"/>
	<path fill="none" stroke="#000000" stroke-width="0.1" d="M21,19.2c0,0.1-0.1,1,0.2,1.8L21,19.2z"/>
	<path fill="none" stroke="#000000" stroke-width="0.1" d="M20,15.3c0,0.1-0.1,1.1-0.1,1.2l0.2,0.2c0,0-0.1,0-0.1,0.4L20,15.3z"/>
	<path fill="none" stroke="#000000" stroke-width="0.1" d="M19.7,16.2c0,0.1-0.1,0.6-0.2,0.7L19.7,16.2z"/>
	<path fill="none" stroke="#000000" stroke-width="0.1" d="M20.2,15.6c0,0.1,0,1.1,0,1.1L20.2,15.6z"/>
	<path fill="none" stroke="#000000" stroke-width="0.1" d="M20.3,16.8l0.1,0.3L20.3,16.8z"/>
	<path fill="none" stroke="#000000" stroke-width="0.1" d="M19.3,15.2c0.1,0,0.2,0.1,0.2,0.1L19.3,15.2z"/>
	<path fill="none" stroke="#000000" stroke-width="0.1" d="M19.8,15.4l0,0.3L19.8,15.4z"/>
	<path fill="none" stroke="#000000" stroke-width="0.1" d="M20.3,18.2c0,0.1,0.1,0.1,0.1,0.3L20.3,18.2z"/>
	<path fill="#AE6018" d="M18.9,15c0,0,0-0.2,0.1-0.3c0,0,0.2,0,0.5,0.1c0.3,0,0.6,0.1,0.8,0c0.2,0,0.5-0.1,0.5-0.1l0,0.4
		c0,0-0.3,0.1-0.6,0.1c-0.3,0-0.8,0-1-0.1C19.2,15.1,19,15,18.9,15z"/>
	<path fill="none" stroke="#000000" stroke-width="0.1" d="M18.9,15c0,0,0-0.2,0.1-0.3c0,0,0.2,0,0.5,0.1c0.3,0,0.6,0.1,0.8,0
		c0.2,0,0.5-0.1,0.5-0.1l0,0.4c0,0-0.3,0.1-0.6,0.1c-0.3,0-0.8,0-1-0.1C19.2,15.1,19,15,18.9,15z"/>
	<polygon fill="#FFFFFF" points="19.2,15 19.2,14.7 19.3,14.7 19.2,15.1 	"/>
	<polygon fill="none" stroke="#000000" stroke-width="0.1" points="19.2,15 19.2,14.7 19.3,14.7 19.2,15.1 	"/>
	<polygon fill="#FFFFFF" points="20.6,14.8 20.6,15.1 20.7,15.1 20.7,14.7 	"/>
	<polygon fill="none" stroke="#000000" stroke-width="0.1" points="20.6,14.8 20.6,15.1 20.7,15.1 20.7,14.7 	"/>
	<polygon fill="#FFFFFF" points="19.6,14.8 19.6,15.1 19.6,15.1 19.6,14.8 	"/>
	<polygon fill="none" stroke="#000000" stroke-width="0.1" points="19.6,14.8 19.6,15.1 19.6,15.1 19.6,14.8 	"/>
	<path fill="#F6A246" d="M18.4,21.4c0,0.1-0.1,0.2-0.1,0.4c0,0,0,0.2,0.1,0.2l0.1-0.2l0,0.2c0.1,0,0.1-0.2,0.1-0.2
		c0,0.1-0.1,0.3,0,0.3c0.1,0,0.2-0.3,0.2-0.3s-0.1,0.3,0,0.3c0.1,0,0.1-0.3,0.1-0.3s-0.1,0.3,0.1,0.3l0.1-0.2c0-0.1,0.1-0.2,0-0.4
		c-0.1-0.2,0-0.2,0-0.2s-0.2,0.1-0.3,0.2L18.4,21.4z"/>
	<path fill="none" stroke="#000000" stroke-width="0.1" d="M18.4,21.4c0,0.1-0.1,0.2-0.1,0.4c0,0,0,0.2,0.1,0.2l0.1-0.2l0,0.2
		c0.1,0,0.1-0.2,0.1-0.2c0,0.1-0.1,0.3,0,0.3c0.1,0,0.2-0.3,0.2-0.3s-0.1,0.3,0,0.3c0.1,0,0.1-0.3,0.1-0.3s-0.1,0.3,0.1,0.3l0.1-0.2
		c0-0.1,0.1-0.2,0-0.4c-0.1-0.2,0-0.2,0-0.2s-0.2,0.1-0.3,0.2L18.4,21.4z"/>
	<path fill="#F6A246" d="M20.4,21.1l0,0.2c0,0.1,0,0.2,0.2,0.2c0.2,0,0.4-0.1,0.6,0c0.1,0,0.3,0,0.5,0c0.1,0,0.2,0,0.2,0l0.2,0
		l0.1-0.1c0-0.1-0.1-0.1-0.2-0.1c-0.1,0-0.3,0-0.3-0.1c-0.1,0-0.2-0.1-0.4-0.1l-0.4,0H20.4z"/>
	<path fill="none" stroke="#000000" stroke-width="0.1" d="M20.4,21.1l0,0.2c0,0.1,0,0.2,0.2,0.2c0.2,0,0.4-0.1,0.6,0
		c0.1,0,0.3,0,0.5,0c0.1,0,0.2,0,0.2,0l0.2,0l0.1-0.1c0-0.1-0.1-0.1-0.2-0.1c-0.1,0-0.3,0-0.3-0.1c-0.1,0-0.2-0.1-0.4-0.1l-0.4,0
		H20.4z"/>
	<path fill="#CD4917" d="M26.5,10.3l5.9,2.9c0.3,0.1,0.2,0.3,0.5,0.6c0.1,0.1,0.1,0.2,0.2,0.2c0.2,0,0.2-0.3,0.1-0.3l-0.2-0.2
		c0-0.1,0.1,0.1,0.3,0.1c0.2,0,0.2-0.1,0-0.3c-0.1-0.2-0.2-0.2-0.4-0.2c0,0-0.3-0.1-0.5-0.2c-0.2-0.2-0.5-0.3-0.6-0.4l-5.3-2.9
		c-0.1,0-0.4-0.2-0.6,0.1C25.9,9.9,26.1,10.1,26.5,10.3L26.5,10.3z"/>
	<path fill="none" stroke="#000000" stroke-width="0.1" d="M26.5,10.3l5.9,2.9c0.3,0.1,0.2,0.3,0.5,0.6c0.1,0.1,0.1,0.2,0.2,0.2
		c0.2,0,0.2-0.3,0.1-0.3l-0.2-0.2c0-0.1,0.1,0.1,0.3,0.1c0.2,0,0.2-0.1,0-0.3c-0.1-0.2-0.2-0.2-0.4-0.2c0,0-0.3-0.1-0.5-0.2
		c-0.2-0.2-0.5-0.3-0.6-0.4l-5.3-2.9c-0.1,0-0.4-0.2-0.6,0.1C25.9,9.9,26.1,10.1,26.5,10.3z"/>
	<path fill="none" stroke="#000000" stroke-width="0.1" d="M26.4,9.9l2.8,1.5L26.4,9.9z"/>
	
		<radialGradient id="SVGID_5_" cx="-1375.7107" cy="-1427.979" r="1.0001" gradientTransform="matrix(0.6611 0 0 0.7248 939.1808 1046.04)" gradientUnits="userSpaceOnUse">
		<stop  offset="0" style="stop-color:#AD2C17"/>
		<stop  offset="1" style="stop-color:#5C1207"/>
	</radialGradient>
	<path fill="url(#SVGID_5_)" d="M30.3,10.3c0.1,0.2,0.1,0.3,0.1,0.3l0,0.2c0,0.2,0,0.3-0.2,0.5L30,11.6c-0.2,0.1-0.5,0-0.6-0.1
		l-0.1-0.1c0-0.1,0-0.2-0.1-0.3l0-0.1C29,11,29.1,11,29,10.9l0.1-0.1c0-0.1-0.1-0.3,0-0.4l0-0.1c0.3,0.1,0.7,0.1,1,0.1L30.3,10.3
		L30.3,10.3z"/>
	<path fill="none" stroke="#000000" stroke-width="0.1" d="M30.3,10.3c0.1,0.2,0.1,0.3,0.1,0.3l0,0.2c0,0.2,0,0.3-0.2,0.5L30,11.6
		c-0.2,0.1-0.5,0-0.6-0.1l-0.1-0.1c0-0.1,0-0.2-0.1-0.3l0-0.1C29,11,29.1,11,29,10.9l0.1-0.1c0-0.1-0.1-0.3,0-0.4l0-0.1
		c0.3,0.1,0.7,0.1,1,0.1L30.3,10.3L30.3,10.3z"/>
	<path d="M30.3,10.4c0,0,0-0.2,0-0.3L30.1,10L30,9.9l-0.2,0c0,0-0.1,0-0.2,0c-0.1,0-0.2,0-0.3,0.1C29.1,10,29.1,10,29,10.2
		c0,0.1-0.1,0.2-0.1,0.4c0,0.3,0.1,0.2,0.1,0.2l0.1,0l0-0.2c0-0.1,0-0.2,0-0.3c0,0,0.3,0.1,0.6,0.1c0.2,0,0.5,0,0.5-0.1L30.3,10.4z"
		/>
	<path fill="none" stroke="#000000" stroke-width="0.1" d="M30.3,10.4c0,0,0-0.2,0-0.3L30.1,10L30,9.9l-0.2,0c0,0-0.1,0-0.2,0
		c-0.1,0-0.2,0-0.3,0.1c-0.1,0.1-0.2,0.1-0.2,0.2c0,0.1-0.1,0.2-0.1,0.4c0,0.3,0.1,0.2,0.1,0.2l0.1,0l0-0.2c0-0.1,0-0.2,0-0.3
		c0,0,0.3,0.1,0.6,0.1c0.2,0,0.5,0,0.5-0.1L30.3,10.4z"/>
	
		<radialGradient id="SVGID_6_" cx="-1375.7107" cy="-1427.9779" r="0.9994" gradientTransform="matrix(2.89 0 0 1.9259 4005.3901 2763.2148)" gradientUnits="userSpaceOnUse">
		<stop  offset="0" style="stop-color:#AD2C17"/>
		<stop  offset="1" style="stop-color:#5C1207"/>
	</radialGradient>
	<path fill="url(#SVGID_6_)" d="M29.1,11.1L29.1,11.1l0.1,0.3l0.1,0.1c0.1,0.1,0.4,0.2,0.6,0.1l0,0c0,0-0.1,0.3,0.2,0.4l1,0.5
		c0,0,0.1,0.2,0,0.4l0,0.1c0.1,0,0.2,0.2,0.2,0.4c0,0,0.2-0.1,0.2-0.2c0-0.1-0.1-0.2-0.1-0.3l0-0.4l0.2-0.1l0.1,0.1l-0.1,0.1
		c0,0,0.1,0.1,0.1,0.2l0.6,0.3l-0.1,0.2c0,0-0.1,0.7-0.3,1c-0.2,0.3-0.2,0.2-0.3,0.3l-0.1,0.1c0,0-0.2,0.1-0.3-0.1
		c0-0.1-0.1-0.2-0.2-0.3c-0.1-0.1-0.4-0.4-0.4-0.5c0,0-0.2,0.4-0.1,0.8c0,0-0.6,0.1-1.1,0.1c-0.5,0-0.8-0.1-0.8-0.1l0-0.5
		c0,0-0.1,0.3-0.1,0.4c-0.1,0.1-0.1,0.3-0.3,0.4c-0.1,0-0.3-0.1-0.3-0.2v-0.4h-0.6l-0.3,0.1l-0.1-0.1l0,0l-0.2,0c-0.2,0-0.3,0-0.3,0
		l0,0c0-0.1,0.2-0.1,0.3-0.2c0.1,0,0.2-0.1,0.3-0.1c0.1,0,0.2,0,0.4,0c0.1,0,0.3,0,0.4,0.1l0.1-0.1c0-0.1-0.1-0.4,0-0.6
		c0.1-0.1,0.1-0.2,0.1-0.3c0-0.1-0.1-0.4-0.1-0.5c0-0.4,0.3-0.5,0.5-0.6c0.3-0.1,0.5-0.2,0.5-0.3C29.1,11.5,29.2,11.2,29.1,11.1
		L29.1,11.1z"/>
	<path fill="none" stroke="#000000" stroke-width="0.1" d="M29.1,11.1L29.1,11.1l0.1,0.3l0.1,0.1c0.1,0.1,0.4,0.2,0.6,0.1l0,0
		c0,0-0.1,0.3,0.2,0.4l1,0.5c0,0,0.1,0.2,0,0.4l0,0.1c0.1,0,0.2,0.2,0.2,0.4c0,0,0.2-0.1,0.2-0.2c0-0.1-0.1-0.2-0.1-0.3l0-0.4
		l0.2-0.1l0.1,0.1l-0.1,0.1c0,0,0.1,0.1,0.1,0.2l0.6,0.3l-0.1,0.2c0,0-0.1,0.7-0.3,1c-0.2,0.3-0.2,0.2-0.3,0.3l-0.1,0.1
		c0,0-0.2,0.1-0.3-0.1c0-0.1-0.1-0.2-0.2-0.3c-0.1-0.1-0.4-0.4-0.4-0.5c0,0-0.2,0.4-0.1,0.8c0,0-0.6,0.1-1.1,0.1
		c-0.5,0-0.8-0.1-0.8-0.1l0-0.5c0,0-0.1,0.3-0.1,0.4c-0.1,0.1-0.1,0.3-0.3,0.4c-0.1,0-0.3-0.1-0.3-0.2v-0.4h-0.6l-0.3,0.1l-0.1-0.1
		l0,0l-0.2,0c-0.2,0-0.3,0-0.3,0l0,0c0-0.1,0.2-0.1,0.3-0.2c0.1,0,0.2-0.1,0.3-0.1c0.1,0,0.2,0,0.4,0c0.1,0,0.3,0,0.4,0.1l0.1-0.1
		c0-0.1-0.1-0.4,0-0.6c0.1-0.1,0.1-0.2,0.1-0.3c0-0.1-0.1-0.4-0.1-0.5c0-0.4,0.3-0.5,0.5-0.6c0.3-0.1,0.5-0.2,0.5-0.3
		C29.1,11.5,29.2,11.2,29.1,11.1z"/>
	<polygon fill="none" stroke="#000000" stroke-width="0.1" points="26.7,14.3 26.9,14.2 27,14.1 27.1,14.1 	"/>
	<polygon fill="none" stroke="#000000" stroke-width="0.1" points="27.1,14.3 27.2,14.2 27.2,14.2 27.3,14.2 27.4,14.1 	"/>
	<path fill="none" stroke="#000000" stroke-width="0.1" d="M31.6,13.5c-0.1,0-0.2,0.1-0.2,0.3c0,0.1-0.1,0.2-0.1,0.2L31.6,13.5z"/>
	<path fill="none" stroke="#000000" stroke-width="0.1" d="M32.1,13.5c0,0.1,0,0.5-0.4,0.9L32.1,13.5z"/>
	<path fill="none" stroke="#000000" stroke-width="0.1" d="M32.1,13l0,0.2L32.1,13z"/>
	<path fill="none" stroke="#000000" stroke-width="0.1" d="M31.1,13.9c-0.1-0.2-0.3-0.2-0.3-0.3L31.1,13.9z"/>
	<path fill="none" stroke="#000000" stroke-width="0.1" d="M30.8,13.9c0-0.2,0.1-0.3,0-0.6c0-0.1,0-0.4,0-0.5c0,0-0.1,0.5,0.2,0.6
		L30.8,13.9z"/>
	<path fill="none" stroke="#000000" stroke-width="0.1" d="M29.6,12.9c0-0.1,0-0.3,0-0.5L29.6,12.9z"/>
	<path fill="none" stroke="#000000" stroke-width="0.1" d="M30.5,12.2c-0.2,0-0.3,0-0.6,0L30.5,12.2z"/>
	<path fill="none" stroke="#000000" stroke-width="0.1" d="M29.9,11.8c0,0.1,0,0.4-0.3,0.4L29.9,11.8z"/>
	<path fill="none" stroke="#000000" stroke-width="0.1" d="M29.3,11.7c0,0.1,0,0.2,0.1,0.3L29.3,11.7z"/>
	<path fill="none" stroke="#000000" stroke-width="0.1" d="M29.4,12.2c-0.1,0-0.3,0-0.6,0L29.4,12.2z"/>
	<path fill="none" stroke="#000000" stroke-width="0.1" d="M28.7,13.7c-0.1,0.1-0.1,0.2-0.2,0.4L28.7,13.7z"/>
	<path fill="none" stroke="#000000" stroke-width="0.1" d="M30.5,13.3c0,0.1,0.1,0.4,0,0.6c-0.1,0.2-0.1,0.5,0.1,0.7L30.5,13.3z"/>
	<path fill="none" stroke="#000000" stroke-width="0.1" d="M30.2,13.4c0.1,0.1,0.1,0.2,0.2,0.3L30.2,13.4z"/>
	<path fill="none" stroke="#000000" stroke-width="0.1" d="M29.5,13.4l-0.1,0.2L29.5,13.4z"/>
	<path fill="none" stroke="#000000" stroke-width="0.1" d="M29.3,13.6C29.2,13.7,29,14,29,14.2L29.3,13.6z"/>
	<path fill="none" stroke="#000000" stroke-width="0.1" d="M29.5,13.7c0,0.1,0,0.4,0,0.6L29.5,13.7z"/>
	<path fill="none" stroke="#000000" stroke-width="0.1" d="M29.3,14.3c-0.1,0-0.2,0.1-0.2,0.5L29.3,14.3z"/>
	<path fill="none" stroke="#000000" stroke-width="0.1" d="M28.1,14.1c0.1,0,0.2,0.1,0.2,0.1l0.1,0.1L28.1,14.1z"/>
	<path fill="none" stroke="#000000" stroke-width="0.1" d="M29.9,10.8c0,0.1,0,0.1,0,0.2L29.9,10.8z"/>
	<path fill="none" stroke="#000000" stroke-width="0.1" d="M29.2,11.1L29.2,11.1L29.2,11.1z"/>
	<polygon points="30.4,13.3 30.4,13.2 30.4,13.1 30.5,13.2 	"/>
	<polygon fill="none" stroke="#000000" stroke-width="0.1" points="30.4,13.3 30.4,13.2 30.4,13.1 30.5,13.2 	"/>
	<polygon points="28.9,13.3 28.8,13.2 28.9,13.2 29,13.2 	"/>
	<polygon fill="none" stroke="#000000" stroke-width="0.1" points="28.9,13.3 28.8,13.2 28.9,13.2 29,13.2 	"/>
	<path fill="none" stroke="#000000" stroke-width="0.1" d="M30.3,10.7l-0.2,0c-0.1,0,0,0.1,0,0.2l0,0.2l-0.1,0h-0.1l-0.1,0l0-0.1
		L30.3,10.7z"/>
	<path fill="none" stroke="#000000" stroke-width="0.1" d="M29.8,10.7c0,0-0.1-0.1-0.2-0.1c-0.1,0-0.2,0-0.3,0.1L29.8,10.7z"/>
	<path fill="#FFFFFF" d="M30.3,10.8c0,0-0.1-0.1-0.2,0l0.1,0.1L30.3,10.8L30.3,10.8z"/>
	<path fill="none" stroke="#000000" stroke-width="0.1" d="M30.3,10.8c0,0-0.1-0.1-0.2,0l0.1,0.1L30.3,10.8L30.3,10.8z"/>
	<polygon points="30.2,10.8 30.1,10.8 30.2,10.7 30.2,10.8 	"/>
	<polygon fill="none" stroke="#000000" stroke-width="0.1" points="30.2,10.8 30.1,10.8 30.2,10.7 30.2,10.8 	"/>
	<polygon fill="none" stroke="#000000" stroke-width="0.1" points="30.1,11.3 30,11.3 29.9,11.3 29.7,11.3 	"/>
	<path fill="none" stroke="#000000" stroke-width="0.1" d="M30.1,11.4c-0.1,0-0.2,0-0.4,0L30.1,11.4z"/>
	<path fill="none" stroke="#000000" stroke-width="0.1" d="M29.7,11.4c0.1,0,0.2,0.1,0.3,0H29.7z"/>
	<polygon fill="#FFFFFF" points="29.7,10.8 29.5,10.8 29.4,10.8 29.5,10.8 29.7,10.9 29.7,10.8 	"/>
	<polygon fill="none" stroke="#000000" stroke-width="0.1" points="29.7,10.8 29.5,10.8 29.4,10.8 29.5,10.8 29.7,10.9 29.7,10.8 	
		"/>
	<polygon points="29.6,10.9 29.6,10.8 29.6,10.7 29.7,10.8 	"/>
	<polygon fill="none" stroke="#000000" stroke-width="0.1" points="29.6,10.9 29.6,10.8 29.6,10.7 29.7,10.8 	"/>
	<path fill="#FFFFFF" d="M31,16c-0.1-0.5-0.3-1-0.3-1c0,0-0.2,0.1-0.7,0.1c-0.4,0-0.6,0-0.8,0c-0.2,0-0.5-0.1-0.5-0.1
		s-0.1,0.2-0.1,0.3c0,0.3-0.1,1.8-0.2,2.2c0,0-0.1,0.2-0.1,0.8c0,0.6-0.2,1.9-0.2,2.6l0.2,0c0,0,1,0.1,1-0.1c0-0.1,0.1-1.8-0.1-2.8
		c0,0,0-0.2,0.1-0.4c0.1-0.2,0.3-0.7,0.3-0.8c0,0,0.4,1.1,0.4,1.2c0,0.2,0.1,2.5,0.1,2.7l0.6,0.5l0.6-0.3c0-0.1-0.1-0.9-0.3-2.2
		c-0.1-0.5,0-0.6,0-0.7S31.1,16.5,31,16L31,16z"/>
	<path fill="none" stroke="#000000" stroke-width="0.1" d="M31,16c-0.1-0.5-0.3-1-0.3-1c0,0-0.2,0.1-0.7,0.1c-0.4,0-0.6,0-0.8,0
		c-0.2,0-0.5-0.1-0.5-0.1s-0.1,0.2-0.1,0.3c0,0.3-0.1,1.8-0.2,2.2c0,0-0.1,0.2-0.1,0.8c0,0.6-0.2,1.9-0.2,2.6l0.2,0c0,0,1,0.1,1-0.1
		c0-0.1,0.1-1.8-0.1-2.8c0,0,0-0.2,0.1-0.4c0.1-0.2,0.3-0.7,0.3-0.8c0,0,0.4,1.1,0.4,1.2c0,0.2,0.1,2.5,0.1,2.7l0.6,0.5l0.6-0.3
		c0-0.1-0.1-0.9-0.3-2.2c-0.1-0.5,0-0.6,0-0.7C31.1,18.2,31.1,16.5,31,16z"/>
	<path fill="none" stroke="#000000" stroke-width="0.1" d="M30.6,15.2c0,0.1,0.1,0.5,0.5,0.7L30.6,15.2z"/>
	<path fill="none" stroke="#000000" stroke-width="0.1" d="M30.1,18.3c0,0.1,0.1,0.3,0.2,0.4L30.1,18.3z"/>
	<path fill="none" stroke="#000000" stroke-width="0.1" d="M30.5,18.7c0,0.1,0.1,1.2,0.1,1.4L30.5,18.7z"/>
	<path fill="none" stroke="#000000" stroke-width="0.1" d="M30.7,20.3c0,0.1,0.2,0.7,0.2,1.2L30.7,20.3z"/>
	<path fill="none" stroke="#000000" stroke-width="0.1" d="M28.7,19.2c0,0.1,0.1,1-0.2,1.8L28.7,19.2z"/>
	<path fill="none" stroke="#000000" stroke-width="0.1" d="M29.7,15.3c0,0.1,0.1,1.1,0.1,1.2l-0.2,0.2c0,0,0.1,0,0.1,0.4L29.7,15.3z
		"/>
	<path fill="none" stroke="#000000" stroke-width="0.1" d="M30,16.2c0,0.1,0.1,0.6,0.2,0.7L30,16.2z"/>
	<path fill="none" stroke="#000000" stroke-width="0.1" d="M29.5,15.6c0,0.1,0,1.1,0,1.1L29.5,15.6z"/>
	<path fill="none" stroke="#000000" stroke-width="0.1" d="M29.4,16.8l-0.1,0.3L29.4,16.8z"/>
	<path fill="none" stroke="#000000" stroke-width="0.1" d="M30.4,15.2c-0.1,0-0.2,0.1-0.2,0.1L30.4,15.2z"/>
	<path fill="none" stroke="#000000" stroke-width="0.1" d="M29.9,15.4l0,0.3L29.9,15.4z"/>
	<path fill="none" stroke="#000000" stroke-width="0.1" d="M29.4,18.2c0,0.1-0.1,0.1-0.1,0.3L29.4,18.2z"/>
	<path fill="#AE6018" d="M30.8,15c0,0,0-0.2-0.1-0.3c0,0-0.2,0-0.6,0.1c-0.3,0-0.6,0.1-0.8,0c-0.2,0-0.5-0.1-0.5-0.1l0,0.4
		c0,0,0.3,0.1,0.6,0.1c0.3,0,0.8,0,1-0.1C30.5,15.1,30.7,15,30.8,15z"/>
	<path fill="none" stroke="#000000" stroke-width="0.1" d="M30.8,15c0,0,0-0.2-0.1-0.3c0,0-0.2,0-0.6,0.1c-0.3,0-0.6,0.1-0.8,0
		c-0.2,0-0.5-0.1-0.5-0.1l0,0.4c0,0,0.3,0.1,0.6,0.1c0.3,0,0.8,0,1-0.1C30.5,15.1,30.7,15,30.8,15z"/>
	<polygon fill="#FFFFFF" points="30.5,15 30.5,14.7 30.4,14.7 30.5,15.1 	"/>
	<polygon fill="none" stroke="#000000" stroke-width="0.1" points="30.5,15 30.5,14.7 30.4,14.7 30.5,15.1 	"/>
	<polygon fill="#FFFFFF" points="29.1,14.8 29.1,15.1 29,15.1 29,14.7 	"/>
	<polygon fill="none" stroke="#000000" stroke-width="0.1" points="29.1,14.8 29.1,15.1 29,15.1 29,14.7 	"/>
	<polygon fill="#FFFFFF" points="30.1,14.8 30.2,15.1 30.1,15.1 30.1,14.8 	"/>
	<polygon fill="none" stroke="#000000" stroke-width="0.1" points="30.1,14.8 30.2,15.1 30.1,15.1 30.1,14.8 	"/>
	<path fill="#871811" d="M31.3,21.4c0,0.1,0.1,0.2,0.1,0.4c0,0,0,0.2-0.1,0.2l-0.1-0.2l0,0.2c-0.1,0-0.1-0.2-0.1-0.2
		c0,0.1,0.1,0.3,0,0.3c-0.1,0-0.2-0.3-0.2-0.3s0.1,0.3,0,0.3c-0.1,0-0.1-0.3-0.1-0.3s0.1,0.3-0.1,0.3l-0.1-0.2c0-0.1-0.1-0.2,0-0.4
		c0.1-0.2,0-0.2,0-0.2s0.2,0.1,0.3,0.2L31.3,21.4z"/>
	<path fill="none" stroke="#000000" stroke-width="0.1" d="M31.3,21.4c0,0.1,0.1,0.2,0.1,0.4c0,0,0,0.2-0.1,0.2l-0.1-0.2l0,0.2
		c-0.1,0-0.1-0.2-0.1-0.2c0,0.1,0.1,0.3,0,0.3c-0.1,0-0.2-0.3-0.2-0.3s0.1,0.3,0,0.3c-0.1,0-0.1-0.3-0.1-0.3s0.1,0.3-0.1,0.3
		l-0.1-0.2c0-0.1-0.1-0.2,0-0.4c0.1-0.2,0-0.2,0-0.2s0.2,0.1,0.3,0.2L31.3,21.4z"/>
	<path fill="#871811" d="M29.3,21.1l0,0.2c0,0.1,0,0.2-0.2,0.2c-0.2,0-0.4-0.1-0.6,0c-0.1,0-0.3,0-0.5,0c-0.1,0-0.2,0-0.2,0l-0.2,0
		l-0.1-0.1c0-0.1,0.1-0.1,0.2-0.1c0.1,0,0.3,0,0.3-0.1c0.1,0,0.2-0.1,0.4-0.1l0.4,0H29.3z"/>
	<path fill="none" stroke="#000000" stroke-width="0.1" d="M29.3,21.1l0,0.2c0,0.1,0,0.2-0.2,0.2c-0.2,0-0.4-0.1-0.6,0
		c-0.1,0-0.3,0-0.5,0c-0.1,0-0.2,0-0.2,0l-0.2,0l-0.1-0.1c0-0.1,0.1-0.1,0.2-0.1c0.1,0,0.3,0,0.3-0.1c0.1,0,0.2-0.1,0.4-0.1l0.4,0
		H29.3z"/>
	<path fill="#41AB34" d="M26,22.1c0.5-0.3,0.7-0.5,0.9-0.8c-0.2,0.1-0.1,0.1-0.2,0.1c-0.1,0-0.2-0.1-0.2-0.1s-0.1,0.1-0.2,0.1
		c-0.1,0-0.2-0.1-0.2-0.1s-0.1,0.1-0.3,0.1c-0.1,0-0.2-0.1-0.2-0.1l-0.3,0.1L25,21.2l-0.2,0.1l-0.3-0.1c0,0-0.2,0.1-0.3,0.1
		c-0.1,0-0.2-0.1-0.2-0.1s-0.2,0.1-0.3,0.1c-0.1,0-0.2-0.1-0.2-0.1s-0.2,0.1-0.3,0.1c-0.1,0-0.2-0.1-0.2-0.1s0,0.1-0.2,0.1
		c0,0,0.1,0,0,0c0.2,0.3,0.5,0.6,0.8,0.8c0.2-0.1,0.3-0.1,0.3-0.1S24,22,24.1,22c0.1,0,0.3-0.1,0.3-0.1s0.1,0.1,0.2,0.1
		c0.1,0,0.2-0.1,0.2-0.1S25,22,25.1,22c0.1,0,0.3-0.1,0.3-0.1l0.3,0.1l0.2-0.1C25.8,22,25.9,22.1,26,22.1z"/>
	<path fill="#FFD90B" d="M24.9,22.7c0.7-0.3,0.8-0.3,1.2-0.6L25.8,22l-0.2,0.1L25.4,22c0,0-0.2,0.1-0.3,0.1C25,22,24.9,22,24.9,22
		S24.7,22,24.6,22c-0.1,0-0.2-0.1-0.2-0.1S24.2,22,24.1,22c-0.1,0-0.2-0.1-0.2-0.1S23.7,22,23.6,22C23.9,22.3,24.3,22.5,24.9,22.7z"
		/>
	<path fill="none" stroke="#000000" stroke-width="0.1" d="M24.9,22.7c0.7-0.3,0.8-0.3,1.2-0.6L25.8,22l-0.2,0.1L25.4,22
		c0,0-0.2,0.1-0.3,0.1C25,22,24.9,22,24.9,22S24.7,22,24.6,22c-0.1,0-0.2-0.1-0.2-0.1S24.2,22,24.1,22c-0.1,0-0.2-0.1-0.2-0.1
		S23.7,22,23.6,22C23.9,22.3,24.3,22.5,24.9,22.7z"/>
	<path fill="none" stroke="#000000" stroke-width="0.1" d="M27,21.2c0,0-0.2,0.1-0.3,0.1c-0.1,0-0.2-0.1-0.2-0.1s-0.1,0.1-0.2,0.1
		c-0.1,0-0.2-0.1-0.2-0.1s-0.1,0.1-0.3,0.1c-0.1,0-0.2-0.1-0.2-0.1l-0.3,0.1l-0.2-0.1l-0.2,0.1l-0.3-0.1c0,0-0.2,0.1-0.3,0.1
		c-0.1,0-0.2-0.1-0.2-0.1s-0.2,0.1-0.3,0.1c-0.1,0-0.2-0.1-0.2-0.1s-0.2,0.1-0.3,0.1c-0.1,0-0.2-0.1-0.2-0.1s0,0.1-0.2,0.1l0,0
		L27,21.2z"/>
	<path fill="none" stroke="#000000" stroke-width="0.1" d="M28.1,14.3c0,0,0,2.9,0,3.6c0,0.7-0.1,3.6-3.2,4.7
		c-3.1-1.1-3.2-4-3.2-4.7c0-0.7,0-3.6,0-3.6H28.1z"/>
</g>
</svg>
