<?xml version="1.0" encoding="utf-8"?>
<!-- Generator: Adobe Illustrator 19.1.0, SVG Export Plug-In . SVG Version: 6.00 Build 0)  -->
<svg version="1.1" id="Layer_1" xmlns="http://www.w3.org/2000/svg" xmlns:xlink="http://www.w3.org/1999/xlink" x="0px" y="0px"
	 viewBox="0 0 38.3 33.2" enable-background="new 0 0 38.3 33.2" xml:space="preserve">
<g>
	<path fill="#FFFFFF" d="M-20.2,83.2h79.5c3.1,0,5.7-2.6,5.7-5.7V-58.7c0-3.1-2.6-5.7-5.7-5.7h-79.5c-3.1,0-5.7,2.6-5.7,5.7V77.5
		C-25.8,80.7-23.3,83.2-20.2,83.2z"/>
	<path fill="none" stroke="#EDEDED" stroke-width="0.5" stroke-miterlimit="10" d="M-20.2,83.2h79.5c3.1,0,5.7-2.6,5.7-5.7V-58.7
		c0-3.1-2.6-5.7-5.7-5.7h-79.5c-3.1,0-5.7,2.6-5.7,5.7V77.5C-25.8,80.7-23.3,83.2-20.2,83.2z"/>
	<polygon fill="#FFFFFF" points="38.2,33.1 38.2,33.1 25.5,33.1 12.8,33.1 0.1,33.1 0.1,0.1 12.8,0 25.5,0 38.2,0 38.2,33.1 	"/>
	<path d="M38.2,0.1v33H25.5H12.8H0.1v-33h12.7h12.7H38.2 M38.3,0h-0.1H25.5H12.8H0.1H0v0.1v33v0.1h0.1h12.7h12.7h12.7h0.1v-0.1v-33
		V0z"/>
	<rect x="0.1" y="0.1" width="12.7" height="33"/>
	<rect x="25.5" y="0.1" fill="#E5251D" width="12.7" height="33"/>
	<rect x="12.8" y="0.1" fill="#FFE00B" width="12.7" height="33"/>
</g>
</svg>
