<?xml version="1.0" encoding="utf-8"?>
<!-- Generator: Adobe Illustrator 19.1.0, SVG Export Plug-In . SVG Version: 6.00 Build 0)  -->
<svg version="1.1" id="Layer_1" xmlns="http://www.w3.org/2000/svg" xmlns:xlink="http://www.w3.org/1999/xlink" x="0px" y="0px"
	 viewBox="0 0 49.7 33.2" enable-background="new 0 0 49.7 33.2" xml:space="preserve">
<g>
	<path fill="#FFFFFF" d="M-15,83.1h79.5c3.1,0,5.7-2.6,5.7-5.7V-58.8c0-3.1-2.6-5.7-5.7-5.7H-15c-3.1,0-5.7,2.6-5.7,5.7V77.5
		C-20.7,80.6-18.1,83.1-15,83.1z"/>
	<path fill="none" stroke="#EDEDED" stroke-width="0.5" stroke-miterlimit="10" d="M-15,83.1h79.5c3.1,0,5.7-2.6,5.7-5.7V-58.8
		c0-3.1-2.6-5.7-5.7-5.7H-15c-3.1,0-5.7,2.6-5.7,5.7V77.5C-20.7,80.6-18.1,83.1-15,83.1z"/>
	<polygon fill="#FFFFFF" points="49.7,33.1 49.6,33.1 0.1,33.1 0,0.1 49.6,0 49.7,33.1 	"/>
	<path d="M49.6,0.1v33H0.1v-33H49.6 M49.7,0L49.7,0H0.1H0v0.1v33v0.1h0.1h49.5h0.1v-0.1V0L49.7,0z"/>
	<rect x="32.6" y="6.8" transform="matrix(-0.5548 -0.832 0.832 -0.5548 47.373 40.3373)" width="3.8" height="1.4"/>
	<rect x="35.1" y="10.5" transform="matrix(-0.5546 -0.8321 0.8321 -0.5546 48.1229 48.1836)" width="3.8" height="1.4"/>
	<rect x="33.3" y="7.5" transform="matrix(-0.5545 -0.8322 0.8322 -0.5545 51.3598 43.9137)" width="8.2" height="1.4"/>
	<rect x="36" y="4.5" transform="matrix(-0.5548 -0.832 0.832 -0.5548 54.6122 39.6347)" width="3.8" height="1.4"/>
	<rect x="38.5" y="8.2" transform="matrix(-0.5548 -0.832 0.832 -0.5548 55.3735 47.4795)" width="3.8" height="1.4"/>
	<rect x="9.9" y="23.2" transform="matrix(-0.5548 -0.832 0.832 -0.5548 1.8988 48.7058)" width="8.2" height="1.4"/>
	<rect x="9.1" y="22.4" transform="matrix(-0.5548 -0.832 0.832 -0.5548 -2.1006 45.1358)" width="3.8" height="1.4"/>
	<rect x="11.6" y="26.2" transform="matrix(-0.5546 -0.8321 0.8321 -0.5546 -1.3458 52.974)" width="3.8" height="1.4"/>
	<rect x="6.4" y="25.4" transform="matrix(-0.5548 -0.832 0.832 -0.5548 -5.3399 49.4073)" width="8.3" height="1.4"/>
	<rect x="9.9" y="8.7" transform="matrix(-0.5547 0.832 -0.832 -0.5547 29.5197 2.9087)" width="8.2" height="1.4"/>
	<rect x="8.1" y="7.5" transform="matrix(-0.5548 0.832 -0.832 -0.5548 25.8998 2.561)" width="8.3" height="1.4"/>
	<rect x="6.4" y="6.4" transform="matrix(-0.5547 0.832 -0.832 -0.5547 22.2807 2.2067)" width="8.2" height="1.4"/>
	<rect x="32.6" y="25" transform="matrix(-0.5547 0.832 -0.832 -0.5547 74.9908 11.2743)" width="3.8" height="1.4"/>
	<rect x="35.1" y="21.3" transform="matrix(-0.5548 0.832 -0.832 -0.5548 75.7534 3.4372)" width="3.8" height="1.4"/>
	<rect x="34.3" y="26.2" transform="matrix(-0.5546 0.8321 -0.8321 -0.5546 78.6083 11.6193)" width="3.8" height="1.4"/>
	<rect x="36.8" y="22.4" transform="matrix(-0.5548 0.832 -0.832 -0.5548 79.373 3.7885)" width="3.8" height="1.4"/>
	<rect x="36" y="27.3" transform="matrix(-0.5548 0.832 -0.832 -0.5548 82.2319 11.9822)" width="3.8" height="1.4"/>
	<rect x="38.5" y="23.6" transform="matrix(-0.5547 0.8321 -0.8321 -0.5547 82.9906 4.1317)" width="3.8" height="1.4"/>
	<path fill="#E51F22" d="M31.7,21.2c2.5-3.8,1.5-8.9-2.3-11.4C25.6,7.2,20.5,8.2,18,12c-1.9,2.8-1.1,6.7,1.7,8.6s6.7,1.1,8.6-1.7
		L31.7,21.2z"/>
	<path fill="#2B3B8A" d="M18,12c-1.3,1.9-0.8,4.5,1.1,5.7c1.9,1.3,4.5,0.8,5.7-1.1c1.3-1.9,3.8-2.4,5.7-1.1c1.9,1.3,2.4,3.8,1.1,5.7
		c-2.5,3.8-7.7,4.8-11.4,2.3C16.5,20.9,15.5,15.8,18,12z"/>
</g>
</svg>
