<?xml version="1.0" encoding="utf-8"?>
<!-- Generator: Adobe Illustrator 19.1.0, SVG Export Plug-In . SVG Version: 6.00 Build 0)  -->
<svg version="1.1" id="Layer_1" xmlns="http://www.w3.org/2000/svg" xmlns:xlink="http://www.w3.org/1999/xlink" x="0px" y="0px"
	 viewBox="0 0 49.7 33.2" enable-background="new 0 0 49.7 33.2" xml:space="preserve">
<g>
	<path fill="#FFFFFF" d="M-14.7,83.1h79.5c3.1,0,5.7-2.6,5.7-5.7V-58.8c0-3.1-2.6-5.7-5.7-5.7h-79.5c-3.1,0-5.7,2.6-5.7,5.7V77.4
		C-20.4,80.5-17.8,83.1-14.7,83.1z"/>
	<path fill="none" stroke="#EDEDED" stroke-width="0.5" stroke-miterlimit="10" d="M-14.7,83.1h79.5c3.1,0,5.7-2.6,5.7-5.7V-58.8
		c0-3.1-2.6-5.7-5.7-5.7h-79.5c-3.1,0-5.7,2.6-5.7,5.7V77.4C-20.4,80.5-17.8,83.1-14.7,83.1z"/>
	<polygon fill="#FFFFFF" points="49.6,33.1 49.6,33.1 0.1,33.1 0.1,0.1 49.6,0 49.6,33.1 	"/>
	<path d="M49.6,0.1v33H0.1v-33H49.6 M49.7,0h-0.1H0.1H0v0.1v33v0.1h0.1h49.5h0.1v-0.1V0L49.7,0z"/>
	<rect x="12.5" y="0.1" fill="#1D692F" width="37.1" height="33"/>
	<circle fill="#FFFFFF" cx="31" cy="16.6" r="9.9"/>
	<circle fill="#1D692F" cx="33.6" cy="14.3" r="9.1"/>
	<polygon fill="#FFFFFF" points="36.5,13.4 38.8,13.9 37.2,12.1 38.4,10 36.2,11 34.6,9.2 34.9,11.6 32.7,12.5 35,13.1 35.3,15.4 	
		"/>
</g>
</svg>
