<?xml version="1.0" encoding="utf-8"?>
<!-- Generator: Adobe Illustrator 19.1.0, SVG Export Plug-In . SVG Version: 6.00 Build 0)  -->
<svg version="1.1" id="Layer_1" xmlns="http://www.w3.org/2000/svg" xmlns:xlink="http://www.w3.org/1999/xlink" x="0px" y="0px"
	 viewBox="0 0 52.8 26.5" enable-background="new 0 0 52.8 26.5" xml:space="preserve">
<g>
	<path fill="#FFFFFF" d="M-13.7,79.5h79.5c3.1,0,5.7-2.6,5.7-5.7V-62.4c0-3.1-2.6-5.7-5.7-5.7h-79.5c-3.1,0-5.7,2.6-5.7,5.7V73.8
		C-19.3,76.9-16.8,79.5-13.7,79.5z"/>
	<path fill="none" stroke="#EDEDED" stroke-width="0.5" stroke-miterlimit="10" d="M-13.7,79.5h79.5c3.1,0,5.7-2.6,5.7-5.7V-62.4
		c0-3.1-2.6-5.7-5.7-5.7h-79.5c-3.1,0-5.7,2.6-5.7,5.7V73.8C-19.3,76.9-16.8,79.5-13.7,79.5z"/>
	<polygon fill="#FFFFFF" points="52.8,26.5 52.7,26.5 0.1,26.5 0,17.6 0,0.1 52.7,0.1 52.8,17.6 52.8,26.4 	"/>
	<path d="M52.7,0.1v17.5v8.8H0.1v-8.8V0.1H52.7 M52.8,0L52.8,0H0.1H0v0.1v17.5v8.8v0.1h0.1h52.6h0.1v-0.1v-8.8V0.1V0z"/>
	<rect x="0.1" y="17.6" fill="#009F39" width="52.6" height="8.8"/>
	<rect x="0.1" y="0.1" fill="#E41B13" width="52.6" height="17.5"/>
	<rect x="0.1" y="0.1" fill="#FFFFFF" width="5.8" height="26.3"/>
	<path fill="#E41B13" d="M1.8,20v-0.6H1.6v-0.6H1.3v-0.6H1.1v-0.5v-0.1H0.8V17h0.3v-0.6h0.3v-0.6h0.3v-0.6h0.3v0.6h0.3v0.6h0.3V17
		H2.1v0.7h0.3v-0.1v-0.4h0.3v-1h0.1l0-0.6l-0.4,0v-0.5H2.1v-0.4H1.8v-0.6H1.6v0.6H1.3v0.4H1.1v0.4H0.8v-1.1h0.3v-0.5h0.3v-0.4h0.3
		v-0.2v0V13H1.3v-0.4H1.1v-0.5H0.8V11h0.3v0.4h0.3v0.4h0.3v0.6h0.3v-0.6h0.3v-0.4h0.3v-0.5l0.4,0l0-0.6H2.6v-1H2.3V8.9V8.8H2.1v0.7
		h0.3v0.6H2.1v0.6H1.8v0.6H1.6v-0.6H1.3v-0.6H1.1V9.6H0.8V8.9h0.3V8.8V8.3h0.3V7.7h0.3V7.1h0.3V6.5h0.3v0.6h0.3v0.6h0.3v0.6h0.3v0.6
		h0.3V8.8V8.3h0.3V7.7h0.3V7.1h0.3V6.5h0.3v0.6h0.3v0.6h0.3v0.6h0.3v0.6h0.3v0.6H4.9v0.6H4.7v0.6H4.4v0.6H4.2v-0.6H3.9v-0.6H3.6V9.6
		h0.3V8.9V8.8H3.6v0.1v0.4H3.4v1h0H3.3v0.6h0.1h0.1h0.1h0.1v0.5h0.3v0.4h0.3v0.6h0.3v-0.6h0.3v-0.4h0.3V11h0.3v1.1H4.9v0.5H4.7V13
		H4.4v0.2v0v0.2h0.3v0.4h0.3v0.5h0.3v1.1H4.9v-0.4H4.7v-0.4H4.4v-0.6H4.2v0.6H3.9v0.4H3.6v0.5H3.5H3.4H3.3H3.3v0.6h0.1h0v1h0.3v0.4
		v0.1h0.3v-0.1V17H3.6v-0.6h0.3v-0.6h0.3v-0.6h0.3v0.6h0.3v0.6h0.3V17h0.3v0.6H4.9v0.6H4.7v0.6H4.4v0.6H4.2V20H3.9v-0.6H3.6v-0.6
		H3.4v-0.6H3.1v-0.5v-0.1H2.9v0.6H2.6v0.6H2.3v0.6H2.1V20H1.8z M1.8,13.2L1.8,13.2v0.2h0.3v0.4h0.3v0.5h0.4V15h0.1v0.3H3h0.1V15h0.1
		v-0.6h0.4v-0.2v-0.2h0.3v-0.4h0.3v-0.2V13H3.9v-0.4H3.6v-0.2v-0.2H3.3v-0.6H3.1v-0.3H3H2.9v0.3H2.7v0.6H2.3v0.5H2.1V13H1.8V13.2z
		 M1.1,13.3v-0.4H0.8v0.4v0v0.4h0.3V13.3L1.1,13.3z M0.8,1.3h0.3V0.6H0.8V1.3z M4.9,1.3h0.3V0.6H4.9V1.3z M2.9,1.3h0.3V0.6H2.9V1.3z
		 M1.8,3.1h0.3V2.5H1.8V3.1z M3.9,3.1h0.3V2.5H3.9V3.1z M0.8,4.8h0.3V4.1H0.8V4.8z M4.9,4.8h0.3V4.1H4.9V4.8z M2.9,4.8h0.3V4.1H2.9
		V4.8z M1.8,0.1v0.6H1.6v0.6H1.3v0.6H1.1v0.6H0.8v0.6h0.3v0.6h0.3v0.6h0.3v0.6h0.3v0.6h0.3V4.9h0.3V4.3h0.3V3.7h0.3V3.1h0.3v0.6h0.3
		v0.6h0.3v0.6h0.3v0.6h0.3V4.9h0.3V4.3h0.3V3.7h0.3V3.1h0.3V2.5H4.9V1.9H4.7V1.3H4.4V0.7H4.2V0.1H3.9v0.6H3.6v0.6H3.4v0.6H3.1v0.6
		H2.9V1.9H2.6V1.3H2.3V0.7H2.1V0.1H1.8z M1.8,1.3h0.3v0.6h0.3v0.6h0.3v0.6H2.3v0.6H2.1v0.6H1.8V3.7H1.6V3.1H1.3V2.5h0.3V1.9h0.3V1.3
		z M3.9,1.3h0.3v0.6h0.3v0.6h0.3v0.6H4.4v0.6H4.2v0.6H3.9V3.7H3.6V3.1H3.4V2.5h0.3V1.9h0.3V1.3z M1.1,5.1v0.4H0.9v0.4H0.8v0.5h0.1
		v0.4h0.1V7h0.4V6.6h0.1V6.3h0.1V5.8H1.6V5.4H1.4V5.1H1.1z M1.2,5.7h0.1v0.2h0.1v0.2H1.3v0.2H1.2V6.2H1.1V5.9h0.1V5.7z M2.5,5.1v0.4
		H2.3v0.4H2.2v0.5h0.1v0.4h0.1V7h0.4V6.6h0.3V7h0.4V6.6h0.1V6.3h0.1V5.8H3.6V5.4H3.5V5.1H3.1v0.4H2.9V5.1H2.5z M2.6,5.7h0.1v0.2h0.1
		v0.2H2.7v0.2H2.6V6.2H2.5V5.9h0.1V5.7z M3.3,5.7h0.1v0.2h0.1v0.2H3.4v0.2H3.3V6.2H3.1V5.9h0.1V5.7z M4.9,8h0.3V7.3H4.9V8z M2.9,8
		h0.3V7.3H2.9V8z M0.8,8h0.3V7.3H0.8V8z M0.8,10.8h0.3v-0.5H0.8V10.8z M4.9,10.8h0.3v-0.5H4.9V10.8z M5.2,13.3v-0.4H4.9v0.4v0v0.4
		h0.3V13.3L5.2,13.3z M3.8,13.3v-0.4H3.5v0.4v0v0.4h0.3V13.3L3.8,13.3z M2.5,13.3v-0.4H2.2v0.4v0v0.4h0.3V13.3L2.5,13.3z M2.5,12.5
		v0.4h0.1V13h0.1v0.2v0v0.2H2.6v0.2H2.5V14h0.3v-0.2h0.1v-0.2h0.3v0.2h0.1V14h0.3v-0.4H3.4v-0.2H3.3v-0.2v0V13h0.1v-0.2h0.1v-0.4
		H3.3v0.2H3.1v0.2H2.9v-0.2H2.7v-0.2H2.5z M2.9,12.6h0.3V12H2.9V12.6z M0.8,25.2h0.3v0.7H0.8V25.2z M4.9,25.2h0.3v0.7H4.9V25.2z
		 M2.9,25.2h0.3v0.7H2.9V25.2z M1.8,23.4h0.3V24H1.8V23.4z M3.9,23.4h0.3V24H3.9V23.4z M0.8,21.7h0.3v0.7H0.8V21.7z M4.9,21.7h0.3
		v0.7H4.9V21.7z M2.9,21.7h0.3v0.7H2.9V21.7z M1.8,26.4v-0.6H1.6v-0.6H1.3v-0.6H1.1V24H0.8v-0.6h0.3v-0.6h0.3v-0.6h0.3v-0.6h0.3V21
		h0.3v0.6h0.3v0.6h0.3v0.6h0.3v0.6h0.3v-0.6h0.3v-0.6h0.3v-0.6h0.3V21h0.3v0.6h0.3v0.6h0.3v0.6h0.3v0.6h0.3V24H4.9v0.6H4.7v0.6H4.4
		v0.6H4.2v0.6H3.9v-0.6H3.6v-0.6H3.4v-0.6H3.1V24H2.9v0.6H2.6v0.6H2.3v0.6H2.1v0.6H1.8z M1.1,21.4v-0.4H0.9v-0.4H0.8v-0.5h0.1v-0.4
		h0.1v-0.4h0.4v0.4h0.1v0.4h0.1v0.5H1.6v0.4H1.4v0.4H1.1z M2.5,21.4v-0.4H2.3v-0.4H2.2v-0.5h0.1v-0.4h0.1v-0.4h0.4v0.4h0.3v-0.4h0.4
		v0.4h0.1v0.4h0.1v0.5H3.6v0.4H3.5v0.4H3.1v-0.4H2.9v0.4H2.5z M4.9,18.5h0.3v0.7H4.9V18.5z M2.9,18.5h0.3v0.7H2.9V18.5z M0.8,18.5
		h0.3v0.7H0.8V18.5z M0.8,15.7h0.3v0.5H0.8V15.7z M4.9,15.7h0.3v0.5H4.9V15.7z M2.9,13.9h0.3v0.6H2.9V13.9z M4.5,21.4v-0.4H4.4v-0.4
		H4.3v-0.5h0.1v-0.4h0.1v-0.4h0.4v0.4h0.1v0.4h0.1v0.5H5.1v0.4H4.9v0.4H4.5z M4.5,5.1v0.4H4.4v0.4H4.3v0.5h0.1v0.4h0.1V7h0.4V6.6
		h0.1V6.3h0.1V5.8H5.1V5.4H4.9V5.1H4.5z M4.7,5.7h0.1v0.2h0.1v0.2H4.8v0.2H4.7V6.2H4.5V5.9h0.1V5.7z M4.7,20.8h0.1v-0.2h0.1v-0.2
		H4.8v-0.2H4.7v0.2H4.5v0.2h0.1V20.8z M2.6,20.8h0.1v-0.2h0.1v-0.2H2.7v-0.2H2.6v0.2H2.5v0.2h0.1V20.8z M3.3,20.8h0.1v-0.2h0.1v-0.2
		H3.4v-0.2H3.3v0.2H3.1v0.2h0.1V20.8z M1.2,20.8h0.1v-0.2h0.1v-0.2H1.3v-0.2H1.2v0.2H1.1v0.2h0.1V20.8z M1.8,25.2h0.3v-0.6h0.3V24
		h0.3v-0.6H2.3v-0.6H2.1v-0.6H1.8v0.6H1.6v0.6H1.3V24h0.3v0.6h0.3V25.2z M3.9,25.2h0.3v-0.6h0.3V24h0.3v-0.6H4.4v-0.6H4.2v-0.6H3.9
		v0.6H3.6v0.6H3.4V24h0.3v0.6h0.3V25.2z"/>
</g>
</svg>
