<?xml version="1.0" encoding="utf-8"?>
<!-- Generator: Adobe Illustrator 19.1.0, SVG Export Plug-In . SVG Version: 6.00 Build 0)  -->
<svg version="1.1" id="Layer_1" xmlns="http://www.w3.org/2000/svg" xmlns:xlink="http://www.w3.org/1999/xlink" x="0px" y="0px"
	 viewBox="0 0 49.5 33.1" enable-background="new 0 0 49.5 33.1" xml:space="preserve">
<g>
	<path fill="#FFFFFF" d="M-15.1,83.2h79.5c3.1,0,5.7-2.6,5.7-5.7V-58.7c0-3.1-2.6-5.7-5.7-5.7h-79.5c-3.1,0-5.7,2.6-5.7,5.7V77.5
		C-20.8,80.6-18.3,83.2-15.1,83.2z"/>
	<path fill="none" stroke="#EDEDED" stroke-width="0.5" stroke-miterlimit="10" d="M-15.1,83.2h79.5c3.1,0,5.7-2.6,5.7-5.7V-58.7
		c0-3.1-2.6-5.7-5.7-5.7h-79.5c-3.1,0-5.7,2.6-5.7,5.7V77.5C-20.8,80.6-18.3,83.2-15.1,83.2z"/>
	<polygon fill="#3E81C3" points="49.5,33 49.4,33 0.1,33 0,0.1 49.4,0.1 49.5,33 	"/>
	<path d="M49.4,0.1V33H0.1V0.1H49.4 M49.5,0L49.5,0H0.1H0v0.1V33v0.1h0.1h49.3h0.1V33V0.1V0z"/>
	<rect x="0.1" y="25.7" fill="#FFD808" width="49.3" height="1.8"/>
	<rect x="0.1" y="22" fill="#FFD808" width="49.3" height="1.8"/>
	<polygon fill="#FFFFFF" points="7.4,12.9 6,8.8 1.9,7.4 6,6 7.4,1.9 8.8,6 12.9,7.4 8.8,8.8 	"/>
	<polygon fill="#E73334" points="7.4,12 6.2,8.6 2.8,7.4 6.2,6.2 7.4,2.8 8.6,6.2 12,7.4 8.6,8.6 	"/>
</g>
</svg>
