<?xml version="1.0" encoding="utf-8"?>
<!-- Generator: Adobe Illustrator 19.1.0, SVG Export Plug-In . SVG Version: 6.00 Build 0)  -->
<svg version="1.1" id="Layer_1" xmlns="http://www.w3.org/2000/svg" xmlns:xlink="http://www.w3.org/1999/xlink" x="0px" y="0px"
	 viewBox="0 0 49.7 33.2" enable-background="new 0 0 49.7 33.2" xml:space="preserve">
<g>
	<path fill="#FFFFFF" d="M-14.5,83.4h79.5c3.1,0,5.7-2.6,5.7-5.7V-58.5c0-3.1-2.6-5.7-5.7-5.7h-79.5c-3.1,0-5.7,2.6-5.7,5.7V77.7
		C-20.1,80.8-17.6,83.4-14.5,83.4z"/>
	<path fill="none" stroke="#EDEDED" stroke-width="0.5" stroke-miterlimit="10" d="M-14.5,83.4h79.5c3.1,0,5.7-2.6,5.7-5.7V-58.5
		c0-3.1-2.6-5.7-5.7-5.7h-79.5c-3.1,0-5.7,2.6-5.7,5.7V77.7C-20.1,80.8-17.6,83.4-14.5,83.4z"/>
	<polygon fill="#FFFFFF" points="49.6,33.2 49.6,33.2 0.1,33.2 0,0.1 49.6,0 49.6,33.1 	"/>
	<path d="M49.6,0.1v33H0.1v-33H49.6 M49.7,0h-0.1H0.1H0v0.1v33v0.1h0.1h49.5h0.1v-0.1v-33V0z"/>
	<polygon fill="#E62634" points="49.6,13.3 28.1,13.3 28.1,0.1 21.5,0.1 21.5,13.3 0.1,13.3 0.1,19.9 21.5,19.9 21.5,33.1 
		28.1,33.1 28.1,19.9 49.6,19.9 	"/>
	<path fill="#E62634" d="M35.7,5.6c0.1,0.4,0.1,1.7,0,2.3c0.4-0.1,1.9-0.3,2.4-0.3c0,0.3-0.1,1.9-0.3,2.4c0.4-0.1,1.9-0.1,2.2,0
		c-0.1-0.4-0.3-1.9-0.3-2.4c0.3,0,1.8,0.1,2.4,0.3c-0.1-0.4-0.1-1.7,0-2.3c-0.3,0.1-1.9,0.3-2.4,0.3c0-0.5,0.1-1.5,0.3-2.4
		c-0.9,0.1-1.3,0.1-2.2,0C37.9,4,38,5.3,38,5.8C37.8,5.9,35.9,5.6,35.7,5.6z"/>
	<path fill="#E62634" d="M7.6,5.6c0.1,0.4,0.1,1.7,0,2.3C8.1,7.8,9.6,7.5,10,7.6c0,0.3-0.1,1.9-0.3,2.4c0.4-0.1,1.9-0.1,2.2,0
		c-0.1-0.4-0.3-1.9-0.3-2.4c0.3,0,1.8,0.1,2.4,0.3c-0.1-0.4-0.1-1.7,0-2.3c-0.3,0.1-1.9,0.3-2.4,0.3c0-0.5,0.1-1.5,0.3-2.4
		c-0.9,0.1-1.3,0.1-2.2,0C9.8,4,10,5.3,10,5.9C9.7,5.9,7.9,5.6,7.6,5.6z"/>
	<path fill="#E62634" d="M7.6,25.4c0.1,0.4,0.1,1.7,0,2.3c0.4-0.1,1.9-0.3,2.4-0.3c0,0.3-0.1,1.9-0.3,2.4c0.4-0.1,1.9-0.1,2.2,0
		c-0.1-0.4-0.3-1.9-0.3-2.4c0.3,0,1.8,0.1,2.4,0.3c-0.1-0.4-0.1-1.7,0-2.3c-0.3,0.1-1.9,0.3-2.4,0.3c0-0.5,0.1-1.5,0.3-2.4
		c-0.9,0.1-1.3,0.1-2.2,0c0.1,0.5,0.3,1.8,0.3,2.3C9.7,25.7,7.9,25.4,7.6,25.4z"/>
	<path fill="#E62634" d="M35.7,25.4c0.1,0.4,0.1,1.7,0,2.3c0.4-0.1,1.9-0.3,2.4-0.3c0,0.3-0.1,1.9-0.3,2.4c0.4-0.1,1.9-0.1,2.2,0
		c-0.1-0.4-0.3-1.9-0.3-2.4c0.3,0,1.8,0.1,2.4,0.3c-0.1-0.4-0.1-1.7,0-2.3c-0.3,0.1-1.9,0.3-2.4,0.3c0-0.5,0.1-1.5,0.3-2.4
		c-0.9,0.1-1.3,0.1-2.2,0c0.1,0.5,0.3,1.8,0.3,2.3C37.8,25.8,35.9,25.4,35.7,25.4z"/>
</g>
</svg>
