<?xml version="1.0" encoding="utf-8"?>
<!-- Generator: Adobe Illustrator 19.1.0, SVG Export Plug-In . SVG Version: 6.00 Build 0)  -->
<svg version="1.1" id="Layer_1" xmlns="http://www.w3.org/2000/svg" xmlns:xlink="http://www.w3.org/1999/xlink" x="0px" y="0px"
	 viewBox="0 0 49.7 33.2" enable-background="new 0 0 49.7 33.2" xml:space="preserve">
<g>
	<path fill="#FFFFFF" d="M-15,83h79.5c3.1,0,5.7-2.6,5.7-5.7V-58.9c0-3.1-2.6-5.7-5.7-5.7H-15c-3.1,0-5.7,2.6-5.7,5.7V77.4
		C-20.7,80.5-18.1,83-15,83z"/>
	<path fill="none" stroke="#EDEDED" stroke-width="0.5" stroke-miterlimit="10" d="M-15,83h79.5c3.1,0,5.7-2.6,5.7-5.7V-58.9
		c0-3.1-2.6-5.7-5.7-5.7H-15c-3.1,0-5.7,2.6-5.7,5.7V77.4C-20.7,80.5-18.1,83-15,83z"/>
	<polygon fill="#17A3DE" points="49.6,33.1 49.6,33.1 0.1,33.1 0,0.1 49.6,0.1 49.6,33.1 	"/>
	<path d="M49.6,0.1v33H0.1v-33H49.6 M49.7,0L49.7,0H0.1H0v0.1v33v0.1h0.1h49.5h0.1v-0.1v-33V0z"/>
	<polygon fill="#FFD808" points="46.5,0.1 0.1,24.8 0.1,33.1 0.1,33.1 3.2,33.1 49.6,8.3 49.6,0.1 	"/>
	<polygon fill="#E51F20" points="49.6,0.1 0.1,26.5 0.1,33.1 0.1,33.1 0.1,33.1 49.6,6.7 	"/>
	<polygon fill="#FFD808" points="7.9,1.7 9.3,6 13.8,6 10.1,8.7 11.5,13 7.9,10.3 4.2,13 5.6,8.7 2,6 6.5,6 	"/>
</g>
</svg>
