<?xml version="1.0" encoding="utf-8"?>
<!-- Generator: Adobe Illustrator 19.1.0, SVG Export Plug-In . SVG Version: 6.00 Build 0)  -->
<svg version="1.1" id="Layer_1" xmlns="http://www.w3.org/2000/svg" xmlns:xlink="http://www.w3.org/1999/xlink" x="0px" y="0px"
	 viewBox="0 0 53 26.6" enable-background="new 0 0 53 26.6" xml:space="preserve">
<g>
	<path fill="#FFFFFF" d="M-13.3,79.9h79.5c3.1,0,5.7-2.6,5.7-5.7V-62c0-3.1-2.6-5.7-5.7-5.7h-79.5c-3.1,0-5.7,2.6-5.7,5.7V74.2
		C-18.9,77.4-16.4,79.9-13.3,79.9z"/>
	<path fill="none" stroke="#EDEDED" stroke-width="0.5" stroke-miterlimit="10" d="M-13.3,79.9h79.5c3.1,0,5.7-2.6,5.7-5.7V-62
		c0-3.1-2.6-5.7-5.7-5.7h-79.5c-3.1,0-5.7,2.6-5.7,5.7V74.2C-18.9,77.4-16.4,79.9-13.3,79.9z"/>
	<polygon fill="#E5251D" points="53,26.5 52.9,26.5 0.1,26.5 0,0.1 52.9,0 53,26.5 	"/>
	<path d="M52.9,0.1v26.4H0.1V0.1H52.9 M53,0L53,0H0.1H0v0.1v26.4v0.1h0.1h52.8H53v-0.1V0.1V0z"/>
	<rect x="13.3" y="0.1" fill="#FFFFFF" width="26.4" height="26.4"/>
	<path fill="#E5251D" d="M26.5,2.5l-1.7,3.4c-0.2,0.4-0.5,0.3-0.9,0.1l-1.3-0.7l0.9,5.2c0.2,0.9-0.4,0.9-0.7,0.5l-2.2-2.6l-0.4,1.3
		c0,0.2-0.2,0.3-0.5,0.3L17,9.5l0.7,2.8c0.2,0.6,0.3,0.9-0.2,1l-1,0.5l4.8,4c0.2,0.2,0.3,0.4,0.2,0.7l-0.4,1.4
		c1.6-0.2,3.1-0.4,4.7-0.6c0.1,0,0.4,0.1,0.4,0.3l-0.2,5.2h0.8l-0.1-5.2c0-0.2,0.2-0.3,0.4-0.3c1.6,0.2,3.1,0.4,4.7,0.6l-0.4-1.4
		c-0.1-0.3,0-0.5,0.2-0.7l4.8-4l-1-0.5c-0.4-0.2-0.3-0.4-0.2-1L36,9.5l-2.8,0.6c-0.3,0-0.4-0.1-0.5-0.3l-0.4-1.3L30.2,11
		c-0.3,0.4-0.9,0.4-0.7-0.5l0.9-5.2L29.1,6c-0.4,0.2-0.9-0.1-0.9-0.1L26.5,2.5z"/>
</g>
</svg>
