<?xml version="1.0" encoding="utf-8"?>
<!-- Generator: Adobe Illustrator 19.1.0, SVG Export Plug-In . SVG Version: 6.00 Build 0)  -->
<svg version="1.1" id="Layer_1" xmlns="http://www.w3.org/2000/svg" xmlns:xlink="http://www.w3.org/1999/xlink" x="0px" y="0px"
	 viewBox="0 0 53 26.6" enable-background="new 0 0 53 26.6" xml:space="preserve">
<g>
	<path fill="#FFFFFF" d="M-13,79.1h79.5c3.1,0,5.7-2.6,5.7-5.7V-62.8c0-3.1-2.6-5.7-5.7-5.7H-13c-3.1,0-5.7,2.6-5.7,5.7V73.4
		C-18.7,76.6-16.2,79.1-13,79.1z"/>
	<path fill="none" stroke="#EDEDED" stroke-width="0.5" stroke-miterlimit="10" d="M-13,79.1h79.5c3.1,0,5.7-2.6,5.7-5.7V-62.8
		c0-3.1-2.6-5.7-5.7-5.7H-13c-3.1,0-5.7,2.6-5.7,5.7V73.4C-18.7,76.6-16.2,79.1-13,79.1z"/>
	<polygon fill="#FFFFFF" points="52.9,26.5 52.9,26.5 13.3,26.5 0.1,26.5 0.1,0.1 13.3,0.1 52.9,0.1 52.9,8.9 52.9,17.7 52.9,26.5 	
		"/>
	<path d="M52.9,0.1v8.8v8.8v8.8H13.3H0.1V0.1h13.2H52.9 M53,0h-0.1H13.3H0.1H0v0.1v26.4v0.1h0.1h13.2h39.6H53v-0.1v-8.8V8.9V0L53,0z
		"/>
	<rect x="0.1" y="0.1" fill="#E73431" width="13.2" height="26.4"/>
	<rect x="13.3" y="0.1" fill="#13833F" width="39.6" height="8.8"/>
	<rect x="13.3" y="17.7" fill="#353332" width="39.6" height="8.8"/>
</g>
</svg>
