<?xml version="1.0" encoding="utf-8"?>
<!-- Generator: Adobe Illustrator 19.1.0, SVG Export Plug-In . SVG Version: 6.00 Build 0)  -->
<svg version="1.1" id="Layer_1" xmlns="http://www.w3.org/2000/svg" xmlns:xlink="http://www.w3.org/1999/xlink" x="0px" y="0px"
	 viewBox="0 0 49.7 33.2" enable-background="new 0 0 49.7 33.2" xml:space="preserve">
<g>
	<path fill="#FFFFFF" d="M-14.5,83.4H65c3.1,0,5.7-2.6,5.7-5.7V-58.5c0-3.1-2.6-5.7-5.7-5.7h-79.5c-3.1,0-5.7,2.6-5.7,5.7V77.7
		C-20.2,80.8-17.6,83.4-14.5,83.4z"/>
	<path fill="none" stroke="#EDEDED" stroke-width="0.5" stroke-miterlimit="10" d="M-14.5,83.4H65c3.1,0,5.7-2.6,5.7-5.7V-58.5
		c0-3.1-2.6-5.7-5.7-5.7h-79.5c-3.1,0-5.7,2.6-5.7,5.7V77.7C-20.2,80.8-17.6,83.4-14.5,83.4z"/>
	<polygon fill="#FFFFFF" points="49.6,33.1 49.6,33.1 0.1,33.1 0.1,16.6 0.1,0.1 49.6,0.1 49.6,16.6 49.6,33.1 	"/>
	<path d="M49.6,0.1v16.5v16.5H0.1V16.6V0.1H49.6 M49.7,0h-0.1H0.1H0v0.1v16.5v16.5v0.1h0.1h49.5h0.1v-0.1V16.6V0.1V0z"/>
	<rect x="0.1" y="0.1" fill="#E52023" width="49.5" height="16.5"/>
</g>
</svg>
