<?xml version="1.0" encoding="utf-8"?>
<!-- Generator: Adobe Illustrator 19.1.0, SVG Export Plug-In . SVG Version: 6.00 Build 0)  -->
<svg version="1.1" id="Layer_1" xmlns="http://www.w3.org/2000/svg" xmlns:xlink="http://www.w3.org/1999/xlink" x="0px" y="0px"
	 viewBox="0 0 47.2 33.1" enable-background="new 0 0 47.2 33.1" xml:space="preserve">
<g>
	<path fill="#FFFFFF" d="M-15.8,83.4h79.5c3.1,0,5.7-2.6,5.7-5.7V-58.4c0-3.1-2.6-5.7-5.7-5.7h-79.5c-3.1,0-5.7,2.6-5.7,5.7V77.8
		C-21.5,80.9-18.9,83.4-15.8,83.4z"/>
	<path fill="none" stroke="#EDEDED" stroke-width="0.5" stroke-miterlimit="10" d="M-15.8,83.4h79.5c3.1,0,5.7-2.6,5.7-5.7V-58.4
		c0-3.1-2.6-5.7-5.7-5.7h-79.5c-3.1,0-5.7,2.6-5.7,5.7V77.8C-21.5,80.9-18.9,83.4-15.8,83.4z"/>
	<polygon points="32,0.1 15.1,0.1 0.1,0.1 0.1,33 15.1,33 32,33 47.1,33 47.1,0.1 	"/>
	<polygon fill="none" stroke="#FFFFFF" stroke-width="0.1" points="32,0.1 15.1,0.1 0.1,0.1 0.1,33 15.1,33 32,33 47.1,33 47.1,0.1 
			"/>
	<polygon fill="#FFFFFF" points="47.1,33 47.1,33 32,33 15.1,33 0.1,33 0,0.1 15.1,0 32,0 47.1,0 47.1,33 	"/>
	<path d="M47.1,0.1V33H32H15.1h-15V0.1h15H32H47.1 M47.2,0h-0.1H32H15.1h-15H0v0.1V33v0.1h0.1h15H32h15h0.1V33V0.1V0z"/>
	<rect x="15.1" y="0.1" fill="#FAE506" width="16.9" height="32.9"/>
	<rect x="0.1" y="0.1" fill="#363086" width="15" height="32.9"/>
	<rect x="32" y="0.1" fill="#E62C34" width="15" height="32.9"/>
	<path fill="#EEC490" d="M30.1,19.3c0.7,1,0.2,3-2.2,3c-1.8,0-2.3,0.3-2.5,0.4c0.4,0.4,0.3,1-0.3,1.1c-0.3,0.2-0.6,0.3-0.9,0
		c-0.2,0.2-0.3,0.4-0.5,0.5c-0.3-0.2-0.4-0.3-0.6-0.5c-0.3,0.3-0.6,0.3-0.8,0.1c-0.7,0-1.1-0.7-0.5-1.1c-0.4-0.4-1.2-0.4-2-0.4
		c-2.8,0.3-3.6-2-2.5-3.2c-0.7-0.2-0.7-1.2,0.3-1c0.3-0.1,0.4-1,0.3-1.3c-0.5,0.4-1.2-0.3-0.6-0.8c-1.4-0.5-0.9-3.2,0.8-2.8
		c0.3,0.1,0.3-0.1,0.4-0.3c0.1-0.3,0-0.6-0.5-1c-0.7-0.4-0.4-1.1-0.2-1.2c0-0.1,0.3-0.4,0.4-0.4c0.1-0.2,0.7-0.4,0.8-0.3
		c0.2-0.2,0.5-0.2,0.7-0.1c0.3-0.1,0.5,0,0.5,0.1c0.4,0.1,0.5,0.4,0.4,0.8c0.2,0.2,0.4,0.2,0.8,0.2c0.5-0.1,0.5-0.5,0.3-0.8
		c-0.4-1.1,0.4-1.6,1-1.2c0.8,0.5,1.2,0.5,1.7,0.1c0.5-0.5,1.6,0,1.2,1.1c-0.3,0.3-0.3,0.8,0.4,0.8l0.7-0.1
		c-0.4-0.3-0.1-0.9,0.4-0.9c0-0.1,0.3-0.1,0.4,0c0.1-0.1,0.5,0,0.6,0.1c0.2-0.1,0.7,0.1,0.8,0.4c0.3,0.1,0.4,0.2,0.4,0.4
		c0.4,0.2,0.2,0.9-0.3,1.1c-0.4,0.3-0.5,0.7-0.5,0.8c0,0.1,0.1,0.5,0.5,0.4c2-0.3,2.2,2.3,0.9,2.8c0.2,0.4,0.1,0.8-0.5,0.8
		c-0.3,0.4,0,1.3,0.3,1.5C30.5,17.8,30.8,19.1,30.1,19.3L30.1,19.3z"/>
	<path fill="none" stroke="#562207" stroke-width="0.1" d="M30.1,19.3c0.7,1,0.2,3-2.2,3c-1.8,0-2.3,0.3-2.5,0.4
		c0.4,0.4,0.3,1-0.3,1.1c-0.3,0.2-0.6,0.3-0.9,0c-0.2,0.2-0.3,0.4-0.5,0.5c-0.3-0.2-0.4-0.3-0.6-0.5c-0.3,0.3-0.6,0.3-0.8,0.1
		c-0.7,0-1.1-0.7-0.5-1.1c-0.4-0.4-1.2-0.4-2-0.4c-2.8,0.3-3.6-2-2.5-3.2c-0.7-0.2-0.7-1.2,0.3-1c0.3-0.1,0.4-1,0.3-1.3
		c-0.5,0.4-1.2-0.3-0.6-0.8c-1.4-0.5-0.9-3.2,0.8-2.8c0.3,0.1,0.3-0.1,0.4-0.3c0.1-0.3,0-0.6-0.5-1c-0.7-0.4-0.4-1.1-0.2-1.2
		c0-0.1,0.3-0.4,0.4-0.4c0.1-0.2,0.7-0.4,0.8-0.3c0.2-0.2,0.5-0.2,0.7-0.1c0.3-0.1,0.5,0,0.5,0.1c0.4,0.1,0.5,0.4,0.4,0.8
		c0.2,0.2,0.4,0.2,0.8,0.2c0.5-0.1,0.5-0.5,0.3-0.8c-0.4-1.1,0.4-1.6,1-1.2c0.8,0.5,1.2,0.5,1.7,0.1c0.5-0.5,1.6,0,1.2,1.1
		c-0.3,0.3-0.3,0.8,0.4,0.8l0.7-0.1c-0.4-0.3-0.1-0.9,0.4-0.9c0-0.1,0.3-0.1,0.4,0c0.1-0.1,0.5,0,0.6,0.1c0.2-0.1,0.7,0.1,0.8,0.4
		c0.3,0.1,0.4,0.2,0.4,0.4c0.4,0.2,0.2,0.9-0.3,1.1c-0.4,0.3-0.5,0.7-0.5,0.8c0,0.1,0.1,0.5,0.5,0.4c2-0.3,2.2,2.3,0.9,2.8
		c0.2,0.4,0.1,0.8-0.5,0.8c-0.3,0.4,0,1.3,0.3,1.5C30.5,17.8,30.8,19.1,30.1,19.3L30.1,19.3z"/>
	<path fill="none" stroke="#562207" stroke-width="0.1" d="M19,19.1v-7.7l9.1,0c0,0,0,7.4,0,8c0,0.6-0.4,1.2-1.2,1.2s-2.5-0.2-2.8,0
		c-0.1,0.1-0.3,0.3-0.4,0.3c-0.1-0.1-0.4-0.3-0.5-0.4c-0.4-0.1-2.4,0.1-2.8,0C19.9,20.3,18.9,19.1,19,19.1z"/>
	<polygon fill="#E62C34" points="19.4,11.8 23.4,11.8 23.4,15.8 19.4,15.8 19.4,11.8 	"/>
	<polygon fill="none" stroke="#562207" stroke-width="0.1" points="19.4,11.8 23.4,11.8 23.4,15.8 19.4,15.8 19.4,11.8 	"/>
	<path fill="#FAE506" d="M19.4,16.1l4,0c0,0,0,3.7,0,3.8s-0.2-0.1-0.5-0.1c-0.3,0-1.8,0.1-2.3,0.1c-0.4,0-1.2-0.6-1.2-1
		C19.4,18.5,19.4,16.1,19.4,16.1z"/>
	<path fill="none" stroke="#562207" stroke-width="0.1" d="M19.4,16.1l4,0c0,0,0,3.7,0,3.8s-0.2-0.1-0.5-0.1c-0.3,0-1.8,0.1-2.3,0.1
		c-0.4,0-1.2-0.6-1.2-1C19.4,18.5,19.4,16.1,19.4,16.1z"/>
	<path fill="#FAE506" d="M27.7,16.1l-4,0c0,0,0,3.7,0,3.9c0,0.2,0.2-0.2,0.5-0.2c0.3,0,1.8,0.1,2.3,0.1c0.4,0,1.2-0.6,1.2-1
		C27.7,18.4,27.7,16.1,27.7,16.1z"/>
	<path fill="none" stroke="#562207" stroke-width="0.1" d="M27.7,16.1l-4,0c0,0,0,3.7,0,3.9c0,0.2,0.2-0.2,0.5-0.2
		c0.3,0,1.8,0.1,2.3,0.1c0.4,0,1.2-0.6,1.2-1C27.7,18.4,27.7,16.1,27.7,16.1z"/>
	<polygon fill="#FAE506" points="23.7,11.8 27.7,11.8 27.7,15.8 23.7,15.8 	"/>
	<polygon fill="none" stroke="#562207" stroke-width="0.1" points="23.7,11.8 27.7,11.8 27.7,15.8 23.7,15.8 	"/>
	<polygon fill="#FFFFFF" points="21.4,12 20.3,13.3 20.3,13.6 20.9,14.8 21.9,14.8 22.5,13.5 22.5,13.3 	"/>
	<path fill="#E62C34" d="M21.5,12.6c0,0,0,1.8,0,1.9c0,0.1,0.3,0.1,0.4-0.2c0.1-0.1,0.3-0.9,0.3-0.9L21.5,12.6z"/>
	<path fill="none" stroke="#E62C34" stroke-width="0.1" d="M21.5,12.6c0,0,0,1.8,0,1.9c0,0.1,0.3,0.1,0.4-0.2
		c0.1-0.1,0.3-0.9,0.3-0.9L21.5,12.6z"/>
	<path fill="#E62C34" d="M21.3,12.6c0,0,0,1.7,0,1.9c0,0.1-0.3,0.1-0.4-0.2c-0.1-0.1-0.3-0.9-0.3-0.9L21.3,12.6z"/>
	<path fill="none" stroke="#E62C34" stroke-width="0.1" d="M21.3,12.6c0,0,0,1.7,0,1.9c0,0.1-0.3,0.1-0.4-0.2
		c-0.1-0.1-0.3-0.9-0.3-0.9L21.3,12.6z"/>
	<path fill="#E62C34" d="M26.5,18.7C26.5,18.8,26.5,18.8,26.5,18.7l0.1,0.2c0,0.1,0,0.3,0,0.3l-0.1,0l0,0l-0.1,0.1l0,0l0,0l0.1-0.1
		l0-0.2l-0.1-0.1l-0.1-0.1l-0.1,0l0,0.1l-0.1,0.1L26,19.3l-0.1,0l-0.1,0.1l0,0h-0.1l0-0.1l0.1,0l0.1-0.2l0-0.1l0-0.1l-0.1,0
		l-0.3,0.1l-0.1,0l0,0.3l0,0.1l0,0l0,0.1l-0.1,0v-0.1l0,0l0-0.1l0.1-0.2l0-0.1l-0.2,0L25,18.7l-0.2-0.2l-0.1,0l-0.1,0.1l-0.1,0
		l-0.1-0.1l0-0.1l0.1-0.1v-0.1l0-0.1l0-0.1l0.2,0l0.4,0.1l0.4,0l0.5,0l0.3,0l0.2,0.1l0.1,0.1C26.7,18.4,26.7,18.6,26.5,18.7z"/>
	<path fill="none" stroke="#8B3D1D" stroke-width="0.1" d="M26.5,18.7C26.5,18.8,26.5,18.8,26.5,18.7l0.1,0.2c0,0.1,0,0.3,0,0.3
		l-0.1,0l0,0l-0.1,0.1l0,0l0,0l0.1-0.1l0-0.2l-0.1-0.1l-0.1-0.1l-0.1,0l0,0.1l-0.1,0.1L26,19.3l-0.1,0l-0.1,0.1l0,0h-0.1l0-0.1
		l0.1,0l0.1-0.2l0-0.1l0-0.1l-0.1,0l-0.3,0.1l-0.1,0l0,0.3l0,0.1l0,0l0,0.1l-0.1,0v-0.1l0,0l0-0.1l0.1-0.2l0-0.1l-0.2,0L25,18.7
		l-0.2-0.2l-0.1,0l-0.1,0.1l-0.1,0l-0.1-0.1l0-0.1l0.1-0.1v-0.1l0-0.1l0-0.1l0.2,0l0.4,0.1l0.4,0l0.5,0l0.3,0l0.2,0.1l0.1,0.1
		C26.7,18.4,26.7,18.6,26.5,18.7z"/>
	<polygon fill="#3857A4" points="24.5,18 24.5,18 24.5,18.1 	"/>
	<polygon fill="none" stroke="#8B3D1D" stroke-width="0.1" points="24.5,18 24.5,18 24.5,18.1 	"/>
	<path fill="#FFE20D" d="M26.5,18.6c0.1-0.1,0.1-0.2-0.1-0.3C26.2,18.2,26.5,18.6,26.5,18.6z"/>
	<path fill="none" stroke="#8B3D1D" stroke-width="0.1" d="M26.5,18.6c0.1-0.1,0.1-0.2-0.1-0.3C26.2,18.2,26.5,18.6,26.5,18.6z"/>
	<path fill="#3857A4" d="M25,18.2c0,0.2-0.1,0.4-0.1,0.4l-0.1,0l0,0.1l0,0.1h0.1l0-0.1C24.9,18.6,25.1,18.5,25,18.2L25,18.2L25,18.2
		z"/>
	<path fill="none" stroke="#8B3D1D" stroke-width="0.1" d="M25,18.2c0,0.2-0.1,0.4-0.1,0.4l-0.1,0l0,0.1l0,0.1h0.1l0-0.1
		C24.9,18.6,25.1,18.5,25,18.2L25,18.2L25,18.2z"/>
	<polygon fill="#E62C34" points="24.9,18.8 24.9,18.8 24.8,18.8 24.9,18.8 	"/>
	<polygon fill="none" stroke="#8B3D1D" stroke-width="0.1" points="24.9,18.8 24.9,18.8 24.8,18.8 24.9,18.8 	"/>
	<rect x="24.2" y="11.9" fill="#E62C34" width="0.7" height="3.8"/>
	<rect x="24.2" y="11.9" fill="none" stroke="#E62C34" stroke-width="0.1" width="0.7" height="3.8"/>
	<rect x="22.5" y="16.2" fill="#E62C34" width="0.4" height="3.6"/>
	<rect x="22.5" y="16.2" fill="none" stroke="#E62C34" stroke-width="0.1" width="0.4" height="3.6"/>
	<rect x="25.3" y="11.9" fill="#E62C34" width="0.7" height="3.8"/>
	<rect x="25.3" y="11.9" fill="none" stroke="#E62C34" stroke-width="0.1" width="0.7" height="3.8"/>
	<rect x="26.5" y="11.9" fill="#E62C34" width="0.7" height="3.8"/>
	<rect x="26.5" y="11.9" fill="none" stroke="#E62C34" stroke-width="0.1" width="0.7" height="3.8"/>
	<rect x="21.7" y="16.2" fill="#E62C34" width="0.4" height="3.7"/>
	<rect x="21.7" y="16.2" fill="none" stroke="#E62C34" stroke-width="0.1" width="0.4" height="3.7"/>
	<rect x="20.7" y="16.2" fill="#E62C34" width="0.4" height="3.6"/>
	<rect x="20.7" y="16.2" fill="none" stroke="#E62C34" stroke-width="0.1" width="0.4" height="3.6"/>
	<rect x="19.8" y="16.2" fill="#E62C34" width="0.4" height="3.6"/>
	<rect x="19.8" y="16.2" fill="none" stroke="#E62C34" stroke-width="0.1" width="0.4" height="3.6"/>
	<path fill="none" stroke="#EEC490" stroke-width="0.1" d="M19.3,15.9l4.3,0c0,0,0,3.9,0,4.1c0,0.2-0.2,0.1-0.5,0.1
		c-0.3,0-1.9,0-2.4,0c-0.5,0-1.3-0.7-1.3-1.1C19.3,18.6,19.3,16,19.3,15.9z"/>
	<path fill="none" stroke="#562207" stroke-width="0.1" d="M19.4,16.1l4,0c0,0,0,3.7,0,3.8s-0.2-0.1-0.5-0.1c-0.3,0-1.8,0.1-2.3,0.1
		c-0.4,0-1.2-0.6-1.2-1C19.4,18.5,19.4,16.1,19.4,16.1z"/>
	<polygon fill="#E62C34" points="25.2,18.9 25.1,19 25.3,19.1 25.3,19.1 25.3,19.2 25.3,19.2 25.2,19.2 25.1,19.1 25,19 25.1,18.8 	
		"/>
	<polygon fill="none" stroke="#8B3D1D" stroke-width="0.1" points="25.2,18.9 25.1,19 25.3,19.1 25.3,19.1 25.3,19.2 25.3,19.2 
		25.2,19.2 25.1,19.1 25,19 25.1,18.8 	"/>
	<polygon fill="#3857A4" points="24.8,18.1 24.9,18 24.8,18.1 	"/>
	<polygon fill="none" stroke="#8B3D1D" stroke-width="0.1" points="24.8,18.1 24.9,18 24.8,18.1 	"/>
	<path fill="#E62C34" d="M26.5,17.2C26.5,17.3,26.5,17.3,26.5,17.2l0.1,0.2c0,0.1,0,0.3,0,0.3l-0.1,0l0,0l-0.1,0.1l0,0l0,0l0.1-0.1
		l0-0.2l0-0.1l-0.1-0.1l-0.1,0l0,0.1l-0.1,0.1L26,17.8l-0.1,0l-0.1,0.1l0,0h-0.1l0.1-0.1l0.1,0l0.1-0.2l0-0.1l0-0.1l-0.1,0l-0.3,0.1
		l-0.1,0l0,0.3l0,0.1l0,0l0,0.1l-0.1,0v-0.1l0,0l0-0.1l0.1-0.2l0-0.1l-0.2,0L25,17.2L24.8,17l-0.1,0l-0.1,0.1l-0.1,0L24.4,17l0-0.1
		l0.1-0.2v-0.1l0-0.1l0.1-0.1l0.2,0l0.4,0.1l0.3,0l0.5,0l0.3,0l0.2,0.1l0.1,0.1C26.7,16.9,26.7,17.1,26.5,17.2z"/>
	<path fill="none" stroke="#8B3D1D" stroke-width="0.1" d="M26.5,17.2C26.5,17.3,26.5,17.3,26.5,17.2l0.1,0.2c0,0.1,0,0.3,0,0.3
		l-0.1,0l0,0l-0.1,0.1l0,0l0,0l0.1-0.1l0-0.2l0-0.1l-0.1-0.1l-0.1,0l0,0.1l-0.1,0.1L26,17.8l-0.1,0l-0.1,0.1l0,0h-0.1l0.1-0.1l0.1,0
		l0.1-0.2l0-0.1l0-0.1l-0.1,0l-0.3,0.1l-0.1,0l0,0.3l0,0.1l0,0l0,0.1l-0.1,0v-0.1l0,0l0-0.1l0.1-0.2l0-0.1l-0.2,0L25,17.2L24.8,17
		l-0.1,0l-0.1,0.1l-0.1,0L24.4,17l0-0.1l0.1-0.2v-0.1l0-0.1l0.1-0.1l0.2,0l0.4,0.1l0.3,0l0.5,0l0.3,0l0.2,0.1l0.1,0.1
		C26.7,16.9,26.7,17.1,26.5,17.2z"/>
	<polygon fill="#3857A4" points="24.5,16.5 24.5,16.4 24.5,16.6 	"/>
	<polygon fill="none" stroke="#8B3D1D" stroke-width="0.1" points="24.5,16.5 24.5,16.4 24.5,16.6 	"/>
	<path fill="#FFE20D" d="M26.5,17.1c0.1-0.1,0.1-0.2,0-0.3C26.2,16.7,26.5,17.1,26.5,17.1z"/>
	<path fill="none" stroke="#8B3D1D" stroke-width="0.1" d="M26.5,17.1c0.1-0.1,0.1-0.2,0-0.3C26.2,16.7,26.5,17.1,26.5,17.1z"/>
	<path fill="#3857A4" d="M25,16.6c0,0.2-0.1,0.4-0.1,0.4l-0.1,0l0,0.1l0,0.2h0.2l0-0.1C24.9,17.1,25.1,17,25,16.6L25,16.6L25,16.6z"
		/>
	<path fill="none" stroke="#8B3D1D" stroke-width="0.1" d="M25,16.6c0,0.2-0.1,0.4-0.1,0.4l-0.1,0l0,0.1l0,0.2h0.2l0-0.1
		C24.9,17.1,25.1,17,25,16.6L25,16.6L25,16.6z"/>
	<polygon fill="#E62C34" points="24.9,17.3 24.9,17.3 24.8,17.3 24.9,17.2 	"/>
	<polygon fill="none" stroke="#8B3D1D" stroke-width="0.1" points="24.9,17.3 24.9,17.3 24.8,17.3 24.9,17.2 	"/>
	<polygon fill="#E62C34" points="25.2,17.4 25.1,17.5 25.3,17.5 25.3,17.6 25.3,17.7 25.3,17.7 25.2,17.7 25.1,17.5 25,17.4 
		25,17.3 	"/>
	<polygon fill="none" stroke="#8B3D1D" stroke-width="0.1" points="25.2,17.4 25.1,17.5 25.3,17.5 25.3,17.6 25.3,17.7 25.3,17.7 
		25.2,17.7 25.1,17.5 25,17.4 25,17.3 	"/>
	<polygon fill="#3857A4" points="24.8,16.5 24.9,16.5 24.8,16.6 	"/>
	<polygon fill="none" stroke="#8B3D1D" stroke-width="0.1" points="24.8,16.5 24.9,16.5 24.8,16.6 	"/>
	<polygon fill="#562207" points="22.7,21.3 22.7,21.3 22.6,21.3 22.6,21.4 22.4,22 22.3,22 22.1,21.4 22.1,21.4 22.1,21.3 22,21.3 
		22,21.3 22.3,21.3 22.3,21.3 22.2,21.3 22.2,21.4 22.2,21.4 22.4,21.8 22.5,21.4 22.6,21.4 22.5,21.3 22.5,21.3 22.5,21.3 
		22.5,21.3 	"/>
	<polygon fill="#562207" points="22.7,21.3 22.8,21.3 23.2,21.8 23.2,21.4 23.2,21.3 23.2,21.3 23.1,21.3 23.1,21.3 23.3,21.3 
		23.3,21.3 23.3,21.3 23.3,21.3 23.3,21.4 23.3,22 23.2,22 22.8,21.4 22.8,21.8 22.8,21.9 22.9,21.9 22.9,21.9 22.9,22 22.7,22 
		22.7,21.9 22.7,21.9 22.8,21.9 22.8,21.8 22.8,21.4 22.8,21.3 22.7,21.3 22.7,21.3 	"/>
	<polygon fill="#562207" points="23.6,21.9 23.6,22 23.4,22 23.4,21.9 23.4,21.9 23.5,21.9 23.5,21.8 23.5,21.4 23.5,21.4 
		23.4,21.3 23.4,21.3 23.4,21.3 23.4,21.3 23.6,21.3 23.6,21.3 23.6,21.3 23.6,21.3 23.6,21.4 23.6,21.8 23.6,21.9 23.6,21.9 
		23.6,21.9 	"/>
	<polygon fill="#562207" points="24.2,21.3 24.2,21.5 24.2,21.5 24.2,21.4 24.1,21.4 24.1,21.3 24,21.3 24,21.8 24,21.9 24.1,21.9 
		24.1,21.9 24.1,22 23.8,22 23.8,21.9 23.8,21.9 23.9,21.9 23.9,21.8 23.9,21.3 23.8,21.3 23.8,21.3 23.7,21.4 23.7,21.5 23.7,21.5 
		23.7,21.3 	"/>
	<path fill="#562207" d="M24.6,21.7h-0.2l0,0.1l0,0.1l0,0l0.1,0v0h-0.2v0l0.1,0l0.1-0.1l0.2-0.5h0l0.2,0.5l0,0.1l0.1,0v0h-0.2v0l0,0
		l0,0L24.6,21.7L24.6,21.7z M24.6,21.7l-0.1-0.3l-0.1,0.3H24.6z"/>
	<polygon fill="#562207" points="25.2,21.3 25.2,21.5 25.3,21.5 25.4,21.5 25.4,21.4 25.4,21.4 25.4,21.6 25.4,21.6 25.4,21.6 
		25.4,21.5 25.3,21.5 25.2,21.6 25.2,21.8 25.3,21.8 25.3,21.8 25.3,21.8 25.3,21.8 25.3,21.9 25.1,21.9 25.1,21.9 25.1,21.9 
		25.2,21.8 25.2,21.8 25.1,21.3 25.1,21.3 25.1,21.3 25,21.3 25,21.3 25,21.2 25.4,21.2 25.5,21.3 25.4,21.3 25.4,21.3 25.4,21.2 
		25.3,21.2 	"/>
	<path fill="#562207" d="M25.8,21.1l0.2,0.1c0.1,0.1,0.1,0.1,0.1,0.2c0,0.1,0,0.2,0,0.3l-0.2,0.1l-0.2-0.1c-0.1-0.1-0.1-0.1-0.1-0.2
		c0-0.1,0-0.2,0.1-0.3L25.8,21.1z M25.8,21.1l-0.1,0.1c0,0.1,0,0.1,0,0.2c0,0.1,0,0.2,0.1,0.2l0.1,0l0.1-0.1c0-0.1,0-0.1,0-0.2
		c0-0.1,0-0.2-0.1-0.2L25.8,21.1z"/>
	<path fill="#562207" d="M26.8,21.6l-0.2,0l-0.2-0.3l0,0l0,0l0,0l0,0.2l0,0.1l0.1,0l0,0l0,0l-0.3,0l0,0l0,0l0,0v-0.1l-0.1-0.4l0-0.1
		l-0.1,0l0,0l0,0l0.2,0l0.1,0l0.1,0l0,0.1l0,0.1l-0.1,0.1l0.1,0.2L26.8,21.6L26.8,21.6L26.8,21.6z M26.3,21.4L26.3,21.4L26.3,21.4
		l0.1-0.1l0-0.1l0-0.1l-0.1,0l-0.1,0L26.3,21.4z"/>
	<polygon fill="#562207" points="27.2,20.9 27.2,21.1 27.2,21.1 27.2,21 27.1,21 27.1,21 27,21 27,21.5 27.1,21.6 27.1,21.6 
		27.1,21.6 27.1,21.6 26.9,21.6 26.9,21.6 26.9,21.6 27,21.6 27,21.5 26.9,21 26.8,21 26.8,21 26.7,21.1 26.7,21.1 26.7,21.1 
		26.7,21 	"/>
	<polygon fill="#562207" points="27.6,21.5 27.6,21.5 27.3,21.6 27.3,21.6 27.3,21.6 27.4,21.5 27.4,21.4 27.3,21 27.3,21 
		27.3,20.9 27.2,20.9 27.2,20.9 27.2,20.9 27.5,20.9 27.5,20.9 27.5,20.9 27.4,20.9 27.4,21 27.5,21.4 27.5,21.5 27.5,21.5 
		27.5,21.5 	"/>
	<path fill="#562207" d="M27.8,20.8l0.2,0.1c0.1,0.1,0.1,0.1,0.1,0.2c0,0.1,0,0.2,0,0.3l-0.2,0.1l-0.2-0.1c-0.1-0.1-0.1-0.1-0.1-0.2
		c0-0.1,0-0.2,0.1-0.3L27.8,20.8z M27.8,20.9l-0.1,0.1c0,0.1,0,0.1,0,0.2c0,0.1,0,0.2,0.1,0.2l0.1,0l0.1-0.1c0-0.1,0-0.1,0-0.2
		c0-0.1,0-0.2-0.1-0.2L27.8,20.9z"/>
	<path fill="#562207" d="M28.8,21.3l-0.2,0l-0.2-0.3l0,0l0,0l0,0l0,0.2l0,0.1l0.1,0l0,0l0,0l-0.3,0l0,0l0,0l0,0v-0.1l-0.1-0.4l0-0.1
		l-0.1,0l0,0l0,0l0.2,0l0.1,0l0.1,0l0,0.1l0,0.1l-0.1,0.1l0.1,0.2L28.8,21.3L28.8,21.3L28.8,21.3z M28.4,21.1L28.4,21.1L28.4,21.1
		l0.1-0.1l0-0.1l0-0.1l-0.1,0l-0.1,0L28.4,21.1z"/>
	<polygon fill="#562207" points="19.4,20.7 19.4,20.7 19.3,20.7 19.3,20.8 18.9,21.3 18.9,21.3 18.8,20.7 18.8,20.6 18.8,20.6 
		18.8,20.5 18.8,20.5 19,20.6 19,20.6 19,20.6 18.9,20.6 18.9,20.7 19,21.1 19.2,20.8 19.3,20.7 19.3,20.7 19.2,20.7 19.2,20.7 
		19.2,20.6 	"/>
	<polygon fill="#562207" points="19.5,21.4 19.5,21.4 19.3,21.3 19.3,21.3 19.3,21.3 19.4,21.3 19.4,21.2 19.5,20.8 19.5,20.8 
		19.5,20.7 19.4,20.7 19.4,20.7 19.4,20.7 19.7,20.8 19.7,20.8 19.7,20.8 19.6,20.8 19.6,20.8 19.5,21.3 19.5,21.3 19.5,21.4 
		19.5,21.4 	"/>
	<path fill="#562207" d="M20.1,21.6l-0.2,0l-0.1-0.3l0,0l0,0l0,0l0,0.2l0,0.1l0,0l0,0l0,0l-0.2-0.1l0,0l0,0l0.1,0l0-0.1l0.1-0.4
		l0-0.1l0,0l0,0l0,0l0.2,0.1l0.1,0l0.1,0.1l0,0.1l-0.1,0.1l-0.1,0l0.1,0.2L20.1,21.6L20.1,21.6L20.1,21.6z M19.8,21.1L19.8,21.1
		L19.8,21.1H20L20,21l0-0.1l-0.1-0.1l-0.1,0L19.8,21.1z"/>
	<polygon fill="#562207" points="20.7,21 20.7,21.2 20.7,21.2 20.7,21.1 20.7,21.1 20.6,21 20.5,21 20.4,21.5 20.4,21.6 20.4,21.6 
		20.5,21.6 20.5,21.6 20.2,21.6 20.2,21.6 20.2,21.6 20.3,21.6 20.3,21.5 20.5,21 20.4,21 20.3,21 20.3,21 20.2,21.1 20.2,21.1 
		20.3,20.9 	"/>
	<polygon fill="#562207" points="21.4,21.2 21.4,21.2 21.3,21.2 21.3,21.3 20.9,21.8 20.9,21.8 20.8,21.2 20.8,21.1 20.8,21.1 
		20.8,21.1 20.8,21 21,21.1 21,21.1 21,21.1 20.9,21.1 20.9,21.2 21,21.6 21.2,21.3 21.3,21.2 21.3,21.2 21.2,21.2 21.2,21.2 
		21.2,21.1 	"/>
	<polygon fill="#562207" points="21.8,21.3 21.8,21.5 21.7,21.5 21.7,21.4 21.7,21.3 21.6,21.3 21.5,21.3 21.5,21.3 21.5,21.4 
		21.6,21.5 21.7,21.6 21.7,21.7 21.7,21.8 21.6,21.9 21.5,21.9 21.4,21.9 21.4,21.9 21.3,21.8 21.3,21.8 21.3,21.9 21.3,21.9 
		21.4,21.6 21.4,21.6 21.4,21.8 21.4,21.8 21.5,21.9 21.6,21.9 21.6,21.8 21.6,21.8 21.6,21.7 21.5,21.6 21.4,21.5 21.4,21.4 
		21.4,21.4 21.5,21.3 21.6,21.2 21.7,21.3 21.8,21.3 21.8,21.3 21.8,21.3 	"/>
</g>
</svg>
