<?xml version="1.0" encoding="utf-8"?>
<!-- Generator: Adobe Illustrator 19.1.0, SVG Export Plug-In . SVG Version: 6.00 Build 0)  -->
<svg version="1.1" id="Layer_1" xmlns="http://www.w3.org/2000/svg" xmlns:xlink="http://www.w3.org/1999/xlink" x="0px" y="0px"
	 viewBox="0 0 53 31.9" enable-background="new 0 0 53 31.9" xml:space="preserve">
<g>
	<path fill="#FFFFFF" d="M-13,82.5h79.5c3.1,0,5.7-2.6,5.7-5.7V-59.4c0-3.1-2.6-5.7-5.7-5.7H-13c-3.1,0-5.7,2.6-5.7,5.7V76.9
		C-18.7,80-16.1,82.5-13,82.5z"/>
	<path fill="none" stroke="#EDEDED" stroke-width="0.5" stroke-miterlimit="10" d="M-13,82.5h79.5c3.1,0,5.7-2.6,5.7-5.7V-59.4
		c0-3.1-2.6-5.7-5.7-5.7H-13c-3.1,0-5.7,2.6-5.7,5.7V76.9C-18.7,80-16.1,82.5-13,82.5z"/>
	<polygon fill="#E52023" points="52.9,31.8 52.9,31.8 0.1,31.8 0.1,0.1 52.9,0.1 52.9,31.8 	"/>
	<path d="M52.9,0.1v31.7H0.1V0.1H52.9 M53,0L53,0H0.1H0v0.1v31.7v0.1h0.1h52.8H53v-0.1V0.1V0z"/>
	<polygon fill="#FFFFFF" points="0.1,0.1 13.3,0.1 21.2,3.3 13.3,6.4 21.2,9.6 13.3,12.8 21.2,15.9 13.3,19.1 21.2,22.3 13.3,25.4 
		21.2,28.6 13.3,31.8 0.1,31.8 	"/>
</g>
</svg>
