<?xml version="1.0" encoding="utf-8"?>
<!-- Generator: Adobe Illustrator 19.1.0, SVG Export Plug-In . SVG Version: 6.00 Build 0)  -->
<svg version="1.1" id="Layer_1" xmlns="http://www.w3.org/2000/svg" xmlns:xlink="http://www.w3.org/1999/xlink" x="0px" y="0px"
	 viewBox="0 0 49.7 33.2" enable-background="new 0 0 49.7 33.2" xml:space="preserve">
<g>
	<path fill="#FFFFFF" d="M-15,83h79.5c3.1,0,5.7-2.6,5.7-5.7V-58.9c0-3.1-2.6-5.7-5.7-5.7H-15c-3.1,0-5.7,2.6-5.7,5.7V77.3
		C-20.7,80.5-18.1,83-15,83z"/>
	<path fill="none" stroke="#EDEDED" stroke-width="0.5" stroke-miterlimit="10" d="M-15,83h79.5c3.1,0,5.7-2.6,5.7-5.7V-58.9
		c0-3.1-2.6-5.7-5.7-5.7H-15c-3.1,0-5.7,2.6-5.7,5.7V77.3C-20.7,80.5-18.1,83-15,83z"/>
	<rect x="16.6" y="0.1" fill="#FEC713" width="16.5" height="33"/>
	<polygon fill="#FFFFFF" points="49.6,33.1 49.6,33.1 33.1,33.1 16.6,33.1 0.1,33.1 0,0.1 16.6,0.1 33.1,0.1 49.6,0.1 49.6,33.1 	
		"/>
	<path d="M49.6,0.1v33H33.1H16.6H0.1v-33h16.5h16.5H49.6 M49.7,0L49.7,0H33.1H16.6H0.1H0v0.1v33v0.1h0.1h16.5h16.5h16.5h0.1v-0.1
		v-33V0z"/>
	<rect x="0.1" y="0.1" fill="#2F2878" width="16.5" height="33"/>
	<rect x="33.1" y="0.1" fill="#2F2878" width="16.5" height="33"/>
	<rect x="16.6" y="0.1" fill="#FDC72A" width="16.5" height="33"/>
	<path d="M31.8,10.9c-1.3,0.2-2.7,0.9-3.6,1.8c-0.1,0.1,0.6-0.1,0.6-0.2c0.5-0.2-0.2,0.7-0.2,0.9c-0.5,1.7-1,3.3-1.1,5.2
		c0,0.1,0,0.2-0.1,0.2l-1.7-0.3v-6.1c0.4,0,1,0.1,1.4,0.2c-1.2-1.2-1.7-2.7-2.3-4.2c-0.5,1.5-1.1,3-2.3,4.2c0.4-0.1,1-0.2,1.4-0.2
		v6.1l-1.7,0.3c-0.1,0-0.1-0.1-0.1-0.2c-0.2-1.9-0.6-3.5-1.1-5.2c0-0.2-0.7-1.1-0.2-0.9c0.1,0,0.7,0.3,0.6,0.2
		c-0.9-1-2.3-1.6-3.6-1.8c-0.1,0-0.2,0-0.1,0.2c1.7,2.7,3.2,5.8,3.2,9.6c0.7,0,2.3-0.4,3-0.4c0,1,0,3.3,0,4.3h0.8h0.8
		c0-1,0-3.3,0-4.3c0.7,0,2.3,0.4,3,0.4c0-3.8,1.4-6.9,3.2-9.6C32,10.9,31.9,10.9,31.8,10.9z"/>
</g>
</svg>
