<?xml version="1.0" encoding="utf-8"?>
<!-- Generator: Adobe Illustrator 19.1.0, SVG Export Plug-In . SVG Version: 6.00 Build 0)  -->
<svg version="1.1" id="Layer_1" xmlns="http://www.w3.org/2000/svg" xmlns:xlink="http://www.w3.org/1999/xlink" x="0px" y="0px"
	 viewBox="0 0 54.1 32.5" enable-background="new 0 0 54.1 32.5" xml:space="preserve">
<g>
	<path fill="#FFFFFF" d="M-12.5,83.1H67c3.1,0,5.7-2.6,5.7-5.7V-58.8c0-3.1-2.6-5.7-5.7-5.7h-79.5c-3.1,0-5.7,2.6-5.7,5.7V77.4
		C-18.2,80.5-15.7,83.1-12.5,83.1z"/>
	<path fill="none" stroke="#EDEDED" stroke-width="0.5" stroke-miterlimit="10" d="M-12.5,83.1H67c3.1,0,5.7-2.6,5.7-5.7V-58.8
		c0-3.1-2.6-5.7-5.7-5.7h-79.5c-3.1,0-5.7,2.6-5.7,5.7V77.4C-18.2,80.5-15.7,83.1-12.5,83.1z"/>
	<polygon fill="#186C4F" points="54,32.5 54,32.5 0.1,32.5 0.1,0.1 54,0 54,32.4 	"/>
	<path d="M54,0.1v32.3H0.1V0.1H54 M54.1,0H54H0.1H0v0.1v32.3v0.1h0.1H54h0.1v-0.1V0.1V0z"/>
	<circle fill="#E73347" cx="24.3" cy="16.3" r="10.8"/>
</g>
</svg>
