<?xml version="1.0" encoding="utf-8"?>
<!-- Generator: Adobe Illustrator 19.1.0, SVG Export Plug-In . SVG Version: 6.00 Build 0)  -->
<svg version="1.1" id="Layer_1" xmlns="http://www.w3.org/2000/svg" xmlns:xlink="http://www.w3.org/1999/xlink" x="0px" y="0px"
	 viewBox="0 0 49.7 33.2" enable-background="new 0 0 49.7 33.2" xml:space="preserve">
<g>
	<path fill="#FFFFFF" d="M-14.7,83.2h79.5c3.1,0,5.7-2.6,5.7-5.7V-58.7c0-3.1-2.6-5.7-5.7-5.7h-79.5c-3.1,0-5.7,2.6-5.7,5.7V77.6
		C-20.3,80.7-17.8,83.2-14.7,83.2z"/>
	<path fill="none" stroke="#EDEDED" stroke-width="0.5" stroke-miterlimit="10" d="M-14.7,83.2h79.5c3.1,0,5.7-2.6,5.7-5.7V-58.7
		c0-3.1-2.6-5.7-5.7-5.7h-79.5c-3.1,0-5.7,2.6-5.7,5.7V77.6C-20.3,80.7-17.8,83.2-14.7,83.2z"/>
	<polygon fill="#FFFFFF" points="49.6,33.1 49.6,33.1 0.1,33.1 0,0.1 49.6,0 49.6,33.1 	"/>
	<path d="M49.6,0.1v33H0.1v-33H49.6 M49.7,0h-0.1H0.1H0v0.1v33v0.1h0.1h49.5h0.1v-0.1V0L49.7,0z"/>
	<rect x="0.1" y="24.8" fill="#E8402C" width="49.5" height="8.2"/>
	<rect x="0.1" y="0.1" fill="#E8402C" width="49.5" height="8.2"/>
	<path fill="#00A43D" d="M24.6,8.3l-0.3,0.4c-0.1,0.2-0.5,0.6-0.8,0.8c-0.3,0.2-0.6,0.5-0.8,0.7l-0.3,0.3l0.3-0.1
		c0.1,0,0.3-0.1,0.4-0.1l0.2,0v0l0,0c0,0.2-0.5,0.5-0.9,0.7c-0.4,0.1-0.9,0.5-0.9,0.7l0,0l0,0v0v0v0v0l0,0l0,0l0,0l0,0l0,0l0,0l0,0
		c0,0,0.2,0,0.3,0c0.2-0.1,0.3,0,0.4,0.1c0.1,0.2,0,0.3-0.2,0.3c-0.3,0-0.8,0.3-0.8,0.6c0,0.2-0.2,0.3-0.6,0.5
		c-0.6,0.3-1.4,0.8-1.5,1l0,0c0,0.2,0.5,0.2,1.3,0c0.2-0.1,0.2,0,0.4,0.3c0.2,0.4,0.2,0.4-0.2,0.8c-0.3,0.3-0.5,0.5-0.7,0.6
		c-0.5,0.1-0.6,0.2-1.3,0.8c-0.3,0.3-0.6,0.6-0.7,0.6l-0.1,0l0,0l0,0l0,0l0,0l0,0v0v0v0v0v0l0,0l0,0l0,0c0.1,0.1,0.4,0.3,0.6,0.3
		c0.1,0,0.5-0.2,0.7-0.3c0.5-0.3,0.5-0.3,0.7-0.2c0.1,0.1,0.2,0.3,0.2,0.5c0,0.2-0.1,0.3-0.7,0.6c-0.5,0.2-1,0.6-1.4,1.1
		c-0.6,0.6-0.7,0.7-1,0.6c-0.2,0-0.2,0-0.3,0l0,0l0,0l0,0l0,0c0,0,0.1,0.1,0.1,0.2c0.1,0.1,0.3,0.2,0.5,0.2c0.4,0,1.8-0.5,2.2-0.8
		c0.4-0.3,0.8-0.4,1.1-0.2c0.5,0.3-0.3,0.9-1.9,1.3c-0.6,0.2-1.1,0.3-1.1,0.4l0,0l0,0l0,0v0l0.1,0.2c0.2,0.2,1,0.2,1.7,0
		c0.3-0.1,1-0.4,1.5-0.6c1-0.5,1-0.5,1.4-0.3c0.8,0.4,0.8,1.2-0.2,2.5c-0.4,0.6-0.8,0.8-1.5,1c-0.3,0.1-0.8,0.6-0.8,0.8l0,0h0.2
		l0.1-0.1c0.2-0.3,0.7-0.5,1.1-0.5c0.5,0,1.1-0.3,1.6-0.7c0.4-0.4,0.8-0.5,1.1-0.3c0.2,0.1,0.3,0.1,0.5,0c0.4-0.1,0.5-0.1,0.5,0.2
		c0,0.1,0.1,0.3,0.3,0.4c0.2,0.1,0.5,0.3,0.7,0.5c0.1,0.1,0.3,0.2,0.3,0.2h0h0l0,0l0,0l0,0l0,0l0,0l0,0l0,0l0,0l0,0l0,0l0,0v0
		c0-0.1,0-0.2-0.2-0.4c-0.1-0.1-0.1-0.2-0.1-0.3l0,0l0,0v0l0,0l0,0l0,0l0,0l0,0l0,0c0.1,0,0.4,0,0.8,0c0.6,0.1,0.7,0.1,1.1,0.6
		c0.2,0.2,0.3,0.4,0.5,0.4h0.3l0.1-0.1l0,0v0v0v0v0v0c0-0.1-0.4-0.4-0.9-0.8c-1-0.9-1.2-1.2-1.2-2.4c0-0.7,0-0.9,0.2-1.1
		c0.3-0.3,0.4-0.3,1.1,0.1c0.5,0.3,0.6,0.3,1.7,0.3c1.2,0,1.2,0,1.8,0.3c0.3,0.2,0.7,0.5,0.9,0.6c0.4,0.3,0.7,0.3,0.8,0
		c0.1-0.3-0.6-0.9-1.9-1.6c-1.3-0.7-1.4-0.9-0.8-1.2c0.3-0.2,0.4-0.2,0.9,0.1c0.4,0.2,0.6,0.3,0.9,0.2l0.4-0.1l-0.8-0.6
		c-0.4-0.4-0.9-0.7-0.9-0.8c-0.2-0.3-0.7-0.5-1.1-0.5c-0.2,0-0.4,0-0.4-0.1l0,0l0,0l0,0c-0.1-0.2,0.2-0.3,1.3-0.4
		c1.4-0.1,1.6-0.2,0.6-0.5c-0.4-0.1-1-0.3-1.3-0.4c-0.4-0.1-0.6-0.2-0.7-0.3l0,0v0l0.1-0.1c0.1-0.1,0.4-0.1,0.9,0
		c0.6,0.1,0.9,0.1,1,0.1c0.1-0.1-0.2-0.3-0.8-0.6c-0.6-0.3-1.3-0.8-1.6-1.1c-0.3-0.3-0.8-0.7-1-0.8c-0.3-0.2-0.4-0.3-0.4-0.4
		c0.1-0.2,0.6-0.2,0.9,0c0.1,0.1,0.5,0.2,0.8,0.2l0.6,0l-0.4-0.1c-0.4-0.2-1.4-0.9-1.5-1l0,0v0v0v0l0,0l0,0l0,0c0,0,0.3,0,0.6,0
		l0.6,0l-0.8-0.6c-0.6-0.5-1-0.6-1.4-0.7C26.4,10.1,26,10,25.9,10c-0.3-0.1-0.9-0.7-1.1-1.2L24.6,8.3z M22.8,11.5L22.8,11.5
		c0.1,0,0.2,0,0.2,0.1l0,0l0,0l0,0l0,0v0v0l0,0l0,0c0,0.1-0.1,0.2-0.3,0.3C22.7,12,22.6,12,22.6,12l0,0l0,0l0,0c0,0,0-0.1,0-0.2
		C22.5,11.5,22.6,11.5,22.8,11.5z M25.5,11.7L25.5,11.7c0.2,0,0.3,0.1,0.3,0.2c0,0.2,0,0.2-0.3,0.2c-0.1,0-0.2,0-0.3-0.1l0-0.1
		C25.2,11.8,25.3,11.7,25.5,11.7z M24.7,11.8c0.1,0,0.2,0.1,0.2,0.2c0,0.2-0.1,0.3-0.5,0.4c-0.2,0.1-0.5,0.1-0.5,0.1l0,0l0,0
		c-0.1-0.1,0-0.3,0.3-0.5C24.4,11.9,24.6,11.8,24.7,11.8z M26.5,11.8c0.2,0,0.2,0.1,0.1,0.4c0,0.1-0.2,0.2-0.3,0.2
		c-0.2,0-0.2,0-0.2-0.3C26.1,11.9,26.2,11.8,26.5,11.8L26.5,11.8z M23.4,12.4L23.4,12.4c0.3,0,0.1,0.5-0.2,0.7
		c-0.3,0.2-0.6,0.3-0.7,0.2l0,0l0,0l0,0l0,0l0,0v0l0,0v0C22.6,12.9,23.1,12.4,23.4,12.4z M25.7,13.4c0.1,0,0.2,0.1,0.1,0.3
		c0,0.1-0.1,0.2-0.3,0.2c-0.1,0-0.2,0-0.2,0l0,0l0,0l0,0l0,0l0,0c0-0.1,0-0.2,0.2-0.4C25.6,13.5,25.7,13.4,25.7,13.4z M24.8,13.5
		L24.8,13.5c0.2,0,0.3,0.2,0.1,0.3c-0.1,0.1-0.2,0.1-0.2,0.1l0,0l0,0c0,0-0.1,0-0.3-0.1l-0.3-0.1l0.3-0.1
		C24.6,13.5,24.7,13.5,24.8,13.5z M26.8,13.7c0.1,0,0.2,0,0.3,0.1c0.2,0.1,0.3,0.2,0.2,0.4c-0.1,0.3-0.2,0.4-0.8,0.2
		c-0.3-0.1-0.3-0.1-0.2-0.3C26.4,13.9,26.6,13.7,26.8,13.7z M22.4,13.8L22.4,13.8c0.4,0,0.5,0.1,0.3,0.3c-0.1,0.1-0.2,0.2-0.3,0.3
		c-0.1,0.1-0.2,0.1-0.3-0.1C22,14.2,22,14,22.1,13.9C22.1,13.9,22.2,13.8,22.4,13.8z M21.3,14c0.2,0,0.3,0.1,0.4,0.3l0.2,0.4
		l-0.3,0.1c-0.3,0.1-0.3,0.1-0.6-0.2c-0.1-0.2-0.2-0.3-0.2-0.4l0,0l0,0l0,0C21,14,21.1,14,21.3,14L21.3,14z M28,15.1
		c0.2,0,0.4,0.1,0.4,0.4c0,0.3-0.4,0.4-0.6,0.2c-0.2-0.1-0.2-0.2,0-0.4C27.8,15.1,27.9,15.1,28,15.1z M24.2,15.6L24.2,15.6
		L24.2,15.6L24.2,15.6l0.1,0l0,0l0,0l0,0c0,0,0,0.1,0,0.2c0,0.3-0.2,0.4-0.3,0.1C24,15.8,24,15.6,24.2,15.6z M22.9,15.8
		c0.1,0,0.2,0,0.4,0.2c0.1,0.1,0.1,0.2,0.1,0.2l0,0l0,0l0,0l0,0l0,0l0,0l0,0l0,0c-0.1,0-0.2,0-0.3-0.1c-0.1-0.1-0.2-0.2-0.2-0.3v0
		L22.9,15.8L22.9,15.8z M25,15.9l0.1,0.1c0.1,0.1,0.2,0.3,0.2,0.4c0.1,0.3-0.1,0.4-0.3,0.3c-0.3-0.2-0.4-0.4-0.2-0.7
		C24.9,15.9,24.9,15.9,25,15.9z M25.7,16.3c0.1,0,0.2,0.1,0.2,0.3c0,0.1,0,0.2,0,0.2l0,0l0,0l0,0l0,0h0h0h0h0
		c-0.1,0-0.2-0.1-0.2-0.4C25.6,16.4,25.6,16.3,25.7,16.3z M21.2,16.7c0.1,0,0.3,0,0.4,0c0.1,0,0.2,0.1,0.3,0.1l0,0l0,0v0
		c0,0.1-0.1,0.2-0.4,0.3c-0.2,0.1-0.5,0.2-0.7,0.3c-0.3,0.1-0.4,0-0.5-0.3c-0.1-0.2-0.2-0.4-0.2-0.4v0v0l0,0l0,0l0,0
		C20.2,16.8,20.8,16.7,21.2,16.7z M28.1,17.7c0.4,0,0.6,0.3,0.2,0.6c-0.3,0.2-0.7,0.2-0.9,0c-0.2-0.1-0.2-0.2,0.2-0.4
		C27.7,17.8,27.9,17.8,28.1,17.7z M29.6,18.1L29.6,18.1c0.1,0,0.2,0.1,0.3,0.2c0.2,0.2,0.2,0.2,0,0.4c-0.1,0.1-0.3,0.3-0.3,0.3h0h0
		h0h0c0,0-0.2,0-0.4-0.1c-0.2,0-0.3-0.1-0.3-0.2l0,0C28.9,18.5,29.4,18.1,29.6,18.1z M22.3,18.5L22.3,18.5c0.3,0,0.5,0.2,0.5,0.6
		c0,0.6-0.3,0.5-0.5-0.1C22.1,18.6,22.1,18.5,22.3,18.5z M24.4,18.7c0.2,0,0.6,0.1,0.6,0.2l0,0l0,0v0l0,0v0v0v0c0,0-0.1,0.2-0.2,0.4
		l-0.2,0.3l-0.1-0.4C24.3,18.9,24.3,18.7,24.4,18.7L24.4,18.7L24.4,18.7L24.4,18.7L24.4,18.7L24.4,18.7L24.4,18.7L24.4,18.7
		L24.4,18.7L24.4,18.7L24.4,18.7z M23.3,18.8l0.1,0c0.1,0,0.3,0.1,0.3,0.2c0,0.1,0,0.2,0,0.3l0,0l0,0l0,0l0,0l0,0h0
		c-0.1,0-0.2-0.1-0.2-0.3C23.3,19,23.3,18.9,23.3,18.8L23.3,18.8L23.3,18.8z"/>
</g>
</svg>
