<?xml version="1.0" encoding="utf-8"?>
<!-- Generator: Adobe Illustrator 19.1.0, SVG Export Plug-In . SVG Version: 6.00 Build 0)  -->
<svg version="1.1" id="Layer_1" xmlns="http://www.w3.org/2000/svg" xmlns:xlink="http://www.w3.org/1999/xlink" x="0px" y="0px"
	 viewBox="0 0 49.5 33.1" enable-background="new 0 0 49.5 33.1" xml:space="preserve">
<g>
	<path fill="#FFFFFF" d="M-14.6,83.2h79.5c3.1,0,5.7-2.6,5.7-5.7V-58.7c0-3.1-2.6-5.7-5.7-5.7h-79.5c-3.1,0-5.7,2.6-5.7,5.7V77.5
		C-20.3,80.6-17.7,83.2-14.6,83.2z"/>
	<path fill="none" stroke="#EDEDED" stroke-width="0.5" stroke-miterlimit="10" d="M-14.6,83.2h79.5c3.1,0,5.7-2.6,5.7-5.7V-58.7
		c0-3.1-2.6-5.7-5.7-5.7h-79.5c-3.1,0-5.7,2.6-5.7,5.7V77.5C-20.3,80.6-17.7,83.2-14.6,83.2z"/>
	<polygon fill="#FFFFFF" points="49.5,33 49.4,33 0.1,33 0.1,0.1 49.4,0 49.5,33 	"/>
	<path d="M49.4,0.1V33H0.1V0.1H49.4 M49.5,0h-0.1H0.1H0v0.1V33v0.1h0.1h49.3h0.1V33V0L49.5,0z"/>
	<rect x="0.1" y="0.1" fill="#0E8A38" width="24.7" height="32.9"/>
	<path fill="#E5251D" d="M31.9,20.7c-2.3,3.9-7.3,5.3-11.2,3c-3.9-2.3-5.3-7.3-3-11.2c2.3-3.9,7.3-5.3,11.2-3c1.3,0.7,2.3,1.8,3,3
		c-2.3-2.8-6.4-3.3-9.2-1c-2.8,2.3-3.3,6.4-1,9.2c2.3,2.8,6.4,3.3,9.2,1C31.2,21.4,31.6,21,31.9,20.7z"/>
	<polygon fill="#E5251D" points="29.4,17.5 32.2,16.5 29.4,15.6 29.4,12.6 27.6,15.1 24.8,14.1 26.5,16.5 24.8,19 27.6,18 
		29.4,20.5 	"/>
</g>
</svg>
