<?xml version="1.0" encoding="utf-8"?>
<!-- Generator: Adobe Illustrator 19.1.0, SVG Export Plug-In . SVG Version: 6.00 Build 0)  -->
<svg version="1.1" id="Layer_1" xmlns="http://www.w3.org/2000/svg" xmlns:xlink="http://www.w3.org/1999/xlink" x="0px" y="0px"
	 viewBox="0 0 43.6 33" enable-background="new 0 0 43.6 33" xml:space="preserve">
<g>
	<path fill="#FFFFFF" d="M-18.6,83.2h79.5c3.1,0,5.7-2.6,5.7-5.7V-58.7c0-3.1-2.6-5.7-5.7-5.7h-79.5c-3.1,0-5.7,2.6-5.7,5.7V77.6
		C-24.3,80.7-21.7,83.2-18.6,83.2z"/>
	<path fill="none" stroke="#EDEDED" stroke-width="0.5" stroke-miterlimit="10" d="M-18.6,83.2h79.5c3.1,0,5.7-2.6,5.7-5.7V-58.7
		c0-3.1-2.6-5.7-5.7-5.7h-79.5c-3.1,0-5.7,2.6-5.7,5.7V77.6C-24.3,80.7-21.7,83.2-18.6,83.2z"/>
	<polygon fill="#E52035" points="43.5,33 43.5,33 0.1,33 0,0.1 43.5,0 43.5,32.9 	"/>
	<path d="M43.5,0.1v32.8H0.1V0.1H43.5 M43.6,0L43.6,0H0.1H0v0.1v32.8V33h0.1h43.4h0.1v-0.1V0.1V0z"/>
	<polygon fill="#FFFFFF" points="43.5,14.1 19,14.1 19,0.1 14.2,0.1 14.2,14.1 0.1,14.1 0.1,18.9 14.2,18.9 14.2,32.9 19,32.9 
		19,18.9 43.5,18.9 	"/>
</g>
</svg>
