<?xml version="1.0" encoding="utf-8"?>
<!-- Generator: Adobe Illustrator 19.1.0, SVG Export Plug-In . SVG Version: 6.00 Build 0)  -->
<svg version="1.1" id="Layer_1" xmlns="http://www.w3.org/2000/svg" xmlns:xlink="http://www.w3.org/1999/xlink" x="0px" y="0px"
	 viewBox="0 0 49.7 33.2" enable-background="new 0 0 49.7 33.2" xml:space="preserve">
<g>
	<path fill="#FFFFFF" d="M-15,82.5h79.5c3.1,0,5.7-2.6,5.7-5.7V-59.4c0-3.1-2.6-5.7-5.7-5.7H-15c-3.1,0-5.7,2.6-5.7,5.7V76.8
		C-20.7,80-18.1,82.5-15,82.5z"/>
	<path fill="none" stroke="#EDEDED" stroke-width="0.5" stroke-miterlimit="10" d="M-15,82.5h79.5c3.1,0,5.7-2.6,5.7-5.7V-59.4
		c0-3.1-2.6-5.7-5.7-5.7H-15c-3.1,0-5.7,2.6-5.7,5.7V76.8C-20.7,80-18.1,82.5-15,82.5z"/>
	<rect x="0.1" y="0.1" fill="#FFFFFF" width="49.6" height="33"/>
	<rect x="0.1" y="0.1" fill="none" stroke="#000000" stroke-width="0.1" width="49.6" height="33"/>
	<polygon fill="#FFFFFF" points="49.6,33.1 49.6,33.1 0.1,33.1 0,16.6 0,0.1 49.6,0 49.6,16.6 49.6,33.1 	"/>
	<path d="M49.6,0.1v16.5v16.5H0.1V16.6V0.1H49.6 M49.7,0h-0.1H0.1H0v0.1v16.5v16.5v0.1h0.1h49.5h0.1v-0.1V16.6V0.1V0z"/>
	<polygon fill="#35B0E6" points="0.1,0.1 14.4,8.3 28.7,16.6 49.6,16.6 49.6,0.1 	"/>
	<rect x="0.1" y="16.6" fill="#27A737" width="49.5" height="16.5"/>
	<polygon fill="#FFFFFF" points="0.1,0.1 0.1,16.6 0.1,33.1 14.4,24.8 28.7,16.6 14.4,8.3 	"/>
	<polygon fill="#E5251D" points="9.6,13.3 10.4,15.6 12.8,15.6 10.8,17 11.6,19.3 9.6,17.9 7.7,19.3 8.4,17 6.5,15.6 8.9,15.6 	"/>
</g>
</svg>
