<?xml version="1.0" encoding="utf-8"?>
<!-- Generator: Adobe Illustrator 19.1.0, SVG Export Plug-In . SVG Version: 6.00 Build 0)  -->
<svg version="1.1" id="Layer_1" xmlns="http://www.w3.org/2000/svg" xmlns:xlink="http://www.w3.org/1999/xlink" x="0px" y="0px"
	 viewBox="0 0 46 33.2" enable-background="new 0 0 46 33.2" xml:space="preserve">
<g>
	<path fill="#FFFFFF" d="M-16.5,83H63c3.1,0,5.7-2.6,5.7-5.7V-58.8c0-3.1-2.6-5.7-5.7-5.7h-79.5c-3.1,0-5.7,2.6-5.7,5.7V77.4
		C-22.2,80.5-19.6,83-16.5,83z"/>
	<path fill="none" stroke="#EDEDED" stroke-width="0.5" stroke-miterlimit="10" d="M-16.5,83H63c3.1,0,5.7-2.6,5.7-5.7V-58.8
		c0-3.1-2.6-5.7-5.7-5.7h-79.5c-3.1,0-5.7,2.6-5.7,5.7V77.4C-22.2,80.5-19.6,83-16.5,83z"/>
	<polygon fill="#32398E" points="46,33.1 45.9,33.1 0.1,33.1 0,0.1 45.9,0 46,33.1 	"/>
	<path d="M45.9,0.1v33H0.1v-33H45.9 M46,0L46,0H0.1H0v0.1v33v0.1h0.1h45.8H46v-0.1v-33V0z"/>
	<polygon fill="#FFFFFF" points="45.9,12.9 20.3,12.9 20.3,0.1 12.9,0.1 12.9,12.9 0.1,12.9 0.1,20.3 12.9,20.3 12.9,33.1 
		20.3,33.1 20.3,20.3 45.9,20.3 	"/>
	<polygon fill="#E6302D" points="45.9,14.8 18.4,14.8 18.4,0.1 14.8,0.1 14.8,14.8 0.1,14.8 0.1,18.4 14.8,18.4 14.8,33.1 
		18.4,33.1 18.4,18.4 45.9,18.4 	"/>
</g>
</svg>
