<?xml version="1.0" encoding="utf-8"?>
<!-- Generator: Adobe Illustrator 19.1.0, SVG Export Plug-In . SVG Version: 6.00 Build 0)  -->
<svg version="1.1" id="Layer_1" xmlns="http://www.w3.org/2000/svg" xmlns:xlink="http://www.w3.org/1999/xlink" x="0px" y="0px"
	 viewBox="0 0 53 31.3" enable-background="new 0 0 53 31.3" xml:space="preserve">
<g>
	<path fill="#FFFFFF" d="M-13,81.9h79.5c3.1,0,5.7-2.6,5.7-5.7V-60c0-3.1-2.6-5.7-5.7-5.7H-13c-3.1,0-5.7,2.6-5.7,5.7V76.2
		C-18.7,79.4-16.1,81.9-13,81.9z"/>
	<path fill="none" stroke="#EDEDED" stroke-width="0.5" stroke-miterlimit="10" d="M-13,81.9h79.5c3.1,0,5.7-2.6,5.7-5.7V-60
		c0-3.1-2.6-5.7-5.7-5.7H-13c-3.1,0-5.7,2.6-5.7,5.7V76.2C-18.7,79.4-16.1,81.9-13,81.9z"/>
	<polygon fill="#31388D" points="52.9,31.2 52.9,31.2 0.1,31.2 0,0.1 52.9,0 52.9,31.2 	"/>
	<path d="M52.9,0.1v31.1H0.1V0.1H52.9 M53,0h-0.1H0.1H0v0.1v31.1v0.1h0.1h52.8H53v-0.1V0.1V0z"/>
	<rect x="0.1" y="15.6" fill="#FFFFFF" width="52.8" height="7.8"/>
	<rect x="0.1" y="18.2" fill="#E52023" width="52.8" height="2.6"/>
	<polygon fill="#FFD20B" points="19.9,10.2 19.6,11.3 18.4,11.3 19.3,11.9 19,13 19.9,12.3 20.8,13 20.5,11.9 21.4,11.3 20.2,11.3 	
		"/>
	<polygon fill="#FFD20B" points="15.3,11.7 15,12.7 13.9,12.7 14.8,13.4 14.4,14.5 15.3,13.8 16.2,14.5 15.9,13.4 16.8,12.7 
		15.7,12.7 	"/>
	<polygon fill="#FFD20B" points="12.5,15.6 12.2,16.6 11,16.6 12,17.3 11.6,18.4 12.5,17.7 13.4,18.4 13.1,17.3 14,16.6 12.9,16.6 	
		"/>
	<polygon fill="#FFD20B" points="12.5,20.4 12.2,21.4 11,21.4 12,22.1 11.6,23.2 12.5,22.5 13.4,23.2 13.1,22.1 14,21.4 12.9,21.4 	
		"/>
	<polygon fill="#FFD20B" points="15.3,24.2 15,25.3 13.9,25.3 14.8,26 14.4,27 15.3,26.4 16.2,27 15.9,26 16.8,25.3 15.7,25.3 	"/>
	<polygon fill="#FFD20B" points="19.9,25.7 19.6,26.8 18.4,26.8 19.3,27.5 19,28.5 19.9,27.9 20.8,28.5 20.5,27.5 21.4,26.8 
		20.2,26.8 	"/>
	<polygon fill="#FFD20B" points="24.5,24.2 24.1,25.3 23,25.3 23.9,26 23.5,27 24.5,26.4 25.4,27 25,26 25.9,25.3 24.8,25.3 	"/>
	<polygon fill="#FFD20B" points="27.3,15.6 26.9,16.6 25.8,16.6 26.7,17.3 26.4,18.4 27.3,17.7 28.2,18.4 27.8,17.3 28.8,16.6 
		27.6,16.6 	"/>
	<polygon fill="#FFD20B" points="27.3,20.4 26.9,21.4 25.8,21.4 26.7,22.1 26.4,23.2 27.3,22.5 28.2,23.2 27.8,22.1 28.8,21.4 
		27.6,21.4 	"/>
	<polygon fill="#FFD20B" points="24.5,11.7 24.1,12.7 23,12.7 23.9,13.4 23.5,14.5 24.5,13.8 25.4,14.5 25,13.4 25.9,12.7 
		24.8,12.7 	"/>
</g>
</svg>
