<?xml version="1.0" encoding="utf-8"?>
<!-- Generator: Adobe Illustrator 19.1.0, SVG Export Plug-In . SVG Version: 6.00 Build 0)  -->
<svg version="1.1" id="Layer_1" xmlns="http://www.w3.org/2000/svg" xmlns:xlink="http://www.w3.org/1999/xlink" x="0px" y="0px"
	 viewBox="0 0 46.2 33.1" enable-background="new 0 0 46.2 33.1" xml:space="preserve">
<g>
	<path fill="#FFFFFF" d="M-15.8,83.1h79.5c3.1,0,5.7-2.6,5.7-5.7V-58.8c0-3.1-2.6-5.7-5.7-5.7h-79.5c-3.1,0-5.7,2.6-5.7,5.7V77.4
		C-21.5,80.5-18.9,83.1-15.8,83.1z"/>
	<path fill="none" stroke="#EDEDED" stroke-width="0.5" stroke-miterlimit="10" d="M-15.8,83.1h79.5c3.1,0,5.7-2.6,5.7-5.7V-58.8
		c0-3.1-2.6-5.7-5.7-5.7h-79.5c-3.1,0-5.7,2.6-5.7,5.7V77.4C-21.5,80.5-18.9,83.1-15.8,83.1z"/>
	<polygon fill="#E52826" points="46.2,33 46.1,33 0.1,33 0.1,0.1 46.1,0 46.2,33 	"/>
	<path d="M46.1,0.1V33h-46V0.1H46.1 M46.2,0h-0.1h-46H0v0.1V33v0.1h0.1h46h0.1V33V0L46.2,0z"/>
	<path d="M32.2,21c-0.1-0.1-0.2-0.1-0.3-0.1c-0.1,0-0.3,0-0.3-0.1c-0.2-0.1-0.4-0.1-0.6,0.1C30.9,21,30.8,21,30.4,21
		c-0.6,0.1-0.8,0.1-0.8,0c0,0,0.2-0.1,0.3-0.3c0.3-0.2,0.4-0.2,0.5-0.2c0.2,0,0.4-0.1,0.6-0.2c0.2-0.2,0.2-0.2,0.6-0.2
		c0.1,0,0,0,0.2,0c-0.1-0.2-0.3-0.4-0.7-0.3c-0.2,0-0.3,0-0.3,0c-0.2-0.1-0.6,0.1-0.7,0.3c-0.1,0.1-0.3,0.3-0.7,0.6L29,21l-0.6-0.2
		c-0.7-0.3-1.2-0.5-1.2-0.6c0,0,0.1-0.1,0.2-0.2c0.1-0.1,0.2-0.2,0.2-0.2s-0.1-0.1-0.3-0.2c-0.9-0.5-1.6-1.1-1.9-1.9
		c-0.2-0.5-0.1-0.7,0.1-0.2c0.2,0.4,0.3,0.6,0.6,0.7c0.3,0.2,0.5,0.2,0.6,0.1c0.1-0.1,0.1-0.3-0.1-0.5c-0.4-0.5-0.5-1.2-0.2-1.2
		c0.1,0,0.1,0,0.4,0.6c0.4,0.8,0.7,1.4,1,1.6c0.3,0.1,0.7,0,0.7-0.2c0.1-0.2,0-0.3-0.3-0.5c-0.4-0.3-0.7-0.8-0.9-1.4
		c0-0.2,0-0.3,0-0.3c0.1-0.2,0.2-0.1,0.5,0.3c0.5,0.8,1.5,1.9,1.9,2.1c0.7,0.4,1.4,0.4,1.9,0c0.1-0.1,0.2-0.2,0.2-0.3
		c0-0.2-0.1-0.3-0.5-0.3c-0.7,0-0.8,0-1.1-0.1c-0.6-0.3-1.1-0.9-1.5-1.8c-0.4-0.8-0.3-0.9,0.4-0.2c0.9,0.9,1.7,1.3,2.3,1.1
		c0.3-0.1,0.6-0.4,0.6-0.6c0-0.2-0.1-0.3-0.5-0.3c-0.2,0-0.5,0-0.7,0c-0.3,0-0.4,0-0.7-0.1c-0.2-0.1-0.4-0.3-0.6-0.4
		c-0.4-0.4-1.2-1.4-1.2-1.6c0-0.2,0.2-0.1,0.6,0.3c0.4,0.3,1,0.8,1.3,0.9c0.2,0.1,0.3,0.1,0.6,0.1c0.3,0,0.4,0,0.6-0.1
		c0.3-0.1,0.4-0.3,0.4-0.6c0-0.4-0.2-0.5-0.8-0.4c-0.8,0.2-1.3,0.1-2.1-0.7c-0.4-0.4-0.5-0.6-0.5-0.7c0-0.1,0.2-0.1,0.9,0.3
		c0.8,0.4,1,0.5,1.4,0.5c0.3,0,0.5-0.1,0.7-0.2c0.3-0.3,0.4-0.6,0.2-0.7c-0.2-0.2-0.4-0.1-0.8,0c-0.2,0.1-0.3,0.1-0.5,0.2
		c-0.5,0-1.3-0.2-1.7-0.6c-0.3-0.3-0.4-0.5-0.3-0.6c0.1-0.1,0.2-0.1,0.5,0.1c0.6,0.2,0.8,0.3,1.3,0.3c0.5,0,0.8-0.1,1.2-0.3
		c0.3-0.2,0.5-0.4,0.5-0.6l-0.1-0.3c-0.1-0.2-0.3-0.2-0.8,0c-0.8,0.4-1.4,0.5-1.9,0.2c-0.2-0.1-0.6-0.5-0.8-0.7
		c-0.1-0.1-0.1-0.1,0-0.2c0.1-0.1,0.1-0.1,0.8,0.2c0.3,0.1,0.5,0.1,0.8,0.2c0.5,0,0.8,0,1.1-0.2c0.4-0.2,0.9-0.7,0.9-1
		c0-0.2-0.1-0.4-0.2-0.4c-0.2-0.1-0.3,0-0.6,0.3c-0.4,0.5-0.9,0.6-1.6,0.6c-0.7,0-1.1-0.1-1.1-0.4c0-0.2,0.1-0.3,0.5-0.4
		c0.9-0.2,2-0.6,2.6-1.2c0.3-0.3,0.5-0.5,0.5-0.8c0-0.3-0.1-0.5-0.4-0.6c-0.2-0.1-0.4,0-0.6,0.4C31,7.7,30.7,8,30,8.4
		c-0.4,0.2-1.1,0.4-1.2,0.4c0,0-0.1-0.1-0.1-0.2c-0.1-0.3-0.1-0.3-0.5-0.1c-0.2,0.1-0.6,0.3-1,0.4c-0.6,0.2-0.9,0.4-1,0.7
		c-0.1,0.1-0.1,0.2-0.1,0.7c0,0.5,0,0.5-0.1,0.7c-0.1,0.2-0.2,0.2-0.5,0.2c-0.4,0-0.6-0.2-0.6-0.7c0-0.4,0-0.7,0.2-1
		c0.2-0.4,0.4-0.6,0.8-0.9c0.4-0.2,0.7-0.4,1.2-0.4c0.5,0,0.9-0.2,1.1-0.5c-0.5,0.1-1-0.1-0.9-0.1c0,0,0.9,0,1,0
		c0.4,0,0.5-0.1,0.7-0.3c0.2-0.2,0.4-0.3,0.3-0.4c-0.1-0.1-0.2-0.1-0.3,0l-0.2,0.3c-0.1,0.2-0.2,0.2-0.6,0.2c-0.3,0-0.4,0-0.5,0
		l-0.1-0.1c0-0.1,0.2-0.2,0.3-0.2c0.1,0,0.4,0.1,0.6,0.1c0-0.1,0-0.1-0.1-0.3c-0.1-0.2-0.3-0.3-0.7-0.3c-0.3,0-0.4,0-0.5-0.1
		l-0.2-0.1c-0.1,0-0.1,0-0.2,0c-0.3,0-0.7,0.1-1.2,0.3c-0.2,0.1-0.3,0.1-0.6,0.1c-0.2,0-0.4,0-0.5,0c-0.3-0.1-0.4-0.1-0.4,0
		c0,0.1,0.3,0.3,0.5,0.4c0.1,0.1,0.2,0.1,0.1,0.1c0,0.1-0.4,0.3-0.5,0.4c-0.2,0.1-0.2,0.2,0,0.3c0.1,0,0.2,0.1,0.2,0.1
		c0,0.1-0.4,0.4-0.6,0.4c-0.2,0-0.1,0.2,0.1,0.2c0.1,0,0.1,0,0,0.2c-0.1,0.2-0.3,0.2-0.4,0.2c-0.2,0-0.2,0-0.1,0.2
		c0.1,0.1,0.1,0.1,0,0.2l-0.2,0.1l-0.2-0.1c-0.1-0.1-0.1-0.1,0-0.2C23,9.1,23,9.1,22.8,9.1c-0.1,0-0.3,0-0.4-0.2
		c-0.1-0.1-0.1-0.2,0-0.2c0.3-0.1,0.3-0.2,0.1-0.2c-0.2,0-0.6-0.3-0.6-0.4C22,8.1,22,8,22.1,8c0.2-0.1,0.2-0.2,0-0.3
		c-0.2-0.1-0.5-0.3-0.5-0.4c0,0,0-0.1,0.1-0.1c0.2-0.1,0.5-0.4,0.5-0.4c0-0.1-0.1-0.1-0.4,0c-0.1,0-0.3,0-0.5,0
		c-0.2,0-0.3,0-0.6-0.1c-0.4-0.2-0.9-0.3-1.2-0.3c-0.1,0-0.2,0-0.2,0l-0.2,0.1c-0.1,0.1-0.2,0.1-0.5,0.1c-0.4,0-0.6,0.1-0.7,0.3
		C18,7.1,18,7.1,17.9,7.2c0.2-0.1,0.5-0.1,0.6-0.1c0.2,0,0.3,0.1,0.3,0.2l-0.1,0.1c-0.2,0-0.2,0-0.5,0c-0.4-0.1-0.4-0.1-0.6-0.2
		l-0.2-0.3c-0.1-0.1-0.3-0.2-0.3,0C17,7,17.1,7.1,17.3,7.3c0.2,0.1,0.3,0.2,0.7,0.3c0.1,0,1,0,1,0c0,0-0.4,0.2-0.9,0.1
		c0.1,0.2,0.6,0.4,1.1,0.5c0.5,0.1,0.9,0.2,1.2,0.4C20.8,8.8,21,9,21.2,9.4c0.2,0.4,0.2,0.7,0.2,1c0,0.4-0.2,0.7-0.6,0.7
		c-0.3,0-0.4-0.1-0.5-0.2c-0.1-0.1-0.1-0.2-0.1-0.7c0-0.4,0-0.5-0.1-0.7c-0.2-0.3-0.4-0.4-1-0.7c-0.3-0.1-0.7-0.3-1-0.4
		c-0.4-0.2-0.4-0.2-0.5,0.1c0,0.1-0.1,0.2-0.1,0.2c-0.1,0-0.8-0.2-1.2-0.4c-0.7-0.4-1.1-0.7-1.4-1.2c-0.2-0.3-0.4-0.4-0.6-0.4
		c-0.2,0.1-0.4,0.3-0.4,0.6c0,0.3,0.1,0.5,0.5,0.8c0.6,0.5,1.6,1,2.6,1.2c0.3,0,0.5,0.2,0.5,0.4c0,0.3-0.3,0.4-1,0.4
		c-0.7,0-1.1-0.2-1.6-0.6c-0.3-0.3-0.4-0.3-0.6-0.3c-0.1,0-0.2,0.2-0.2,0.4c0,0.3,0.4,0.8,0.8,1c0.3,0.2,0.6,0.2,1.1,0.2
		c0.4,0,0.5,0,0.8-0.2c0.6-0.2,0.7-0.2,0.8-0.2c0.1,0.1,0.1,0.1,0,0.2c-0.1,0.2-0.5,0.6-0.8,0.7c-0.6,0.3-1.1,0.2-1.9-0.2
		c-0.4-0.2-0.6-0.2-0.8,0L14,11.4c0,0.2,0.2,0.4,0.5,0.6c0.4,0.2,0.7,0.3,1.2,0.3c0.4,0,0.7-0.1,1.3-0.3c0.3-0.1,0.4-0.1,0.5-0.1
		c0.1,0.1-0.1,0.3-0.3,0.6c-0.4,0.4-1.2,0.7-1.7,0.6c-0.2,0-0.3-0.1-0.5-0.2c-0.3-0.2-0.6-0.2-0.8,0c-0.2,0.2-0.1,0.5,0.2,0.7
		c0.2,0.2,0.4,0.2,0.7,0.2c0.4,0,0.6-0.1,1.4-0.5c0.7-0.4,0.9-0.4,0.9-0.3c0.1,0.1-0.1,0.3-0.5,0.7c-0.8,0.8-1.2,0.9-2.1,0.7
		c-0.6-0.2-0.8,0-0.8,0.4c0,0.3,0.1,0.4,0.4,0.6c0.2,0.1,0.3,0.1,0.6,0.1c0.3,0,0.4,0,0.6-0.1c0.3-0.1,1-0.6,1.3-0.9
		c0.5-0.4,0.6-0.5,0.6-0.3c0,0.2-0.7,1.2-1.2,1.6c-0.2,0.2-0.4,0.3-0.6,0.4c-0.3,0.1-0.3,0.1-0.7,0.1c-0.2,0-0.5,0-0.7,0
		c-0.4,0-0.5,0-0.5,0.3c0,0.2,0.3,0.5,0.6,0.6c0.7,0.2,1.4-0.1,2.3-1.1c0.7-0.7,0.8-0.7,0.4,0.2c-0.4,0.9-1,1.5-1.5,1.8
		c-0.3,0.1-0.4,0.1-1.1,0.1c-0.3,0-0.5,0.1-0.5,0.3c0,0.1,0,0.2,0.2,0.3c0.4,0.4,1.1,0.4,1.9,0c0.4-0.2,1.4-1.3,1.9-2.1
		c0.3-0.4,0.4-0.5,0.5-0.3c0.1,0.1,0.1,0.1,0,0.3c-0.1,0.6-0.4,1.1-0.9,1.4c-0.3,0.2-0.4,0.3-0.3,0.5c0.1,0.2,0.5,0.3,0.7,0.2
		c0.3-0.2,0.7-0.7,1-1.6c0.3-0.6,0.3-0.6,0.4-0.6c0.3,0,0.2,0.7-0.2,1.2c-0.2,0.2-0.2,0.4-0.1,0.5c0.1,0.1,0.3,0.1,0.6-0.1
		c0.3-0.2,0.4-0.3,0.6-0.7c0.2-0.5,0.3-0.4,0.1,0.2c-0.3,0.8-1,1.4-1.9,1.9c-0.1,0.1-0.3,0.1-0.3,0.2s0.1,0.1,0.2,0.2
		c0.1,0.1,0.2,0.2,0.2,0.2c0,0-0.6,0.3-1.2,0.6L17.2,21l-0.3-0.2c-0.4-0.3-0.7-0.5-0.7-0.6c-0.1-0.3-0.4-0.4-0.7-0.3
		c-0.1,0-0.2,0-0.3,0c-0.4-0.1-0.6,0.2-0.6,0.3c0.1,0,0.1,0,0.2,0c0.4,0,0.4,0,0.6,0.2c0.2,0.2,0.4,0.3,0.6,0.2c0.1,0,0.2,0,0.5,0.2
		c0.2,0.1,0.3,0.2,0.3,0.3c0,0-0.2,0-0.8,0c-0.4,0-0.5,0-0.6-0.1c-0.2-0.1-0.4-0.2-0.6-0.1c-0.1,0-0.2,0.1-0.3,0.1
		c-0.1,0-0.2,0-0.3,0.1c-0.1,0.1-0.2,0.1-0.3,0.3c0.2,0,0.2,0,0.3,0c0.3,0,0.3,0,0.4,0l0.2,0.1c0.1,0.1,0.4,0.1,0.6,0
		c0.1,0,0.3-0.1,0.7-0.1c0.3,0,0.6,0,0.7,0c0,0-0.1,0.1-0.3,0.2c-0.3,0.2-0.4,0.2-0.6,0.2c-0.4,0-0.6,0.1-0.6,0.3
		c0,0.1-0.1,0.2-0.1,0.3c-0.1,0.2-0.1,0.3,0.1,0.6c0.2-0.4,0.1-0.3,0.2-0.4c0.1-0.1,0.1-0.1,0.3-0.2c0.3,0,0.4-0.1,0.5-0.3
		c0.1-0.2,0.1-0.2,0.5-0.5c0.5-0.3,0.5-0.3,1.1,0c0.3,0.1,0.4,0.2,0.5,0.3c0.1,0.2,0.3,0.2,0.5,0.2c0.2-0.1,0.3,0,0.4,0.2l0.1,0.1
		c0-0.1,0-0.1,0-0.3c0-0.2,0-0.2-0.2-0.4c-0.3-0.3-0.4-0.3-0.6-0.3c-0.1,0-0.2,0-0.4-0.1c-0.3-0.1-0.3-0.2-0.2-0.2
		c0,0,0.4-0.2,0.9-0.3l0.8-0.3l0.1,0.1c0.2,0.2,0.6,0.3,0.8,0.3c0.1,0,0.2,0,0.2-0.2c0.1-0.2,0.6-1.2,0.8-1.6
		c0.4-0.7,0.7-0.9,0.9-0.6c0.1,0.1,0.1,0.2,0.1,0.4c0,0.8-0.4,1.8-1,2.3c-0.3,0.3-0.6,0.5-1,0.5c-0.3,0-0.5,0.1-0.5,0.2
		c0,0.1,0.2,0.3,0.3,0.4c0.1,0.1,0.2,0.1,0.5,0.1c0.3,0,0.3,0,0.6-0.2c0.3-0.2,0.3-0.2,0.4-0.1c0.1,0.1,0.1,0.1,0,0.2
		c-0.1,0.3-0.3,0.5-0.9,0.5c-0.6,0.1-0.7,0.2-0.6,0.5c0.1,0.2,0.3,0.3,0.6,0.3c0.3,0,0.6-0.1,1-0.5c0.2-0.1,0.3-0.3,0.3-0.2
		c0.1,0,0.1,0.4,0,0.6c-0.1,0.2-0.3,0.5-0.5,0.6c-0.1,0-0.2,0.1-0.4,0.1c-0.5,0.1-0.5,0.3-0.2,0.5c0.2,0.1,0.6,0.2,0.8,0
		c0.2-0.1,0.6-0.5,0.7-0.7c0.1-0.1,0.2,0,0.1,0.2c0,0.2-0.1,0.4-0.3,0.7c-0.2,0.3-0.1,0.6,0.2,1c0.2,0.3,0.3,0.4,0.4,0.5v0l0.1,0
		c0.1,0,0.3-0.3,0.5-0.6c0.3-0.5,0.4-0.8,0.2-1c-0.2-0.3-0.3-0.5-0.3-0.7c0-0.2,0.1-0.3,0.1-0.2c0.1,0.2,0.5,0.6,0.7,0.7
		c0.3,0.1,0.6,0.1,0.8,0c0.3-0.2,0.3-0.4-0.2-0.5c-0.1,0-0.3-0.1-0.4-0.1c-0.2-0.1-0.4-0.4-0.5-0.6c-0.1-0.2-0.1-0.5,0-0.6
		c0,0,0.2,0.1,0.3,0.2c0.4,0.4,0.7,0.5,1,0.5c0.3,0,0.5-0.1,0.6-0.3c0.2-0.3,0-0.4-0.6-0.5c-0.5-0.1-0.8-0.2-0.9-0.5
		c0-0.2,0-0.2,0-0.2c0.1-0.1,0.1,0,0.4,0.1c0.3,0.2,0.3,0.2,0.6,0.2c0.2,0,0.3,0,0.5-0.1c0.1-0.1,0.3-0.3,0.3-0.4
		c0-0.1-0.2-0.2-0.5-0.2c-0.4-0.1-0.7-0.2-1-0.5c-0.6-0.6-1-1.6-1-2.3c0-0.3,0-0.3,0.1-0.4c0.2-0.2,0.4,0,0.9,0.6
		c0.3,0.4,0.8,1.3,0.8,1.6c0,0.1,0.1,0.2,0.2,0.2c0.2,0,0.5-0.2,0.8-0.3l0.1-0.1l0.8,0.3c0.5,0.2,0.9,0.3,0.9,0.3
		c0.1,0,0,0.1-0.2,0.2c-0.2,0.1-0.3,0.1-0.4,0.1c-0.2-0.1-0.3,0-0.6,0.3C27,22,27,22.1,27,22.2c0,0.1,0,0.1,0,0.3l0.1-0.1
		c0.1-0.2,0.2-0.2,0.4-0.2c0.2,0.1,0.4,0,0.5-0.2c0.1-0.1,0.2-0.2,0.5-0.3c0.6-0.3,0.6-0.3,1.1,0c0.4,0.2,0.5,0.3,0.5,0.5
		c0.1,0.2,0.2,0.3,0.5,0.3c0.2,0,0.2,0,0.3,0.2c0.1,0.1,0,0,0.2,0.4c0.2-0.4,0.1-0.4,0.1-0.6c0-0.1-0.1-0.2-0.1-0.3
		c-0.1-0.2-0.3-0.3-0.6-0.3c-0.3,0-0.3,0-0.6-0.2c-0.2-0.1-0.3-0.2-0.3-0.2c0,0,0.3,0,0.7,0c0.5,0,0.7,0,0.7,0.1
		c0.1,0.1,0.4,0.1,0.6,0l0.2-0.1c0.1-0.1,0.1-0.1,0.4,0c0.2,0,0.1,0,0.3,0C32.4,21.1,32.3,21.1,32.2,21z M26.2,7.2
		C26.3,7.2,26.1,7,26.3,7l0.2,0c0.1,0,0.2,0.2,0.1,0.3l-0.6,0C25.8,6.9,26.1,7.3,26.2,7.2z M20.3,7.4l-0.6,0c-0.1-0.1,0-0.2,0.1-0.3
		L20,7c0.2,0,0,0.2,0.1,0.2C20.2,7.3,20.5,6.9,20.3,7.4z"/>
</g>
</svg>
