<?xml version="1.0" encoding="utf-8"?>
<!-- Generator: Adobe Illustrator 19.1.0, SVG Export Plug-In . SVG Version: 6.00 Build 0)  -->
<svg version="1.1" id="Layer_1" xmlns="http://www.w3.org/2000/svg" xmlns:xlink="http://www.w3.org/1999/xlink" x="0px" y="0px"
	 viewBox="0 0 52.8 28.5" enable-background="new 0 0 52.8 28.5" xml:space="preserve">
<g>
	<path fill="#FFFFFF" d="M-13.4,80.6h79.5c3.1,0,5.7-2.6,5.7-5.7V-61.3c0-3.1-2.6-5.7-5.7-5.7h-79.5c-3.1,0-5.7,2.6-5.7,5.7V74.9
		C-19,78.1-16.5,80.6-13.4,80.6z"/>
	<path fill="none" stroke="#EDEDED" stroke-width="0.5" stroke-miterlimit="10" d="M-13.4,80.6h79.5c3.1,0,5.7-2.6,5.7-5.7V-61.3
		c0-3.1-2.6-5.7-5.7-5.7h-79.5c-3.1,0-5.7,2.6-5.7,5.7V74.9C-19,78.1-16.5,80.6-13.4,80.6z"/>
	<rect x="0.1" y="0.1" fill="#E5251D" width="52.6" height="9.4"/>
	<rect x="0.1" y="9.5" fill="#393289" width="52.6" height="9.5"/>
	<polygon fill="#F4971B" points="52.7,28.4 0.1,28.4 0.1,19 52.7,19 	"/>
	<rect x="0.1" y="0.1" fill="#E5251D" width="52.6" height="9.4"/>
	<rect x="0.1" y="9.5" fill="#393289" width="52.6" height="9.5"/>
	<polygon fill="#F4971B" points="52.7,28.4 0.1,28.4 0.1,19 52.7,19 	"/>
	<polygon fill="#E5251D" points="52.8,28.5 52.7,28.5 0.1,28.5 0.1,0.1 52.7,0 52.8,28.4 	"/>
	<path d="M52.7,0.1v28.3H0.1V0.1H52.7 M52.8,0h-0.1H0.1H0v0.1v28.3v0.1h0.1h52.6h0.1v-0.1V0.1V0z"/>
	<rect x="0.1" y="9.5" fill="#393289" width="52.6" height="9.5"/>
	<polygon fill="#F4971B" points="52.7,28.4 0.1,28.4 0.1,19 52.7,19 	"/>
</g>
</svg>
