<?xml version="1.0" encoding="utf-8"?>
<!-- Generator: Adobe Illustrator 19.1.0, SVG Export Plug-In . SVG Version: 6.00 Build 0)  -->
<svg version="1.1" id="Layer_1" xmlns="http://www.w3.org/2000/svg" xmlns:xlink="http://www.w3.org/1999/xlink" x="0px" y="0px"
	 viewBox="0 0 49.7 33.2" enable-background="new 0 0 49.7 33.2" xml:space="preserve">
<g>
	<path fill="#FFFFFF" d="M-15.2,83h79.5c3.1,0,5.7-2.6,5.7-5.7V-58.9c0-3.1-2.6-5.7-5.7-5.7h-79.5c-3.1,0-5.7,2.6-5.7,5.7V77.3
		C-20.9,80.4-18.4,83-15.2,83z"/>
	<path fill="none" stroke="#EDEDED" stroke-width="0.5" stroke-miterlimit="10" d="M-15.2,83h79.5c3.1,0,5.7-2.6,5.7-5.7V-58.9
		c0-3.1-2.6-5.7-5.7-5.7h-79.5c-3.1,0-5.7,2.6-5.7,5.7V77.3C-20.9,80.4-18.4,83-15.2,83z"/>
	<polygon fill="#FFFFFF" points="49.7,33.2 49.6,33.2 0.1,33.2 0,0.1 49.6,0 49.7,33.1 	"/>
	<path d="M49.6,0.1v33H0.1v-33H49.6 M49.7,0L49.7,0H0.1H0v0.1v33v0.1h0.1h49.5h0.1v-0.1V0L49.7,0z"/>
	<polygon fill="#17A3DE" points="0.1,33.1 49.6,33.1 49.6,0.1 	"/>
	<polygon fill="#2FA83A" points="0.1,0.1 49.6,0.1 0.1,33.1 	"/>
	<polygon fill="#FFD20B" points="0.1,25.2 37.8,0.1 49.6,0.1 49.6,8.2 12.2,33.1 0.1,33.1 	"/>
	<polygon points="0.1,27.9 0.1,33.1 8.4,33.1 49.6,5.7 49.6,0.1 41.5,0.1 	"/>
</g>
</svg>
