<?xml version="1.0" encoding="utf-8"?>
<!-- Generator: Adobe Illustrator 19.1.0, SVG Export Plug-In . SVG Version: 6.00 Build 0)  -->
<svg version="1.1" id="Layer_1" xmlns="http://www.w3.org/2000/svg" xmlns:xlink="http://www.w3.org/1999/xlink" x="0px" y="0px"
	 viewBox="0 0 53 26.6" enable-background="new 0 0 53 26.6" xml:space="preserve">
<g>
	<path fill="#FFFFFF" d="M-13,79.7h79.5c3.1,0,5.7-2.6,5.7-5.7V-62.2c0-3.1-2.6-5.7-5.7-5.7H-13c-3.1,0-5.7,2.6-5.7,5.7V74.1
		C-18.7,77.2-16.2,79.7-13,79.7z"/>
	<path fill="none" stroke="#EDEDED" stroke-width="0.5" stroke-miterlimit="10" d="M-13,79.7h79.5c3.1,0,5.7-2.6,5.7-5.7V-62.2
		c0-3.1-2.6-5.7-5.7-5.7H-13c-3.1,0-5.7,2.6-5.7,5.7V74.1C-18.7,77.2-16.2,79.7-13,79.7z"/>
	<polygon fill="#00ADD0" points="52.9,26.5 52.9,26.5 0.1,26.5 0,0.1 52.9,0.1 52.9,26.5 	"/>
	<path d="M52.9,0.1v26.4H0.1V0.1H52.9 M53,0L53,0H0.1H0v0.1v26.4v0.1h0.1h52.8H53v-0.1V0.1V0z"/>
	<rect x="0.1" y="8.9" fill="#FFE129" width="52.8" height="8.8"/>
	<polygon points="0.1,0.1 0.1,26.5 23,13.3 	"/>
</g>
</svg>
