<?xml version="1.0" encoding="utf-8"?>
<!-- Generator: Adobe Illustrator 19.1.0, SVG Export Plug-In . SVG Version: 6.00 Build 0)  -->
<svg version="1.1" id="Layer_1" xmlns="http://www.w3.org/2000/svg" xmlns:xlink="http://www.w3.org/1999/xlink" x="0px" y="0px"
	 viewBox="0 0 49.7 33.2" enable-background="new 0 0 49.7 33.2" xml:space="preserve">
<g>
	<path fill="#FFFFFF" d="M-15,82.5h79.5c3.1,0,5.7-2.6,5.7-5.7V-59.4c0-3.1-2.6-5.7-5.7-5.7H-15c-3.1,0-5.7,2.6-5.7,5.7V76.8
		C-20.7,79.9-18.2,82.5-15,82.5z"/>
	<path fill="none" stroke="#EDEDED" stroke-width="0.5" stroke-miterlimit="10" d="M-15,82.5h79.5c3.1,0,5.7-2.6,5.7-5.7V-59.4
		c0-3.1-2.6-5.7-5.7-5.7H-15c-3.1,0-5.7,2.6-5.7,5.7V76.8C-20.7,79.9-18.2,82.5-15,82.5z"/>
	<polygon fill="#FFFFFF" points="49.6,33.1 49.6,33.1 0.1,33.1 0,22.1 0,16.6 0,11.1 0,0.1 49.6,0 49.6,11.1 49.6,16.6 49.6,22.1 
		49.6,33.1 	"/>
	<path d="M49.6,0.1v11v5.5v5.5v11H0.1v-11v-5.5v-5.5v-11H49.6 M49.7,0L49.7,0H0.1H0v0.1v11v5.5v5.5v11v0.1h0.1h49.5h0.1v-0.1v-11
		v-5.5v-5.5V0L49.7,0z"/>
	<polygon fill="#FFFFFF" points="0.1,0.1 0.1,11.1 0.1,16.6 0.1,22.1 0.1,33.1 49.6,33.1 49.6,22.1 49.6,16.6 49.6,11.1 49.6,0.1 	
		"/>
	<polygon fill="none" stroke="#000000" stroke-width="0.1" points="0.1,0.1 0.1,11.1 0.1,16.6 0.1,22.1 0.1,33.1 49.6,33.1 
		49.6,22.1 49.6,16.6 49.6,11.1 49.6,0.1 	"/>
	<rect x="0.1" y="0.1" width="49.5" height="16.5"/>
	<rect x="0.1" y="16.6" fill="#00A439" width="49.5" height="16.5"/>
	<rect x="0.1" y="11.1" fill="#E52023" width="49.5" height="11"/>
	<path fill="#E52023" d="M24.8,5.5c-3.1,0-5.7,2-6.7,4.7h13.4C30.5,7.5,27.9,5.5,24.8,5.5z"/>
	<path fill="#E52023" d="M24.8,1.4c-0.2,0-0.3,0.4-0.3,0.7c0,0.9,0.1,1.3,0.3,2.6c0.2-1.3,0.3-1.7,0.3-2.6
		C25.2,1.8,25.1,1.4,24.8,1.4z M23.9,1.5c-0.2,0-0.3,0.4-0.3,0.7c0.1,0.9,0.2,1.3,0.6,2.5c0.1-1.3,0.2-1.7,0.1-2.6
		C24.2,1.8,24.1,1.4,23.9,1.5z M25.8,1.5c-0.2,0-0.4,0.3-0.4,0.7c-0.1,0.9,0,1.3,0.1,2.6c0.3-1.2,0.5-1.7,0.6-2.5
		C26.1,1.8,26,1.5,25.8,1.5z M22.9,1.6L22.9,1.6c-0.3,0-0.3,0.4-0.2,0.8c0.1,0.8,0.3,1.3,0.8,2.5c0-1.3,0-1.8-0.1-2.6
		C23.3,1.9,23.1,1.6,22.9,1.6z M26.7,1.6c-0.2,0-0.3,0.3-0.4,0.6c-0.1,0.8-0.1,1.3-0.1,2.6c0.4-1.2,0.6-1.6,0.8-2.5
		C27,2,27,1.6,26.7,1.6L26.7,1.6z M22,1.8L22,1.8c-0.3,0.1-0.3,0.4-0.2,0.8c0.2,0.8,0.4,1.2,1,2.4c-0.1-1.3-0.1-1.7-0.4-2.6
		C22.3,2.1,22.2,1.8,22,1.8z M27.7,1.8c-0.2,0-0.4,0.3-0.5,0.6C27,3.2,27,3.7,26.9,5c0.5-1.2,0.8-1.6,1-2.4C28,2.2,28,1.9,27.7,1.8
		L27.7,1.8z M21.1,2.1L21.1,2.1c-0.3,0.1-0.3,0.5-0.1,0.8c0.3,0.8,0.5,1.2,1.2,2.3c-0.2-1.3-0.3-1.7-0.6-2.5
		C21.4,2.4,21.3,2.1,21.1,2.1z M28.6,2.1c-0.2,0-0.4,0.3-0.5,0.6c-0.3,0.8-0.4,1.3-0.6,2.5c0.6-1.1,0.9-1.5,1.2-2.3
		C28.8,2.5,28.9,2.2,28.6,2.1L28.6,2.1z M20.2,2.4L20.2,2.4c-0.3,0.1-0.2,0.5-0.1,0.8c0.4,0.8,0.6,1.1,1.4,2.2
		c-0.3-1.2-0.4-1.7-0.8-2.5C20.6,2.7,20.4,2.4,20.2,2.4z M29.5,2.4c-0.2,0-0.4,0.2-0.5,0.5c-0.4,0.8-0.5,1.2-0.8,2.5
		c0.7-1.1,1-1.4,1.4-2.2C29.7,2.9,29.8,2.6,29.5,2.4L29.5,2.4z M19.3,2.9L19.3,2.9c-0.3,0.1-0.2,0.5,0,0.8c0.4,0.7,0.7,1.1,1.6,2.1
		c-0.4-1.2-0.6-1.7-1-2.4C19.7,3.1,19.5,2.9,19.3,2.9z M30.3,2.9c-0.2,0-0.4,0.2-0.5,0.5c-0.4,0.7-0.6,1.2-1,2.4
		c0.8-1,1.1-1.3,1.6-2.1c0.2-0.3,0.3-0.7,0.1-0.8L30.3,2.9z M18.5,3.4l-0.1,0c-0.2,0.1-0.1,0.5,0.1,0.8c0.5,0.7,0.8,1,1.7,1.9
		c-0.5-1.2-0.7-1.6-1.2-2.3C18.9,3.6,18.7,3.4,18.5,3.4z M31.1,3.4c-0.2,0-0.4,0.2-0.6,0.4c-0.5,0.7-0.7,1.1-1.2,2.3
		c0.9-0.9,1.3-1.2,1.7-1.9c0.2-0.3,0.3-0.6,0.1-0.8L31.1,3.4z M17.7,4L17.6,4c-0.2,0.2,0,0.5,0.2,0.8c0.6,0.7,0.9,0.9,1.9,1.8
		c-0.6-1.1-0.9-1.5-1.4-2.2C18.1,4.2,17.9,4,17.7,4z M31.9,4c-0.2,0-0.4,0.2-0.6,0.4c-0.6,0.7-0.8,1.1-1.4,2.2
		c1-0.8,1.4-1.1,1.9-1.8C32.1,4.5,32.2,4.2,32,4L31.9,4z M17.1,4.6l-0.2,0.1c-0.2,0.2,0,0.5,0.3,0.7c0.6,0.6,1,0.9,2.1,1.6
		c-0.7-1.1-1-1.5-1.6-2.1C17.4,4.8,17.2,4.6,17.1,4.6z M32.6,4.6c-0.2,0-0.4,0.1-0.6,0.3c-0.6,0.6-0.9,1-1.6,2.1
		c1.1-0.7,1.5-1,2.1-1.6c0.3-0.3,0.4-0.6,0.3-0.7L32.6,4.6z M16.4,5.3l-0.2,0.1c-0.2,0.2,0.1,0.5,0.3,0.7c0.7,0.6,1.1,0.8,2.2,1.4
		c-0.8-1-1.1-1.4-1.8-1.9C16.8,5.5,16.6,5.3,16.4,5.3z M33.2,5.3c-0.2,0-0.4,0.1-0.6,0.3c-0.7,0.6-0.9,0.9-1.8,1.9
		c1.1-0.6,1.5-0.9,2.2-1.4c0.3-0.2,0.5-0.5,0.3-0.7L33.2,5.3z M15.8,6.1l-0.2,0.1c-0.1,0.2,0.1,0.5,0.4,0.7c0.7,0.5,1.1,0.7,2.3,1.2
		c-0.9-0.9-1.2-1.3-1.9-1.7C16.2,6.2,16,6.1,15.8,6.1z M33.8,6.1c-0.2,0-0.4,0.1-0.5,0.2c-0.7,0.5-1,0.8-1.9,1.7
		c1.2-0.5,1.6-0.7,2.3-1.2c0.3-0.2,0.5-0.5,0.4-0.7C34,6.1,33.9,6.1,33.8,6.1z M15.3,6.9c-0.1,0-0.2,0-0.2,0.1
		c-0.1,0.2,0.1,0.5,0.5,0.6c0.7,0.4,1.2,0.6,2.4,1c-1-0.8-1.3-1.1-2.1-1.6C15.7,7,15.5,6.9,15.3,6.9z M34.3,6.9
		c-0.2,0-0.4,0.1-0.6,0.2c-0.7,0.4-1.1,0.7-2.1,1.6c1.2-0.4,1.7-0.6,2.4-1c0.3-0.2,0.6-0.4,0.5-0.6C34.5,6.9,34.4,6.9,34.3,6.9z
		 M15,7.8c-0.1,0-0.3,0-0.3,0.1c-0.1,0.2,0.2,0.4,0.5,0.6c0.8,0.4,1.2,0.5,2.5,0.8c-1.1-0.7-1.4-1-2.2-1.4C15.3,7.8,15.1,7.8,15,7.8
		z M34.7,7.8c-0.1,0-0.3,0.1-0.5,0.1c-0.8,0.4-1.1,0.7-2.2,1.4c1.2-0.3,1.7-0.4,2.5-0.8c0.3-0.2,0.6-0.4,0.5-0.6
		C34.9,7.8,34.8,7.7,34.7,7.8z M14.6,8.6c-0.1,0-0.3,0.1-0.3,0.2c-0.1,0.2,0.2,0.4,0.6,0.6c0.8,0.3,1.3,0.3,2.5,0.6
		c-1.1-0.6-1.5-0.9-2.3-1.2C14.9,8.7,14.7,8.6,14.6,8.6z M35.1,8.6c-0.1,0-0.3,0-0.5,0.1c-0.8,0.3-1.2,0.5-2.3,1.2
		c1.3-0.2,1.7-0.3,2.5-0.6c0.3-0.1,0.6-0.3,0.6-0.6C35.3,8.7,35.2,8.6,35.1,8.6z M14.4,9.5c-0.2,0-0.4,0-0.4,0.2
		c-0.1,0.2,0.3,0.4,0.6,0.5l0.1,0h1.8c-0.7-0.3-1.1-0.5-1.7-0.7C14.6,9.6,14.5,9.5,14.4,9.5z M35.3,9.5c-0.1,0-0.2,0-0.4,0.1
		c-0.6,0.2-1,0.4-1.7,0.7h1.8l0.1,0c0.3-0.1,0.7-0.3,0.6-0.5C35.6,9.6,35.5,9.5,35.3,9.5z"/>
</g>
</svg>
