<?xml version="1.0" encoding="utf-8"?>
<!-- Generator: Adobe Illustrator 19.1.0, SVG Export Plug-In . SVG Version: 6.00 Build 0)  -->
<svg version="1.1" id="Layer_1" xmlns="http://www.w3.org/2000/svg" xmlns:xlink="http://www.w3.org/1999/xlink" x="0px" y="0px"
	 viewBox="0 0 53 33.2" enable-background="new 0 0 53 33.2" xml:space="preserve">
<g>
	<path fill="#FFFFFF" d="M-12.7,83.5h79.5c3.1,0,5.7-2.6,5.7-5.7V-58.4c0-3.1-2.6-5.7-5.7-5.7h-79.5c-3.1,0-5.7,2.6-5.7,5.7V77.9
		C-18.4,81-15.8,83.5-12.7,83.5z"/>
	<path fill="none" stroke="#EDEDED" stroke-width="0.5" stroke-miterlimit="10" d="M-12.7,83.5h79.5c3.1,0,5.7-2.6,5.7-5.7V-58.4
		c0-3.1-2.6-5.7-5.7-5.7h-79.5c-3.1,0-5.7,2.6-5.7,5.7V77.9C-18.4,81-15.8,83.5-12.7,83.5z"/>
	<polygon fill="#00AFDD" points="52.9,33.1 52.9,33.1 0.1,33.1 0.1,0.1 52.9,0 52.9,33.1 	"/>
	<path d="M52.9,0.1v33H0.1v-33H52.9 M53,0h-0.1H0.1H0v0.1v33v0.1h0.1h52.8H53v-0.1V0L53,0z"/>
	<circle fill="#FFDB00" cx="23.2" cy="16.6" r="9.9"/>
</g>
</svg>
