<?xml version="1.0" encoding="utf-8"?>
<!-- Generator: Adobe Illustrator 19.1.0, SVG Export Plug-In . SVG Version: 6.00 Build 0)  -->
<svg version="1.1" id="Layer_1" xmlns="http://www.w3.org/2000/svg" xmlns:xlink="http://www.w3.org/1999/xlink" x="0px" y="0px"
	 viewBox="0 0 49.7 33.2" enable-background="new 0 0 49.7 33.2" xml:space="preserve">
<g>
	<path fill="#FFFFFF" d="M-14,83.6h79.5c3.1,0,5.7-2.6,5.7-5.7V-58.3c0-3.1-2.6-5.7-5.7-5.7H-14c-3.1,0-5.7,2.6-5.7,5.7V78
		C-19.7,81.1-17.1,83.6-14,83.6z"/>
	<path fill="none" stroke="#EDEDED" stroke-width="0.5" stroke-miterlimit="10" d="M-14,83.6h79.5c3.1,0,5.7-2.6,5.7-5.7V-58.3
		c0-3.1-2.6-5.7-5.7-5.7H-14c-3.1,0-5.7,2.6-5.7,5.7V78C-19.7,81.1-17.1,83.6-14,83.6z"/>
	<polygon fill="#FFFFFF" points="49.6,33.1 49.6,33.1 0.1,33.1 0,22.1 0,11.1 0,0.1 49.6,0.1 49.6,11.1 49.6,22.1 49.6,33.1 	"/>
	<path d="M49.6,0.1v11v11v11H0.1v-11v-11v-11H49.6 M49.7,0h-0.1H0.1H0v0.1v11v11v11v0.1h0.1h49.5h0.1v-0.1v-11v-11v-11V0z"/>
	<rect x="0.1" y="0.1" fill="#E52224" width="49.5" height="11"/>
	<rect x="0.1" y="12.9" fill="#30277F" width="49.5" height="7.3"/>
	<rect x="0.1" y="22.1" fill="#007C36" width="49.5" height="11"/>
</g>
</svg>
