<?xml version="1.0" encoding="utf-8"?>
<!-- Generator: Adobe Illustrator 19.1.0, SVG Export Plug-In . SVG Version: 6.00 Build 0)  -->
<svg version="1.1" id="Layer_1" xmlns="http://www.w3.org/2000/svg" xmlns:xlink="http://www.w3.org/1999/xlink" x="0px" y="0px"
	 viewBox="0 0 53 33.2" enable-background="new 0 0 53 33.2" xml:space="preserve">
<g>
	<path fill="#FFFFFF" d="M-13,83.3h79.5c3.1,0,5.7-2.6,5.7-5.7V-58.6c0-3.1-2.6-5.7-5.7-5.7H-13c-3.1,0-5.7,2.6-5.7,5.7V77.6
		C-18.7,80.7-16.2,83.3-13,83.3z"/>
	<path fill="none" stroke="#EDEDED" stroke-width="0.5" stroke-miterlimit="10" d="M-13,83.3h79.5c3.1,0,5.7-2.6,5.7-5.7V-58.6
		c0-3.1-2.6-5.7-5.7-5.7H-13c-3.1,0-5.7,2.6-5.7,5.7V77.6C-18.7,80.7-16.2,83.3-13,83.3z"/>
	<polygon points="52.9,33.2 52.9,33.2 0.1,33.2 0,0.1 52.9,0.1 52.9,33.1 	"/>
	<path d="M52.9,0.1v33H0.1v-33H52.9 M53,0L53,0H0.1H0v0.1v33v0.1h0.1h52.8H53v-0.1v-33V0z"/>
	<rect x="0.1" y="11.1" fill="#FFFFFF" width="52.8" height="11"/>
	<rect x="0.1" y="22.1" fill="#137D3B" width="52.8" height="11"/>
	<polygon fill="#E52023" points="0.1,0.1 26.5,16.6 0.1,33.1 	"/>
</g>
</svg>
