<?xml version="1.0" encoding="utf-8"?>
<!-- Generator: Adobe Illustrator 19.1.0, SVG Export Plug-In . SVG Version: 6.00 Build 0)  -->
<svg version="1.1" id="Layer_1" xmlns="http://www.w3.org/2000/svg" xmlns:xlink="http://www.w3.org/1999/xlink" x="0px" y="0px"
	 viewBox="0 0 53 26.6" enable-background="new 0 0 53 26.6" xml:space="preserve">
<g>
	<path fill="#FFFFFF" d="M-14.6,79.1H65c3.1,0,5.7-2.6,5.7-5.7V-62.8c0-3.1-2.6-5.7-5.7-5.7h-79.5c-3.1,0-5.7,2.6-5.7,5.7V73.4
		C-20.2,76.6-17.7,79.1-14.6,79.1z"/>
	<path fill="none" stroke="#EDEDED" stroke-width="0.5" stroke-miterlimit="10" d="M-14.6,79.1H65c3.1,0,5.7-2.6,5.7-5.7V-62.8
		c0-3.1-2.6-5.7-5.7-5.7h-79.5c-3.1,0-5.7,2.6-5.7,5.7V73.4C-20.2,76.6-17.7,79.1-14.6,79.1z"/>
	<polygon fill="#FFCE0F" points="52.9,26.5 52.9,26.5 0.1,26.5 0,0.1 52.9,0 52.9,26.5 	"/>
	<path d="M52.9,0.1v26.4H0.1V0.1H52.9 M53,0h-0.1H0.1H0v0.1v26.4v0.1h0.1h52.8H53v-0.1V0L53,0z"/>
	<rect x="10.6" y="2.3" fill="#EE711C" width="8.4" height="22"/>
	<rect x="2.3" y="2.3" fill="#1B7633" width="8.3" height="22"/>
	<rect x="21.2" y="2.3" fill="#B6203C" width="29.5" height="22"/>
	<path fill="#FFCE0F" d="M32.8,12.5l0.4,0c0,0-0.5,0.4-0.4,1c0.5-0.8,0.7-0.6,0.7-0.6c-0.2,0.2-0.5,0.4-0.2,0.9
		c0.2-0.5,0.6-0.9,0.6-0.9s-0.1,0.6,0.1,1.1c0.2-0.5,0.5-1,0.5-1s0,0.6,0.2,0.8c0.2-0.2,0.3-0.6,0.3-0.6s0.4,0.7,0.6,0.8
		c0.2-0.5,0.2-0.8,0.2-0.8s0.8,0.6,1.4,0.2c-0.6-0.2-0.7-0.7-0.7-0.7s1,0.4,1.4,0.2c-0.4-0.3-1.4-0.8-1.4-0.8s0.7,0.3,0.9,0.2
		c-0.1-0.1-0.4-0.3-0.4-0.3L32.8,12.5z"/>
	<path fill="none" stroke="#B6203C" stroke-width="0.1" stroke-linecap="round" stroke-linejoin="round" d="M32.8,12.5l0.4,0
		c0,0-0.5,0.4-0.4,1c0.5-0.8,0.7-0.6,0.7-0.6c-0.2,0.2-0.5,0.4-0.2,0.9c0.2-0.5,0.6-0.9,0.6-0.9s-0.1,0.6,0.1,1.1
		c0.2-0.5,0.5-1,0.5-1s0,0.6,0.2,0.8c0.2-0.2,0.3-0.6,0.3-0.6s0.4,0.7,0.6,0.8c0.2-0.5,0.2-0.8,0.2-0.8s0.8,0.6,1.4,0.2
		c-0.6-0.2-0.7-0.7-0.7-0.7s1,0.4,1.4,0.2c-0.4-0.3-1.4-0.8-1.4-0.8s0.7,0.3,0.9,0.2c-0.1-0.1-0.4-0.3-0.4-0.3L32.8,12.5z"/>
	<path fill="#FFCE0F" d="M38.9,7c1.3-0.1,3.4,1,4.5,1.7c0-0.2,0-0.5,0.2-0.6c0.2-0.1,0.6,0.1,0.5,0.5c-0.4,0.9-1.8-0.1-2.3-0.4
		l0.2,0.5c-0.7-0.1-0.9-0.2-1.3-0.9c-0.1,0.5-0.1,0.6-0.7,0.6c0.2-0.4,0.3-0.5,0-0.9l-0.1,0.7l-0.6-0.9v0.9
		c-0.1-0.1-0.6-0.5-0.9-0.5c-0.4-0.1-0.6,0.6-0.7,1c0.4-0.4,0.5-0.6,1.1-0.4c-0.3,0.3-0.2,0.7,0.1,1c0,0,0.1-0.5,0.1-0.6
		c0.2,0.1,0.6,0.7,1.1,0.7c0.4,0,0.7-0.1,1.1-0.2c1.2-0.1,3.9,0.1,3.3,2c-0.1,0.4-0.2,0.6-0.5,0.9c1.7,0.6,0.2,2.8-0.1,3.9
		c-0.2,1-0.1,1.8,1.1,1.6c-0.2,0.5-0.6,0.6-1.1,0.6c0,0,0.1,0.3,0.4,0.4c-0.5,0.5,0.2,1.2-0.1,1.5c-0.5,0.3-1.2-0.1-1.2-0.1l0,0.3
		L42,20.3l0.2-0.5c-0.2,0.4-0.5,0.6-1,0.5c0,0,0-0.2,0.3-0.5c-0.4,0.4-0.4,0.5-0.8,0.5c0-0.6,0.4-1.3,1.1-1.1c0.1,0,0.5,0.3,0.7,0.1
		c0.1-0.2,0.1-0.9,0.1-1.2c0.1-1.1-0.1-1-0.7-1.6c-0.5-0.4-0.8-0.9-1.5-1c-0.6-0.1-1.6,0.6-2.1,0.8c-1.2,0.7-2.3,1.2-3.7,1.5
		c0,0,0-0.1,0-0.2c0-0.1,1.3-1.1,1.5-2.9c-0.4,1.8-1.6,2.7-1.7,3c0,0.3-0.3,0.9-0.3,0.9c0.2-0.1,0.7-0.3,1.3-0.4
		c-0.1,0.8-0.9,0.6-1,1c0,0.4,0.5,0.9,0,1.1h-2c0,0,0.3-0.4,0.3-0.5c-0.3,0.2-0.4,0.6-1,0.5c0-0.2,0.3-0.4,0.2-0.5
		c-0.3,0.3-0.5,0.6-0.9,0.5c0.1-0.4,0.1-0.9,0.6-0.9c0.4-0.1,0.7,0.1,1-0.2c0.5-0.6-0.1-1.9-0.2-2.7c0-0.6,0-0.7-0.2-1.5l0.1,2.2
		c-0.5-0.4-1-0.6-1.3-1.1c-0.9-1.1-0.6-2.3,0.5-3c0.5-0.4,0.8-0.6,1.4-0.8c-0.1-0.4,0.2-0.6-0.3-0.8c-0.1,0.2-0.3,0.5-0.5,0.5
		l0.1-0.6c0,0-0.4,0-0.4,0.8c-0.5-0.2-0.3-0.8-0.3-0.8h-0.2c0,0,0,0.7-0.4,0.9c0.1-0.3,0.2-0.9,0.2-0.9s-0.7,0.8-1,0.5
		c0.2-0.3,0.4-0.3,0.4-0.6c0-0.3-0.2-0.7-0.2-0.8c0.1,0.1,1.1,0.3,1.6,0.1c0,0.2,0,0.4,0,0.4c0.6-0.1,0.7-0.1,1.3,0.1
		c-0.1-0.9-0.6-1-1.1-1.6v0.5c-0.5-0.1-0.6-0.2-0.9-0.7l-0.4,0.2c-0.6-0.4-1.1-1.3-0.2-1.2C31.5,8.4,31,8.9,31,8.9s1.4-0.4,2-0.5
		c0,0-0.2-0.3-0.7-0.4c0.4-0.3,0.9-0.4,1.2,0.3c0.3,0,0.6-0.4,0.4-0.8c0.5,0,0.7,0.3,0.9,0.6c0.2,0,0.3-0.1,0.3-0.8
		c0.4,0.4,0.6,0.5,0.7,0.8c0.4,0.1,0.6,0,1.2-0.2c-0.1,0.5-0.1,0.6-0.6,0.9c0.3,0.4,0.4,0.9,0.3,1.1c-0.1,0-0.1,0-0.2-0.1
		c0,0.2,0.1,0.7,0,1h-0.2l0.4,1.1l-0.2,0.4c0.9-0.4,1.7-0.2,2.6-0.5c1-0.1,2-0.5,3.1-0.5c0.7,0,0.7,0.4,1.7,0.4c0-0.2,0-0.4,0-0.6
		c0-0.5-0.4-1-1-1.1c-0.4,0-1,0.2-1.3,0.4c-0.5,0.1-1.2,0.1-1.7,0.1c-1.6-0.2-1.3-0.4-1.9-0.7c-0.3,0.1-0.5,0.4-0.7,0.9
		c-0.3-0.5-0.2-1,0.1-1.3C36.7,7.9,37.7,7.3,38.9,7z"/>
	<path fill="#FFCE0F" d="M39.3,18c-0.2-0.4-1.1-1-0.9-1.6c0.4-0.6,2.4-1.6,2.8-0.2c0.1,0.4-0.3,1.3-0.4,1.7c0.2,0,0.4-0.3,1-0.2
		c-0.1,0.5-0.8,0.8-0.8,0.8c0.1,0.3-0.5,1.8-0.5,1.8h-1.6l0.2-0.5l-0.4,0.5h-0.6l0.5-0.6c0,0-0.6,0.7-1.1,0.6c0.1-1,0.7-1.1,1.6-0.8
		C39.3,19.1,39.5,18.5,39.3,18z"/>
	<path fill="none" stroke="#B6203C" stroke-width="0.1" stroke-linejoin="round" d="M39.3,18c-0.2-0.4-1.1-1-0.9-1.6
		c0.4-0.6,2.4-1.6,2.8-0.2c0.1,0.4-0.3,1.3-0.4,1.7c0.2,0,0.4-0.3,1-0.2c-0.1,0.5-0.8,0.8-0.8,0.8c0.1,0.3-0.5,1.8-0.5,1.8h-1.6
		l0.2-0.5l-0.4,0.5h-0.6l0.5-0.6c0,0-0.6,0.7-1.1,0.6c0.1-1,0.7-1.1,1.6-0.8C39.3,19.1,39.5,18.5,39.3,18z"/>
	<path fill="#FFCE0F" d="M32.8,8.8c-0.2,0.1,0,0.8,0.2,0.7C33.3,9.4,32.9,8.8,32.8,8.8z"/>
	<path fill="none" stroke="#B6203C" stroke-width="0.1" d="M32.8,8.8c-0.2,0.1,0,0.8,0.2,0.7C33.3,9.4,32.9,8.8,32.8,8.8z"/>
	<path fill="#FFCE0F" d="M30.3,10c0,0.1,0.2,1,1.7,0.6c0.1-0.1,0.1,0.3,0.1,0.4c0.1,0,0.8-0.3,1.3,0.1c-0.1-0.4-0.2-0.7-0.6-0.9
		c-0.2,0-0.4,0.1-0.4,0.1S30.6,10.3,30.3,10z"/>
	<path fill="none" stroke="#B6203C" stroke-width="0.1" stroke-linecap="round" stroke-linejoin="round" d="M30.3,10
		c0,0.1,0.2,1,1.7,0.6c0.1-0.1,0.1,0.3,0.1,0.4c0.1,0,0.8-0.3,1.3,0.1c-0.1-0.4-0.2-0.7-0.6-0.9c-0.2,0-0.4,0.1-0.4,0.1
		S30.6,10.3,30.3,10z"/>
	<path fill="#FFCE0F" d="M29.5,16.3c0,0.1-0.1,0.1-0.3,0.5c0.1,0.1,0.6,0.4,0.7,0.2C30,17,30,16.7,30,16.7c0.2,0.4,0.7,0.9,1.2,1.1
		c0.4,0.1,0.7-0.1,0.7-0.5c0-0.4-0.6-1-0.8-1.2c-0.6-0.7-0.6-2.1-1.7-1.9c0,0-0.1,0.2-0.2,0.2c0.1,0.2,0.1,0.3-0.1,0.4
		c0.2,0.2,0.2,0.3,0,0.4c0.1,0.2,0.3,0.2,0,0.4C29.4,15.8,29.5,16.2,29.5,16.3z"/>
	<path fill="none" stroke="#B6203C" stroke-width="0.1" stroke-linecap="round" stroke-linejoin="round" d="M29.5,16.3
		c0,0.1-0.1,0.1-0.3,0.5c0.1,0.1,0.6,0.4,0.7,0.2C30,17,30,16.7,30,16.7c0.2,0.4,0.7,0.9,1.2,1.1c0.4,0.1,0.7-0.1,0.7-0.5
		c0-0.4-0.6-1-0.8-1.2c-0.6-0.7-0.6-2.1-1.7-1.9c0,0-0.1,0.2-0.2,0.2c0.1,0.2,0.1,0.3-0.1,0.4c0.2,0.2,0.2,0.3,0,0.4
		c0.1,0.2,0.3,0.2,0,0.4C29.4,15.8,29.5,16.2,29.5,16.3z"/>
	<path fill="#FFCE0F" d="M29.2,6c-0.4,0.5-0.4,6.4-0.3,7.6c-0.4,0.2-1.1,0.1-1.2,0.1C27.8,13.2,28.1,6.4,29.2,6z"/>
	<path fill="none" stroke="#B6203C" stroke-width="0.1" d="M29.2,6c-0.4,0.5-0.4,6.4-0.3,7.6c-0.4,0.2-1.1,0.1-1.2,0.1
		C27.8,13.2,28.1,6.4,29.2,6z"/>
	<path fill="#FFCE0F" d="M28.2,18c0,0-1.6,0.2-0.9-0.7c0.6-0.3,0.6,0.3,0.4,0.5c0.3,0,0.4-0.1,0.5-0.4c-0.3-0.4,0.1-0.7,0.1-0.7
		c-1.1,0.3-1.3-0.5-0.9-0.6c0.5,0,0.4,0.2,0.6,0.4c0.4-0.4,0.6-0.4,0.8,0C29,16,29.3,16,29.3,16c0.4,0.6-0.4,0.7-0.8,0.6
		c0.3,0.3,0.2,0.6,0.1,0.8c0,0.2,0.2,0.2,0.4,0.3c-0.6-1.5,2,0.4-0.6,0.2l0,0.2c0.2,0,0.3,0.1,0.4,0.3c-0.1,0.1-0.2,0.1-0.4,0.1
		c0,0,0.1,0.4-0.1,0.5c-0.2-0.1-0.2-0.4-0.2-0.4c-0.1,0.1-0.3,0-0.4-0.1C27.9,18.2,28.2,18.4,28.2,18z"/>
	<path fill="#FFCE0F" d="M26.8,13.3c0.1-0.4,1.1-0.4,0.6,0.1c0.3,0.5,1.3,0.4,1.7,0.2c-0.3-0.6,0.5-0.5,0.5,0
		C29.5,14.3,26.7,14.2,26.8,13.3z"/>
	<path fill="#FFCE0F" d="M47.1,21c0.3,0.6,0.8,1.9,1.1,2.2c0.3,0.3,1,0.2,1.2-0.1c0,0,0.4,0.5,0.6,0.6c0.1,0,0.2-0.1,0.2-0.1
		c-0.2-0.2-0.4-0.3-0.6-0.7c0.2-0.2,0.3-0.7,0.2-1.1C49.3,21,47.5,21.4,47.1,21z"/>
	<path fill="none" stroke="#B6203C" stroke-width="0.1" d="M47.1,21c0.3,0.6,0.8,1.9,1.1,2.2c0.3,0.3,1,0.2,1.2-0.1
		c0,0,0.4,0.5,0.6,0.6c0.1,0,0.2-0.1,0.2-0.1c-0.2-0.2-0.4-0.3-0.6-0.7c0.2-0.2,0.3-0.7,0.2-1.1C49.3,21,47.5,21.4,47.1,21z"/>
	<path fill="#FFCE0F" d="M24.9,5.5c-0.3-0.6-0.8-1.9-1.1-2.2c-0.3-0.3-1-0.2-1.2,0.1c0,0-0.4-0.5-0.6-0.6c-0.1,0-0.2,0.1-0.2,0.1
		c0.2,0.2,0.4,0.3,0.5,0.7c-0.2,0.2-0.3,0.7-0.2,1.1C22.7,5.5,24.4,5.2,24.9,5.5z"/>
	<path fill="none" stroke="#B6203C" stroke-width="0.1" d="M24.9,5.5c-0.3-0.6-0.8-1.9-1.1-2.2c-0.3-0.3-1-0.2-1.2,0.1
		c0,0-0.4-0.5-0.6-0.6c-0.1,0-0.2,0.1-0.2,0.1c0.2,0.2,0.4,0.3,0.5,0.7c-0.2,0.2-0.3,0.7-0.2,1.1C22.7,5.5,24.4,5.2,24.9,5.5z"/>
	<path fill="#FFCE0F" d="M24.7,21c-0.6,0.3-1.9,0.8-2.2,1.1c-0.3,0.3-0.2,1,0.1,1.2c0,0-0.5,0.4-0.6,0.6c0,0.1,0.1,0.2,0.1,0.2
		c0.2-0.2,0.3-0.4,0.7-0.6c0.2,0.2,0.7,0.3,1.1,0.2C24.7,23.2,24.4,21.4,24.7,21z"/>
	<path fill="none" stroke="#B6203C" stroke-width="0.1" d="M24.7,21c-0.6,0.3-1.9,0.8-2.2,1.1c-0.3,0.3-0.2,1,0.1,1.2
		c0,0-0.5,0.4-0.6,0.6c0,0.1,0.1,0.2,0.1,0.2c0.2-0.2,0.3-0.4,0.7-0.6c0.2,0.2,0.7,0.3,1.1,0.2C24.7,23.2,24.4,21.4,24.7,21z"/>
	<path fill="#FFCE0F" d="M47.1,5.5c0.3-0.6,0.8-1.9,1.1-2.2c0.3-0.3,1-0.2,1.2,0.1c0,0,0.4-0.5,0.6-0.6c0.1,0,0.2,0.1,0.2,0.1
		c-0.2,0.2-0.4,0.3-0.6,0.7c0.2,0.2,0.3,0.7,0.2,1.1C49.3,5.5,47.5,5.2,47.1,5.5z"/>
	<path fill="none" stroke="#B6203C" stroke-width="0.1" d="M47.1,5.5c0.3-0.6,0.8-1.9,1.1-2.2c0.3-0.3,1-0.2,1.2,0.1
		c0,0,0.4-0.5,0.6-0.6c0.1,0,0.2,0.1,0.2,0.1c-0.2,0.2-0.4,0.3-0.6,0.7c0.2,0.2,0.3,0.7,0.2,1.1C49.3,5.5,47.5,5.2,47.1,5.5z"/>
	<path fill="#FFCE0F" d="M27.2,14.3c0,0.2,0.4,0.3,0.9,0.3c0.5,0,0.9-0.1,0.9-0.2c0-0.2-0.4,0-0.9,0C27.7,14.3,27.4,14.1,27.2,14.3z
		"/>
	<path fill="none" stroke="#FFCE0F" stroke-width="0.1" stroke-linejoin="round" d="M27.2,14.3c0,0.2,0.4,0.3,0.9,0.3
		c0.5,0,0.9-0.1,0.9-0.2c0-0.2-0.4,0-0.9,0C27.7,14.3,27.4,14.1,27.2,14.3z"/>
	<path fill="#FFCE0F" d="M27.3,14.8c0,0.2,0.4,0.2,0.8,0.2c0.4,0,0.8-0.1,0.8-0.2c-0.1-0.2-0.5,0-0.8,0
		C27.8,14.8,27.4,14.6,27.3,14.8z"/>
	<path fill="none" stroke="#FFCE0F" stroke-width="0.1" stroke-linejoin="round" d="M27.3,14.8c0,0.2,0.4,0.2,0.8,0.2
		c0.4,0,0.8-0.1,0.8-0.2c-0.1-0.2-0.5,0-0.8,0C27.8,14.8,27.4,14.6,27.3,14.8z"/>
	<path fill="#FFCE0F" d="M27.4,15.3c0,0.1,0.4,0.2,0.7,0.2c0.4,0,0.9-0.1,0.9-0.3c0-0.1-0.5,0-0.9,0C27.8,15.3,27.4,15.1,27.4,15.3z
		"/>
	<path fill="none" stroke="#FFCE0F" stroke-width="0.1" stroke-linejoin="round" d="M27.4,15.3c0,0.1,0.4,0.2,0.7,0.2
		c0.4,0,0.9-0.1,0.9-0.3c0-0.1-0.5,0-0.9,0C27.8,15.3,27.4,15.1,27.4,15.3z"/>
	<path fill="#FFCE0F" d="M27.4,15.7c0,0.1,0.5,0.2,0.9,0.1c0.4,0,0.8-0.1,0.8-0.3c0-0.1-0.5,0.1-0.8,0.1
		C27.8,15.7,27.4,15.6,27.4,15.7z"/>
	<path fill="none" stroke="#FFCE0F" stroke-width="0.1" stroke-linejoin="round" d="M27.4,15.7c0,0.1,0.5,0.2,0.9,0.1
		c0.4,0,0.8-0.1,0.8-0.3c0-0.1-0.5,0.1-0.8,0.1C27.8,15.7,27.4,15.6,27.4,15.7z"/>
</g>
</svg>
