<?xml version="1.0" encoding="utf-8"?>
<!-- Generator: Adobe Illustrator 19.1.0, SVG Export Plug-In . SVG Version: 6.00 Build 0)  -->
<svg version="1.1" id="Layer_1" xmlns="http://www.w3.org/2000/svg" xmlns:xlink="http://www.w3.org/1999/xlink" x="0px" y="0px"
	 viewBox="0 0 52.8 26.5" enable-background="new 0 0 52.8 26.5" xml:space="preserve">
<g>
	<path fill="#FFFFFF" d="M-12.6,79.3h79.5c3.1,0,5.7-2.6,5.7-5.7V-62.6c0-3.1-2.6-5.7-5.7-5.7h-79.5c-3.1,0-5.7,2.6-5.7,5.7V73.6
		C-18.3,76.7-15.8,79.3-12.6,79.3z"/>
	<path fill="none" stroke="#EDEDED" stroke-width="0.5" stroke-miterlimit="10" d="M-12.6,79.3h79.5c3.1,0,5.7-2.6,5.7-5.7V-62.6
		c0-3.1-2.6-5.7-5.7-5.7h-79.5c-3.1,0-5.7,2.6-5.7,5.7V73.6C-18.3,76.7-15.8,79.3-12.6,79.3z"/>
	<polygon fill="#352875" points="52.8,26.5 52.7,26.5 0.1,26.5 0,0.1 52.7,0.1 52.8,26.4 	"/>
	<path d="M52.7,0.1v26.3H0.1V0.1H52.7 M52.8,0h-0.1H0.1H0v0.1v26.3v0.1h0.1h52.6h0.1v-0.1V0.1V0z"/>
	<polygon fill="#FFFFFF" points="13.3,15.9 14,18.3 16.3,17.4 15,19.4 17.1,20.7 14.6,20.9 15,23.4 13.3,21.6 11.5,23.4 11.9,20.9 
		9.4,20.7 11.5,19.4 10.2,17.4 12.5,18.3 	"/>
	<polygon fill="#FFFFFF" points="39.6,20.1 39.9,21.3 41,20.9 40.4,21.8 41.4,22.4 40.2,22.5 40.4,23.7 39.6,22.9 38.7,23.7 
		38.9,22.5 37.7,22.4 38.7,21.8 38.1,20.9 39.2,21.3 	"/>
	<polygon fill="#FFFFFF" points="33,9.7 33.3,10.9 34.5,10.4 33.8,11.4 34.8,12 33.6,12.1 33.8,13.3 33,12.4 32.2,13.3 32.3,12.1 
		31.2,12 32.2,11.4 31.5,10.4 32.6,10.9 	"/>
	<polygon fill="#FFFFFF" points="39.6,2.6 39.9,3.7 41,3.3 40.4,4.3 41.4,4.9 40.2,5 40.4,6.2 39.6,5.3 38.7,6.2 38.9,5 37.7,4.9 
		38.7,4.3 38.1,3.3 39.2,3.7 	"/>
	<polygon fill="#FFFFFF" points="45.4,8 45.8,9.1 46.9,8.7 46.2,9.7 47.2,10.3 46.1,10.4 46.2,11.5 45.4,10.7 44.6,11.5 44.8,10.4 
		43.6,10.3 44.6,9.7 43.9,8.7 45,9.1 	"/>
	<polygon fill="#FFFFFF" points="42.2,13.3 42.5,14 43.2,14 42.7,14.5 42.8,15.2 42.2,14.8 41.5,15.2 41.7,14.5 41.2,14 41.9,14 	
		"/>
	<polygon fill="#FFFFFF" points="26.4,0.1 23.5,0.1 15.4,4.1 15.4,0.1 11.1,0.1 11.1,4.1 3,0.1 0.1,0.1 0.1,1.6 5.9,4.5 0.1,4.5 
		0.1,8.9 5.9,8.9 0.1,11.8 0.1,13.3 3,13.3 11.1,9.2 11.1,13.3 15.4,13.3 15.4,9.2 23.5,13.3 26.4,13.3 26.4,11.8 20.6,8.9 
		26.4,8.9 26.4,4.5 20.6,4.5 26.4,1.6 	"/>
	<polygon fill="#E5251D" points="11.9,0.1 14.6,0.1 14.6,5.4 26.4,5.4 26.4,8 14.6,8 14.6,13.3 11.9,13.3 11.9,8 0.1,8 0.1,5.4 
		11.9,5.4 	"/>
	<path fill="#E5251D" d="M8.9,4.5h-2L0.1,1.1v-1 M26.4,0.1h-2l-8.8,4.4h2"/>
	<path fill="#E5251D" d="M26.4,13.3l-8.8-4.4h2l6.8,3.4V13.3z M0.1,13.3h2l8.8-4.4h-2L0.1,13.3z"/>
</g>
</svg>
