<?xml version="1.0" encoding="utf-8"?>
<!-- Generator: Adobe Illustrator 19.1.0, SVG Export Plug-In . SVG Version: 6.00 Build 0)  -->
<svg version="1.1" id="Layer_1" xmlns="http://www.w3.org/2000/svg" xmlns:xlink="http://www.w3.org/1999/xlink" x="0px" y="0px"
	 viewBox="0 0 50 33.3" enable-background="new 0 0 50 33.3" xml:space="preserve">
<g>
	<path fill="#FFFFFF" d="M-14.8,83.5h79.5c3.1,0,5.7-2.6,5.7-5.7V-58.4c0-3.1-2.6-5.7-5.7-5.7h-79.5c-3.1,0-5.7,2.6-5.7,5.7V77.8
		C-20.5,80.9-17.9,83.5-14.8,83.5z"/>
	<path fill="none" stroke="#EDEDED" stroke-width="0.5" stroke-miterlimit="10" d="M-14.8,83.5h79.5c3.1,0,5.7-2.6,5.7-5.7V-58.4
		c0-3.1-2.6-5.7-5.7-5.7h-79.5c-3.1,0-5.7,2.6-5.7,5.7V77.8C-20.5,80.9-17.9,83.5-14.8,83.5z"/>
	<polygon fill="#2A3282" points="0.3,0.2 49.8,0.2 0.3,33.2 	"/>
	<polygon fill="none" stroke="#000000" stroke-width="0.1" points="0.3,0.2 49.8,0.2 0.3,33.2 	"/>
	<polygon fill="#009B42" points="49.9,33.2 49.8,33.2 0.3,33.2 49.8,0.1 49.9,33.2 	"/>
	<path d="M49.8,0.2v33H0.3L49.8,0.2 M49.9,0l-0.2,0.1l-49.5,33L0,33.3h0.3h49.5h0.1v-0.1v-33V0z"/>
	<polygon fill="#FFD009" points="15,12 12.6,11.6 13,14.1 11.1,12.5 10.3,14.8 9.4,12.5 7.5,14.1 7.9,11.6 5.5,12 7.1,10.1 4.8,9.3 
		7.1,8.4 5.5,6.5 7.9,7 7.5,4.5 9.4,6.1 10.3,3.8 11.1,6.1 13,4.5 12.6,7 15,6.5 13.4,8.4 15.8,9.3 13.4,10.1 	"/>
	<circle fill="#2A3282" cx="10.3" cy="9.3" r="3.3"/>
	<circle fill="#FFD009" cx="10.3" cy="9.3" r="2.8"/>
	<polygon fill="#FFFFFF" points="0.3,26.5 39.8,0.2 49.8,0.2 49.8,6.8 10.3,33.2 0.3,33.2 	"/>
	<polygon fill="#E62336" points="0.3,28.2 42.3,0.2 49.8,0.2 49.8,5.1 7.7,33.2 0.3,33.2 	"/>
</g>
</svg>
